<svg width="512" height="512" viewBox="0 0 512 512" fill="none" xmlns="http://www.w3.org/2000/svg">
<path d="M89.2373 442.678C98.8732 406.71 126.789 302.519 136.877 264.869C129.009 257.001 119.546 247.947 112.007 230.579C101.933 207.503 104.007 194.89 104.007 139.999C104.007 67.0997 163.107 7.99994 236.007 7.99994H292.007C364.627 7.99994 424.006 66.8317 424.006 139.999C424.006 207.438 424.006 17.8949 424.006 303.999C424.006 321.678 409.687 335.999 392.006 335.999C378.976 335.999 367.756 328.199 362.766 317.019C372.845 354.631 384.578 398.413 394.636 435.958C397.206 445.558 395.646 455.298 391.046 463.278C375.064 490.848 333.4 485.602 325.086 454.588C318.989 431.836 287.584 314.617 281.717 292.719C280.439 293.695 279.883 293.859 280.007 293.859V467.998C280.007 477.938 275.977 486.938 269.467 493.458C246.939 515.951 208.007 500.111 208.007 467.998V295.999H203.087C195.16 325.578 164.135 441.349 158.787 461.308C150.468 492.34 108.802 497.556 92.8273 469.998C88.2273 462.018 86.6673 452.278 89.2373 442.678Z" fill="#F9CFAC"/>
<path d="M211.759 468.033C211.759 497.005 244.159 513.776 267.759 497.973V312.033H211.759V468.033Z" fill="#FFE4CC"/>
<path d="M162.54 461.344C168.976 437.323 196.83 333.385 202.55 312.034C190.522 312.034 173.261 312.669 154 299.264C151.37 297.444 148.84 295.434 146.44 293.234C99.132 479.416 107.292 447.731 100 474.934C118.347 497.229 154.904 489.828 162.54 461.344Z" fill="#FFE4CC"/>
<path d="M155.36 279.634C165.86 290.134 180.1 296.034 194.96 296.034H275.759C308.007 296.034 290.003 224.035 235.759 224.035H196C190.489 216.454 187.76 207.867 187.76 198.975C244.281 191.44 287.853 144.803 291.509 87.7953C291.789 83.4753 295.399 80.1353 299.719 80.2653C304.109 80.3963 307.753 84.0753 307.479 88.7353C303.979 143.736 267.821 190.039 217.79 208.035H235.759C270.814 208.035 299.517 233.057 306.239 265.295C309.195 279.363 308.611 292.425 298.409 302.644C295.839 305.204 292.919 307.274 289.769 308.814C295.627 330.678 322.52 431.042 328.839 454.624C336.777 484.232 375.511 490.687 392.949 466.184L352.639 325.104C349.342 318.376 347.759 311.177 347.759 304.034V232.035C347.759 202.513 374.424 179.741 403.759 184.705V156.035C403.759 95.6252 363.159 44.6854 307.759 29.0155C307.759 28.5105 287.729 24.5365 287.729 25.0155C277.061 23.7125 276.376 24.0355 215.76 24.0355C193.87 24.0355 173.22 29.3655 155.05 38.7955C126.14 63.0154 107.76 99.3752 107.76 140.035C107.76 194.256 105.707 207.588 115.76 230.615C124.511 250.774 135.519 259.793 155.36 279.634Z" fill="#FFE4CC"/>
<path d="M240 242C226.192 245.538 216 258.085 216 272.99V344.99C216 369.72 242.846 384.926 264 372.71V272.99C264 258.081 253.8 245.551 240 242Z" fill="#FFE4CC"/>
<path d="M85.9133 474.011C105.447 507.708 156.365 501.255 166.521 463.379L200.013 338.4V467.998C200.013 507.332 247.637 526.57 275.134 499.111C283.439 490.793 288.013 479.744 288.013 467.998V347.107L317.365 456.66C323.646 480.09 347.818 494.047 371.251 487.776C394.558 481.537 408.709 457.564 402.37 433.888L377.557 341.285C403.666 351.444 432.013 332.103 432.013 303.999V139.999C432.013 62.8037 369.209 1.52588e-05 292.014 1.52588e-05H236.014C196.499 1.52588e-05 158.627 16.8269 132.11 46.1648C129.147 49.4428 129.402 54.5008 132.68 57.4638C135.957 60.4268 141.017 60.1698 143.979 56.8928C167.469 30.9039 201.015 15.9989 236.014 15.9989H292.014C360.387 15.9989 416.013 71.6247 416.013 139.998V200.021C389.897 180.371 352.013 198.962 352.013 231.999C352.013 310.532 350.956 309.66 355.181 319.598L386.914 438.027C388.849 445.254 387.857 452.802 384.131 459.266C371.658 480.784 339.261 476.546 332.82 452.517L290.652 295.13C307.701 274.165 283.839 215.999 232.014 215.999H196.581C194.818 212.932 193.451 209.557 192.668 205.623C252.099 194.016 296.014 141.317 296.014 79.9997C296.014 75.5817 292.432 71.9997 288.014 71.9997C288.014 71.9997 280.014 75.5817 280.014 79.9997C280.014 123.884 254.313 162.721 216.506 180.966C206.14 185.969 194.863 189.423 182.957 191.009C178.982 191.539 176.014 194.929 176.014 198.939C176.014 213.323 183.016 226.598 187.052 230.069C190.124 232.704 189.335 231.999 232.014 231.999C258.482 231.999 280.014 253.532 280.014 279.999C280.014 284.434 276.447 287.999 272.014 287.999H191.214C178.39 287.999 166.335 283.007 157.271 273.942L137.792 254.462C121.782 238.453 112.015 216.272 112.015 192.239C112.015 138.576 111.09 130.385 114.963 112.989C116.079 107.973 112.252 103.248 107.147 103.248C103.482 103.248 100.176 105.784 99.3462 109.511C97.1362 119.438 96.0153 129.695 96.0153 139.999C96.0153 193.983 93.7973 208.848 104.676 233.765C110.667 247.565 118.246 257.544 127.962 267.261L81.5183 440.61C78.4773 451.959 80.0353 463.816 85.9133 474.011ZM368.012 231.999C368.012 218.765 378.778 207.999 392.012 207.999C405.246 207.999 416.012 218.765 416.012 231.999V303.999C416.012 317.233 405.246 327.999 392.012 327.999C380.535 327.999 369.849 319.791 368.134 306.422C367.96 304.695 368.012 310.987 368.012 231.999ZM272.013 467.998C272.013 483.618 259.344 495.998 244.013 495.998C228.574 495.998 216.013 483.437 216.013 467.998V303.999H272.013V467.998ZM96.9713 444.749L141.024 280.325L145.955 285.256C158.149 297.45 173.783 303.999 192.666 303.999L151.065 459.236C147.068 474.148 131.69 483.035 116.771 479.04C101.907 475.062 92.9443 459.79 96.9713 444.749Z" fill="black"/>
<path d="M384 142C372.493 146.9 364 164.278 364 184.922V284.645C364 318.897 386.372 339.957 404 323.038V184.922C404 164.273 395.5 146.918 384 142Z" fill="#FFE4CC"/>
<path d="M399.5 141C408.418 145.9 415 163.278 415 183.922V283.645C415 317.897 397.662 338.957 384 322.038V183.922C384 163.273 390.587 145.918 399.5 141Z" fill="#FFE4CC"/>
<path d="M294.687 41.235C280.698 44.3128 270.163 56.0898 269.848 70.3494L148 184.5C147.564 204.252 141.483 288.316 184 303C173.804 309.5 314.654 309.852 318.217 308V71.4165C318.532 57.1531 308.518 44.939 294.687 41.235Z" fill="#FFE4CC"/>
<path d="M168.034 177.365C154.045 180.443 143.51 192.22 143.195 206.479L141.09 276.5C140.568 300.159 170.08 280.171 191.655 268.954L191.565 207.547C191.879 193.283 181.865 181.069 168.034 177.365Z" fill="#FFE4CC"/>
<path d="M370 159C350.439 162.529 336 190.01 336 204.879V293.185C336 317.855 374.032 311.358 404 299.171V189.914C404 175.042 389.55 162.542 370 159Z" fill="#FFE4CC"/>
<path d="M114.27 88.2556C118.222 90.2316 123.028 88.6306 125.003 84.6776C125.55 83.5846 126.114 82.4907 126.69 81.4167C129.554 76.0687 125.64 69.6386 119.645 69.6386C114.146 69.6386 112.428 74.0496 110.693 77.5226C108.717 81.4746 110.319 86.2796 114.27 88.2556Z" fill="black"/>
<path d="M195.359 195.965C180.063 196.909 165.232 210.819 159.921 230.641L134.265 326.391C125.453 359.278 147.323 386.812 173.178 376.328L208.712 243.714C214.024 223.887 208.121 204.446 195.359 195.965Z" fill="#FFE4CC"/>
</svg>
