<svg width="512" height="512" viewBox="0 0 512 512" fill="none" xmlns="http://www.w3.org/2000/svg">
<g clip-path="url(#clip0)">
<path d="M319.757 96.0417H371.998C444.899 96.0417 504 155.143 504 228.044C504 288.104 505.286 297.935 499.03 320.046C483.359 375.447 432.419 416.047 371.998 416.047C304.577 416.047 494.084 416.047 207.995 416.047C199.154 416.047 191.154 412.467 185.364 406.677C165.397 386.711 179.388 352.046 207.995 352.046H179.994C170.054 352.046 161.054 348.016 154.534 341.506C132.04 318.978 147.881 280.045 179.994 280.045H43.9918C34.0516 280.045 25.0514 276.015 18.5313 269.505C-3.96206 246.976 11.8782 208.044 43.9918 208.044H59.9921C50.0519 208.044 41.0517 204.014 34.5316 197.503C12.0382 174.975 27.8785 136.042 59.9921 136.042H239.995L251.875 124.162C269.887 106.152 294.297 96.0417 319.757 96.0417Z" fill="#F9CFAC"/>
<path d="M303.106 308.045C299.456 291.989 285.117 280.045 267.996 280.045H179.994C151.022 280.045 134.25 312.445 150.054 336.046H267.996C285.126 336.046 299.466 324.076 303.106 308.045Z" fill="#FFE4CC"/>
<path d="M310.986 376.047C307.448 362.238 294.901 352.046 279.996 352.046H207.995C183.264 352.046 168.058 378.893 180.274 400.047H279.996C294.906 400.047 307.436 389.847 310.986 376.047Z" fill="#FFE4CC"/>
<path d="M217.366 136.042H59.9921C31.0195 136.042 14.2483 168.443 30.0515 192.043H164.934C168.159 184.072 167.606 185.812 217.366 136.042Z" fill="#FFE4CC"/>
<path d="M251.875 124.162C177.32 198.718 181.657 193.704 179.954 197.663C177.404 203.494 178.504 210.544 183.264 215.314C203.386 235.434 235.76 235.299 255.715 215.484C285.531 186.119 285.945 184.985 292.706 181.273C298.981 177.815 306.047 176.043 313.056 176.043C319.877 227.368 359.19 268.387 409.528 277.935C413.288 278.655 415.998 281.955 415.998 285.775C415.998 290.924 411.257 294.574 406.468 293.635C354.737 283.755 313.777 244.884 300.586 195.183C296.212 197.57 297.347 196.931 266.946 226.884C228.629 264.925 166.868 240.73 162.864 208.044H43.9918C15.0193 208.044 -1.75204 240.444 14.0513 264.045H267.136C309.95 264.045 335.184 312.377 310.026 346.626C323.747 357.697 330.211 375.002 327.327 392.047H360.997C434.327 392.047 493 332.466 493 260.045C493 201.671 494.832 187.36 485.94 161.363C463.019 122.282 420.578 96.0417 371.998 96.0417H319.757C294.297 96.0417 269.887 106.152 251.875 124.162Z" fill="#FFE4CC"/>
<path d="M246.219 118.506L236.682 128.043H59.992C21.0604 128.043 1.44401 175.13 28.5695 202.841C-1.42604 214.104 -9.69518 252.557 12.8792 275.166C21.1974 283.471 32.2466 288.045 43.9928 288.045H146.079C123.61 315.212 140.883 356.803 176.156 359.868C156.269 385.993 174.889 424.047 207.995 424.047H371.998C449.195 424.047 512 361.242 512 284.045V228.044C512 188.528 495.173 150.656 465.833 124.137C462.555 121.175 457.497 121.43 454.534 124.708C451.572 127.986 451.827 133.045 455.105 136.007C481.094 159.498 496 193.044 496 228.044V284.045C496 352.42 440.373 408.047 371.998 408.047H311.975C326.895 388.218 320.327 359.563 297.894 348.289C327.223 321.075 307.693 272.045 267.997 272.045C260.266 272.045 78.9614 272.045 43.9928 272.045C28.3885 272.045 15.9923 259.397 15.9923 244.044C15.9923 228.605 28.5535 216.044 43.9928 216.044H173.857C174.873 217.8 176.103 219.464 177.602 220.965C200.783 244.19 238.227 244.124 261.331 221.183C289.29 193.646 293.306 187.295 306.373 184.697C317.981 244.128 370.68 288.044 432 288.044C436.418 288.044 440 284.462 440 280.044C440 275.626 436.418 272.044 432 272.044C376.083 272.044 328.358 230.318 320.988 174.986C320.458 171.011 317.068 168.042 313.057 168.042C299.751 168.042 287.116 173.306 277.824 182.482L250.079 209.806C233.197 226.571 205.857 226.624 188.926 209.66C185.831 206.56 185.847 201.504 188.962 198.389C232.226 155.125 130.4 256.951 257.534 129.817C274.157 113.194 296.255 104.04 319.758 104.04C373.422 104.04 381.613 103.114 399.01 106.989C403.323 107.949 407.597 105.232 408.558 100.92C409.521 96.6017 406.801 92.3326 402.489 91.3716C383.256 87.0875 374.891 88.0396 319.759 88.0396C291.98 88.0416 265.864 98.8607 246.219 118.506ZM279.996 360.046C293.23 360.046 303.996 370.813 303.996 384.047C303.996 397.281 293.23 408.047 279.996 408.047H207.995C194.76 408.047 183.994 397.281 183.994 384.047C183.994 370.813 194.76 360.046 207.995 360.046H279.996ZM267.996 288.045C283.435 288.045 295.996 300.606 295.996 316.046C295.996 331.485 283.435 344.046 267.996 344.046C257.839 344.046 190.134 344.046 179.994 344.046C164.555 344.046 151.994 331.485 151.994 316.046C151.994 300.606 164.555 288.045 179.994 288.045H267.996ZM170.98 200.044H59.992C52.5149 200.044 45.4808 197.13 40.1927 191.85C22.7164 174.348 34.9636 144.043 59.992 144.043H220.682L177.648 187.076C173.989 190.735 171.78 195.294 170.98 200.044Z" fill="black"/>
<path d="M423.743 106.305C421.767 110.257 423.369 115.062 427.321 117.038C428.415 117.585 429.509 118.151 430.584 118.726C435.93 121.587 442.36 117.674 442.36 111.679C442.36 106.175 437.937 104.457 434.476 102.727C430.524 100.751 425.719 102.353 423.743 106.305Z" fill="black"/>
</g>
<defs>
<clipPath id="clip0">
<rect width="512" height="512" fill="white"/>
</clipPath>
</defs>
</svg>
