<svg width="533" height="533" viewBox="0 0 533 533" fill="none" xmlns="http://www.w3.org/2000/svg">
<path d="M420.828 327.895V378.197C420.828 448.391 363.921 505.298 293.726 505.298C237.656 505.298 222.927 506.867 199.036 498.615C156.863 484.14 127.32 450.305 116.863 410.559C111.315 389.547 112.703 390.205 112.703 243.392C112.703 234.88 116.15 227.177 121.725 221.602C140.95 202.375 174.328 215.847 174.328 243.392V216.431C174.328 206.86 178.208 198.194 184.477 191.916C206.169 170.257 243.656 185.509 243.656 216.431C243.656 200.562 241.921 188.411 253.804 176.509C272.846 157.497 305.584 166.507 311.992 192.773C311.992 192.869 311.815 192.799 313.003 192.493C312.906 192.396 312.984 195.442 312.984 62.3688C312.984 43.2141 328.505 27.7048 347.648 27.7048C366.79 27.7048 382.312 43.2266 382.312 62.3688V251.095L393.751 262.534C411.093 279.876 420.828 303.38 420.828 327.895Z" fill="#F9CFAC"/>
<path d="M382.313 62.3689V229.306C334.382 181.385 336.062 181.925 328.391 178.821V33.5399C351.115 18.3243 382.313 34.47 382.313 62.3689Z" fill="#FFE4CC"/>
<path d="M243.657 216.432V301.166C243.657 317.664 232.146 331.461 216.696 334.974C201.26 331.469 189.735 317.661 189.735 301.166V187.603C212.459 172.387 243.657 188.533 243.657 216.432Z" fill="#FFE4CC"/>
<path d="M312.985 201.025V285.76C312.985 302.257 301.475 316.055 286.024 319.567C270.589 316.062 259.063 302.254 259.063 285.76V172.196C281.787 156.981 312.985 173.127 312.985 201.025Z" fill="#FFE4CC"/>
<path d="M174.328 243.393V312.721C174.328 327.063 164.523 339.152 151.219 342.561C137.931 339.143 128.109 327.078 128.109 312.721V216.701C148.483 204.936 174.328 219.583 174.328 243.393Z" fill="#FFE4CC"/>
<path d="M420.828 327.895V378.197C420.828 417.348 403.13 452.359 375.293 475.68C357.797 484.76 337.913 489.893 316.836 489.893H262.914C223.657 489.893 188.097 472.103 164.401 443.106C162.984 441.368 159.259 436.516 159.259 436.356C159.259 435.556 158.806 434.844 158.113 434.459C156.884 433.76 138.324 406.355 136.188 372.525C135.755 368.306 135.813 360.727 135.813 358.294C151.989 361.031 168.744 355.007 179.489 341.713C179.775 341.287 190.316 351.236 208.993 351.236C226.491 351.236 242.323 342.119 251.312 327.905C258.479 332.501 266.548 335.165 274.959 335.714C247.963 358.369 230.822 391.416 228.52 427.593C228.255 432.083 231.768 435.623 235.992 435.749C240.152 435.874 243.628 432.658 243.897 428.498C247.45 373.099 289.881 328.632 343.797 321.444C343.797 316.019 342.699 310.749 340.763 306.029C336.707 296.171 333.186 294.02 305.82 266.233C286.652 246.93 286.7 215.716 305.984 196.471C312.036 190.453 321.753 190.536 327.726 196.51L393.751 262.535C411.093 279.877 420.828 303.381 420.828 327.895Z" fill="#FFE4CC"/>
<path d="M399.199 257.086L390.015 247.903V62.3687C390.015 24.5975 344.215 5.92122 317.682 32.4103C309.685 40.4187 305.281 51.0587 305.281 62.3687V168.306C282.817 149.805 248.751 159.04 238.623 186.187C213.042 161.119 169.873 177.334 166.796 212.734C141.642 193.585 105 211.515 105 243.391V378.196C105 452.526 165.473 513 239.804 513H293.726C315.936 513 337.96 507.48 357.416 497.034C361.164 495.021 362.571 490.352 360.559 486.603C358.546 482.855 353.875 481.447 350.128 483.459C332.905 492.707 313.402 497.594 293.725 497.594H239.803C173.967 497.594 120.405 444.032 120.405 378.196V343.512C139.497 357.877 167.089 351.553 177.945 329.953C199.314 352.983 237.566 345.632 248.675 315.99C273.427 340.266 315.348 326.031 320.249 291.861C327.372 299.095 333.254 303.895 335.463 315.008C278.238 326.184 235.953 376.929 235.953 435.97C235.953 440.224 239.402 443.673 243.656 443.673C247.91 443.673 251.359 440.224 251.359 435.97C251.359 382.129 291.536 336.175 344.813 329.079C348.641 328.569 351.5 325.304 351.5 321.443C351.5 308.63 346.43 296.466 337.596 287.518C311.336 260.856 320.34 269.942 318.389 268.016C309.737 259.231 299.185 250.329 299.185 231.433C299.185 220.28 303.531 209.799 311.425 201.921C314.409 198.941 319.278 198.957 322.278 201.956L388.303 267.981C404.31 283.986 413.124 305.264 413.124 327.895V378.197C413.124 401.433 406.441 423.964 393.798 443.356C390.433 448.513 394.206 455.267 400.243 455.267C402.759 455.267 405.226 454.035 406.702 451.77C420.982 429.871 428.53 404.429 428.53 378.197V327.895C428.531 301.148 418.114 276.002 399.199 257.086ZM166.625 312.72C166.625 325.462 156.258 335.83 143.516 335.83C130.773 335.83 120.406 325.462 120.406 312.72C120.406 299.167 120.406 256.94 120.406 243.392C120.406 230.65 130.773 220.282 143.516 220.282C156.258 220.282 166.625 230.65 166.625 243.392V312.72ZM235.953 301.165C235.953 316.032 223.859 328.126 208.992 328.126C194.126 328.126 182.031 316.032 182.031 301.165C182.031 291.385 182.031 226.195 182.031 216.431C182.031 201.565 194.126 189.47 208.992 189.47C223.859 189.47 235.953 201.565 235.953 216.431V301.165ZM300.332 271.636L305.281 276.662C305.281 286.099 306.502 295.699 297.393 304.823C280.512 321.676 251.359 309.805 251.359 285.759C251.359 276.214 251.359 211.415 251.359 201.025C251.359 185.974 263.569 174.064 278.32 174.064C288.846 174.064 298.14 180.093 302.563 189.242C281.224 206.081 274.992 246.119 300.332 271.636ZM320.687 184.642V62.3687C320.687 55.1692 323.492 48.3963 328.575 43.3045C345.456 26.452 374.609 38.3225 374.609 62.3687V232.498L333.173 191.061C329.65 187.538 325.261 185.412 320.687 184.642Z" fill="black"/>
<path d="M375.203 465.48C374.733 465.915 374.202 466.405 373.745 466.819C368.501 471.565 371.926 480.234 378.916 480.234C382.212 480.234 383.872 478.445 385.514 476.93C388.97 473.755 388.838 468.904 386.089 465.922C383.205 462.794 378.331 462.598 375.203 465.48Z" fill="black"/>
</svg>
