<svg width="512" height="512" viewBox="0 0 512 512" fill="none" xmlns="http://www.w3.org/2000/svg">
<g clip-path="url(#clip0)">
<path d="M272.004 87.8016V103.801C272.004 81.7107 254.096 63.802 232.005 63.802C209.914 63.802 192.006 81.7107 192.006 103.801C192.006 103.902 192.006 208.693 192.006 207.8C146.14 188.143 107.976 183.801 64.0071 183.801C33.1656 183.801 8.00903 208.786 8.00903 239.799C8.00903 257.472 22.3358 271.798 40.0085 271.798C99.7275 271.798 155.234 302.563 186.886 353.205L205.126 382.389C236.777 433.032 292.284 463.796 352.003 463.796C435.948 463.796 504 395.744 504 311.799V115.802C504 95.9205 487.883 79.8027 468.001 79.8027C448.119 79.8027 432.002 95.9205 432.002 115.802V103.802C432.002 81.7117 414.093 63.803 392.002 63.803C369.912 63.803 352.003 81.7117 352.003 103.802V87.8026C352.003 65.712 334.094 47.8033 312.004 47.8033C289.913 47.8023 272.004 65.71 272.004 87.8016Z" fill="#F9CFAC"/>
<path d="M64.0081 183.8C101.128 183.8 134.29 186.387 176.036 201.5C177.425 247.88 232.145 272.93 268.134 242.559C275.774 252.189 286.534 259.259 298.874 262.239C327.583 286.648 344.003 322.067 344.003 359.797V375.797C344.003 380.216 347.583 383.796 352.003 383.796C356.423 383.796 360.003 380.216 360.003 375.797V359.797C360.003 323.537 346.523 289.178 322.454 262.819C338.218 259.841 351.531 250.221 359.523 237.389C382.601 253.879 415.538 250.853 434.842 227.829C449.889 240.315 470.447 243.151 488.001 235.799V311.798C488.001 392.991 424.235 459.58 343.733 463.595C287.194 460.905 235.305 430.676 205.126 382.386C185.206 350.52 168.917 318.432 123.977 293.518C98.6775 279.488 69.868 271.798 40.0086 271.798C31.1687 271.798 23.1689 268.218 17.379 262.429C-6.15063 238.899 16.732 183.8 64.0081 183.8Z" fill="#FFE4CC"/>
<path d="M224.005 64.6029C242.202 68.2978 256.005 84.4145 256.005 103.802V199.8C256.005 219.15 242.265 235.29 224.005 239C205.808 235.305 192.006 219.189 192.006 199.8V103.802C192.006 84.4525 205.745 68.3128 224.005 64.6029Z" fill="#FFE4CC"/>
<path d="M304.004 48.6032C322.2 52.2981 336.003 68.4148 336.003 87.8025V207.8C336.003 227.15 322.263 243.29 304.004 247C285.807 243.305 272.004 227.189 272.004 207.8V87.8025C272.004 68.4528 285.744 52.3131 304.004 48.6032Z" fill="#FFE4CC"/>
<path d="M384.002 64.6029C402.199 68.2978 416.002 84.4145 416.002 103.802V191.801C416.002 211.15 402.262 227.29 384.002 231C365.806 227.305 352.003 211.189 352.003 191.801V103.802C352.003 84.4525 365.743 68.3128 384.002 64.6029Z" fill="#FFE4CC"/>
<path d="M460.001 80.6926C476.059 84.3435 488 98.6833 488 115.802V187.801C488 204.93 476.031 219.27 460.001 222.91C443.973 219.266 432.001 204.954 432.001 187.801V115.802C432.001 98.6723 443.971 84.3325 460.001 80.6926Z" fill="#FFE4CC"/>
<path d="M267.032 71.0331C237.324 39.2946 184.006 60.4982 184.006 103.8C184.006 115.845 184.006 187.642 184.006 195.926C140.205 179.175 104.257 175.799 64.0078 175.799C10.1057 175.799 -17.2018 239.158 11.7217 268.085C19.2756 275.638 29.3214 279.797 40.0082 279.797C81.0835 279.797 120.715 295.143 151.038 322.679C154.309 325.649 159.368 325.406 162.338 322.135C165.309 318.864 165.067 313.804 161.794 310.834C128.582 280.669 85.1154 263.797 40.0082 263.797C33.5943 263.797 27.5674 261.301 23.0355 256.77C4.69085 238.427 23.8235 191.798 64.0078 191.798C105.011 191.798 141.845 195.574 186.162 214.038C197.516 250.514 245.177 259.917 269.392 229.851C275.309 241.241 285.703 250.047 298.348 253.807C327.377 278.235 344.003 313.85 344.003 351.795V367.795C344.003 372.213 347.585 375.795 352.003 375.795C356.421 375.795 360.003 372.213 360.003 367.795V351.795C360.003 315.476 346.468 281.053 322.321 254.668C338.308 251.151 351.332 239.649 356.975 224.565C379.016 248.114 417.66 243.802 433.772 215.401C449.225 234.525 477.152 237.301 496 221.712V311.795C496 391.37 431.617 455.792 352.003 455.792C294.668 455.792 242.297 426.765 211.91 378.145L202.52 363.115C200.179 359.368 195.245 358.228 191.498 360.569C187.75 362.91 186.612 367.844 188.951 371.592C203.005 394.087 220.613 424.937 264.159 449.073C381.928 514.352 512 432.288 512 311.798V115.801C512 76.215 463.633 56.9093 436.301 85.3348C422.876 53.2474 380.838 45.5385 356.974 71.0341C341.442 29.5138 282.586 29.4598 267.032 71.0331ZM200.006 199.8V103.801C200.006 86.1568 214.36 71.8021 232.005 71.8021C249.65 71.8021 264.004 86.1568 264.004 103.801V199.8C264.004 217.444 249.65 231.799 232.005 231.799C214.36 231.799 200.006 217.444 200.006 199.8ZM496 115.801C496 130.462 496 170.884 496 187.8C496 203.239 483.44 215.8 468.001 215.8C452.562 215.8 440.001 203.239 440.001 187.8V115.801C440.001 100.363 452.562 87.8018 468.001 87.8018C483.44 87.8018 496 100.362 496 115.801ZM424.002 103.801C424.002 113.405 424.002 182.404 424.002 191.8C424.002 209.445 409.647 223.799 392.002 223.799C374.357 223.799 360.003 209.445 360.003 191.8V103.801C360.003 86.1568 374.357 71.8021 392.002 71.8021C409.647 71.8021 424.002 86.1568 424.002 103.801ZM344.003 87.8018C344.003 100.561 344.003 189.678 344.003 207.8C344.003 225.444 329.648 239.799 312.004 239.799C294.359 239.799 280.004 225.444 280.004 207.8V87.8018C280.004 70.1571 294.359 55.8023 312.004 55.8023C329.648 55.8023 344.003 70.1571 344.003 87.8018Z" fill="black"/>
<path d="M187.307 342.051C187.307 339.075 185.89 337.488 184.5 335.657C181.541 331.737 176.519 331.381 173.155 333.93C169.808 336.466 168.757 341.392 171.748 345.32C172.129 345.822 172.51 346.326 172.891 346.837C177.448 352.954 187.307 349.77 187.307 342.051Z" fill="black"/>
</g>
<defs>
<clipPath id="clip0">
<rect width="512" height="512" fill="white"/>
</clipPath>
</defs>
</svg>
