<svg width="533" height="533" viewBox="0 0 533 533" fill="none" xmlns="http://www.w3.org/2000/svg">
<path d="M101.743 305.522L147.188 350.968C164.412 368.203 176.851 389.623 183.26 413.129C194.421 454.077 217.146 473.104 239.301 495.258C278.579 534.535 342.273 534.535 381.552 495.258C420.888 455.922 440.389 402.433 437.603 349.479C437.998 349.479 437.857 362.246 437.857 82.1644C437.857 64.3437 423.401 49.8842 405.578 49.8842C387.754 49.8842 373.297 64.3406 373.297 82.1644V139.66L345.41 35.5934C340.995 19.1077 326.1 8.23651 309.81 8.23651C285.486 8.23651 267.883 31.3127 274.141 54.6846L286.142 99.4843L236.396 49.7395C221.916 35.2602 198.585 35.3831 184.229 49.7395C169.819 64.15 169.819 87.5063 184.229 101.906L250.899 168.576C220.785 168.576 223.807 170.405 186.524 207.703C172.113 222.103 172.113 245.471 186.524 259.87C201.006 274.352 224.337 274.223 238.691 259.87L258.255 240.306H323.473C323.473 241.79 323.496 345.936 323.496 347.337C323.496 369.295 295.669 382.131 278.891 365.333C248.94 335.335 193.039 279.433 193.039 279.433C167.825 254.221 126.957 254.221 101.744 279.433C94.4484 286.728 94.6191 298.422 101.743 305.522Z" fill="#F9CFAC"/>
<path d="M373.725 76.8975C377.963 51.1337 409.779 40.75 428.404 59.3413C434.234 65.183 437.858 73.253 437.858 82.1665V270.308L422.374 213.536C418.328 198.698 409.964 185.307 400.331 176.227C386.607 124.975 392.647 147.524 373.725 76.8975Z" fill="#FFE4CC"/>
<path d="M300.231 9.50472C320.101 4.21285 340.177 16.0399 345.412 35.5892C378.081 157.519 371.564 133.189 378.994 160.951C374.766 158.816 370.372 157.046 365.874 155.671C286.828 76.6132 303.397 93.1844 277.52 67.3071L274.136 54.6866C268.866 35.0061 280.55 14.7737 300.231 9.50472Z" fill="#FFE4CC"/>
<path d="M184.23 49.7406C198.612 35.3582 221.931 35.2728 236.399 49.7406C296.202 109.543 273.087 86.4265 338.561 151.912C232.231 151.912 239.009 151.759 234.608 152.287L184.23 101.91C169.819 87.5084 169.819 64.1521 184.23 49.7406Z" fill="#FFE4CC"/>
<path d="M101.743 279.434C126.956 254.221 167.824 254.221 193.037 279.434C193.037 279.434 248.939 335.336 278.89 365.333C295.57 382.032 323.494 369.391 323.494 347.337C323.494 345.948 323.472 241.792 323.472 240.306H258.255L238.691 259.87C224.323 274.238 200.993 274.339 186.524 259.87C172.113 245.471 172.113 222.103 186.524 207.703L214.837 179.377C221.755 172.461 231.14 168.576 240.926 168.576C352.432 168.576 346.887 167.99 357.203 170.546C369.022 173.44 379.946 179.404 389.472 188.923C399.107 198.558 403.752 208.589 406.949 220.292C427.573 295.906 422.274 276.472 431.077 308.785C449.171 375.186 430.454 446.356 381.552 495.258C342.273 534.536 278.579 534.536 239.301 495.258C219.743 475.699 194.74 455.247 183.26 413.129C176.851 389.623 164.412 368.202 147.188 350.968L101.743 305.522C94.6076 298.409 94.4608 286.716 101.743 279.434Z" fill="#FFE4CC"/>
<path d="M95.8519 311.414L141.296 356.857C157.478 373.051 169.212 393.268 175.223 415.321C186.912 458.196 210.414 478.153 233.41 501.151C275.877 543.616 344.976 543.616 387.442 501.151C426.358 462.235 448.344 408.208 446.006 351.208C446.289 349.87 446.188 362.595 446.188 166.512C446.188 161.912 442.458 158.182 437.858 158.182C433.258 158.182 429.528 161.912 429.528 166.512V271.43L414.343 215.736C410.726 202.501 403.553 190.53 392.896 180.639C387.158 159.223 389.695 168.695 381.628 138.572V82.1676C381.628 68.9607 392.371 58.2177 405.577 58.2177C418.677 58.2177 429.527 68.816 429.527 82.1676V91.5392C429.527 96.1397 433.257 99.8695 437.857 99.8695C442.457 99.8695 446.187 96.1397 446.187 91.5392V82.1676C446.187 59.9993 428.263 41.5569 405.577 41.5569C384.778 41.5569 367.593 57.2753 365.248 77.4556L353.455 33.439C343.001 -5.59087 290.574 -12.0448 270.614 22.5272C259.758 41.3279 266.063 56.7339 270.05 71.6171L242.285 43.8519C214.071 15.6359 165.089 35.3497 165.089 75.8291C165.089 87.9092 169.794 99.2635 178.336 107.799L231.722 161.186C223.151 162.947 215.273 167.162 208.944 173.49L180.634 201.812C165.28 217.152 163.59 240.224 173.887 257.188C147.756 247.031 116.909 252.484 95.8497 273.546C85.3586 284.037 85.4076 300.999 95.8519 311.414ZM293.611 95.1733L282.188 52.5302C280.214 45.1609 281.229 37.4636 285.044 30.8577C297.713 8.91334 330.77 13.1379 337.364 37.7499C374.82 177.541 372.208 166.938 371.408 166.589C355.859 159.833 374.291 175.856 293.611 95.1733ZM210.318 47.2559C217.936 47.2559 225.106 50.2289 230.505 55.6301C268.555 93.6801 302.684 127.809 335.12 160.244H254.349L190.116 96.0125C172.285 78.1949 184.797 47.2559 210.318 47.2559ZM107.634 285.325C129.556 263.402 165.225 263.402 187.146 285.325C187.147 285.325 243.047 341.223 272.997 371.219C295.104 393.351 331.824 376.602 331.824 347.334L331.802 240.305C331.802 235.705 328.072 231.975 323.471 231.975H258.254C253.652 231.975 253.813 232.965 232.799 253.979C221.652 265.128 203.614 265.177 192.412 253.976C181.254 242.827 181.244 224.752 192.416 213.591L220.728 185.268C226.121 179.876 233.293 176.906 240.926 176.906C247.847 176.906 322.405 176.906 341.017 176.906C367.65 176.906 391.388 194.938 398.266 220.124C426.038 321.974 427.59 323.306 429.286 349.987C431.906 400.25 413.986 451.044 375.66 489.368C339.695 525.334 281.164 525.342 245.19 489.369C225.025 469.201 201.997 450.194 191.296 410.938C184.522 386.093 171.306 363.32 153.077 345.077L107.624 299.623C103.71 295.723 103.642 289.315 107.634 285.325ZM203.482 278.098C217.969 281.055 233.428 276.912 244.58 265.761L261.704 248.636H315.141L315.163 347.337C315.163 362.339 296.015 370.689 284.785 359.447C259.989 334.614 217.408 292.027 203.482 278.098Z" fill="black"/>
<path d="M437.858 116.529C433.258 116.529 429.528 120.259 429.528 124.859V133.189C429.528 137.791 433.258 141.521 437.858 141.521C442.458 141.521 446.188 137.791 446.188 133.189V124.859C446.188 120.259 442.458 116.529 437.858 116.529Z" fill="black"/>
</svg>
