<svg width="533" height="533" viewBox="0 0 533 533" fill="none" xmlns="http://www.w3.org/2000/svg">
<path d="M387.878 218.879L375.998 207C375.998 86.386 376.124 95 375.771 95C373.78 77.003 358.525 63 339.998 63H299.998C290.058 63 281.058 67.03 274.538 73.54C252.046 96.066 267.881 135 299.998 135H303.998V146.146C298.601 147.538 297.148 150.342 297.148 149.87C284.077 131.889 258.166 129.935 242.538 145.54C231.048 157.048 231.998 169.251 231.998 179C231.998 146.895 193.069 131.043 170.538 153.54C164.028 160.06 159.998 169.06 159.998 179V215C159.998 186.406 125.34 172.398 105.368 192.37C99.578 198.16 95.998 206.16 95.998 215V339C95.998 411.9 155.098 471 227.998 471H283.998C356.898 471 415.998 411.9 415.998 339V286.76C415.998 261.299 405.888 236.89 387.878 218.879Z" fill="#F9CFAC"/>
<path d="M387.878 218.879L375.998 207C375.998 86.386 376.124 95 375.771 95C373.78 77.003 358.525 63 339.998 63H299.998C290.058 63 281.058 67.03 274.538 73.54C252.046 96.066 267.881 135 299.998 135H303.998V146.146C298.601 147.538 297.148 150.342 297.148 149.87C284.077 131.889 258.166 129.935 242.538 145.54C231.048 157.048 231.998 169.251 231.998 179C231.998 146.895 193.069 131.043 170.538 153.54C164.028 160.06 159.998 169.06 159.998 179V215C159.998 186.406 125.34 172.398 105.368 192.37C99.578 198.16 95.998 206.16 95.998 215V339C95.998 411.9 155.098 471 227.998 471H283.998C356.898 471 415.998 411.9 415.998 339V286.76C415.998 261.299 405.888 236.89 387.878 218.879Z" fill="#F9CFAC"/>
<path d="M375.998 99V184.37L330.618 139C325.82 134.202 324.067 135 327.998 135C336.851 135 343.998 127.84 343.998 119H284.213C273.218 119 264.065 110.216 263.998 99.222C263.878 79.239 280.028 63 299.998 63H339.998C359.88 63 375.998 79.117 375.998 99Z" fill="#FFE4CC"/>
<path d="M285.158 233.95C259.428 208.05 258.916 165.778 285.078 139.31C273.8 133.19 259.404 133.422 247.998 141.06V259C247.998 273.38 256.428 285.79 268.618 291.55C278.588 283.8 289.588 277.49 301.258 272.8C304.354 265.325 303.998 260.038 303.998 253.07L285.158 233.95Z" fill="#FFE4CC"/>
<path d="M231.998 179V267C231.998 284.133 220.044 298.462 203.998 302.11C187.968 298.47 175.998 284.13 175.998 267V149.06C199.597 133.257 231.998 150.026 231.998 179Z" fill="#FFE4CC"/>
<path d="M159.998 215V287C159.998 301.895 149.815 314.449 135.998 317.99C122.198 314.44 111.998 301.91 111.998 287V187.28C133.157 175.061 159.998 190.273 159.998 215Z" fill="#FFE4CC"/>
<path d="M415.998 286.759V339C415.998 387.5 389.838 429.89 350.868 452.83C320.569 465.51 300.668 463 243.998 463C171.518 463 112.678 404.58 112.008 332.26C133.401 339.833 157.401 331.36 169.228 311.56C190.83 324.626 219.362 320.279 236.048 300.13C240.438 303.54 245.418 306.26 250.828 308.12C232.749 328.138 220.58 353.97 217.06 382.06C216.464 386.813 220.217 391 225.007 391C229.04 391 232.436 387.989 232.938 383.968C239.673 330.043 282.197 287.221 335.999 280.06C335.999 268.97 331.639 258.33 323.859 250.44L296.559 222.72C276.652 202.673 276.702 170.258 296.729 150.27C302.959 144.05 313.079 144.08 319.309 150.31L387.879 218.88C405.888 236.89 415.998 261.299 415.998 286.759Z" fill="#FFE4CC"/>
<path d="M393.535 213.222L383.998 203.685V99C383.998 74.738 364.26 55 339.998 55H299.998C262.323 55 242.719 98.825 266.122 127.046C250.163 127.712 236.383 136.856 229.21 150.188C202.594 119.55 151.998 138.356 151.998 179.001V183.023C125.882 163.373 87.998 181.964 87.998 215.001V339.001C87.998 416.197 150.802 479.001 227.998 479.001H283.998C334.27 479.001 380.939 451.823 405.794 408.072C407.977 404.231 406.631 399.347 402.789 397.165C398.947 394.98 394.064 396.328 391.882 400.17C369.865 438.924 328.526 463 283.998 463H227.998C159.624 463 103.998 407.374 103.998 339V318.978C125.775 335.363 157.6 325.581 166.081 299.224C187.22 318.864 221.094 313.182 234.766 287.788C242.733 296.972 254.427 302.833 267.475 302.986C240.716 326.629 223.998 361.172 223.998 398.999C223.998 403.417 227.58 406.999 231.998 406.999C236.416 406.999 239.998 403.417 239.998 398.999C239.998 343.083 281.724 295.358 337.055 287.988C341.03 287.459 343.998 284.068 343.998 280.058C343.998 266.699 338.694 254.078 329.559 244.826C302.342 217.191 311.608 226.525 309.611 224.572C300.662 215.485 289.668 206.204 289.668 186.579C289.668 174.997 294.183 164.112 302.381 155.93C305.481 152.834 310.535 152.849 313.651 155.966L382.221 224.536C398.844 241.158 407.998 263.256 407.998 286.759C407.998 343.213 408.022 340.074 407.942 342.759C407.809 347.175 411.281 350.863 415.698 350.995C420.111 351.165 423.802 347.657 423.934 343.239C424.023 340.326 423.997 343.293 423.997 286.759C423.998 258.983 413.18 232.867 393.535 213.222ZM151.998 287C151.998 300.233 141.232 311 127.998 311C114.764 311 103.998 300.233 103.998 287C103.998 271.978 103.998 230.061 103.998 215C103.998 201.767 114.764 191 127.998 191C141.232 191 151.998 201.767 151.998 215V287ZM223.998 267C223.998 282.439 211.437 295 195.998 295C180.559 295 167.998 282.439 167.998 267C167.998 254.278 167.998 191.749 167.998 179C167.998 163.561 180.559 151 195.998 151C211.437 151 223.998 163.561 223.998 179V267ZM327.344 273.375C320.384 274.734 313.64 276.664 307.151 279.099C312.7 268.315 311.998 260.034 311.998 249.798C318.686 256.589 325.04 261.799 327.344 273.375ZM290.857 228.333L295.998 233.553V259C295.998 274.367 283.588 287 267.998 287C252.559 287 239.998 274.439 239.998 259V179C239.998 169.234 239.165 160.241 248.19 151.201C258.793 140.616 275.416 140.382 286.381 149.902C268.083 173.047 269.478 206.8 290.857 228.333ZM323.134 143H339.998C344.416 143 347.998 139.418 347.998 135C347.998 130.582 344.416 127 339.998 127H299.998C275.206 127 262.616 96.808 280.19 79.201C285.487 73.912 292.521 71 299.998 71H339.998C355.437 71 367.998 83.561 367.998 99V187.686C320.966 140.653 324.503 144.114 323.134 143Z" fill="black"/>
<path d="M410.946 383.271C415.364 383.271 418.946 379.689 418.946 375.271C418.946 370.853 415.364 367.271 410.946 367.271C406.528 367.271 402.946 370.853 402.946 375.271C402.946 379.689 406.528 383.271 410.946 383.271Z" fill="black"/>
</svg>
