<svg width="492" height="513" viewBox="0 0 492 513" fill="none" xmlns="http://www.w3.org/2000/svg">
<path d="M238.203 491.857C211.389 465.001 230.261 418.577 268.559 418.577C253.737 418.577 236.606 420.677 220.533 404.603C190.705 374.775 211.734 323.193 254.252 323.193C246.091 323.193 69.0448 323.193 55.7948 323.193C29.4618 323.193 8.10278 301.85 8.10278 275.5C8.10278 249.162 29.4448 227.808 55.7948 227.808H92.098C65.7728 227.808 44.4058 206.443 44.4058 180.116C44.4058 153.778 65.7598 132.424 92.098 132.424H263.79C217.208 85.8425 214.898 85.1795 210.148 73.7035C197.279 42.6105 220.192 8.42349 253.775 8.42349C266.834 8.42349 278.598 13.6295 287.124 22.0635L399.928 133.699C447.131 141.294 483.175 182.202 483.175 231.551V405.294C483.175 460.045 438.797 504.423 384.046 504.423C349.242 504.423 303.058 504.423 268.559 504.423C256.708 504.423 245.977 499.619 238.203 491.857Z" fill="#F9CFAC"/>
<path d="M370.644 133.423L258.125 22.0635C252.795 16.7935 246.345 12.9235 239.335 10.6735C213.015 19.1145 199.632 48.2905 210.145 73.7035C215.136 85.7445 218.875 87.5035 263.795 132.423L370.644 133.423Z" fill="#FFE4CC"/>
<path d="M235.105 434.603C236.328 434.552 354.884 434.573 354.715 434.573C363.524 434.573 370.715 427.437 370.715 418.573H254.255C211.455 418.573 190.097 365.814 221.525 336.193H363.715C370.895 336.193 376.715 330.373 376.715 323.193C376.715 323.093 383.835 323.193 55.7947 323.193C17.2097 323.193 -4.81135 279.987 16.2647 248.803H355.715C367.279 248.803 376.715 239.434 376.715 227.803H92.0949C53.4737 227.803 30.7317 183.96 53.2647 152.423H370.045C424.583 152.423 469.175 196.598 469.175 251.553V425.293C469.175 442.053 465.015 457.843 457.655 471.693C439.515 491.793 413.255 504.423 384.045 504.423C349.241 504.423 303.094 504.423 268.555 504.423C232.511 504.423 212.644 462.479 235.105 434.603Z" fill="#FFE4CC"/>
<path d="M99.4147 315.193C103.833 315.193 107.415 318.775 107.415 323.193C107.415 327.611 103.833 331.193 99.4147 331.193C88.1467 331.193 88.1367 315.193 99.4147 315.193Z" fill="black"/>
<path d="M235.069 423.189C196.575 409.085 186.176 359.763 215.236 331.193H130.935C126.517 331.193 122.935 327.611 122.935 323.193C122.935 318.775 126.517 315.193 130.935 315.193H368.713C373.14 315.193 376.715 318.781 376.715 323.193C376.715 327.602 373.143 331.193 368.713 331.193H254.252C232.365 331.193 214.56 348.998 214.56 370.884C214.56 392.805 232.326 410.577 254.252 410.577H368.713C373.131 410.577 376.713 414.159 376.713 418.577C376.713 422.995 373.131 426.577 368.713 426.577H268.56C249.303 426.577 233.637 442.242 233.637 461.499C233.637 480.665 249.122 496.422 268.56 496.422H384.046C434.295 496.423 475.175 455.543 475.175 405.294V231.552C475.175 180.329 433.994 140.423 384.046 140.423C369.581 140.423 103.675 140.423 92.098 140.423C56.6348 140.423 39.2467 183.389 64.0368 208.177C71.4898 215.63 81.376 219.751 91.897 219.803H368.715C374.467 219.803 378.3 225.686 376.086 230.918C374.872 233.791 372.028 235.808 368.713 235.808C363.343 235.808 61.6168 235.803 55.7948 235.803C20.6568 235.803 2.79976 278.618 27.7218 303.566C40.8748 316.72 54.6988 315.193 67.4148 315.193C71.8328 315.193 75.4148 318.775 75.4148 323.193C75.4148 327.611 71.8328 331.193 67.4148 331.193C52.4808 331.193 34.1168 332.592 16.4038 314.878C-17.6912 280.745 5.12175 222.153 53.1208 219.872C17.7378 185.211 42.1928 124.423 92.098 124.423H244.476C214.241 94.1875 208.293 90.1365 202.756 76.7615C187.737 40.4595 214.514 0.423492 253.774 0.423492C268.924 0.423492 282.571 6.30749 292.751 16.3765L403.804 126.279C454.098 135.67 491.175 179.674 491.175 231.552V405.294C491.175 464.365 443.117 512.423 384.046 512.423C349.242 512.423 303.059 512.423 268.56 512.423C221.986 512.423 199.596 454.236 235.069 423.189ZM253.93 16.4235C218.574 16.4235 201.628 58.9595 226.048 83.3655L267.104 124.423H379.182L281.498 27.7505C274.113 20.4455 264.323 16.4235 253.93 16.4235Z" fill="black"/>
</svg>
