<svg width="438" height="430" viewBox="0 0 438 430" fill="none" xmlns="http://www.w3.org/2000/svg">
<path d="M414.034 46.329C397.247 32.736 382.63 21.846 357.028 14.268C339.078 8.94499 320.089 7.13 301.102 9.125L223.115 17.32C196.047 20.158 171.215 33.645 154.085 54.798L40.5296 195.022C-13.131 261.285 1.02608 360.092 74.2336 408.984C106.946 430.972 151.621 424.713 176.907 393.488L226.529 332.212C246.875 307.088 259.932 276.871 264.28 244.84C267.403 221.702 275.242 198.594 288.102 177.288C300.498 156.79 295.232 130.173 277.076 115.397C257.212 99.311 226.706 100.993 209.29 122.499L224.998 103.102L300.671 95.143C322.106 92.904 343.524 99.272 360.215 112.789C378.562 127.647 405.488 124.81 420.346 106.463C435.272 88.031 432.309 61.129 414.034 46.329Z" fill="#F9CFAC"/>
<path d="M418.128 50.108C390.297 30.593 355.705 21.161 320.53 24.858L242.543 33.053C215.475 35.891 190.643 49.378 173.513 70.531L59.9579 210.755C11.4998 270.594 18.2899 357.362 74.2339 408.984C106.946 430.972 151.621 424.713 176.907 393.488L226.529 332.212C246.875 307.088 259.932 276.871 264.28 244.84C267.403 221.702 275.242 198.594 288.102 177.288C296.849 162.823 297.115 144.55 288.775 129.439C288.265 130.069 289.35 130.651 282.194 124.855C264.654 110.652 238.97 113.194 224.943 130.516L154.566 217.421C151.784 220.856 146.749 221.385 143.314 218.604C139.879 215.822 139.35 210.787 142.132 207.352C223.42 104.725 203.339 129.847 224.998 103.102C307.615 94.42 312.289 92.148 332.196 98.051C342.315 101.047 351.853 106.017 360.215 112.789C378.562 127.647 405.488 124.81 420.346 106.463C434.028 89.568 432.72 65.425 418.128 50.108Z" fill="#FFE4CC"/>
<path d="M426.563 111.497C409.075 133.092 377.165 136.809 355.18 119.006C340.401 107.038 321.185 101.044 301.508 103.098L277.249 105.649C302.186 121.832 310.606 155.53 294.95 181.421C285.152 197.656 278.541 214.754 274.751 231.742C273.786 236.054 269.512 238.769 265.201 237.807C260.888 236.845 258.172 232.569 259.135 228.256C263.465 208.859 270.934 190.253 281.256 173.15C291.676 155.916 286.981 133.713 271.986 121.57C254.786 107.642 229.45 110.316 215.507 127.534L145.489 213.996C142.709 217.429 137.671 217.958 134.238 215.178C130.804 212.398 130.275 207.36 133.055 203.926L218.781 98.067C220.117 96.418 222.052 95.368 224.161 95.146L299.84 87.187C323.129 84.757 346.688 91.542 365.248 106.573C379.966 118.491 401.883 116.551 414.128 101.429C426.191 86.534 423.889 64.606 408.999 52.547L401.702 46.638C374.112 24.295 338.38 13.252 301.937 17.082L223.948 25.277C198.818 27.911 176.214 40.184 160.301 59.834L46.7468 200.056C-1.04423 259.071 8.02778 345.475 67.0518 393.273L73.6958 398.653C103.245 422.583 146.757 418.007 170.69 388.454C221.671 325.5 231.083 316.526 242.711 290.963C244.545 286.942 249.284 285.165 253.305 286.994C257.327 288.824 259.105 293.567 257.275 297.589C244.993 324.588 236.371 332.771 183.124 398.523C153.639 434.933 100.033 440.569 63.6268 411.087L56.9828 405.707C-8.90562 352.35 -19.0514 255.884 34.3128 189.987L147.868 49.764C166.471 26.792 192.898 12.444 222.278 9.364L300.265 1.168C339.726 -2.978 379.942 8.42801 411.771 34.203L419.069 40.113C440.815 57.723 444.177 89.746 426.563 111.497Z" fill="black"/>
<path d="M252.591 262.986C253.566 259.232 253.553 257.939 255.061 256.077C260.377 249.511 270.958 254.656 269.083 262.885C268.769 264.267 268.431 265.645 268.076 267.009C266.966 271.286 262.599 273.852 258.321 272.741C254.045 271.63 251.48 267.263 252.591 262.986Z" fill="black"/>
</svg>
