<svg width="533" height="533" viewBox="0 0 533 533" fill="none" xmlns="http://www.w3.org/2000/svg">
<g clip-path="url(#clip0)">
<path d="M440.227 323.354V380.68C440.227 459.735 376.43 525.522 295.386 525.522H233.937C153.944 525.522 89.0951 460.673 89.0951 380.68V69.0441C89.0951 55.0129 97.2966 43.0442 108.937 37.4176C132.01 26.2279 159.316 43.0174 159.316 69.0441V169.999C159.316 156.871 165.772 145.121 175.669 137.986C201.836 119.067 238.327 138.005 238.327 170.643C238.327 153.055 236.712 141.738 245.929 129.135C268.34 98.387 317.329 114.332 317.329 153.081C317.329 170.035 317.26 169.048 317.359 169.048C316.839 168.528 317.835 146.093 338.301 135.102C364.278 121.275 396.341 139.988 396.341 169.999V235.829L409.374 248.872C429.127 268.625 440.227 295.425 440.227 323.354Z" fill="#F9CFAC"/>
<path d="M319.184 169.029C319.697 147.635 337.196 130.491 358.676 130.491C380.491 130.491 398.179 148.18 398.179 169.994V235.833L319.184 169.029Z" fill="#FFE4CC"/>
<path d="M240.171 170.643V240.22C240.171 257.346 229.279 271.925 214.045 277.396C198.812 271.925 187.92 257.346 187.92 240.22V132.594C213.852 123.732 240.171 143.512 240.171 170.643Z" fill="#FFE4CC"/>
<path d="M319.46 153.794V240.22C319.46 257.346 308.568 271.925 293.335 277.396C278.101 271.925 267.209 257.346 267.209 240.22V115.746C293.141 106.883 319.46 126.663 319.46 153.794Z" fill="#FFE4CC"/>
<path d="M243.293 283.432C242.302 284.631 241.251 285.791 240.171 286.901C239.14 285.869 239.1 286.807 243.293 283.432Z" fill="#FFE4CC"/>
<path d="M440.228 323.354V372.752C440.228 418.536 418.923 460.038 384.527 486.918C346.837 505.14 318.553 501.24 260.201 501.24C189.417 501.24 126.411 449.931 116.52 374.843C114.96 360.831 115.13 391.329 115.855 39.053C120.993 35.9092 127.35 34.2758 129.186 34.2758C146.213 36.6941 159.316 51.3428 159.316 69.0441V284.909C180.719 308.946 217.717 309.775 240.171 286.901C263.368 310.556 301.501 308.548 322.374 283.333C323.167 282.709 323.94 282.055 324.693 281.381C338.388 295.264 341.018 297.269 343.792 303.443C281.37 319.183 235.399 374.264 232.53 440.038C232.498 440.67 232.302 446.064 232.401 446.064C232.104 450.509 235.709 454.439 240.32 454.439C245.277 454.439 248.649 449.93 248.239 446.243C248.377 379.61 298.022 324.573 362.356 316C362.356 293.649 349.078 283.528 334.922 269.17C329.901 264.07 333.306 267.528 319.074 253.084C297.223 231.074 297.316 195.491 319.262 173.587C323.554 169.305 329.5 167.72 335.031 168.82C339.665 169.736 342.95 172.535 342.95 172.635C344.234 173.683 340.213 169.246 409.374 248.872C429.127 268.625 440.228 295.425 440.228 323.354Z" fill="#FFE4CC"/>
<path d="M362.217 316C362.217 319.975 359.274 323.335 355.339 323.86C294.197 332.007 248.1 384.734 248.1 446.52C248.1 449.206 246.762 451.585 244.72 453.012C231.247 455.726 220.062 447.191 220.062 430.375C220.062 392.475 230.181 372.107 255.236 343.712C273.433 323.077 296.932 307.616 322.83 298.973C322.83 298.973 321.505 297.606 319.386 295.411C307.978 283.596 316.347 263.868 332.771 263.868C332.87 263.868 331.765 262.847 346.617 277.922C356.374 287.853 362.217 301.399 362.217 316Z" fill="#F9CFAC"/>
<path d="M243.293 283.432C242.302 284.631 241.251 285.791 240.171 286.901C239.14 285.869 239.1 286.807 243.293 283.432Z" fill="#FFE4CC"/>
<path d="M243.293 283.432C242.302 284.631 241.251 285.791 240.171 286.901C239.14 285.869 239.1 286.807 243.293 283.432Z" fill="#FFE4CC"/>
<path d="M315.167 532.294C319.546 532.294 323.096 528.744 323.096 524.365C323.096 519.987 319.546 516.436 315.167 516.436C310.789 516.436 307.239 519.987 307.239 524.365C307.239 528.744 310.789 532.294 315.167 532.294Z" fill="black"/>
<path d="M416.824 243.265L406.107 232.548V169.995C406.107 127.074 353.682 106.589 324.396 137.224C317.995 118.973 300.936 105.551 280.942 105.021C259.132 104.425 241.013 118.476 234.699 137.327C216.756 118.487 187.907 117.772 169.089 134.598V69.0431C169.089 45.3089 149.78 26 126.047 26C102.314 26 83.004 45.3089 83.004 69.0431C83.004 81.9217 83 244.149 83 380.68C83 464.918 151.537 533.451 235.78 533.451H283.493C287.871 533.451 291.422 529.901 291.422 525.522C291.422 521.143 287.871 517.593 283.493 517.593H235.78C160.28 517.593 98.8578 456.175 98.8578 380.68C98.8578 243.618 98.8618 80.8731 98.8618 69.0431C98.8618 54.0535 111.057 41.8578 126.047 41.8578C141.037 41.8578 153.232 54.0535 153.232 69.0431V279.725C153.232 284.104 156.783 287.654 161.161 287.654C165.54 287.654 169.09 284.104 169.09 279.725V275.579C190.615 294.821 224.112 290.552 240.168 266.439C257.996 293.214 296.345 294.875 316.554 270.012C335.008 288.741 343.17 294.508 345.78 309.343C280.125 321.767 232.242 379.349 232.242 446.52C232.242 450.899 235.792 454.449 240.171 454.449C244.55 454.449 248.1 450.899 248.1 446.52C248.1 384.737 294.202 332.005 355.335 323.86C359.274 323.335 362.216 319.975 362.216 316C362.216 301.836 356.685 288.161 346.615 277.927L316.633 247.498C297.957 228.688 297.815 198.143 316.797 179.198C320.531 175.469 326.616 175.485 330.364 179.233L405.61 254.479C423.743 272.61 434.142 297.714 434.142 323.354V380.68C434.142 437.989 397.991 489.69 344.186 509.333C334.394 512.906 339.704 527.846 349.623 524.23C408.727 502.652 450 446.162 450 380.68V323.354C450 293.103 438.218 264.66 416.824 243.265ZM200.664 271.797C183.254 271.797 169.09 257.633 169.09 240.223V169.995C169.09 152.544 183.199 138.421 200.657 138.421C218.109 138.421 232.239 153.123 232.239 170.642V240.223C232.238 257.633 218.074 271.797 200.664 271.797ZM286.744 213.43C286.744 230.479 293.347 246.527 305.316 258.605C287.307 283.567 248.096 270.687 248.096 240.223C248.096 229.808 248.096 163.701 248.096 152.438C248.096 144.006 251.38 136.074 257.334 130.112C277.496 109.978 311.244 124.927 311.244 153.086V163.73C300.272 169.794 286.744 189.944 286.744 213.43ZM328.4 161.026C332.265 147.933 344.338 138.421 358.677 138.421C376.086 138.421 390.25 152.585 390.25 169.995V216.691L341.58 168.021C337.845 164.286 333.231 161.955 328.4 161.026Z" fill="black"/>
</g>
<defs>
<clipPath id="clip0">
<rect width="533" height="533" fill="white"/>
</clipPath>
</defs>
</svg>
