<svg width="512" height="512" viewBox="0 0 512 512" fill="none" xmlns="http://www.w3.org/2000/svg">
<path d="M457.066 68.6667V304.4C457.066 396.301 382.568 470.8 290.666 470.8H221.333C129.432 470.8 54.9331 396.301 54.9331 304.4V165.733C54.9331 156.165 58.8158 147.499 65.0904 141.224C86.771 119.543 124.266 134.825 124.266 165.733V138C124.266 126.508 128.92 116.108 136.452 108.585C162.358 82.6495 207.466 100.755 207.466 138V110.267C207.466 90.2649 221.529 73.9169 239.55 69.7587C264.557 63.9641 288.045 81.6684 290.45 106.011C291.904 119.783 286.236 97.4487 302.852 80.852C328.758 54.9161 373.866 73.0217 373.866 110.267V96.4C373.866 65.8639 398.593 40.9333 429.333 40.9333C444.647 40.9333 457.066 53.3527 457.066 68.6667Z" fill="#F9CFAC"/>
<path d="M290.666 110.266V207.333C290.666 216.164 287.919 224.354 283.222 231.088C260.131 264.351 207.466 247.938 207.466 207.333V110.266C207.466 98.7745 212.12 88.3745 219.652 80.8518C245.948 54.5555 290.666 73.46 290.666 110.266Z" fill="#F9CFAC"/>
<path d="M290.667 110.267V207.333C290.667 221.759 283.28 234.558 272.155 241.931C249.055 243.524 228.267 224.7 228.267 200.4C228.267 68.1501 228.218 74.2688 228.353 74.1787C256.73 58.1401 290.667 78.8171 290.667 110.267V110.267Z" fill="#FFE4CC"/>
<path d="M207.467 138V228.133C207.467 236.965 204.719 245.155 200.022 251.889C176.932 285.151 124.267 268.738 124.267 228.133V138C124.267 118.939 137.081 102.88 154.548 97.9599C180.851 90.4814 207.467 110.258 207.467 138Z" fill="#F9CFAC"/>
<path d="M207.467 138V228.133C207.467 242.559 200.08 255.358 188.955 262.731C165.855 264.324 145.067 245.5 145.067 221.2V101.964C172.686 85.9618 207.467 106.014 207.467 138V138Z" fill="#FFE4CC"/>
<path d="M124.266 165.733V248.933C124.266 268.07 108.737 283.6 89.5998 283.6C70.4551 283.6 54.9331 268.078 54.9331 248.933V165.733C54.9331 151.382 63.6873 139.159 75.7331 133.961C98.217 124.051 124.266 140.463 124.266 165.733Z" fill="#F9CFAC"/>
<path d="M124.266 165.733V248.933C124.266 259.336 119.71 269.49 110.4 276.667C91.3453 276.667 75.7332 261.236 75.7332 242V133.961C98.4866 123.932 124.266 140.734 124.266 165.733Z" fill="#FFE4CC"/>
<path d="M373.866 110.267V207.333C373.866 216.165 371.119 224.355 366.422 231.089C343.331 264.351 290.666 247.938 290.666 207.333V110.267C290.666 87.2948 309.282 68.6666 332.266 68.6666C355.242 68.6666 373.866 87.2913 373.866 110.267Z" fill="#F9CFAC"/>
<path d="M373.866 110.267V207.333C373.866 221.759 366.48 234.558 355.354 241.931C332.254 243.524 311.466 224.7 311.466 200.4V74.2307C339.085 58.2286 373.866 78.2806 373.866 110.267V110.267Z" fill="#FFE4CC"/>
<path d="M457.067 68.6666V304.4C457.067 346.823 441.189 385.537 415.059 414.926C392.85 434.716 354.584 450 314.067 450H244.734C162.279 450 93.8469 390.026 80.6476 311.333C80.5072 309.826 79.6943 311.333 89.6003 311.333C107.974 311.333 124.518 303.351 135.941 290.672C164.655 304.48 200.156 296.988 220.649 270.574C242.823 280.586 269.813 278.453 290.667 262.774C335.94 296.813 401.6 264.595 401.6 207.333V48.352C409.835 43.5645 419.501 40.8874 429.593 40.9333C444.803 41.0027 457.067 53.448 457.067 68.6666V68.6666Z" fill="#FFE4CC"/>
<path d="M242.133 366.8C234.487 366.8 228.266 360.579 228.266 352.933C228.266 297.157 263.588 247.22 316.161 228.671C323.359 226.132 331.298 229.902 333.851 237.134C336.395 244.346 332.599 252.281 325.388 254.826C283.885 269.468 256 308.894 256 352.933C256 360.579 249.779 366.8 242.133 366.8Z" fill="#F9CFAC"/>
<path d="M429.333 34C400.324 34 376.717 53.5494 369.381 79.0398C347.974 53.6378 307.946 56.6174 290.667 85.298C282.167 71.1913 266.702 61.7333 249.067 61.7333C224.272 61.7333 203.775 80.4264 200.893 104.457C171.594 73.8736 120.13 93.104 117.446 134.857C90.9234 110.914 48 129.611 48 165.733V304.4C48 399.976 125.757 477.733 221.333 477.733H290.667C386.243 477.733 464 399.976 464 304.4V221.2C464 217.371 460.895 214.267 457.066 214.267C453.238 214.267 450.133 217.371 450.133 221.2V304.4C450.133 392.33 378.597 463.866 290.667 463.866H221.333C133.403 463.866 61.8667 392.33 61.8667 304.4V279.907C84.7371 300.406 121.177 289.83 129.598 260.336C155.552 289.534 203.645 277.616 212.985 239.751C234.899 264.118 273.851 260.214 290.667 232.302C294.997 239.49 301.14 245.462 308.454 249.599C268.158 270.996 242.133 313.274 242.133 359.867C242.133 363.695 245.238 366.8 249.067 366.8C252.896 366.8 256 363.695 256 359.867C256 313.37 285.154 271.709 328.683 255.72C357.025 257.8 380.8 235.3 380.8 207.333C380.8 193.389 380.8 110.385 380.8 96.4C380.8 69.5663 402.494 47.8667 429.333 47.8667C440.802 47.8667 450.133 57.1981 450.133 68.6667V158.8C450.133 162.629 453.238 165.733 457.066 165.733C460.895 165.733 464 162.629 464 158.8V68.6667C464 49.5515 448.448 34 429.333 34ZM117.333 248.933C117.333 264.226 104.892 276.667 89.6 276.667C74.3077 276.667 61.8667 264.226 61.8667 248.933C61.8667 240.612 61.8667 174.087 61.8667 165.733C61.8667 150.441 74.3077 138 89.6 138C104.892 138 117.333 150.441 117.333 165.733V248.933ZM200.533 228.133C200.533 247.248 184.982 262.8 165.867 262.8C146.751 262.8 131.2 247.248 131.2 228.133C131.2 217.031 131.2 148.622 131.2 138C131.2 118.885 146.751 103.333 165.867 103.333C184.982 103.333 200.533 118.885 200.533 138V228.133ZM249.067 242C229.951 242 214.4 226.448 214.4 207.333C214.4 197.972 214.4 120.01 214.4 110.267C214.4 91.1514 229.951 75.6 249.067 75.6C268.182 75.6 283.733 91.1514 283.733 110.267V207.333C283.733 226.448 268.182 242 249.067 242ZM366.933 207.333C366.933 226.448 351.382 242 332.267 242C313.151 242 297.6 226.448 297.6 207.333V110.267C297.6 91.1514 313.151 75.6 332.267 75.6C351.382 75.6 366.933 91.1514 366.933 110.267V207.333Z" fill="black"/>
<path d="M457.067 179.6C453.238 179.6 450.133 182.704 450.133 186.533V193.467C450.133 197.296 453.238 200.4 457.067 200.4C460.896 200.4 464 197.296 464 193.467V186.533C464 182.704 460.896 179.6 457.067 179.6Z" fill="black"/>
</svg>
