<svg width="338" height="465" viewBox="0 0 338 465" fill="none" xmlns="http://www.w3.org/2000/svg">
<path d="M312.937 128.93C282.012 128.93 256.946 153.996 256.946 184.921V56.942C256.946 48.103 253.366 40.1042 247.577 34.3151C227.614 14.3513 192.956 28.3401 192.956 56.942C192.956 41.0881 194.781 29.5119 183.587 18.3177C163.624 -1.64621 128.966 12.3426 128.966 40.9441V72.939C128.966 64.1 125.386 56.102 119.597 50.3126C99.6341 30.3488 64.9761 44.3376 64.9761 72.939V124.931C64.9761 117.202 61.8361 110.203 56.7771 105.134C39.2241 87.616 8.98486 100.005 8.98486 124.931V328.899C8.98486 399.579 66.2841 456.878 136.965 456.878H184.957C264.473 456.878 328.934 392.417 328.934 312.901C328.934 296.009 328.934 161.824 328.934 144.928C328.934 136.076 321.775 128.93 312.937 128.93Z" fill="#F9CFAC"/>
<path d="M328.934 144.928V312.901C328.934 366.123 300.059 412.605 257.106 437.511C239.848 444.83 220.871 448.88 200.954 448.88H152.962C82.2809 448.88 24.9819 391.581 24.9819 320.9V99.635C43.5469 90.809 64.9759 104.43 64.9759 124.931V264.909C73.7839 264.909 80.9729 257.774 80.9729 248.911V45.2224C102.123 33.0093 128.966 48.1939 128.966 72.938C128.966 269.201 129.066 264.908 128.966 264.908C137.801 264.908 144.963 257.746 144.963 248.91V13.2275C166.309 0.901423 192.956 16.387 192.956 40.9431V264.908C201.763 264.908 208.953 257.773 208.953 248.91V29.2249C230.103 17.0119 256.946 32.1965 256.946 56.941V251.83C203.443 278.043 169.074 332.776 168.96 392.59C168.952 396.631 171.809 400.251 175.811 400.806C180.742 401.49 184.957 397.683 184.957 392.887C184.957 341.08 213.615 289.712 268.254 264.188C271.203 262.848 272.943 259.948 272.943 256.909V145.736C283.101 135.368 297.269 128.929 312.937 128.929C321.788 128.93 328.934 136.088 328.934 144.928Z" fill="#FFE4CC"/>
<path d="M304.446 393.599C300.924 390.933 295.906 391.627 293.241 395.15C292.482 396.154 291.703 397.147 290.916 398.122C286.66 403.393 290.508 411.145 297.134 411.145C301.542 411.145 303.388 408.252 305.997 404.805C308.663 401.281 307.969 396.265 304.446 393.599Z" fill="black"/>
<path d="M312.937 120.931C293.839 120.931 276.679 129.352 264.944 142.663V56.942C264.944 22.807 224.418 4.01788 198.465 27.0113C192.915 12.0387 178.434 0.950378 160.961 0.950378C138.91 0.950378 120.971 18.8886 120.967 40.9381C94.956 21.3542 56.977 39.8373 56.977 72.939V94.994C33.465 79.225 0.986084 95.947 0.986084 124.931V328.899C0.986084 403.877 61.985 464.877 136.965 464.877H184.957C219.521 464.877 253.352 452.957 280.22 431.312C283.66 428.542 284.202 423.506 281.431 420.066C278.66 416.628 273.624 416.086 270.183 418.854C246.148 438.216 215.88 448.88 184.956 448.88H136.964C70.806 448.88 16.983 395.056 16.983 328.899C16.983 324.619 16.983 130.905 16.983 124.931C16.983 107.225 38.54 98.234 51.115 110.785C54.895 114.571 56.976 119.597 56.976 124.931V256.91C56.976 261.327 60.558 264.909 64.975 264.909C69.392 264.909 72.974 261.327 72.974 256.91C72.974 233.499 72.974 94.39 72.974 72.939C72.974 51.7024 98.867 40.8931 113.94 55.969C118.47 60.499 120.966 66.526 120.966 72.939V256.91C120.966 261.327 124.548 264.909 128.965 264.909C133.382 264.909 136.964 261.327 136.964 256.91C136.964 249.858 136.964 52.4063 136.964 40.9441C136.964 19.7074 162.856 8.89818 177.93 23.9738C186.471 32.5144 184.956 40.7201 184.956 56.942V256.91C184.956 261.327 188.537 264.909 192.955 264.909C197.372 264.909 200.953 261.327 200.953 256.91V56.942C200.953 35.7049 226.846 24.8956 241.92 39.9712C246.45 44.5015 248.946 50.5286 248.946 56.942V251.851C195.352 278.107 160.96 332.963 160.96 392.888C160.96 397.306 164.541 400.887 168.959 400.887C173.376 400.887 176.957 397.306 176.957 392.888C176.957 339.152 207.86 288.042 260.258 264.19C262.295 263.27 263.969 261.423 264.629 259.109C265.096 257.484 264.942 262.323 264.942 184.921C264.942 158.457 286.472 136.929 312.935 136.929C317.377 136.929 320.933 140.5 320.933 144.928V312.901C320.933 332.76 316.754 351.891 308.51 369.761C306.66 373.772 308.412 378.525 312.424 380.374C316.46 382.234 321.197 380.45 323.038 376.461C340.132 339.404 336.933 313.229 336.933 256.91V144.928C336.933 131.689 326.239 120.931 312.937 120.931Z" fill="black"/>
</svg>
