<svg width="169" height="53" viewBox="0 0 169 53" fill="none" xmlns="http://www.w3.org/2000/svg">
<g clip-path="url(#clip0)">
<path d="M89.0633 13.2979C89.0633 15.2052 87.533 16.7416 85.6333 16.7416C83.7336 16.7416 82.2033 15.2052 82.2033 13.2979C82.2033 11.3906 83.6809 9.85421 85.6333 9.85421C87.5858 9.90719 89.0633 11.4436 89.0633 13.2979ZM74.9211 20.2382C74.9211 20.5561 74.9211 21.0859 74.9211 21.0859C74.9211 21.0859 73.2853 18.9667 69.8025 18.9667C64.0506 18.9667 59.5652 23.364 59.5652 29.4567C59.5652 35.4964 63.9979 39.9467 69.8025 39.9467C73.338 39.9467 74.9211 37.7745 74.9211 37.7745V38.6751C74.9211 39.099 75.2378 39.4169 75.6599 39.4169H79.9342V19.4965C79.9342 19.4965 76.0293 19.4965 75.6599 19.4965C75.2378 19.4965 74.9211 19.8674 74.9211 20.2382ZM74.9211 33.0063C74.1296 34.1719 72.5465 35.1785 70.6468 35.1785C67.2696 35.1785 64.6839 33.0593 64.6839 29.4567C64.6839 25.8541 67.2696 23.7349 70.6468 23.7349C72.4937 23.7349 74.1824 24.7945 74.9211 25.907V33.0063ZM83.1004 19.4965H88.1663V39.4169H83.1004V19.4965ZM158.772 18.9667C155.289 18.9667 153.653 21.0859 153.653 21.0859V9.90719H148.587V39.4169C148.587 39.4169 152.492 39.4169 152.862 39.4169C153.284 39.4169 153.6 39.046 153.6 38.6751V37.7745C153.6 37.7745 155.236 39.9467 158.719 39.9467C164.471 39.9467 168.956 35.4964 168.956 29.4567C168.956 23.417 164.471 18.9667 158.772 18.9667ZM157.927 35.1255C155.975 35.1255 154.445 34.1189 153.653 32.9533V25.8541C154.445 24.7945 156.133 23.6819 157.927 23.6819C161.305 23.6819 163.89 25.8011 163.89 29.4037C163.89 33.0063 161.305 35.1255 157.927 35.1255ZM145.949 27.6024V39.4698H140.883V28.1852C140.883 24.9004 139.828 23.5759 136.978 23.5759C135.448 23.5759 133.865 24.3706 132.862 25.5362V39.4169H127.796V19.4965H131.807C132.229 19.4965 132.545 19.8674 132.545 20.2382V21.0859C134.023 19.5495 135.975 18.9667 137.928 18.9667C140.144 18.9667 141.991 19.6025 143.469 20.874C145.263 22.3574 145.949 24.2647 145.949 27.6024ZM115.501 18.9667C112.018 18.9667 110.382 21.0859 110.382 21.0859V9.90719H105.316V39.4169C105.316 39.4169 109.221 39.4169 109.591 39.4169C110.013 39.4169 110.329 39.046 110.329 38.6751V37.7745C110.329 37.7745 111.965 39.9467 115.448 39.9467C121.2 39.9467 125.685 35.4964 125.685 29.4567C125.738 23.417 121.253 18.9667 115.501 18.9667ZM114.657 35.1255C112.704 35.1255 111.174 34.1189 110.382 32.9533V25.8541C111.174 24.7945 112.862 23.6819 114.657 23.6819C118.034 23.6819 120.619 25.8011 120.619 29.4037C120.619 33.0063 118.034 35.1255 114.657 35.1255ZM100.936 18.9667C102.467 18.9667 103.258 19.2316 103.258 19.2316V23.9468C103.258 23.9468 99.0368 22.5163 96.3983 25.5362V39.4698H91.3324V19.4965C91.3324 19.4965 95.2374 19.4965 95.6067 19.4965C96.0289 19.4965 96.3455 19.8674 96.3455 20.2382V21.0859C97.2954 19.9733 99.3534 18.9667 100.936 18.9667ZM48.3253 37.6155C48.0615 36.9798 47.7977 36.2911 47.5338 35.7083C47.1116 34.7546 46.6895 33.854 46.3201 33.0063L46.2673 32.9533C42.6262 25.0064 38.7213 16.9535 34.6053 9.00654L34.447 8.68866C34.0248 7.89397 33.6027 7.04629 33.1805 6.19862C32.6528 5.24498 32.1251 4.23837 31.2808 3.28474C29.5922 1.16555 27.1648 0 24.5791 0C21.9406 0 19.566 1.16555 17.8246 3.17878C17.0331 4.13241 16.4526 5.13903 15.9249 6.09266C15.5028 6.94033 15.0806 7.78801 14.6585 8.5827L14.5002 8.90058C10.4369 16.8475 6.4792 24.9004 2.83811 32.8474L2.78534 32.9533C2.41595 33.801 1.9938 34.7017 1.57164 35.6553C1.3078 36.2381 1.04395 36.8738 0.780103 37.5626C0.0941008 39.5228 -0.116977 41.3771 0.14687 43.2844C0.727334 47.2578 3.3658 50.5956 7.00689 52.079C8.3789 52.6618 9.80367 52.9267 11.2812 52.9267C11.7034 52.9267 12.2311 52.8737 12.6532 52.8207C14.3946 52.6088 16.1888 52.026 17.9302 51.0194C20.0937 49.8009 22.1517 48.0525 24.4736 45.5095C26.7954 48.0525 28.9062 49.8009 31.017 51.0194C32.7584 52.026 34.5525 52.6088 36.2939 52.8207C36.7161 52.8737 37.2438 52.9267 37.6659 52.9267C39.1435 52.9267 40.621 52.6618 41.9402 52.079C45.6341 50.5956 48.2198 47.2049 48.8003 43.2844C49.2224 41.4301 49.0113 39.5758 48.3253 37.6155ZM24.5263 40.3705C21.6768 36.7679 19.8299 33.3772 19.1966 30.5163C18.9328 29.2977 18.88 28.2381 19.0383 27.2845C19.1439 26.4368 19.4605 25.6951 19.8826 25.0594C20.8853 23.6289 22.5739 22.7283 24.5263 22.7283C26.4788 22.7283 28.2202 23.5759 29.1701 25.0594C29.5922 25.6951 29.9088 26.4368 30.0144 27.2845C30.1727 28.2381 30.1199 29.3507 29.8561 30.5163C29.2228 33.3242 27.3759 36.7149 24.5263 40.3705ZM45.5813 42.8605C45.212 45.6155 43.365 47.9996 40.7793 49.0591C39.5129 49.5889 38.1408 49.7479 36.7688 49.5889C35.4496 49.43 34.1304 49.0062 32.7584 48.2115C30.8587 47.1519 28.959 45.5095 26.7427 43.0725C30.2254 38.7811 32.3362 34.8606 33.1278 31.3639C33.4971 29.7216 33.5499 28.2381 33.3916 26.8607C33.1805 25.5362 32.7056 24.3177 31.9668 23.2581C30.331 20.874 27.587 19.4965 24.5263 19.4965C21.4657 19.4965 18.7217 20.927 17.0859 23.2581C16.3471 24.3177 15.8722 25.5362 15.6611 26.8607C15.45 28.2381 15.5028 29.7746 15.9249 31.3639C16.7165 34.8606 18.88 38.8341 22.31 43.1254C20.1465 45.5625 18.194 47.2049 16.2943 48.2645C14.9223 49.0591 13.6031 49.483 12.2838 49.6419C10.8591 49.8009 9.48706 49.5889 8.27336 49.1121C5.68766 48.0525 3.84073 45.6685 3.47134 42.9135C3.31304 41.589 3.41857 40.2645 3.94627 38.7811C4.10458 38.2513 4.36842 37.7215 4.63227 37.0857C5.00166 36.2381 5.42381 35.3374 5.84597 34.4368L5.89874 34.3308C9.53983 26.4368 13.4448 18.3839 17.508 10.5429L17.6663 10.2251C18.0885 9.43038 18.5106 8.5827 18.9328 7.78801C19.3549 6.94033 19.8299 6.14564 20.4103 5.4569C21.5185 4.18539 22.996 3.49666 24.6319 3.49666C26.2677 3.49666 27.7453 4.18539 28.8534 5.4569C29.4339 6.14564 29.9088 6.94033 30.331 7.78801C30.7531 8.5827 31.1753 9.43038 31.5974 10.2251L31.7558 10.5429C35.7662 18.4369 39.6712 26.4898 43.3123 34.3838V34.4368C43.7344 35.2844 44.1038 36.2381 44.526 37.0857C44.7898 37.7215 45.0536 38.2513 45.212 38.7811C45.6341 40.1586 45.7924 41.4831 45.5813 42.8605Z" fill="#FF5A5F"/>
</g>
<defs>
<clipPath id="clip0">
<rect width="168.915" height="52.9267" fill="white" transform="translate(0.0426025)"/>
</clipPath>
</defs>
</svg>
