<svg width="153" height="47" viewBox="0 0 153 47" fill="none" xmlns="http://www.w3.org/2000/svg">
<g clip-path="url(#clip0)">
<path fill-rule="evenodd" clip-rule="evenodd" d="M94.9183 36.0149C86.0272 42.5606 73.1401 46.053 62.0445 46.053C46.4868 46.053 32.4808 40.3055 21.8848 30.7464C21.0523 29.9947 21.7982 28.9702 22.7972 29.5556C34.2324 36.2011 48.3716 40.1991 62.9769 40.1991C72.8271 40.1991 83.6629 38.1635 93.6262 33.9394C95.1314 33.3008 96.3901 34.9239 94.9183 36.0149" fill="#FF9900"/>
<path fill-rule="evenodd" clip-rule="evenodd" d="M98.6145 31.7909C97.4823 30.3407 91.102 31.1057 88.2382 31.445C87.3658 31.5514 87.2326 30.793 88.0184 30.2476C93.1 26.6754 101.438 27.7064 102.411 28.9038C103.383 30.1079 102.158 38.4564 97.3824 42.441C96.6498 43.053 95.9505 42.727 96.2768 41.9155C97.3491 39.2413 99.7533 33.2477 98.6145 31.7909" fill="#FF9900"/>
<path fill-rule="evenodd" clip-rule="evenodd" d="M88.438 5.02898V1.55655C88.438 1.03103 88.8376 0.678467 89.3171 0.678467H104.882C105.381 0.678467 105.781 1.03768 105.781 1.55655V4.53007C105.774 5.02898 105.354 5.6809 104.608 6.71198L96.5432 18.2136C99.5402 18.1404 102.704 18.5861 105.421 20.1161C106.034 20.462 106.2 20.9676 106.247 21.4665V25.1718C106.247 25.6773 105.687 26.2694 105.101 25.9634C100.313 23.4555 93.9525 23.1828 88.6578 25.99C88.1183 26.2827 87.5522 25.6973 87.5522 25.1917V21.6727C87.5522 21.1073 87.5589 20.1427 88.125 19.2846L97.469 5.90042H89.3371C88.8376 5.90042 88.438 5.54786 88.438 5.02898" fill="black"/>
<path fill-rule="evenodd" clip-rule="evenodd" d="M31.6616 26.6952H26.9264C26.4735 26.662 26.1139 26.3227 26.0806 25.8903V1.61657C26.0806 1.13096 26.4868 0.745128 26.993 0.745128H31.4086C31.8681 0.765071 32.2344 1.11765 32.2677 1.55669V4.72978H32.3543C33.5065 1.66313 35.671 0.23291 38.588 0.23291C41.5517 0.23291 43.4032 1.66313 44.7352 4.72978C45.8807 1.66313 48.4848 0.23291 51.2753 0.23291C53.26 0.23291 55.4312 1.05113 56.7565 2.88712C58.255 4.92934 57.9486 7.8962 57.9486 10.4972L57.942 25.8171C57.942 26.3028 57.5357 26.6952 57.0296 26.6952H52.301C51.8281 26.662 51.4485 26.2828 51.4485 25.8171V12.9519C51.4485 11.9274 51.5417 9.37299 51.3153 8.40177C50.9623 6.77199 49.9034 6.31299 48.5314 6.31299C47.3859 6.31299 46.1871 7.07799 45.7009 8.30199C45.2147 9.52599 45.2614 11.5749 45.2614 12.9519V25.8171C45.2614 26.3028 44.8551 26.6952 44.3489 26.6952H39.6203C39.1408 26.662 38.7679 26.2828 38.7679 25.8171L38.7612 12.9519C38.7612 10.2444 39.2074 6.25977 35.8441 6.25977C32.4409 6.25977 32.5741 10.1446 32.5741 12.9519V25.8171C32.5741 26.3028 32.1678 26.6952 31.6616 26.6952" fill="black"/>
<path fill-rule="evenodd" clip-rule="evenodd" d="M119.181 0.23291C126.207 0.23291 130.01 6.25977 130.01 13.9231C130.01 21.3269 125.807 27.2008 119.181 27.2008C112.281 27.2008 108.525 21.1739 108.525 13.6636C108.525 6.10677 112.327 0.23291 119.181 0.23291V0.23291ZM119.22 5.18878C115.731 5.18878 115.511 9.93842 115.511 12.8986C115.511 15.8655 115.464 22.1984 119.181 22.1984C122.85 22.1984 123.023 17.0895 123.023 13.9763C123.023 11.9274 122.937 9.47942 122.317 7.53699C121.785 5.84734 120.726 5.18878 119.22 5.18878" fill="black"/>
<path fill-rule="evenodd" clip-rule="evenodd" d="M139.121 26.6952H134.405C133.932 26.662 133.553 26.2828 133.553 25.8171L133.546 1.53673C133.586 1.09104 133.979 0.745128 134.459 0.745128H138.848C139.26 0.765071 139.6 1.04448 139.693 1.42365V5.13556H139.78C141.105 1.81613 142.963 0.23291 146.233 0.23291C148.358 0.23291 150.429 0.997911 151.761 3.09334C153 5.03577 153 8.30199 153 10.6502V25.9302C152.947 26.356 152.554 26.6952 152.088 26.6952H147.339C146.906 26.662 146.547 26.3427 146.5 25.9302V12.7456C146.5 10.0914 146.806 6.20655 143.536 6.20655C142.384 6.20655 141.325 6.97821 140.799 8.14899C140.133 9.63242 140.046 11.1092 140.046 12.7456V25.8171C140.04 26.3028 139.627 26.6952 139.121 26.6952" fill="black"/>
<path fill-rule="evenodd" clip-rule="evenodd" d="M76.0305 15.1004C76.0305 16.9431 76.0771 18.4797 75.1447 20.1162C74.3921 21.4466 73.1933 22.2648 71.868 22.2648C70.0498 22.2648 68.9842 20.8812 68.9842 18.8389C68.9842 14.8077 72.6006 14.076 76.0305 14.076V15.1004V15.1004ZM80.8057 26.6286C80.4927 26.908 80.0398 26.928 79.6868 26.7417C78.1151 25.4379 77.8287 24.8326 76.9696 23.5886C74.3722 26.2362 72.5273 27.0278 69.164 27.0278C65.1747 27.0278 62.0778 24.5731 62.0778 19.6572C62.0778 15.8189 64.1557 13.2046 67.1261 11.9273C69.6969 10.7965 73.2866 10.5969 76.0305 10.2843V9.67226C76.0305 8.54804 76.1171 7.2176 75.4511 6.24639C74.8783 5.37495 73.7728 5.01574 72.7937 5.01574C70.9889 5.01574 69.3838 5.94039 68.9909 7.85621C68.911 8.28195 68.598 8.70104 68.1651 8.721L63.5763 8.22873C63.19 8.14226 62.7571 7.8296 62.8704 7.23756C63.9226 1.67635 68.9576 0 73.4597 0C75.7641 0 78.7744 0.612001 80.5926 2.35487C82.897 4.50352 82.6772 7.3706 82.6772 10.4905V17.8611C82.6772 20.0763 83.5963 21.0475 84.462 22.2449C84.7618 22.6706 84.8284 23.1828 84.4421 23.5021C83.4764 24.307 81.7581 25.8038 80.8124 26.6419L80.8057 26.6286" fill="black"/>
<path fill-rule="evenodd" clip-rule="evenodd" d="M13.9527 15.1007C13.9527 16.9433 13.9993 18.48 13.0669 20.1164C12.3143 21.4468 11.1222 22.2651 9.79019 22.2651C7.97201 22.2651 6.91307 20.8814 6.91307 18.8392C6.91307 14.808 10.5294 14.0762 13.9527 14.0762V15.1007V15.1007ZM18.7279 26.6289C18.4149 26.9083 17.962 26.9282 17.609 26.742C16.0373 25.4381 15.7575 24.8328 14.8917 23.5888C12.2943 26.2364 10.4562 27.028 7.08623 27.028C3.10355 27.028 0 24.5734 0 19.6574C0 15.8191 2.08458 13.2048 5.04827 11.9276C7.61903 10.7967 11.2088 10.5972 13.9527 10.2845V9.6725C13.9527 8.54828 14.0393 7.21785 13.3799 6.24664C12.8005 5.3752 11.6949 5.01598 10.7226 5.01598C8.91773 5.01598 7.30601 5.94063 6.91307 7.85646C6.83315 8.2822 6.52013 8.70128 6.09389 8.72124L1.4985 8.22898C1.11222 8.1425 0.685978 7.82985 0.792538 7.23781C1.85148 1.6766 6.87977 0.000244141 11.3819 0.000244141C13.6863 0.000244141 16.6966 0.612245 18.5148 2.35511C20.8191 4.50376 20.5993 7.37085 20.5993 10.4907V17.8613C20.5993 20.0765 21.5184 21.0477 22.3842 22.2451C22.6906 22.6708 22.7572 23.1831 22.3709 23.5024C21.4052 24.3073 19.6869 25.804 18.7412 26.6422L18.7279 26.6289" fill="black"/>
</g>
<defs>
<clipPath id="clip0">
<rect width="153" height="46.053" fill="white"/>
</clipPath>
</defs>
</svg>
