<svg width="139" height="56" viewBox="0 0 139 56" fill="none" xmlns="http://www.w3.org/2000/svg">
<path d="M18.0085 12.2441C8.21093 12.2441 0.0466614 16.4194 0.0466614 29.0158C0.0466614 38.995 5.53654 45.2793 18.2614 45.2793C33.2392 45.2793 34.1994 35.3688 34.1994 35.3688H26.9419C26.9419 35.3688 25.3859 40.7052 17.8187 40.7052C11.6555 40.7052 7.22265 36.5231 7.22265 30.6613H34.9583V26.9829C34.9583 21.1837 31.2933 12.2441 18.0085 12.2441V12.2441ZM17.7555 16.9453C23.6222 16.9453 27.6218 20.5555 27.6218 25.9664H7.38317C7.38317 20.2221 12.6036 16.9453 17.7555 16.9453V16.9453Z" fill="#E53238"/>
<path d="M34.9528 0.0466309V38.9535C34.9528 41.162 34.7959 44.2629 34.7959 44.2629H41.718C41.718 44.2629 41.9664 42.0358 41.9664 40.0004C41.9664 40.0004 45.3864 45.3747 54.6855 45.3747C64.4778 45.3747 71.1294 38.5457 71.1294 28.7618C71.1294 19.66 65.0197 12.3395 54.7013 12.3395C45.0388 12.3395 42.0363 17.5807 42.0363 17.5807V0.0466309H34.9528ZM52.9146 17.1519C59.5644 17.1519 63.7929 22.1092 63.7929 28.7618C63.7929 35.8955 58.9091 40.5623 52.962 40.5623C45.8648 40.5623 42.0363 34.996 42.0363 28.8253C42.0363 23.0755 45.4717 17.1519 52.9146 17.1519Z" fill="#0064D2"/>
<path d="M88.3322 12.2441C73.5926 12.2441 72.6473 20.351 72.6473 21.6465H79.9838C79.9838 21.6465 80.3685 16.9135 87.8263 16.9135C92.6724 16.9135 96.4277 19.1416 96.4277 23.4253V24.95H87.8263C76.4073 24.95 70.3704 28.3054 70.3704 35.1146C70.3704 41.8159 75.9483 45.4619 83.486 45.4619C93.7588 45.4619 97.068 39.7602 97.068 39.7602C97.068 42.028 97.2421 44.2628 97.2421 44.2628H103.764C103.764 44.2628 103.511 41.4927 103.511 39.7205V24.402C103.511 14.3579 95.4457 12.2441 88.3322 12.2441V12.2441ZM96.4277 29.5241V31.557C96.4277 34.2085 94.7988 40.8005 85.2095 40.8005C79.9584 40.8005 77.7069 38.1681 77.7069 35.1146C77.7069 29.5598 85.2888 29.5241 96.4277 29.5241V29.5241Z" fill="#F5AF02"/>
<path d="M99.5606 13.5161H107.814L119.659 37.3532L131.477 13.5161H138.954L117.428 55.9536H109.585L115.797 44.1236L99.5606 13.5161Z" fill="#86B817"/>
</svg>
