<svg width="147" height="40" viewBox="0 0 147 40" fill="none" xmlns="http://www.w3.org/2000/svg">
<g clip-path="url(#clip0)">
<path d="M20.2129 37.2015C18.0016 37.5902 15.7514 37.7067 13.4237 38.0171L6.32373 17.203V38.9104C4.11241 39.1433 2.09504 39.454 0 39.7646V0H5.89723L13.9667 22.5621V0H20.2129V37.2015ZM32.4339 14.5623C34.8394 14.5623 38.5251 14.4457 40.7364 14.4457V20.6588C37.9817 20.6588 34.7618 20.6588 32.4339 20.7753V30.0177C36.0809 29.7848 39.7278 29.4738 43.4132 29.3573V35.3372L26.2263 36.6966V0H43.4132V6.21324H32.4339V14.5623V14.5623ZM66.4971 6.21338H60.057V34.7942C57.9619 34.7942 55.8669 34.7942 53.8498 34.8716V6.21338H47.4097V0H66.4974L66.4971 6.21338V6.21338ZM76.5841 14.1352H85.0807V20.3483H76.5841V34.4447H70.4927V0H87.8352V6.21324H76.5841V14.1352V14.1352ZM97.9222 29.008C101.453 29.0854 105.022 29.3577 108.475 29.5516V35.6872C102.927 35.3375 97.3792 34.9884 91.7149 34.8716V0H97.9222V29.008ZM113.712 36.1144C115.691 36.2311 117.786 36.3476 119.803 36.5802V0H113.712V36.1144V36.1144ZM147 0L139.124 18.9116L147 39.7646C144.672 39.454 142.344 39.0268 140.016 38.6384L135.555 27.1442L131.016 37.7067C128.766 37.3181 126.593 37.2015 124.343 36.8909L132.335 18.6784L125.119 0H131.792L135.865 10.446L140.211 0H147V0Z" fill="#D81F26"/>
</g>
<defs>
<clipPath id="clip0">
<rect width="147" height="39.7646" fill="white"/>
</clipPath>
</defs>
</svg>
