<svg width="175" height="47" viewBox="0 0 175 47" fill="none" xmlns="http://www.w3.org/2000/svg">
<path d="M65.2171 9.5249H55.5653C55.2458 9.5247 54.9367 9.63862 54.6937 9.84614C54.4508 10.0537 54.2899 10.3411 54.2401 10.6568L50.3365 35.4066C50.3185 35.5214 50.3257 35.6388 50.3575 35.7506C50.3892 35.8624 50.4449 35.966 50.5205 36.0543C50.5962 36.1425 50.69 36.2133 50.7957 36.2618C50.9013 36.3103 51.0162 36.3354 51.1325 36.3352H55.7403C56.0601 36.3353 56.3693 36.2212 56.6123 36.0134C56.8553 35.8056 57.016 35.5178 57.0655 35.2019L58.1183 28.5265C58.1678 28.2109 58.3283 27.9233 58.571 27.7155C58.8137 27.5077 59.1226 27.3934 59.4421 27.3932H62.4976C68.8554 27.3932 72.5248 24.3166 73.4831 18.2199C73.9149 15.5525 73.5014 13.4568 72.2524 11.989C70.8806 10.3773 68.4476 9.5249 65.2171 9.5249V9.5249ZM66.3306 18.5642C65.8028 22.0275 63.1566 22.0275 60.598 22.0275H59.1415L60.1633 15.5596C60.1932 15.3704 60.2897 15.198 60.4353 15.0736C60.581 14.9491 60.7663 14.8808 60.9579 14.8807H61.6254C63.3683 14.8807 65.0125 14.8807 65.8621 15.8743C66.3687 16.467 66.524 17.3477 66.3306 18.5642V18.5642ZM94.0681 18.4527H89.4462C89.2546 18.4527 89.0693 18.5211 88.9236 18.6455C88.778 18.77 88.6815 18.9423 88.6516 19.1316L88.447 20.4243L88.1238 19.9557C87.1232 18.5035 84.8919 18.018 82.6649 18.018C77.5575 18.018 73.1952 21.8864 72.3456 27.3128C71.9038 30.0197 72.5318 32.608 74.0673 34.413C75.4758 36.0727 77.4911 36.7642 79.8889 36.7642C84.0042 36.7642 86.2863 34.118 86.2863 34.118L86.0802 35.4023C86.0619 35.5171 86.0686 35.6346 86.1 35.7465C86.1314 35.8585 86.1867 35.9623 86.2621 36.0509C86.3375 36.1394 86.4312 36.2105 86.5367 36.2594C86.6422 36.3082 86.7571 36.3336 86.8734 36.3338H91.0367C91.3564 36.3339 91.6657 36.2198 91.9087 36.012C92.1517 35.8042 92.3124 35.5164 92.3619 35.2005L94.8599 19.3814C94.8783 19.2668 94.8716 19.1496 94.8402 19.0379C94.8089 18.9261 94.7537 18.8226 94.6784 18.7343C94.6031 18.646 94.5096 18.5751 94.4042 18.5265C94.2988 18.4778 94.1842 18.4527 94.0681 18.4527V18.4527ZM87.6256 27.4483C87.1796 30.0888 85.0839 31.8614 82.4109 31.8614C81.0687 31.8614 79.9962 31.431 79.3075 30.6152C78.6244 29.8051 78.3647 28.6521 78.5821 27.3678C78.9984 24.7499 81.1294 22.9195 83.7615 22.9195C85.074 22.9195 86.1409 23.3555 86.8437 24.1783C87.548 25.0096 87.8274 26.1697 87.6256 27.4483V27.4483ZM118.684 18.4527H114.039C113.82 18.4531 113.605 18.5069 113.411 18.6094C113.218 18.712 113.052 18.8602 112.929 19.0412L106.523 28.4771L103.807 19.4096C103.724 19.133 103.554 18.8906 103.322 18.7183C103.09 18.546 102.809 18.4529 102.52 18.4527H97.9562C97.8281 18.4524 97.7018 18.4826 97.5877 18.541C97.4737 18.5994 97.3752 18.6841 97.3005 18.7882C97.2258 18.8923 97.1771 19.0127 97.1583 19.1395C97.1396 19.2662 97.1514 19.3956 97.1927 19.5168L102.309 34.5301L97.499 41.3199C97.4135 41.4402 97.3628 41.5818 97.3524 41.7291C97.3421 41.8764 97.3724 42.0237 97.4402 42.1548C97.508 42.286 97.6105 42.396 97.7367 42.4728C97.8628 42.5495 98.0076 42.5901 98.1552 42.59H102.794C103.011 42.5903 103.224 42.5381 103.416 42.4378C103.608 42.3375 103.773 42.1922 103.896 42.0142L119.344 19.7158C119.428 19.5952 119.477 19.4539 119.486 19.3074C119.496 19.1608 119.464 19.0145 119.396 18.8844C119.328 18.7543 119.226 18.6452 119.1 18.5692C118.975 18.4931 118.831 18.4528 118.684 18.4527V18.4527Z" fill="#253B80"/>
<path d="M134.061 9.52485H124.408C124.089 9.52498 123.78 9.63906 123.537 9.84655C123.295 10.054 123.134 10.3413 123.084 10.6567L119.181 35.4065C119.162 35.5212 119.169 35.6384 119.201 35.7501C119.232 35.8618 119.288 35.9654 119.363 36.0536C119.439 36.1419 119.532 36.2128 119.638 36.2614C119.743 36.31 119.858 36.3351 119.974 36.3351H124.927C125.151 36.3348 125.367 36.2547 125.537 36.1093C125.706 35.964 125.819 35.7628 125.853 35.542L126.961 28.5265C127.011 28.2108 127.171 27.9232 127.414 27.7154C127.656 27.5077 127.965 27.3934 128.285 27.3932H131.339C137.698 27.3932 141.366 24.3166 142.326 18.2198C142.759 15.5525 142.343 13.4567 141.094 11.989C139.723 10.3773 137.292 9.52485 134.061 9.52485V9.52485ZM135.175 18.5642C134.648 22.0275 132.002 22.0275 129.442 22.0275H127.987L129.01 15.5595C129.04 15.3703 129.136 15.1978 129.281 15.0733C129.427 14.9488 129.612 14.8805 129.803 14.8807H130.471C132.212 14.8807 133.858 14.8807 134.708 15.8742C135.214 16.467 135.368 17.3476 135.175 18.5642V18.5642ZM162.911 18.4527H158.292C158.1 18.4521 157.915 18.5204 157.769 18.6449C157.624 18.7695 157.528 18.9421 157.499 19.1315L157.294 20.4242L156.969 19.9557C155.969 18.5035 153.739 18.018 151.512 18.018C146.404 18.018 142.044 21.8863 141.194 27.3128C140.754 30.0196 141.379 32.6079 142.914 34.413C144.326 36.0726 146.338 36.7642 148.736 36.7642C152.851 36.7642 155.133 34.118 155.133 34.118L154.927 35.4023C154.909 35.5173 154.916 35.635 154.947 35.7472C154.979 35.8593 155.034 35.9633 155.11 36.0519C155.186 36.1405 155.28 36.2116 155.386 36.2602C155.491 36.3089 155.607 36.334 155.723 36.3337H159.885C160.205 36.3335 160.513 36.2193 160.756 36.0115C160.999 35.8037 161.159 35.5161 161.209 35.2005L163.708 19.3813C163.726 19.2664 163.719 19.149 163.687 19.0372C163.655 18.9253 163.599 18.8218 163.523 18.7335C163.447 18.6453 163.353 18.5745 163.248 18.5261C163.142 18.4776 163.027 18.4525 162.911 18.4527V18.4527ZM156.468 27.4482C156.025 30.0888 153.927 31.8613 151.254 31.8613C149.914 31.8613 148.839 31.4309 148.15 30.6152C147.467 29.8051 147.21 28.6521 147.425 27.3678C147.844 24.7498 149.972 22.9194 152.604 22.9194C153.917 22.9194 154.984 23.3555 155.686 24.1783C156.394 25.0095 156.673 26.1696 156.468 27.4482V27.4482ZM168.36 10.2037L164.398 35.4065C164.38 35.5212 164.387 35.6384 164.419 35.7501C164.45 35.8618 164.506 35.9654 164.581 36.0536C164.656 36.1419 164.75 36.2128 164.855 36.2614C164.961 36.31 165.075 36.3351 165.192 36.3351H169.174C169.836 36.3351 170.398 35.8553 170.499 35.2019L174.406 10.4535C174.424 10.3388 174.417 10.2215 174.386 10.1097C174.354 9.9979 174.299 9.89425 174.223 9.80588C174.148 9.71751 174.054 9.64651 173.949 9.59775C173.844 9.54899 173.729 9.52364 173.613 9.52344H169.153C168.962 9.52412 168.777 9.59294 168.631 9.71759C168.486 9.84223 168.39 10.0146 168.36 10.2037Z" fill="#179BD7"/>
<path d="M10.2544 41.1447L10.9925 36.4564L9.34838 36.4183H1.49738L6.95342 1.8233C6.96967 1.7176 7.02335 1.62125 7.1047 1.55182C7.18604 1.4824 7.28963 1.44451 7.39657 1.44507H20.6345C25.0292 1.44507 28.0621 2.35959 29.6456 4.16463C30.3879 5.01141 30.8607 5.89628 31.0893 6.87007C31.3292 7.89185 31.3335 9.11261 31.0992 10.6015L31.0823 10.7102V11.6642L31.8246 12.0848C32.3913 12.3719 32.9007 12.7603 33.3276 13.2308C33.9627 13.9548 34.3734 14.8749 34.547 15.9658C34.7262 17.0878 34.6669 18.4229 34.3734 19.9344C34.0347 21.6731 33.4871 23.1874 32.7476 24.4265C32.0951 25.5366 31.2178 26.498 30.172 27.2491C29.1897 27.9463 28.0226 28.4755 26.703 28.8142C25.4244 29.1473 23.9665 29.3152 22.3675 29.3152H21.3373C20.6006 29.3152 19.8851 29.5806 19.3234 30.0562C18.7625 30.5368 18.3904 31.201 18.2734 31.9304L18.1958 32.3523L16.8917 40.6154L16.8325 40.9189C16.8169 41.0148 16.7901 41.0628 16.7506 41.0953C16.7123 41.1266 16.6646 41.144 16.6151 41.1447H10.2544Z" fill="#253B80"/>
<path d="M32.5274 10.8203C32.4879 11.0729 32.4427 11.3312 32.3919 11.5965C30.6462 20.5596 24.6736 23.656 17.0456 23.656H13.1617C12.2288 23.656 11.4427 24.3334 11.2974 25.2536L9.30886 37.8649L8.74575 41.4397C8.72332 41.5815 8.73189 41.7264 8.77086 41.8646C8.80983 42.0028 8.87828 42.1309 8.9715 42.2401C9.06472 42.3492 9.18049 42.4369 9.31084 42.4971C9.4412 42.5572 9.58304 42.5884 9.7266 42.5885H16.6151C17.4308 42.5885 18.1238 41.9957 18.2522 41.1913L18.3199 40.8413L19.6169 32.6106L19.7002 32.159C19.8272 31.3518 20.5216 30.759 21.3373 30.759H22.3675C29.0415 30.759 34.2661 28.0493 35.7931 20.2082C36.431 16.9326 36.1008 14.1975 34.4129 12.2739C33.8779 11.6789 33.239 11.1863 32.5274 10.8203V10.8203Z" fill="#179BD7"/>
<path d="M30.7012 10.0922C30.1438 9.93095 29.5767 9.8051 29.0034 9.71539C27.8706 9.5413 26.7257 9.45776 25.5796 9.46559H15.2038C14.8089 9.46529 14.427 9.60626 14.127 9.86302C13.827 10.1198 13.6288 10.4754 13.5681 10.8656L11.3609 24.8458L11.2974 25.2537C11.3661 24.8086 11.5919 24.4029 11.9339 24.1099C12.2758 23.8169 12.7113 23.6559 13.1617 23.6561H17.0455C24.6736 23.6561 30.6462 20.5583 32.3919 11.5966C32.4441 11.3313 32.4879 11.0731 32.5274 10.8204C32.0667 10.5789 31.5866 10.3763 31.0921 10.215C30.9625 10.172 30.8322 10.131 30.7012 10.0922V10.0922Z" fill="#222D65"/>
<path d="M13.5681 10.8655C13.6282 10.4752 13.8264 10.1194 14.1265 9.86281C14.4267 9.60617 14.8089 9.46571 15.2038 9.46694H25.5796C26.8088 9.46694 27.9562 9.54738 29.0034 9.71673C29.712 9.8281 30.4108 9.99467 31.0935 10.2149C31.6086 10.3857 32.0871 10.5875 32.5288 10.8204C33.0481 7.50806 32.5246 5.25282 30.7336 3.21069C28.7592 0.9625 25.1957 0 20.6358 0H7.39795C6.4665 0 5.67194 0.677419 5.52799 1.59899L0.014077 36.5496C-0.0116058 36.7119 -0.00183439 36.8778 0.0427192 37.0359C0.0872729 37.194 0.165551 37.3406 0.27217 37.4656C0.378789 37.5906 0.511217 37.691 0.660346 37.76C0.809475 37.8289 0.971765 37.8647 1.13605 37.8649H9.30884L11.3609 24.8458L13.5681 10.8655V10.8655Z" fill="#253B80"/>
</svg>
