<svg version="1.2" baseProfile="tiny-ps" xmlns="http://www.w3.org/2000/svg" viewBox="0 0 3710 3710" width="3710" height="3710">
	<title>19197954-ai</title>
	<defs>
		<linearGradient id="grd1" gradientUnits="userSpaceOnUse"  x1="2447.621" y1="4799.442" x2="103.463" y2="1888.145">
			<stop offset="0" stop-color="#b37cff"  />
			<stop offset="1" stop-color="#f895e7"  />
		</linearGradient>
		<linearGradient id="grd2" gradientUnits="userSpaceOnUse"  x1="3300.244" y1="2390.382" x2="2162.751" y2="3343.242">
			<stop offset="0" stop-color="#fa81a9"  />
			<stop offset="1" stop-color="#fbcb69"  />
		</linearGradient>
		<linearGradient id="grd3" gradientUnits="userSpaceOnUse"  x1="3650.286" y1="2525.106" x2="2234.464" y2="3711.118">
			<stop offset="0" stop-color="#fa81a9"  />
			<stop offset="1" stop-color="#fbcb69"  />
		</linearGradient>
		<linearGradient id="grd4" gradientUnits="userSpaceOnUse"  x1="5813.022" y1="-590.269" x2="924.959" y2="3576.127">
			<stop offset="0.363" stop-color="#e65b6f"  />
			<stop offset="1" stop-color="#cb236d"  />
		</linearGradient>
		<linearGradient id="grd5" gradientUnits="userSpaceOnUse"  x1="6296.321" y1="-316.933" x2="1165.418" y2="4056.452">
			<stop offset="0.668" stop-color="#e65b6f"  />
			<stop offset="1" stop-color="#cb236d"  />
		</linearGradient>
		<linearGradient id="grd6" gradientUnits="userSpaceOnUse"  x1="-19.509" y1="1963.255" x2="4223.867" y2="-2530.301">
			<stop offset="0.216" stop-color="#e65b6f"  />
			<stop offset="0.295" stop-color="#e65b6f"  />
			<stop offset="1" stop-color="#4c246d"  />
		</linearGradient>
		<linearGradient id="grd7" gradientUnits="userSpaceOnUse"  x1="1164.045" y1="3306.085" x2="5618.24" y2="-1410.719">
			<stop offset="0" stop-color="#e65b6f"  />
			<stop offset="1" stop-color="#4c246d"  />
		</linearGradient>
		<linearGradient id="grd8" gradientUnits="userSpaceOnUse"  x1="737.947" y1="740.184" x2="501.875" y2="1103.454">
			<stop offset="0" stop-color="#b37cff"  />
			<stop offset="1" stop-color="#f895e7"  />
		</linearGradient>
		<linearGradient id="grd9" gradientUnits="userSpaceOnUse"  x1="527.631" y1="1146.041" x2="513.887" y2="1167.191">
			<stop offset="0" stop-color="#b37cff"  />
			<stop offset="1" stop-color="#f895e7"  />
		</linearGradient>
		<linearGradient id="grd10" gradientUnits="userSpaceOnUse"  x1="616.97" y1="1361.594" x2="608.102" y2="1375.239">
			<stop offset="0" stop-color="#b37cff"  />
			<stop offset="1" stop-color="#f895e7"  />
		</linearGradient>
		<linearGradient id="grd11" gradientUnits="userSpaceOnUse"  x1="893.195" y1="1032.983" x2="650.191" y2="1406.92">
			<stop offset="0" stop-color="#b37cff"  />
			<stop offset="1" stop-color="#f895e7"  />
		</linearGradient>
		<linearGradient id="grd12" gradientUnits="userSpaceOnUse"  x1="1119.631" y1="1126.846" x2="1106.296" y2="1147.366">
			<stop offset="0" stop-color="#b37cff"  />
			<stop offset="1" stop-color="#f895e7"  />
		</linearGradient>
		<linearGradient id="grd13" gradientUnits="userSpaceOnUse"  x1="271.995" y1="1827.08" x2="937.74" y2="354.373">
			<stop offset="0" stop-color="#b37cff"  />
			<stop offset="1" stop-color="#fc8e9e"  />
		</linearGradient>
		<linearGradient id="grd14" gradientUnits="userSpaceOnUse"  x1="1316.488" y1="808.494" x2="1310.115" y2="818.302">
			<stop offset="0" stop-color="#b37cff"  />
			<stop offset="1" stop-color="#f895e7"  />
		</linearGradient>
		<linearGradient id="grd15" gradientUnits="userSpaceOnUse"  x1="1115.859" y1="672.276" x2="984.452" y2="874.487">
			<stop offset="0" stop-color="#b37cff"  />
			<stop offset="1" stop-color="#f895e7"  />
		</linearGradient>
		<linearGradient id="grd16" gradientUnits="userSpaceOnUse"  x1="1296.995" y1="918.84" x2="1146.487" y2="1150.443">
			<stop offset="0" stop-color="#b37cff"  />
			<stop offset="1" stop-color="#f895e7"  />
		</linearGradient>
		<linearGradient id="grd17" gradientUnits="userSpaceOnUse"  x1="1371.258" y1="930.665" x2="1361.149" y2="946.22">
			<stop offset="0" stop-color="#b37cff"  />
			<stop offset="1" stop-color="#f895e7"  />
		</linearGradient>
		<linearGradient id="grd18" gradientUnits="userSpaceOnUse"  x1="553.006" y1="1953.635" x2="1218.752" y2="480.924">
			<stop offset="0" stop-color="#b37cff"  />
			<stop offset="1" stop-color="#fc8e9e"  />
		</linearGradient>
		<linearGradient id="grd19" gradientUnits="userSpaceOnUse"  x1="1693.412" y1="2214.227" x2="4348.355" y2="-2228.878">
			<stop offset="0" stop-color="#fdf53f"  />
			<stop offset="1" stop-color="#d93c65"  />
		</linearGradient>
		<linearGradient id="grd20" gradientUnits="userSpaceOnUse"  x1="1622.808" y1="2129.924" x2="4223.282" y2="-2222.026">
			<stop offset="0" stop-color="#fdf53f"  />
			<stop offset="1" stop-color="#d93c65"  />
		</linearGradient>
		<linearGradient id="grd21" gradientUnits="userSpaceOnUse"  x1="1380.717" y1="3166.308" x2="770.082" y2="3830.508">
			<stop offset="0" stop-color="#2b3582"  />
			<stop offset="1" stop-color="#150e42"  />
		</linearGradient>
		<linearGradient id="grd22" gradientUnits="userSpaceOnUse"  x1="1098.899" y1="3110.14" x2="1153.791" y2="3110.14">
			<stop offset="0" stop-color="#f9b776"  />
			<stop offset="1" stop-color="#f47960"  />
		</linearGradient>
		<linearGradient id="grd23" gradientUnits="userSpaceOnUse"  x1="1584.103" y1="2558.413" x2="1076.756" y2="3246.056">
			<stop offset="0" stop-color="#2b3582"  />
			<stop offset="1" stop-color="#150e42"  />
		</linearGradient>
		<linearGradient id="grd24" gradientUnits="userSpaceOnUse"  x1="1202.58" y1="3000.125" x2="585.496" y2="3671.339">
			<stop offset="0" stop-color="#2b3582"  />
			<stop offset="1" stop-color="#150e42"  />
		</linearGradient>
		<linearGradient id="grd25" gradientUnits="userSpaceOnUse"  x1="901.069" y1="3098.604" x2="948.463" y2="3098.604">
			<stop offset="0" stop-color="#f9b776"  />
			<stop offset="1" stop-color="#f47960"  />
		</linearGradient>
		<linearGradient id="grd26" gradientUnits="userSpaceOnUse"  x1="1439.383" y1="2461.377" x2="967.99" y2="3100.289">
			<stop offset="0" stop-color="#2b3582"  />
			<stop offset="1" stop-color="#150e42"  />
		</linearGradient>
		<linearGradient id="grd27" gradientUnits="userSpaceOnUse"  x1="875.686" y1="1820.078" x2="1689.993" y2="417.114">
			<stop offset="0" stop-color="#ffc444"  />
			<stop offset="1" stop-color="#d93c65"  />
		</linearGradient>
		<linearGradient id="grd28" gradientUnits="userSpaceOnUse"  x1="1461.13" y1="1354.612" x2="1365.876" y2="1626.767">
			<stop offset="0" stop-color="#f9b776"  />
			<stop offset="1" stop-color="#f47960"  />
		</linearGradient>
		<linearGradient id="grd29" gradientUnits="userSpaceOnUse"  x1="1606.96" y1="1396.235" x2="1513.957" y2="1661.957">
			<stop offset="0" stop-color="#f9b776"  />
			<stop offset="1" stop-color="#f47960"  />
		</linearGradient>
		<linearGradient id="grd30" gradientUnits="userSpaceOnUse"  x1="1585.193" y1="1595.097" x2="1658.145" y2="1447.935">
			<stop offset="0" stop-color="#f9b776"  />
			<stop offset="1" stop-color="#f47960"  />
		</linearGradient>
		<linearGradient id="grd31" gradientUnits="userSpaceOnUse"  x1="798.572" y1="1786.714" x2="1636.887" y2="342.386">
			<stop offset="0" stop-color="#ffc444"  />
			<stop offset="1" stop-color="#d93c65"  />
		</linearGradient>
		<linearGradient id="grd32" gradientUnits="userSpaceOnUse"  x1="714.73" y1="2012.937" x2="1066.024" y2="2012.937">
			<stop offset="0" stop-color="#f9b776"  />
			<stop offset="1" stop-color="#f47960"  />
		</linearGradient>
		<linearGradient id="grd33" gradientUnits="userSpaceOnUse"  x1="1465.378" y1="1731.267" x2="1283.808" y2="2226.457">
			<stop offset="0" stop-color="#2b3582"  />
			<stop offset="1" stop-color="#150e42"  />
		</linearGradient>
		<linearGradient id="grd34" gradientUnits="userSpaceOnUse"  x1="-1420.275" y1="8959.837" x2="-1593.361" y2="9414.185">
			<stop offset="0" stop-color="#53d8ff"  />
			<stop offset="1" stop-color="#3840f7"  />
		</linearGradient>
		<linearGradient id="grd35" gradientUnits="userSpaceOnUse"  x1="-1408.863" y1="9063.183" x2="-1584.144" y2="9523.292">
			<stop offset="0" stop-color="#53d8ff"  />
			<stop offset="1" stop-color="#3840f7"  />
		</linearGradient>
		<linearGradient id="grd36" gradientUnits="userSpaceOnUse"  x1="1042.894" y1="2016.199" x2="1150.237" y2="2016.199">
			<stop offset="0" stop-color="#f9b776"  />
			<stop offset="1" stop-color="#f47960"  />
		</linearGradient>
		<linearGradient id="grd37" gradientUnits="userSpaceOnUse"  x1="984.134" y1="1648.019" x2="1123.952" y2="1648.019">
			<stop offset="0" stop-color="#f9b776"  />
			<stop offset="1" stop-color="#f47960"  />
		</linearGradient>
		<linearGradient id="grd38" gradientUnits="userSpaceOnUse"  x1="1111.193" y1="1696.754" x2="962.183" y2="1605.869">
			<stop offset="0" stop-color="#f9b776"  />
			<stop offset="1" stop-color="#f47960"  />
		</linearGradient>
		<linearGradient id="grd39" gradientUnits="userSpaceOnUse"  x1="1013.456" y1="1363.388" x2="1204.963" y2="1514.646">
			<stop offset="0" stop-color="#2b3582"  />
			<stop offset="1" stop-color="#150e42"  />
		</linearGradient>
		<linearGradient id="grd40" gradientUnits="userSpaceOnUse"  x1="1102.454" y1="1683.962" x2="970.276" y2="1603.344">
			<stop offset="0" stop-color="#f9b776"  />
			<stop offset="1" stop-color="#f47960"  />
		</linearGradient>
	</defs>
	<style>
		tspan { white-space:pre }
		.shp0 { opacity: 0.302;fill: url(#grd1) } 
		.shp1 { fill: url(#grd2) } 
		.shp2 { fill: url(#grd3) } 
		.shp3 { opacity: 0.471;fill: #ffffff } 
		.shp4 { fill: url(#grd4) } 
		.shp5 { fill: url(#grd5) } 
		.shp6 { fill: url(#grd6) } 
		.shp7 { fill: url(#grd7) } 
		.shp8 { fill: #ffffff } 
		.shp9 { fill: url(#grd8) } 
		.shp10 { fill: url(#grd9) } 
		.shp11 { fill: url(#grd10) } 
		.shp12 { fill: url(#grd11) } 
		.shp13 { fill: url(#grd12) } 
		.shp14 { fill: url(#grd13) } 
		.shp15 { opacity: 0.561;fill: #ffffff } 
		.shp16 { fill: url(#grd14) } 
		.shp17 { fill: url(#grd15) } 
		.shp18 { fill: url(#grd16) } 
		.shp19 { fill: url(#grd17) } 
		.shp20 { fill: url(#grd18) } 
		.shp21 { fill: url(#grd19) } 
		.shp22 { fill: url(#grd20) } 
		.shp23 { opacity: 0.851;fill: #ffffff } 
		.shp24 { opacity: 0.941;fill: #ffffff } 
		.shp25 { fill: url(#grd21) } 
		.shp26 { fill: url(#grd22) } 
		.shp27 { fill: url(#grd23) } 
		.shp28 { fill: url(#grd24) } 
		.shp29 { fill: url(#grd25) } 
		.shp30 { fill: url(#grd26) } 
		.shp31 { fill: url(#grd27) } 
		.shp32 { fill: url(#grd28) } 
		.shp33 { fill: url(#grd29) } 
		.shp34 { fill: url(#grd30) } 
		.shp35 { fill: url(#grd31) } 
		.shp36 { fill: url(#grd32) } 
		.shp37 { fill: url(#grd33) } 
		.shp38 { fill: url(#grd34) } 
		.shp39 { fill: url(#grd35) } 
		.shp40 { fill: url(#grd36) } 
		.shp41 { fill: url(#grd37) } 
		.shp42 { fill: url(#grd38) } 
		.shp43 { fill: url(#grd39) } 
		.shp44 { fill: url(#grd40) } 
	</style>
	<g id="Illustration">
		<g id="&lt;Group&gt;">
			<path id="&lt;Path&gt;" class="shp0" d="M2905.91 2866.88C2849.52 2926.25 2796.16 2964.54 2754 2994.79C2258.42 3350.37 1672.02 3246.72 1547.4 3221.41C1363.36 3184.03 1007.63 3111.78 750.44 2809.33C361.34 2351.75 421.93 1630.85 723.74 1154.97C778.95 1067.92 1070.57 584.8 1663.28 507.32C2021.99 460.43 2440.12 555 2742.92 808.69C3378.52 1341.2 3333.28 2416.96 2905.91 2866.88Z" />
			<g id="&lt;Group&gt;">
				<path id="&lt;Path&gt;" class="shp1" d="M2355.36 3161.77C2350.58 3161.12 2346.31 3158.6 2343.44 3154.74C2301.61 3098.36 1997.46 2657.21 2402.24 2253.96C2786.51 1871.15 2960.69 1792.55 2983.85 1567.63C2986.56 1541.37 3022.07 1535.06 3033.75 1558.74C3121.07 1735.71 3257.1 2148.66 2806.92 2419.71C2310.32 2718.7 2351.01 3046.46 2375.03 3139.6C2378.2 3151.91 2367.95 3163.48 2355.36 3161.77Z" />
				<path id="&lt;Path&gt;" class="shp2" d="M2416.95 3170.15C2405.65 3168.61 2396.69 3159.9 2394.95 3148.63C2383.1 3071.92 2353.98 2785.26 2565.17 2709.25C2797.64 2625.57 2985.33 2842.08 3156.22 2672.62C3165.21 2663.7 3180.33 2671.47 3178.19 2683.95C3162.97 2772.47 3095.23 2977.51 2793.81 3018.77C2471.18 3062.93 2434.88 3099.94 2441.39 3145.85C2443.4 3160.01 2431.11 3172.08 2416.95 3170.15L2416.95 3170.15Z" />
				<path id="&lt;Path&gt;" class="shp3" d="M2972.62 1796.95C2968.68 1813.64 2963.44 1829.29 2957.18 1844.83C2951.04 1860.36 2943.97 1875.5 2936.26 1890.31C2921 1920.04 2902.68 1948.16 2882.63 1974.95C2842.25 2028.4 2793.4 2075.35 2739.56 2115.16C2712.7 2134.95 2683.99 2153.15 2655.61 2169.58C2627.98 2185.61 2601.4 2203.54 2575.93 2222.96C2524.96 2261.79 2478.75 2306.85 2437.94 2356.25C2356.64 2455.13 2298.94 2574.47 2279.94 2701.52C2270.25 2764.9 2270.13 2829.8 2278.86 2893.71C2287.49 2957.7 2305.73 3020.37 2329.78 3080.78C2331.08 3084 2329.53 3087.67 2326.31 3088.97C2323.21 3090.22 2319.69 3088.78 2318.26 3085.82C2290.14 3026.11 2269.12 2962.64 2257.49 2897.1C2251.54 2864.36 2248.02 2831.11 2247.02 2797.73C2246.22 2764.36 2247.63 2730.85 2251.83 2697.65C2259.91 2631.17 2278.67 2566.04 2305.67 2504.74C2332.76 2443.41 2368.54 2386.12 2410.34 2333.86C2452.13 2281.53 2500.6 2234.72 2553.61 2193.81C2580.17 2173.41 2607.93 2154.53 2636.92 2137.57C2665.29 2121.29 2692.23 2104.74 2718.32 2085.91C2770.4 2048.72 2818.53 2005.77 2859.93 1956.76C2880.89 1932.48 2899.87 1906.48 2917.21 1879.38C2934.2 1852.22 2950.09 1823.57 2961.52 1793.95L2961.67 1793.56C2962.81 1790.6 2966.14 1789.13 2969.09 1790.27C2971.8 1791.32 2973.27 1794.2 2972.62 1796.95Z" />
				<path id="&lt;Path&gt;" class="shp3" d="M2403.55 3118.13C2404.54 3115.35 2404.23 3112.77 2404.14 3110.12L2403.9 3102.21L2403.71 3086.41C2403.73 3075.87 2403.96 3065.34 2404.42 3054.82C2405.35 3033.77 2407.15 3012.75 2409.96 2991.83C2415.7 2950.06 2425.17 2908.41 2442.03 2869.19C2458.7 2830.24 2483.95 2793.01 2520.59 2768.69C2538.85 2756.75 2559.44 2748.25 2580.78 2743.93C2602.1 2739.43 2624.01 2738.77 2645.44 2740.65C2729.42 2750.39 2811.74 2766.49 2894.27 2779.56C2935.38 2785.69 2977.07 2791.17 3017.43 2785.65C3027.46 2784.18 3037.35 2781.99 3046.94 2778.9C3056.44 2775.59 3065.78 2771.7 3074.5 2766.59C3092.05 2756.57 3107.48 2742.87 3121.27 2727.67L3121.32 2727.62C3123.22 2725.53 3126.45 2725.37 3128.55 2727.27C3130.61 2729.14 3130.79 2732.32 3128.97 2734.42C3115 2750.51 3099.03 2765.38 3080.37 2776.58C3071.1 2782.28 3061.1 2786.72 3050.91 2790.5C3040.62 2794.06 3030.04 2796.64 3019.37 2798.43C2976.38 2804.73 2933.77 2799.38 2892.19 2793.67C2850.48 2787.74 2809.31 2780.01 2767.98 2773.32C2726.79 2766.62 2685.12 2760.14 2644.09 2755.32C2623.84 2753.36 2603.37 2753.84 2583.62 2757.82C2563.85 2761.64 2544.94 2769.28 2528.03 2780.11C2493.93 2801.82 2469.19 2836.37 2452.39 2873.77C2435.4 2911.36 2425.3 2952.06 2418.9 2993.11C2415.74 3013.68 2413.59 3034.43 2412.28 3055.23C2411.63 3065.63 2411.21 3076.05 2411.01 3086.48L2410.9 3102.11L2411 3109.91C2411.07 3112.49 2410.95 3115.15 2412.22 3117.6C2413.43 3119.94 2412.52 3122.8 2410.19 3124.01C2407.86 3125.22 2404.99 3124.31 2403.78 3121.98C2403.16 3120.77 2403.1 3119.41 2403.52 3118.22L2403.55 3118.13Z" />
			</g>
			<g id="&lt;Group&gt;">
				<g id="&lt;Group&gt;">
					<path id="&lt;Path&gt;" class="shp4" d="M1964.76 497.4C1838.23 496.4 1710.6 516.46 1597.68 563.32C1334.83 672.38 1111.75 960.96 1199.05 1255.72C1227.41 1351.48 1212.51 1457.12 1307.9 1498.73C1359.51 1521.25 1500.07 1534.65 1553.51 1516.91C1695.55 1469.75 1788.92 1340.67 1711.67 1197.54C1686.93 1151.71 1654.91 1109.83 1633.55 1062.33C1612.18 1014.82 1602.45 958.44 1624.23 911.12C1666.98 818.24 1809 788.72 1901.1 791.5C2009.81 794.79 2108.31 848.56 2166.8 940.79C2239.71 1055.75 2258.18 1195.57 2247.51 1329.01C2236.09 1471.79 2175.89 1580.83 2085.67 1690.36C2007.99 1784.66 1922.45 1875.19 1870.82 1985.92C1823.42 2087.58 1807.94 2200.21 1805.79 2311.43C1805.38 2332.98 1698.18 2536.12 1698.64 2598.18C1698.71 2606.95 1820.22 2635.99 1828.99 2636.09C1874.74 2636.6 2004.33 2638.05 2052.02 2638.59C2061.83 2638.69 2069.92 2630.86 2070.03 2621.05C2073.42 2319.11 2166.3 2031.25 2401.39 1828.47C2486.94 1754.69 2579.06 1694.6 2645.58 1601.47C2740.39 1468.73 2787.16 1338.1 2773.66 1174.27C2761.33 1024.65 2712.06 874.95 2614.54 758.86C2509.71 634.09 2356.29 556.18 2196.84 522.55C2122.48 506.87 2043.83 498.02 1964.76 497.4Z" />
					<path id="&lt;Path&gt;" class="shp5" d="M2198.09 2977.06C2198.09 3115.9 2121.13 3238.74 1982.29 3238.74C1952.3 3238.74 1850.28 3239.01 1823.61 3229.38C1726.83 3194.41 1726.48 3120.05 1726.48 3011.2C1726.48 2872.36 1773.36 2735.81 1912.2 2735.81C2051.05 2735.81 2198.09 2838.22 2198.09 2977.06Z" />
				</g>
				<g id="&lt;Group&gt;">
					<path id="&lt;Path&gt;" class="shp6" d="M1844.53 465.76C1718 464.76 1590.37 484.83 1477.45 531.68C1214.6 640.74 991.52 929.32 1078.82 1224.08C1107.18 1319.84 1172.75 1440.37 1268.14 1481.99C1319.75 1504.5 1379.84 1503.01 1433.28 1485.27C1575.33 1438.11 1668.69 1309.04 1591.44 1165.9C1566.7 1120.07 1534.68 1078.19 1513.32 1030.69C1491.96 983.19 1482.22 926.8 1504 879.48C1546.75 786.6 1688.77 757.08 1780.87 759.86C1889.58 763.15 1988.08 816.92 2046.58 909.16C2119.48 1024.11 2137.95 1163.93 2127.28 1297.37C2115.87 1440.15 2055.66 1549.19 1965.44 1658.72C1887.76 1753.03 1802.22 1843.55 1750.59 1954.28C1703.2 2055.94 1687.71 2168.57 1685.57 2279.79C1685.15 2301.34 1692.41 2526.45 1692.87 2588.51C1692.93 2597.27 1700 2604.36 1708.76 2604.45C1754.51 2604.97 1884.1 2606.41 1931.8 2606.95C1941.61 2607.06 1949.69 2599.22 1949.8 2589.41C1953.2 2287.47 2046.07 1999.62 2281.16 1796.83C2366.71 1723.05 2458.83 1662.96 2525.35 1569.83C2620.16 1437.09 2666.93 1306.46 2653.43 1142.64C2641.1 993.01 2591.84 843.31 2494.31 727.22C2389.49 602.45 2236.07 524.54 2076.61 490.91C2002.25 475.23 1923.61 466.38 1844.53 465.76Z" />
					<path id="&lt;Path&gt;" class="shp7" d="M2109.04 2979.56C2109.04 3118.41 1996.49 3230.96 1857.64 3230.96C1718.8 3230.96 1606.25 3118.41 1606.25 2979.56C1606.25 2840.72 1718.8 2728.17 1857.64 2728.17C1996.49 2728.17 2109.04 2840.72 2109.04 2979.56Z" />
				</g>
				<g id="&lt;Group&gt;">
					<path id="&lt;Path&gt;" class="shp8" d="M1162.03 1195.21C1160.55 1195.21 1159.22 1194.19 1158.89 1192.68C1141.27 1113.13 1138.68 988.56 1226.41 846.86C1312.03 708.54 1432.14 615.99 1583.39 571.78C1745.07 524.52 1937.04 534.64 2153.96 601.85C2155.66 602.38 2156.62 604.19 2156.09 605.89C2155.56 607.59 2153.75 608.54 2152.05 608.02C1936.36 541.18 1745.65 531.08 1585.2 577.97C1435.52 621.73 1316.65 713.33 1231.89 850.25C1145.31 990.12 1147.83 1112.91 1165.19 1191.29C1165.57 1193.02 1164.47 1194.75 1162.73 1195.13C1162.5 1195.18 1162.27 1195.21 1162.03 1195.21Z" />
				</g>
				<g id="&lt;Group&gt;">
					<path id="&lt;Path&gt;" class="shp8" d="M1214.92 1323.2C1213.92 1323.2 1212.94 1322.74 1212.31 1321.87C1211.55 1320.83 1193.43 1295.8 1176.58 1251.71C1175.95 1250.05 1176.78 1248.19 1178.44 1247.55C1180.11 1246.91 1181.97 1247.75 1182.61 1249.41C1199.15 1292.7 1217.34 1317.82 1217.52 1318.07C1218.57 1319.51 1218.25 1321.52 1216.82 1322.58C1216.24 1323 1215.58 1323.2 1214.92 1323.2Z" />
				</g>
				<g id="&lt;Group&gt;">
					<path id="&lt;Path&gt;" class="shp8" d="M1941.76 2816.63C1941.27 2816.63 1940.78 2816.51 1940.31 2816.28C1914.55 2803.21 1886.74 2796.58 1857.64 2796.58C1855.86 2796.58 1854.42 2795.14 1854.42 2793.36C1854.42 2791.58 1855.86 2790.13 1857.64 2790.13C1887.76 2790.13 1916.56 2796.99 1943.23 2810.52C1944.82 2811.33 1945.45 2813.27 1944.64 2814.86C1944.08 2815.98 1942.94 2816.63 1941.76 2816.63Z" />
				</g>
				<g id="&lt;Group&gt;">
					<path id="&lt;Path&gt;" class="shp8" d="M1753.53 3137.2C1752.91 3137.2 1752.28 3137.02 1751.73 3136.64C1699.43 3101.31 1668.21 3042.59 1668.21 2979.56C1668.21 2909.69 1706.48 2845.71 1768.08 2812.6C1769.65 2811.75 1771.61 2812.34 1772.45 2813.91C1773.3 2815.48 1772.71 2817.44 1771.14 2818.28C1711.63 2850.27 1674.67 2912.07 1674.67 2979.56C1674.67 3040.45 1704.82 3097.17 1755.34 3131.3C1756.82 3132.29 1757.21 3134.3 1756.21 3135.77C1755.59 3136.7 1754.57 3137.2 1753.53 3137.2Z" />
				</g>
			</g>
			<g id="&lt;Group&gt;">
				<g id="&lt;Group&gt;">
					<g id="&lt;Group&gt;" style="opacity: 0.302">
						<path id="&lt;Compound Path&gt;" class="shp9" d="M1021.38 936.05C1018.73 939.32 1013.94 939.82 1010.68 937.17C1004.33 932.04 997.67 927.1 990.87 922.5C987.44 920.17 986.51 915.52 988.76 912.06C988.79 912.02 988.81 911.97 988.84 911.93C991.2 908.45 995.93 907.54 999.41 909.9C1006.56 914.74 1013.57 919.94 1020.25 925.35C1023.31 927.82 1023.94 932.18 1021.85 935.4C1021.7 935.62 1021.55 935.84 1021.38 936.05ZM956.27 902.37C948.91 898.74 941.33 895.39 933.73 892.41C929.82 890.88 927.89 886.46 929.42 882.55C930.98 878.63 935.37 876.71 939.28 878.24C947.28 881.38 955.26 884.9 963 888.72C966.77 890.58 968.31 895.15 966.45 898.91C966.32 899.19 966.17 899.45 966.01 899.7C963.94 902.89 959.76 904.09 956.27 902.37ZM895.55 880.43C887.59 878.53 879.46 876.96 871.36 875.75C867.21 875.13 864.34 871.26 864.96 867.11C865.58 862.96 869.45 860.09 873.61 860.7C882.13 861.98 890.7 863.63 899.08 865.63C903.16 866.61 905.69 870.71 904.71 874.8C904.51 875.67 904.16 876.47 903.69 877.18C901.99 879.8 898.76 881.2 895.55 880.43ZM831.45 872.63C823.26 872.56 814.97 872.84 806.82 873.47C802.63 873.79 798.97 870.66 798.65 866.47C798.33 862.28 801.46 858.63 805.65 858.3C814.24 857.64 822.96 857.34 831.58 857.41C835.78 857.45 839.16 860.88 839.12 865.08C839.11 866.59 838.66 867.98 837.9 869.16C836.53 871.26 834.15 872.65 831.45 872.63ZM767.21 879.3C759.23 881.04 751.21 883.15 743.37 885.58C739.36 886.82 735.1 884.57 733.86 880.55C732.62 876.54 734.87 872.28 738.88 871.04C747.12 868.49 755.56 866.27 763.96 864.43C768.07 863.53 772.12 866.13 773.02 870.24C773.47 872.31 773.04 874.36 771.97 876.01C770.91 877.63 769.25 878.85 767.21 879.3ZM706.05 900.01C698.64 903.48 691.29 907.32 684.2 911.41C680.56 913.51 675.9 912.26 673.81 908.62C671.71 904.98 672.95 900.33 676.59 898.23C684.06 893.92 691.8 889.89 699.59 886.23C703.4 884.45 707.93 886.09 709.71 889.9C710.87 892.37 710.58 895.14 709.2 897.27C708.45 898.42 707.38 899.39 706.05 900.01ZM534.58 1124.54C530.43 1123.91 527.57 1120.04 528.2 1115.88C529.48 1107.37 531.16 1098.8 533.17 1090.41C534.16 1086.33 538.26 1083.81 542.35 1084.79C546.43 1085.77 548.95 1089.88 547.97 1093.97C546.05 1101.93 544.46 1110.07 543.24 1118.15C543.08 1119.26 542.68 1120.28 542.1 1121.16C540.53 1123.59 537.63 1125 534.58 1124.54ZM651.03 933.75C644.58 938.78 638.28 944.15 632.29 949.72C629.2 952.58 624.39 952.4 621.53 949.32C618.67 946.24 618.87 941.44 621.93 938.57C628.24 932.71 634.88 927.05 641.67 921.75C644.99 919.17 649.77 919.76 652.35 923.07C654.4 925.7 654.45 929.25 652.74 931.9C652.29 932.59 651.72 933.22 651.03 933.75ZM550.15 1060.09C546.24 1058.55 544.32 1054.13 545.86 1050.22C549.02 1042.21 552.57 1034.24 556.4 1026.51C558.25 1022.74 562.83 1021.21 566.59 1023.08C570.36 1024.94 571.89 1029.51 570.03 1033.27C566.39 1040.61 563.02 1048.19 560.02 1055.8C559.83 1056.29 559.59 1056.74 559.32 1057.16C557.39 1060.13 553.57 1061.44 550.15 1060.09ZM604.95 978.93C599.79 985.27 594.84 991.92 590.23 998.69C587.87 1002.17 583.14 1003.07 579.66 1000.71C576.23 998.37 575.31 993.73 577.56 990.27C577.59 990.23 577.62 990.18 577.65 990.14C582.5 983.01 587.71 976.01 593.14 969.33C595.79 966.07 600.58 965.58 603.84 968.23C606.89 970.7 607.52 975.05 605.42 978.27C605.28 978.49 605.12 978.71 604.95 978.93Z" />
						<path id="&lt;Path&gt;" class="shp10" d="M538.95 1174.49C539.76 1173.23 540.22 1171.72 540.17 1170.11C540.04 1166.19 540 1162.2 540.03 1158.26C540.07 1154.06 536.7 1150.62 532.5 1150.58C528.3 1150.54 524.85 1153.91 524.82 1158.12C524.78 1162.27 524.83 1166.46 524.96 1170.59C525.09 1174.79 528.6 1178.09 532.8 1177.95C535.39 1177.87 537.63 1176.51 538.95 1174.49Z" />
					</g>
					<g id="&lt;Group&gt;" style="opacity: 0.302">
						<path id="&lt;Path&gt;" class="shp11" d="M636.18 1385.07C638.18 1381.99 637.71 1377.83 634.9 1375.29C631.99 1372.66 629.08 1369.92 626.27 1367.16C623.27 1364.21 618.45 1364.26 615.51 1367.26C612.55 1370.27 612.61 1375.07 615.61 1378.01C618.57 1380.92 621.63 1383.81 624.69 1386.58C627.81 1389.39 632.62 1389.15 635.44 1386.04C635.71 1385.73 635.96 1385.41 636.18 1385.07Z" />
						<path id="&lt;Compound Path&gt;" class="shp12" d="M1074.89 1339.5C1072.43 1342.91 1067.68 1343.68 1064.27 1341.22C1060.86 1338.76 1060.1 1334.01 1062.56 1330.6C1067.24 1324.11 1071.72 1317.32 1075.92 1310.35C1078.07 1306.76 1082.77 1305.6 1086.37 1307.77C1089.96 1309.94 1091.12 1314.61 1088.95 1318.21C1087.13 1321.23 1085.27 1324.21 1083.36 1327.15C1080.64 1331.33 1077.79 1335.49 1074.89 1339.5ZM1097.91 1285.31C1094.05 1283.65 1092.27 1279.17 1093.93 1275.31C1097.12 1267.9 1100.04 1260.28 1102.59 1252.66C1103.91 1248.67 1108.24 1246.52 1112.22 1247.86C1116.2 1249.19 1118.35 1253.5 1117.02 1257.48C1114.33 1265.51 1111.27 1273.54 1107.9 1281.33C1107.73 1281.74 1107.52 1282.12 1107.29 1282.48C1105.31 1285.53 1101.36 1286.8 1097.91 1285.31ZM1048.38 1371.38C1042.54 1377.5 1036.35 1383.45 1029.99 1389.07C1026.84 1391.86 1022.03 1391.56 1019.25 1388.41C1016.47 1385.26 1016.77 1380.46 1019.91 1377.67C1025.95 1372.33 1031.83 1366.68 1037.38 1360.87C1040.28 1357.83 1045.09 1357.72 1048.13 1360.62C1050.82 1363.19 1051.22 1367.25 1049.26 1370.26C1049.01 1370.65 1048.72 1371.03 1048.38 1371.38ZM1118.57 1223.42C1114.45 1222.65 1111.72 1218.67 1112.5 1214.54C1113.99 1206.62 1115.15 1198.55 1115.96 1190.54C1116.39 1186.36 1120.12 1183.32 1124.3 1183.74C1128.48 1184.17 1131.52 1187.9 1131.1 1192.08C1130.25 1200.51 1129.02 1209.01 1127.46 1217.35C1127.27 1218.35 1126.89 1219.28 1126.36 1220.09C1124.73 1222.6 1121.7 1224.01 1118.57 1223.42ZM997.14 1414.31C990.09 1418.99 982.75 1423.44 975.31 1427.53C971.62 1429.55 967 1428.21 964.98 1424.53C962.95 1420.84 964.3 1416.22 967.98 1414.19C975.05 1410.31 982.02 1406.09 988.71 1401.64C992.21 1399.31 996.94 1400.26 999.26 1403.76C1000.99 1406.37 1000.91 1409.66 999.3 1412.12C998.76 1412.97 998.03 1413.72 997.14 1414.31ZM937.72 1444.97C929.8 1448 921.66 1450.74 913.53 1453.11C909.49 1454.28 905.27 1451.96 904.1 1447.92C902.93 1443.88 905.25 1439.66 909.28 1438.49C917.01 1436.25 924.74 1433.65 932.27 1430.76C936.19 1429.26 940.59 1431.22 942.09 1435.14C943 1437.51 942.65 1440.04 941.37 1442.01C940.52 1443.32 939.27 1444.37 937.72 1444.97ZM873.02 1461.95C864.63 1463.19 856.09 1464.09 847.64 1464.62C843.45 1464.89 839.83 1461.7 839.57 1457.51C839.3 1453.31 842.49 1449.7 846.68 1449.44C854.71 1448.93 862.82 1448.07 870.8 1446.89C874.95 1446.28 878.82 1449.15 879.44 1453.31C879.72 1455.22 879.27 1457.06 878.29 1458.56C877.14 1460.33 875.27 1461.61 873.02 1461.95ZM806.17 1464.41C797.71 1463.78 789.17 1462.79 780.81 1461.46C776.66 1460.79 773.83 1456.89 774.49 1452.74C775.15 1448.6 779.06 1445.77 783.2 1446.43C791.15 1447.7 799.25 1448.64 807.29 1449.23C811.48 1449.54 814.63 1453.19 814.32 1457.38C814.22 1458.7 813.79 1459.92 813.11 1460.96C811.65 1463.21 809.04 1464.62 806.17 1464.41ZM740.37 1452.11C732.28 1449.65 724.18 1446.8 716.3 1443.65C712.4 1442.09 710.5 1437.66 712.06 1433.76C713.62 1429.87 718.04 1427.96 721.95 1429.52C729.43 1432.51 737.12 1435.22 744.81 1437.56C748.83 1438.78 751.1 1443.04 749.87 1447.06C749.66 1447.75 749.35 1448.4 748.97 1448.99C747.17 1451.76 743.69 1453.13 740.37 1452.11ZM678.95 1425.7C673.52 1422.63 668.12 1419.35 662.9 1415.95C661.01 1414.73 659.14 1413.48 657.28 1412.22C653.81 1409.85 652.82 1405.12 655.28 1401.65C657.64 1398.17 662.38 1397.28 665.85 1399.64C667.61 1400.84 669.39 1402.03 671.19 1403.2C676.15 1406.42 681.28 1409.54 686.45 1412.46C690.1 1414.53 691.39 1419.17 689.32 1422.83C689.24 1422.97 689.16 1423.1 689.07 1423.23C686.9 1426.58 682.47 1427.69 678.95 1425.7Z" />
						<path id="&lt;Path&gt;" class="shp13" d="M1131.21 1154.85C1132.04 1153.58 1132.49 1152.06 1132.43 1150.44C1132.28 1146.32 1132.04 1142.13 1131.72 1137.98C1131.4 1133.79 1127.74 1130.66 1123.55 1130.98C1119.36 1131.31 1116.23 1134.97 1116.55 1139.16C1116.86 1143.1 1117.09 1147.08 1117.23 1150.99C1117.38 1155.18 1120.91 1158.47 1125.11 1158.31C1127.68 1158.22 1129.91 1156.86 1131.21 1154.85Z" />
					</g>
					<g id="&lt;Group&gt;">
						<path id="&lt;Compound Path&gt;" class="shp14" d="M1035.79 1065.94C1035.32 1064.5 1034 1063.51 1032.48 1063.47L989.21 1062.52C978.82 1045.19 965.59 1029.39 949.75 1015.9L955.93 973.1C956.14 971.6 955.38 970.12 954.03 969.43L907.88 945.68C906.53 944.98 904.89 945.22 903.79 946.27L872.55 976.17C852.37 971.12 831.82 969.53 811.68 971.15L785.76 936.49C784.85 935.28 783.27 934.78 781.82 935.24L732.39 951.08C730.95 951.54 729.95 952.87 729.92 954.39L728.97 997.65C711.64 1008.05 695.84 1021.28 682.35 1037.11L639.55 1030.94C638.05 1030.72 636.57 1031.48 635.88 1032.83L612.12 1078.99C611.43 1080.34 611.67 1081.98 612.72 1083.07L642.62 1114.32C637.57 1134.49 635.98 1155.04 637.6 1175.19L602.94 1201.11C601.73 1202.02 601.22 1203.6 601.69 1205.04L617.53 1254.47C617.99 1255.92 619.32 1256.91 620.83 1256.94L664.1 1257.89C674.49 1275.23 687.73 1291.03 703.56 1304.51L697.39 1347.32C697.17 1348.82 697.93 1350.29 699.28 1350.99L745.44 1374.74C746.78 1375.44 748.42 1375.2 749.52 1374.15L780.77 1344.25C800.94 1349.3 821.49 1350.88 841.64 1349.27L867.56 1383.92C868.46 1385.14 870.04 1385.64 871.49 1385.18L920.92 1369.34C922.37 1368.88 923.36 1367.55 923.39 1366.03L924.34 1322.76C941.68 1312.37 957.48 1299.14 970.96 1283.3L1013.77 1289.48C1015.27 1289.69 1016.74 1288.93 1017.44 1287.59L1041.19 1241.43C1041.88 1240.08 1041.65 1238.44 1040.6 1237.34L1010.7 1206.1C1015.74 1185.92 1017.33 1165.37 1015.71 1145.23L1050.37 1119.31C1051.59 1118.4 1052.09 1116.82 1051.63 1115.38L1035.79 1065.94Z" />
						<path id="&lt;Compound Path&gt;" fill-rule="evenodd" class="shp15" d="M865.8 1194.72C846.77 1216.3 813.73 1218.38 792.15 1199.35C781.69 1190.13 775.45 1177.39 774.58 1163.48C773.7 1149.58 778.3 1136.16 787.52 1125.7C806.55 1104.12 839.58 1102.04 861.16 1121.07C880.8 1138.38 884.29 1167.29 870.43 1188.61C869.06 1190.73 867.51 1192.77 865.8 1194.72ZM786.73 1162.72C787.4 1173.39 792.18 1183.15 800.2 1190.22C816.75 1204.8 842.08 1203.21 856.67 1186.67C871.26 1170.12 869.66 1144.79 853.11 1130.2C836.57 1115.61 811.24 1117.2 796.65 1133.75C795.33 1135.25 794.13 1136.83 793.06 1138.48C788.41 1145.63 786.18 1154.05 786.73 1162.72Z" />
						<path id="&lt;Path&gt;" class="shp15" d="M933.04 1230.57C935.42 1226.91 937.63 1223.11 939.66 1219.17C940.3 1217.93 940.92 1216.68 941.51 1215.42C944.46 1209.21 946.91 1202.78 948.82 1196.22C948.85 1196.13 948.87 1196.04 948.9 1195.95C948.97 1195.7 949.05 1195.44 949.12 1195.19C949.26 1194.69 949.39 1194.19 949.53 1193.7C949.88 1192.39 949.33 1191.06 948.25 1190.36C947.99 1190.19 947.7 1190.05 947.38 1189.97C945.76 1189.53 944.09 1190.5 943.65 1192.12C941.4 1200.47 938.24 1208.63 934.25 1216.38C914.44 1254.89 876.86 1278.42 836.64 1282.14C814.26 1284.21 791.07 1280.15 769.65 1269.12C765.9 1267.19 762.27 1265.08 758.77 1262.81C735.26 1247.53 717.87 1224.82 709.2 1197.75C699.23 1166.66 701.98 1133.56 716.91 1104.53C747.77 1044.59 821.59 1020.95 881.51 1051.79C885.2 1053.69 888.79 1055.77 892.25 1058.02C907.24 1067.77 919.94 1080.7 929.38 1095.91C929.63 1096.3 929.94 1096.62 930.31 1096.85C931.26 1097.48 932.54 1097.53 933.57 1096.89C935 1096 935.44 1094.13 934.55 1092.7C924.64 1076.73 911.31 1063.16 895.57 1052.92C891.93 1050.56 888.17 1048.38 884.29 1046.38C821.39 1014 743.87 1038.86 711.5 1101.74C695.82 1132.22 692.94 1166.97 703.4 1199.61C712.5 1228.02 730.77 1251.87 755.45 1267.91C759.12 1270.29 762.93 1272.51 766.87 1274.54C797.34 1290.22 832.1 1293.1 864.73 1282.64C893.15 1273.53 917 1255.26 933.04 1230.57Z" />
					</g>
				</g>
				<g id="&lt;Group&gt;">
					<g id="&lt;Group&gt;" style="opacity: 0.302">
						<path id="&lt;Path&gt;" class="shp16" d="M1331.42 826.95C1332.53 825.25 1332.44 822.96 1331.04 821.34C1328.45 818.31 1325.72 815.32 1322.95 812.45C1321.14 810.58 1318.17 810.53 1316.3 812.34C1314.43 814.14 1314.39 817.12 1316.19 818.98C1318.84 821.72 1321.44 824.57 1323.91 827.46C1325.6 829.42 1328.57 829.65 1330.54 827.96C1330.89 827.66 1331.18 827.32 1331.42 826.95Z" />
						<path id="&lt;Compound Path&gt;" class="shp17" d="M1305.19 802.19C1303.56 804.21 1300.6 804.53 1298.58 802.9C1293.48 798.79 1288.1 794.9 1282.61 791.33C1281.46 790.58 1280.28 789.84 1279.1 789.1C1276.9 787.73 1276.22 784.84 1277.59 782.63C1278.96 780.6 1281.85 779.75 1284.06 781.12C1285.3 781.89 1286.52 782.66 1287.73 783.45C1293.49 787.19 1299.12 791.27 1304.47 795.58C1306.37 797.1 1306.77 799.8 1305.47 801.79C1305.38 801.93 1305.29 802.06 1305.19 802.19ZM1258.1 777.78C1250.89 774.45 1243.41 771.53 1235.87 769.11C1233.4 768.31 1232.04 765.67 1232.83 763.2C1233.62 760.74 1236.27 759.37 1238.74 760.16C1246.64 762.69 1254.48 765.75 1262.04 769.25C1264.4 770.34 1265.42 773.13 1264.33 775.49C1264.24 775.7 1264.13 775.9 1264 776.08C1262.75 778.01 1260.24 778.77 1258.1 777.78ZM1212.74 763.25C1204.94 761.79 1196.98 760.8 1189.05 760.31C1186.47 760.15 1184.5 757.92 1184.66 755.33C1184.82 752.73 1187.04 750.77 1189.63 750.93C1197.94 751.44 1206.3 752.48 1214.47 754.01C1217.02 754.49 1218.7 756.95 1218.22 759.5C1218.1 760.12 1217.87 760.69 1217.54 761.19C1216.54 762.74 1214.66 763.61 1212.74 763.25ZM1165.19 760.31C1157.27 760.8 1149.3 761.79 1141.52 763.25C1138.96 763.73 1136.51 762.05 1136.03 759.5C1135.56 756.95 1137.23 754.49 1139.78 754.01C1147.95 752.48 1156.3 751.45 1164.61 750.93C1167.2 750.77 1169.43 752.74 1169.59 755.33C1169.65 756.38 1169.37 757.36 1168.84 758.18C1168.06 759.38 1166.74 760.22 1165.19 760.31ZM1118.37 769.07C1110.81 771.47 1103.32 774.37 1096.12 777.67C1093.76 778.75 1090.97 777.71 1089.89 775.36C1088.81 773 1089.84 770.21 1092.2 769.13C1099.75 765.66 1107.6 762.63 1115.52 760.11C1118 759.33 1120.64 760.69 1121.42 763.16C1121.87 764.56 1121.63 766.01 1120.89 767.15C1120.31 768.03 1119.45 768.73 1118.37 769.07ZM1075.09 788.93C1068.35 793.09 1061.8 797.72 1055.63 802.68C1053.61 804.31 1050.65 803.99 1049.03 801.97C1047.4 799.94 1047.72 797 1049.74 795.36C1056.21 790.15 1063.08 785.3 1070.16 780.93C1072.36 779.57 1075.26 780.25 1076.62 782.46C1077.61 784.06 1077.52 786.01 1076.56 787.49C1076.2 788.05 1075.71 788.55 1075.09 788.93ZM1038 818.75C1032.5 824.43 1027.29 830.53 1022.5 836.88C1020.94 838.95 1017.99 839.37 1015.92 837.8C1013.85 836.24 1013.46 833.32 1014.99 831.22C1020.01 824.56 1025.48 818.17 1031.25 812.21C1033.06 810.35 1036.03 810.3 1037.9 812.11C1039.54 813.7 1039.77 816.19 1038.57 818.04C1038.41 818.29 1038.22 818.53 1038 818.75ZM992.55 880.65C990.16 879.64 989.04 876.88 990.05 874.49C992.85 867.87 996.07 861.3 999.59 854.96C1000.12 853.99 1000.66 853.04 1001.21 852.09C1002.43 849.82 1005.38 849.07 1007.63 850.38C1009.88 851.68 1010.64 854.55 1009.34 856.8C1008.83 857.69 1008.32 858.59 1007.81 859.51C1004.44 865.57 1001.38 871.84 998.71 878.15C998.6 878.41 998.47 878.66 998.32 878.89C997.1 880.76 994.68 881.55 992.55 880.65Z" />
					</g>
					<g id="&lt;Group&gt;" style="opacity: 0.302">
						<path id="&lt;Compound Path&gt;" class="shp18" d="M1345.6 1066.46C1341.05 1073.27 1336.05 1079.86 1330.73 1086.05C1329.03 1088.02 1326.07 1088.24 1324.1 1086.55C1322.13 1084.86 1321.94 1081.89 1323.6 1079.92C1328.68 1074.02 1333.45 1067.73 1337.79 1061.24C1339.23 1059.08 1342.15 1058.5 1344.31 1059.94C1346.45 1061.38 1347.04 1064.26 1345.64 1066.41C1345.63 1066.43 1345.62 1066.45 1345.6 1066.46ZM1351.71 1047.28C1349.4 1046.11 1348.47 1043.28 1349.65 1040.97C1353.18 1034 1356.32 1026.76 1358.99 1019.43C1359.88 1017.01 1362.57 1015.73 1365.01 1016.62C1367.45 1017.51 1368.71 1020.2 1367.82 1022.64C1365.02 1030.33 1361.73 1037.92 1358.03 1045.22C1357.95 1045.37 1357.87 1045.52 1357.77 1045.66C1356.48 1047.64 1353.88 1048.38 1351.71 1047.28ZM1313.56 1103.7C1307.5 1109.21 1301.05 1114.39 1294.38 1119.11C1292.27 1120.61 1289.33 1120.11 1287.83 1117.99C1286.33 1115.87 1286.83 1112.95 1288.95 1111.44C1295.3 1106.94 1301.46 1101.99 1307.25 1096.74C1309.17 1095 1312.14 1095.14 1313.88 1097.06C1315.35 1098.67 1315.48 1101.03 1314.35 1102.78C1314.13 1103.11 1313.87 1103.42 1313.56 1103.7ZM1369.17 1002.56C1366.65 1001.98 1365.07 999.45 1365.65 996.92C1367.4 989.32 1368.7 981.53 1369.51 973.77C1369.79 971.19 1372.1 969.32 1374.67 969.59C1377.26 969.86 1379.13 972.17 1378.86 974.75C1378.01 982.89 1376.65 991.06 1374.81 999.03C1374.68 999.58 1374.46 1000.09 1374.17 1000.54C1373.12 1002.15 1371.15 1003.01 1369.17 1002.56ZM1273.49 1132.07C1266.29 1135.95 1258.78 1139.43 1251.17 1142.42C1248.75 1143.36 1246.02 1142.17 1245.07 1139.76C1244.13 1137.34 1245.31 1134.61 1247.74 1133.66C1255 1130.82 1262.16 1127.5 1269.02 1123.8C1271.31 1122.57 1274.16 1123.42 1275.39 1125.7C1276.23 1127.27 1276.1 1129.1 1275.19 1130.5C1274.78 1131.13 1274.2 1131.68 1273.49 1132.07ZM1227.76 1150.01C1219.83 1152.05 1211.71 1153.64 1203.61 1154.72C1201.04 1155.06 1198.68 1153.25 1198.34 1150.68C1197.99 1148.11 1199.8 1145.74 1202.38 1145.4C1210.09 1144.37 1217.85 1142.86 1225.42 1140.9C1227.93 1140.26 1230.49 1141.77 1231.14 1144.28C1231.48 1145.61 1231.22 1146.95 1230.53 1148.02C1229.91 1148.97 1228.95 1149.7 1227.76 1150.01ZM1179.06 1156.48C1170.87 1156.57 1162.59 1156.16 1154.48 1155.25C1151.89 1154.97 1150.04 1152.64 1150.32 1150.06C1150.61 1147.49 1152.94 1145.63 1155.51 1145.91C1163.25 1146.78 1171.14 1147.17 1178.95 1147.08C1181.55 1147.05 1183.68 1149.13 1183.71 1151.72C1183.72 1152.69 1183.44 1153.58 1182.95 1154.33C1182.12 1155.61 1180.69 1156.46 1179.06 1156.48Z" />
						<path id="&lt;Path&gt;" class="shp19" d="M1379.17 952.58C1379.66 951.82 1379.94 950.91 1379.93 949.93C1379.85 945.91 1379.66 941.88 1379.35 937.93C1379.15 935.35 1376.89 933.41 1374.3 933.61C1371.72 933.82 1369.78 936.07 1369.98 938.66C1370.27 942.42 1370.46 946.27 1370.53 950.11C1370.58 952.7 1372.72 954.77 1375.32 954.72C1376.94 954.69 1378.35 953.84 1379.17 952.58Z" />
					</g>
					<g id="&lt;Group&gt;">
						<path id="&lt;Compound Path&gt;" class="shp20" d="M1315.54 889.7C1315.23 888.73 1314.35 888.07 1313.33 888.05L1284.38 887.41C1277.42 875.81 1268.57 865.24 1257.97 856.22L1262.1 827.57C1262.25 826.57 1261.74 825.58 1260.84 825.12L1229.95 809.22C1229.05 808.76 1227.95 808.92 1227.22 809.62L1206.31 829.63C1192.81 826.25 1179.06 825.19 1165.58 826.27L1148.24 803.08C1147.63 802.26 1146.57 801.93 1145.6 802.24L1112.53 812.84C1111.56 813.15 1110.89 814.03 1110.87 815.05L1110.24 844C1098.64 850.96 1088.06 859.81 1079.04 870.41L1050.4 866.28C1049.39 866.13 1048.41 866.64 1047.94 867.54L1032.05 898.43C1031.58 899.33 1031.74 900.43 1032.44 901.16L1052.45 922.07C1049.07 935.57 1048.01 949.32 1049.1 962.8L1025.9 980.14C1025.09 980.75 1024.75 981.81 1025.06 982.78L1035.66 1015.86C1035.97 1016.82 1036.86 1017.48 1037.88 1017.51L1066.83 1018.14C1073.78 1029.74 1082.64 1040.31 1093.23 1049.34L1089.1 1077.98C1088.96 1078.99 1089.47 1079.97 1090.37 1080.44L1121.25 1096.33C1122.16 1096.8 1123.25 1096.64 1123.99 1095.94L1144.9 1075.93C1158.4 1079.31 1172.15 1080.37 1185.63 1079.29L1202.97 1102.48C1203.58 1103.29 1204.64 1103.63 1205.6 1103.32L1238.68 1092.72C1239.65 1092.41 1240.31 1091.52 1240.34 1090.5L1240.97 1061.55C1252.57 1054.6 1263.14 1045.74 1272.17 1035.15L1300.81 1039.28C1301.81 1039.42 1302.8 1038.91 1303.26 1038.01L1319.16 1007.13C1319.62 1006.22 1319.46 1005.13 1318.76 1004.39L1298.75 983.48C1302.13 969.98 1303.19 956.23 1302.11 942.75L1325.3 925.41C1326.12 924.8 1326.45 923.74 1326.14 922.78L1315.54 889.7Z" />
						<path id="&lt;Compound Path&gt;" fill-rule="evenodd" class="shp15" d="M1202.27 976.28C1195.99 983.4 1187.31 987.65 1177.83 988.25C1168.36 988.85 1159.22 985.72 1152.1 979.44C1137.4 966.48 1135.99 944.01 1148.94 929.27C1161.91 914.57 1184.41 913.16 1199.11 926.12C1206.23 932.39 1210.48 941.07 1211.08 950.54C1211.56 958.25 1209.58 965.73 1205.45 972.08C1204.5 973.54 1203.44 974.95 1202.27 976.28ZM1158.31 972.39C1163.55 977.01 1170.27 979.31 1177.25 978.87C1184.21 978.43 1190.6 975.3 1195.22 970.07C1199.83 964.82 1202.13 958.11 1201.7 951.13C1201.26 944.17 1198.13 937.78 1192.89 933.17C1182.08 923.63 1165.53 924.67 1155.99 935.48C1155.13 936.46 1154.36 937.48 1153.67 938.54C1146.73 949.23 1148.48 963.72 1158.31 972.39Z" />
						<path id="&lt;Path&gt;" class="shp15" d="M1249.07 1001.23C1250.69 998.74 1252.2 996.15 1253.59 993.45C1256.35 988.09 1258.56 982.45 1260.18 976.66C1260.25 976.4 1260.32 976.14 1260.39 975.88C1260.94 973.86 1260.08 971.8 1258.42 970.72C1258.02 970.46 1257.56 970.25 1257.07 970.12C1254.57 969.44 1252 970.94 1251.32 973.44C1249.86 978.85 1247.81 984.14 1245.23 989.14L1245.23 989.15C1245.09 989.42 1244.94 989.69 1244.8 989.97C1238.59 1001.76 1229.67 1011.55 1218.87 1018.75C1213 1022.66 1206.57 1025.8 1199.71 1028.07C1199.65 1028.09 1199.6 1028.1 1199.54 1028.12C1199.37 1028.18 1199.2 1028.23 1199.03 1028.29C1178.9 1034.73 1157.47 1032.96 1138.68 1023.29C1136.25 1022.04 1133.9 1020.68 1131.64 1019.21C1116.42 1009.31 1105.15 994.61 1099.54 977.08C1093.09 956.96 1094.87 935.53 1104.54 916.74C1114.21 897.97 1130.62 884.05 1150.74 877.6C1170.87 871.15 1192.3 872.92 1211.09 882.6C1213.48 883.82 1215.8 885.17 1218.04 886.63C1227.75 892.94 1235.97 901.31 1242.08 911.15C1242.46 911.76 1242.95 912.25 1243.51 912.61C1244.99 913.57 1246.95 913.66 1248.55 912.67C1250.75 911.29 1251.43 908.41 1250.06 906.2C1243.22 895.18 1234.03 885.82 1223.17 878.75C1220.66 877.12 1218.07 875.62 1215.39 874.24C1194.37 863.42 1170.39 861.43 1147.87 868.65C1125.36 875.87 1106.99 891.4 1096.18 912.44C1085.36 933.46 1083.37 957.44 1090.59 979.95C1096.87 999.56 1109.47 1016.01 1126.5 1027.08C1129.03 1028.72 1131.66 1030.25 1134.38 1031.65C1175.08 1052.59 1224.64 1038.82 1249.07 1001.23Z" />
					</g>
				</g>
			</g>
			<g id="&lt;Group&gt;">
				<path id="&lt;Path&gt;" class="shp21" d="M2283.07 1320.21L2146.43 1459.99L2310.34 1416.21L2283.07 1320.21Z" />
				<path id="&lt;Path&gt;" class="shp22" d="M3096.14 1378.07L2319.71 1415.75C2299.77 1416.72 2283.07 1400.81 2283.07 1380.85L2283.07 1061.42C2283.07 1026.71 2310.65 998.26 2345.35 997.19L3045.12 975.54C3097.23 975.54 3139.47 1017.78 3139.47 1069.89L3139.47 1332.59C3139.47 1356.88 3120.41 1376.89 3096.14 1378.07Z" />
				<path id="&lt;Compound Path&gt;" fill-rule="evenodd" class="shp23" d="M2342.93 1402.92C2330.56 1402.92 2318.89 1398.26 2309.87 1389.65C2300.28 1380.51 2295 1368.17 2295 1354.92L2295 1067.02C2295 1033.09 2322.2 1005.69 2356.93 1004.64L3034.46 984.18C3085.81 984.18 3127.55 1024.93 3127.55 1075.02L3127.55 1323.23C3127.55 1347.11 3108.42 1366.73 3083.99 1367.88L2345.27 1402.87C2344.49 1402.9 2343.71 1402.92 2342.93 1402.92ZM3034.51 987.55L2357.03 1008.01C2324.13 1009 2298.36 1034.92 2298.36 1067.02L2298.36 1354.92C2298.36 1367.24 2303.28 1378.71 2312.19 1387.22C2321.11 1395.72 2332.81 1400.08 2345.12 1399.51L3083.83 1364.52C3106.46 1363.45 3124.18 1345.31 3124.18 1323.23L3124.18 1075.02C3124.18 1026.79 3083.95 987.55 3034.51 987.55Z" />
				<path id="&lt;Path&gt;" class="shp24" d="M3032.25 1045.79L2411.4 1069.02C2405.3 1069.25 2400.5 1073.29 2400.7 1078.03L2400.94 1083.48C2401.14 1088.17 2406.16 1091.77 2412.2 1091.55L3033.07 1068.88C3039.17 1068.65 3043.98 1064.61 3043.78 1059.87L3043.52 1053.85C3043.32 1049.16 3038.28 1045.56 3032.25 1045.79Z" />
				<path id="&lt;Path&gt;" class="shp24" d="M2976.69 1202.97L2355.83 1226.08C2349.74 1226.31 2344.94 1230.49 2345.15 1235.39L2345.4 1241.04C2345.6 1245.9 2350.63 1249.63 2356.67 1249.41L2977.55 1226.88C2983.65 1226.66 2988.45 1222.48 2988.24 1217.57L2987.97 1211.33C2987.76 1206.48 2982.72 1202.74 2976.69 1202.97Z" />
				<path id="&lt;Path&gt;" class="shp24" d="M3049.22 1268.72L2357.1 1294.85C2350.31 1295.1 2344.95 1299.35 2345.16 1304.3L2345.4 1310.01C2345.61 1314.91 2351.2 1318.66 2357.93 1318.41L3050.07 1292.87C3056.87 1292.62 3062.24 1288.37 3062.03 1283.42L3061.76 1277.12C3061.55 1272.21 3055.95 1268.46 3049.22 1268.72Z" />
				<path id="&lt;Path&gt;" class="shp24" d="M2691.85 1138.46L2353.46 1148.32C2350.14 1148.42 2347.66 1152.98 2347.93 1158.48L2348.24 1164.83C2348.51 1170.27 2351.38 1174.59 2354.67 1174.5L2693.09 1165.29C2696.41 1165.2 2698.9 1160.64 2698.63 1155.13L2698.28 1148.13C2698.02 1142.68 2695.14 1138.36 2691.85 1138.46Z" />
				<path id="&lt;Path&gt;" class="shp24" d="M3064.71 1126.76L2744.87 1135.93C2741.73 1136.02 2739.39 1140.57 2739.66 1146.08L2739.98 1152.42C2740.25 1157.87 2742.98 1162.19 2746.08 1162.11L3065.96 1153.6C3069.1 1153.51 3071.44 1148.96 3071.17 1143.45L3070.82 1136.45C3070.55 1131 3067.82 1126.67 3064.71 1126.76Z" />
			</g>
			<g id="&lt;Group&gt;">
				<path id="&lt;Path&gt;" class="shp25" d="M1104.14 3139.89C1099.87 3164.05 1096.7 3188.08 1094.6 3211.99C1093.38 3226.01 1104.18 3238.18 1118.24 3238.76C1166 3240.75 1268.17 3244.62 1304.83 3242.98C1310.34 3242.74 1313.94 3237.09 1311.9 3231.97C1310.19 3227.67 1306.9 3224.2 1302.7 3222.27L1133.94 3144.71L1104.14 3139.89Z" />
				<path id="&lt;Path&gt;" class="shp26" d="M1098.9 3118.6L1104.04 3161.94C1123.75 3171.12 1140.33 3170.54 1153.79 3160.21L1141.55 3111.91L1098.9 3118.6Z" />
				<path id="&lt;Path&gt;" class="shp27" d="M1102.76 2303.85C1100.54 2315.17 1090.84 2868.61 1150 3116.62C1150.97 3120.67 1148.91 3124.84 1145.06 3126.42C1135.99 3130.12 1118.2 3135.49 1096.88 3136.21C1090.28 3136.43 1084.36 3132.14 1082.5 3125.8C1065.59 3068.26 984.56 2779.95 973.99 2504.54C966.11 2299.37 966.11 2295.88 973.99 2494.06L980.91 2303.83L1102.76 2303.85Z" />
				<path id="&lt;Path&gt;" class="shp28" d="M910.02 3158.79C903.23 3170.99 896.54 3193.29 889.97 3225.69C888.19 3234.47 894.32 3242.87 903.23 3243.74C919 3245.29 943.28 3247.29 962.73 3247.15C971.69 3247.09 978.69 3239.29 977.61 3230.39C975.46 3212.64 968.75 3183.54 948.01 3160.85L910.02 3158.79Z" />
				<path id="&lt;Path&gt;" class="shp29" d="M901.07 3103.05L913.08 3168.59C921 3174.48 932.8 3175.29 948.46 3171.02L942.73 3100.51L901.07 3103.05Z" />
				<path id="&lt;Path&gt;" class="shp30" d="M868.61 2320.84C820.23 2612.84 879.11 3042.54 898.97 3126.64C900.18 3131.79 904.34 3135.73 909.56 3136.6C918.42 3138.07 933.01 3139.27 947.4 3135.09C952.36 3133.65 955.84 3129.18 956.04 3124.02C958.7 3056.03 953.91 2638.6 998.99 2473.64C1001.28 2465.28 1006.38 2457.99 1013.45 2452.96L1100.95 2390.76L1107.66 2290.21L868.61 2320.84Z" />
				<g id="&lt;Group&gt;">
					<path id="&lt;Path&gt;" class="shp31" d="M1176.91 1767.55C1080.25 1765.96 978.59 1778.65 871.93 1805.63C843.12 1973.75 840.6 2154.78 864.37 2348.7C939.21 2368.33 1018.83 2362.33 1103.25 2330.7C1115.69 2260.43 1150.93 2126.41 1208.96 1928.64C1279.8 1919.84 1338.17 1899.4 1386.23 1872.38C1349.57 1829.89 1332.28 1775.81 1324.78 1743.85C1273.51 1759.78 1221.64 1768.29 1176.91 1767.55Z" />
					<path id="&lt;Path&gt;" class="shp32" d="M1605.21 1553.98C1595.71 1542.51 1584.96 1539.49 1572.94 1544.92C1551.6 1635.05 1439.72 1708.13 1324.78 1743.85C1332.28 1775.81 1349.57 1829.89 1386.23 1872.38C1513.4 1800.88 1586.39 1694.74 1605.21 1553.98Z" />
				</g>
				<g id="&lt;Group&gt;">
					<path id="&lt;Path&gt;" class="shp33" d="M1601.75 1558.36C1603.24 1563.1 1585.98 1570.31 1575.82 1550.93C1575.47 1541.64 1569.82 1501.86 1575.37 1494.29C1595.07 1467.43 1624.03 1437.16 1662.23 1403.48C1668.69 1409.85 1669.25 1416.17 1663.94 1422.42L1636.14 1451.38C1641.95 1461.89 1649.04 1470.76 1652.37 1483.47C1654.89 1493.1 1653.35 1503.38 1648.48 1512.14C1643.6 1520.93 1636.95 1532.36 1630.65 1541.3C1622.71 1552.59 1613.08 1558.27 1601.75 1558.36Z" />
					<path id="&lt;Path&gt;" class="shp34" d="M1623.98 1470.17L1598.64 1491.65L1590.69 1513.03L1613.28 1538.09C1618.34 1509.8 1622.75 1492.6 1626.52 1486.48C1632.16 1477.3 1629.23 1472.86 1623.98 1470.17Z" />
				</g>
				<path id="&lt;Path&gt;" class="shp35" d="M927.55 1946.03L871.93 1805.63C781.64 1866.97 729.07 1936.54 714.22 2014.32C739.81 2016.21 786.38 2022.86 831.96 2045.88C838.64 2009.15 870.5 1975.87 927.55 1946.03Z" />
				<path id="&lt;Path&gt;" class="shp36" d="M1045.9 2078.14C944.53 2135.43 876.74 2139.61 842.53 2090.69C831.88 2075.46 829.33 2060.32 831.96 2045.88C786.38 2022.86 739.81 2016.21 714.22 2014.32C707.51 2049.5 711.06 2086.91 731.73 2124.71C791.64 2234.32 903.07 2231.29 1066.02 2115.63L1045.9 2078.14Z" />
				<g id="&lt;Group&gt;">
					<path id="&lt;Path&gt;" class="shp37" d="M1027.63 2186.86L1110.62 1897.04C1111.56 1893.75 1114.37 1891.35 1117.77 1890.96C1132.8 1889.2 1176.37 1884.28 1226.68 1880.02C1287.27 1874.9 1357.64 1870.74 1399.68 1874.28C1405.66 1874.78 1409.28 1881.1 1406.62 1886.48C1382.7 1934.86 1284.35 2131.64 1235.09 2196.1C1233.46 2198.24 1230.94 2199.49 1228.25 2199.46L1035.7 2197.67C1030.1 2197.62 1026.09 2192.24 1027.63 2186.86Z" />
					<path id="&lt;Path&gt;" class="shp38" d="M1235.28 1854.9L1295.45 1844.87C1298.66 1844.34 1301.28 1847.4 1300.26 1850.48L1294.31 1868.53C1293.79 1870.1 1292.42 1871.24 1290.78 1871.46L1232.88 1879.19C1229.88 1879.59 1227.41 1876.87 1228.1 1873.93L1231.79 1858.17C1232.19 1856.48 1233.56 1855.18 1235.28 1854.9Z" />
					<path id="&lt;Path&gt;" class="shp39" d="M1190.23 1905.83L1195.19 1880.02C1195.69 1877.43 1197.82 1875.47 1200.45 1875.2L1321.97 1862.87C1326.06 1862.46 1329.34 1866.2 1328.38 1870.2L1320.65 1902.37C1320.03 1904.95 1317.79 1906.81 1315.15 1906.94L1196.39 1912.92C1192.53 1913.11 1189.5 1909.63 1190.23 1905.83Z" />
					<path id="&lt;Path&gt;" class="shp40" d="M1047.68 2116.84C1039.97 2085.15 1037.67 2063.68 1040.78 2052.44C1045.45 2035.57 1054.48 2013.89 1084.6 2018.71C1104.67 2021.92 1126.55 2027.75 1150.24 2036.21C1149.04 2050.86 1140.81 2055.82 1125.55 2051.09L1139.75 2062.07C1138.4 2073.8 1131.27 2076.53 1118.39 2070.27L1131.59 2084.83C1126.05 2094.46 1118.54 2096.19 1109.06 2090.01C1094.84 2080.75 1088.02 2122.56 1047.68 2116.84Z" />
				</g>
				<path id="&lt;Path&gt;" class="shp41" d="M1030.04 1649.84L983.91 1783.26C983.15 1785.47 984.05 1787.92 986.1 1789.05C998.68 1796 1043.99 1816.1 1098.59 1781.48C1104.28 1777.88 1108.15 1772 1109.01 1765.32L1123.95 1649.84L1030.04 1649.84Z" />
				<g id="&lt;Group&gt;">
					<path id="&lt;Path&gt;" class="shp42" d="M1130.43 1526.29C1164.2 1589.86 1178.93 1634.49 1174.6 1660.18C1168.1 1698.7 1105.32 1695.93 1050.49 1664.65L1012.18 1561.67L1130.43 1526.29Z" />
					<path id="&lt;Path&gt;" class="shp43" d="M1052.91 1614.08C1055.14 1613.09 1055.96 1610.36 1054.63 1608.32C1050.57 1602.12 1042.96 1589.47 1040.53 1578.4C1034.46 1574.51 1042.19 1569.99 1063.71 1564.84C1096 1557.11 1144.15 1545.11 1154.27 1517.63C1164.14 1490.83 1138.21 1423.45 1096.85 1477.14C1095.28 1479.18 1092.19 1479.23 1090.62 1477.18C1083.84 1468.36 1066.01 1450.04 1041.26 1461.15C1018.1 1471.54 1015.49 1488.51 1015.81 1497.06C1015.91 1499.58 1013.66 1501.54 1011.18 1501.07C999.47 1498.83 971.37 1496.91 958.26 1525.74C947.45 1549.48 954.47 1562.93 960.87 1569.5C962.94 1571.63 962.03 1575.14 959.19 1576.01C951.5 1578.36 941.56 1584.89 942.55 1602.92C943.93 1627.85 971.8 1625.65 979.73 1624.51C981.03 1624.33 982.34 1624.77 983.22 1625.75C990.03 1633.28 1020.68 1665.25 1053.86 1669.1C1056.73 1669.43 1058.96 1666.6 1058.01 1663.86L1043.66 1622.12C1042.99 1620.19 1043.92 1618.06 1045.79 1617.23L1052.91 1614.08Z" />
					<path id="&lt;Path&gt;" class="shp44" d="M1058.68 1620C1034.64 1603.5 1021.73 1602.2 1019.98 1616.09C1017.34 1636.93 1052.46 1646.28 1069.85 1638.51L1058.68 1620Z" />
				</g>
			</g>
		</g>
	</g>
</svg>