<svg width="262" height="85" viewBox="0 0 262 85" fill="none" xmlns="http://www.w3.org/2000/svg">
<path d="M32.9033 24.3438C32.0497 24.3438 31.2496 24.5741 30.5595 24.9744V23.1719C30.5595 22.5247 30.0348 22 29.3876 22H10.6376C9.99037 22 9.46568 22.5247 9.46568 23.1719V24.9887C8.77014 24.5795 7.96084 24.3438 7.09717 24.3438C4.51248 24.3438 2.40967 26.4466 2.40967 29.0312C2.40967 31.0027 2.99389 32.9077 4.09912 34.5402C5.98068 37.3193 8.30092 38.0405 10.2208 38.8084C11.3279 41.5653 13.5665 43.7502 16.3591 44.7846L15.495 50.2812H15.3251C13.3866 50.2812 11.8095 51.8584 11.8095 53.7969V59.6562H10.6376C9.99045 59.6562 9.46576 60.1809 9.46576 60.8281C9.46576 61.4753 9.99045 62 10.6376 62H29.3876C30.0348 62 30.5595 61.4753 30.5595 60.8281C30.5595 60.1809 30.0348 59.6562 29.3876 59.6562H28.2158V53.7969C28.2158 51.8584 26.6387 50.2812 24.7001 50.2812H24.5303L23.6662 44.7847C26.4629 43.7487 28.704 41.5591 29.8094 38.7966C31.6231 38.0711 34.0005 37.3478 35.9014 34.5402C37.0066 32.9077 37.5908 31.0027 37.5908 29.0312C37.5908 26.4466 35.4879 24.3438 32.9033 24.3438ZM9.45701 35.9787C6.59967 34.8357 4.75342 32.1087 4.75342 29.0312C4.75342 27.7389 5.80482 26.6875 7.09717 26.6875C8.38951 26.6875 9.44092 27.7389 9.44092 29.0312C9.44092 29.1137 9.44959 29.194 9.46576 29.2716V34.8906C9.46576 35.2673 9.486 35.6392 9.52475 36.0058L9.45701 35.9787ZM25.872 59.6562H14.1533V57.3125H25.872V59.6562ZM24.7001 52.625C25.3463 52.625 25.872 53.1507 25.872 53.7969V54.9688H14.1533V53.7969C14.1533 53.1507 14.679 52.625 15.3251 52.625C15.9609 52.625 23.2091 52.625 24.7001 52.625ZM17.8675 50.2812L18.6429 45.3487C19.0914 45.4071 19.5485 45.4375 20.0126 45.4375C20.4768 45.4375 20.9339 45.407 21.3823 45.3487L22.1578 50.2812H17.8675ZM28.2158 34.8906C28.2158 39.4138 24.5358 43.0938 20.0126 43.0938C15.4894 43.0938 11.8095 39.4138 11.8095 34.8906V29.0312H28.2158V34.8906ZM28.2158 26.6875H11.8095V24.3438H28.2158V26.6875ZM30.5433 35.9787L30.5017 35.9953C30.5397 35.6322 30.5594 35.2637 30.5594 34.8906V29.0312C30.5595 27.7389 31.6109 26.6875 32.9033 26.6875C34.1956 26.6875 35.247 27.7389 35.247 29.0312C35.247 32.1087 33.4008 34.8358 30.5433 35.9787Z" fill="#3A3A3A"/>
<path d="M76.888 23.4V36H74.548V30.6H68.032V36H65.692V23.4H68.032V28.602H74.548V23.4H76.888ZM80.0483 26.388H82.2983V36H80.0483V26.388ZM81.1823 24.804C80.7743 24.804 80.4323 24.678 80.1563 24.426C79.8803 24.162 79.7423 23.838 79.7423 23.454C79.7423 23.07 79.8803 22.752 80.1563 22.5C80.4323 22.236 80.7743 22.104 81.1823 22.104C81.5903 22.104 81.9323 22.23 82.2083 22.482C82.4843 22.722 82.6223 23.028 82.6223 23.4C82.6223 23.796 82.4843 24.132 82.2083 24.408C81.9443 24.672 81.6023 24.804 81.1823 24.804ZM94.7914 26.388V34.542C94.7914 37.926 93.0634 39.618 89.6074 39.618C88.6834 39.618 87.8074 39.498 86.9794 39.258C86.1514 39.03 85.4674 38.694 84.9274 38.25L85.9354 36.558C86.3554 36.906 86.8834 37.182 87.5194 37.386C88.1674 37.602 88.8214 37.71 89.4814 37.71C90.5374 37.71 91.3114 37.47 91.8034 36.99C92.2954 36.51 92.5414 35.778 92.5414 34.794V34.29C92.1574 34.71 91.6894 35.028 91.1374 35.244C90.5854 35.46 89.9794 35.568 89.3194 35.568C88.4074 35.568 87.5794 35.376 86.8354 34.992C86.1034 34.596 85.5214 34.044 85.0894 33.336C84.6694 32.628 84.4594 31.818 84.4594 30.906C84.4594 29.994 84.6694 29.19 85.0894 28.494C85.5214 27.786 86.1034 27.24 86.8354 26.856C87.5794 26.472 88.4074 26.28 89.3194 26.28C90.0154 26.28 90.6454 26.394 91.2094 26.622C91.7854 26.85 92.2654 27.198 92.6494 27.666V26.388H94.7914ZM89.6614 33.66C90.5134 33.66 91.2094 33.408 91.7494 32.904C92.3014 32.388 92.5774 31.722 92.5774 30.906C92.5774 30.102 92.3014 29.448 91.7494 28.944C91.2094 28.44 90.5134 28.188 89.6614 28.188C88.7974 28.188 88.0894 28.44 87.5374 28.944C86.9974 29.448 86.7274 30.102 86.7274 30.906C86.7274 31.722 86.9974 32.388 87.5374 32.904C88.0894 33.408 88.7974 33.66 89.6614 33.66ZM103.203 26.28C104.415 26.28 105.387 26.634 106.119 27.342C106.851 28.05 107.217 29.1 107.217 30.492V36H104.967V30.78C104.967 29.94 104.769 29.31 104.373 28.89C103.977 28.458 103.413 28.242 102.681 28.242C101.853 28.242 101.199 28.494 100.719 28.998C100.239 29.49 99.9994 30.204 99.9994 31.14V36H97.7494V22.644H99.9994V27.504C100.371 27.108 100.827 26.808 101.367 26.604C101.919 26.388 102.531 26.28 103.203 26.28ZM128.564 37.26C128.144 37.752 127.652 38.124 127.088 38.376C126.536 38.628 125.93 38.754 125.27 38.754C124.406 38.754 123.614 38.556 122.894 38.16C122.174 37.776 121.352 37.104 120.428 36.144C119.264 36.048 118.22 35.712 117.296 35.136C116.372 34.548 115.652 33.786 115.136 32.85C114.62 31.902 114.362 30.852 114.362 29.7C114.362 28.476 114.656 27.372 115.244 26.388C115.832 25.392 116.642 24.618 117.674 24.066C118.706 23.502 119.864 23.22 121.148 23.22C122.432 23.22 123.59 23.502 124.622 24.066C125.654 24.618 126.464 25.386 127.052 26.37C127.64 27.354 127.934 28.464 127.934 29.7C127.934 30.696 127.736 31.62 127.34 32.472C126.944 33.312 126.392 34.032 125.684 34.632C124.976 35.22 124.154 35.646 123.218 35.91C123.566 36.282 123.908 36.552 124.244 36.72C124.58 36.888 124.94 36.972 125.324 36.972C126.152 36.972 126.872 36.636 127.484 35.964L128.564 37.26ZM116.72 29.7C116.72 30.54 116.912 31.302 117.296 31.986C117.68 32.658 118.208 33.186 118.88 33.57C119.552 33.942 120.308 34.128 121.148 34.128C121.988 34.128 122.744 33.942 123.416 33.57C124.088 33.186 124.616 32.658 125 31.986C125.384 31.302 125.576 30.54 125.576 29.7C125.576 28.86 125.384 28.104 125 27.432C124.616 26.748 124.088 26.22 123.416 25.848C122.744 25.464 121.988 25.272 121.148 25.272C120.308 25.272 119.552 25.464 118.88 25.848C118.208 26.22 117.68 26.748 117.296 27.432C116.912 28.104 116.72 28.86 116.72 29.7ZM139.505 26.388V36H137.363V34.776C137.003 35.208 136.553 35.544 136.013 35.784C135.473 36.012 134.891 36.126 134.267 36.126C132.983 36.126 131.969 35.772 131.225 35.064C130.493 34.344 130.127 33.282 130.127 31.878V26.388H132.377V31.572C132.377 32.436 132.569 33.084 132.953 33.516C133.349 33.936 133.907 34.146 134.627 34.146C135.431 34.146 136.067 33.9 136.535 33.408C137.015 32.904 137.255 32.184 137.255 31.248V26.388H139.505ZM146.123 26.28C147.539 26.28 148.619 26.622 149.363 27.306C150.119 27.978 150.497 28.998 150.497 30.366V36H148.373V34.83C148.097 35.25 147.701 35.574 147.185 35.802C146.681 36.018 146.069 36.126 145.349 36.126C144.629 36.126 143.999 36.006 143.459 35.766C142.919 35.514 142.499 35.172 142.199 34.74C141.911 34.296 141.767 33.798 141.767 33.246C141.767 32.382 142.085 31.692 142.721 31.176C143.369 30.648 144.383 30.384 145.763 30.384H148.247V30.24C148.247 29.568 148.043 29.052 147.635 28.692C147.239 28.332 146.645 28.152 145.853 28.152C145.313 28.152 144.779 28.236 144.251 28.404C143.735 28.572 143.297 28.806 142.937 29.106L142.055 27.468C142.559 27.084 143.165 26.79 143.873 26.586C144.581 26.382 145.331 26.28 146.123 26.28ZM145.817 34.488C146.381 34.488 146.879 34.362 147.311 34.11C147.755 33.846 148.067 33.474 148.247 32.994V31.878H145.925C144.629 31.878 143.981 32.304 143.981 33.156C143.981 33.564 144.143 33.888 144.467 34.128C144.791 34.368 145.241 34.488 145.817 34.488ZM153.384 22.644H155.634V36H153.384V22.644ZM158.587 26.388H160.837V36H158.587V26.388ZM159.721 24.804C159.313 24.804 158.971 24.678 158.695 24.426C158.419 24.162 158.281 23.838 158.281 23.454C158.281 23.07 158.419 22.752 158.695 22.5C158.971 22.236 159.313 22.104 159.721 22.104C160.129 22.104 160.471 22.23 160.747 22.482C161.023 22.722 161.161 23.028 161.161 23.4C161.161 23.796 161.023 24.132 160.747 24.408C160.483 24.672 160.141 24.804 159.721 24.804ZM169.568 35.478C169.304 35.694 168.98 35.856 168.596 35.964C168.224 36.072 167.828 36.126 167.408 36.126C166.352 36.126 165.536 35.85 164.96 35.298C164.384 34.746 164.096 33.942 164.096 32.886V28.26H162.512V26.46H164.096V24.264H166.346V26.46H168.92V28.26H166.346V32.832C166.346 33.3 166.46 33.66 166.688 33.912C166.916 34.152 167.246 34.272 167.678 34.272C168.182 34.272 168.602 34.14 168.938 33.876L169.568 35.478ZM180.244 26.388L175.744 36.774C175.324 37.818 174.814 38.55 174.214 38.97C173.614 39.402 172.888 39.618 172.036 39.618C171.556 39.618 171.082 39.54 170.614 39.384C170.146 39.228 169.762 39.012 169.462 38.736L170.362 37.08C170.578 37.284 170.83 37.446 171.118 37.566C171.418 37.686 171.718 37.746 172.018 37.746C172.414 37.746 172.738 37.644 172.99 37.44C173.254 37.236 173.494 36.894 173.71 36.414L173.872 36.036L169.678 26.388H172.018L175.042 33.498L178.084 26.388H180.244Z" fill="#3A3A3A"/>
<path d="M69.952 54.44C70.7733 54.44 71.5093 54.6213 72.16 54.984C72.8107 55.3467 73.3173 55.8533 73.68 56.504C74.0533 57.1547 74.24 57.9067 74.24 58.76C74.24 59.6133 74.0533 60.3707 73.68 61.032C73.3173 61.6827 72.8107 62.1893 72.16 62.552C71.5093 62.9147 70.7733 63.096 69.952 63.096C69.3227 63.096 68.7467 62.9733 68.224 62.728C67.7013 62.4827 67.2693 62.1253 66.928 61.656V63H65.456V51.128H66.992V55.8C67.3333 55.352 67.76 55.016 68.272 54.792C68.784 54.5573 69.344 54.44 69.952 54.44ZM69.824 61.752C70.368 61.752 70.8533 61.6293 71.28 61.384C71.7173 61.128 72.0587 60.776 72.304 60.328C72.56 59.8693 72.688 59.3467 72.688 58.76C72.688 58.1733 72.56 57.656 72.304 57.208C72.0587 56.7493 71.7173 56.3973 71.28 56.152C70.8533 55.9067 70.368 55.784 69.824 55.784C69.2907 55.784 68.8053 55.9067 68.368 56.152C67.9307 56.3973 67.5893 56.7493 67.344 57.208C67.0987 57.656 66.976 58.1733 66.976 58.76C66.976 59.3467 67.0987 59.8693 67.344 60.328C67.5893 60.776 67.9307 61.128 68.368 61.384C68.8053 61.6293 69.2907 61.752 69.824 61.752ZM84.2663 54.52V63H82.8103V61.72C82.5009 62.1573 82.0903 62.4987 81.5783 62.744C81.0769 62.9787 80.5276 63.096 79.9303 63.096C78.7996 63.096 77.9089 62.7867 77.2582 62.168C76.6076 61.5387 76.2823 60.616 76.2823 59.4V54.52H77.8183V59.224C77.8183 60.0453 78.0156 60.6693 78.4103 61.096C78.8049 61.512 79.3703 61.72 80.1063 61.72C80.9169 61.72 81.5569 61.4747 82.0263 60.984C82.4956 60.4933 82.7303 59.8 82.7303 58.904V54.52H84.2663ZM87.1904 54.52H88.7264V63H87.1904V54.52ZM87.9584 52.888C87.6597 52.888 87.409 52.792 87.2064 52.6C87.0144 52.408 86.9184 52.1733 86.9184 51.896C86.9184 51.6187 87.0144 51.384 87.2064 51.192C87.409 50.9893 87.6597 50.888 87.9584 50.888C88.257 50.888 88.5024 50.984 88.6944 51.176C88.897 51.3573 88.9984 51.5867 88.9984 51.864C88.9984 52.152 88.897 52.3973 88.6944 52.6C88.5024 52.792 88.257 52.888 87.9584 52.888ZM91.6591 51.128H93.1951V63H91.6591V51.128ZM104.128 51.128V63H102.656V61.656C102.315 62.1253 101.883 62.4827 101.36 62.728C100.837 62.9733 100.261 63.096 99.6319 63.096C98.8105 63.096 98.0745 62.9147 97.4239 62.552C96.7732 62.1893 96.2612 61.6827 95.8879 61.032C95.5252 60.3707 95.3439 59.6133 95.3439 58.76C95.3439 57.9067 95.5252 57.1547 95.8879 56.504C96.2612 55.8533 96.7732 55.3467 97.4239 54.984C98.0745 54.6213 98.8105 54.44 99.6319 54.44C100.24 54.44 100.8 54.5573 101.312 54.792C101.824 55.016 102.251 55.352 102.592 55.8V51.128H104.128ZM99.7599 61.752C100.293 61.752 100.779 61.6293 101.216 61.384C101.653 61.128 101.995 60.776 102.24 60.328C102.485 59.8693 102.608 59.3467 102.608 58.76C102.608 58.1733 102.485 57.656 102.24 57.208C101.995 56.7493 101.653 56.3973 101.216 56.152C100.779 55.9067 100.293 55.784 99.7599 55.784C99.2159 55.784 98.7252 55.9067 98.2879 56.152C97.8612 56.3973 97.5199 56.7493 97.2639 57.208C97.0185 57.656 96.8959 58.1733 96.8959 58.76C96.8959 59.3467 97.0185 59.8693 97.2639 60.328C97.5199 60.776 97.8612 61.128 98.2879 61.384C98.7252 61.6293 99.2159 61.752 99.7599 61.752ZM114.435 52.296C113.518 52.296 113.059 52.792 113.059 53.784V54.52H115.523V55.784H113.091V63H111.555V55.784H110.115V54.52H111.555V53.768C111.555 52.9253 111.8 52.2587 112.291 51.768C112.782 51.2773 113.47 51.032 114.355 51.032C114.696 51.032 115.016 51.0747 115.315 51.16C115.614 51.2453 115.87 51.368 116.083 51.528L115.619 52.696C115.267 52.4293 114.872 52.296 114.435 52.296ZM119.725 55.944C119.992 55.4533 120.386 55.08 120.909 54.824C121.432 54.568 122.066 54.44 122.813 54.44V55.928C122.728 55.9173 122.61 55.912 122.461 55.912C121.629 55.912 120.973 56.1627 120.493 56.664C120.024 57.1547 119.789 57.8587 119.789 58.776V63H118.253V54.52H119.725V55.944ZM128.26 63.096C127.417 63.096 126.66 62.9093 125.988 62.536C125.316 62.1627 124.788 61.6507 124.404 61C124.031 60.3387 123.844 59.592 123.844 58.76C123.844 57.928 124.031 57.1867 124.404 56.536C124.788 55.8747 125.316 55.3627 125.988 55C126.66 54.6267 127.417 54.44 128.26 54.44C129.103 54.44 129.855 54.6267 130.516 55C131.188 55.3627 131.711 55.8747 132.084 56.536C132.468 57.1867 132.66 57.928 132.66 58.76C132.66 59.592 132.468 60.3387 132.084 61C131.711 61.6507 131.188 62.1627 130.516 62.536C129.855 62.9093 129.103 63.096 128.26 63.096ZM128.26 61.752C128.804 61.752 129.289 61.6293 129.716 61.384C130.153 61.128 130.495 60.776 130.74 60.328C130.985 59.8693 131.108 59.3467 131.108 58.76C131.108 58.1733 130.985 57.656 130.74 57.208C130.495 56.7493 130.153 56.3973 129.716 56.152C129.289 55.9067 128.804 55.784 128.26 55.784C127.716 55.784 127.225 55.9067 126.788 56.152C126.361 56.3973 126.02 56.7493 125.764 57.208C125.519 57.656 125.396 58.1733 125.396 58.76C125.396 59.3467 125.519 59.8693 125.764 60.328C126.02 60.776 126.361 61.128 126.788 61.384C127.225 61.6293 127.716 61.752 128.26 61.752ZM145.392 54.44C146.459 54.44 147.301 54.7493 147.92 55.368C148.549 55.9867 148.864 56.904 148.864 58.12V63H147.328V58.296C147.328 57.4747 147.136 56.856 146.752 56.44C146.379 56.024 145.84 55.816 145.136 55.816C144.357 55.816 143.739 56.0613 143.28 56.552C142.821 57.032 142.592 57.7253 142.592 58.632V63H141.056V58.296C141.056 57.4747 140.864 56.856 140.48 56.44C140.107 56.024 139.568 55.816 138.864 55.816C138.085 55.816 137.467 56.0613 137.008 56.552C136.549 57.032 136.32 57.7253 136.32 58.632V63H134.784V54.52H136.256V55.784C136.565 55.3467 136.971 55.016 137.472 54.792C137.973 54.5573 138.544 54.44 139.184 54.44C139.845 54.44 140.432 54.5733 140.944 54.84C141.456 55.1067 141.851 55.496 142.128 56.008C142.448 55.5173 142.891 55.1333 143.456 54.856C144.032 54.5787 144.677 54.44 145.392 54.44ZM160.755 62.504C160.531 62.696 160.254 62.8453 159.923 62.952C159.593 63.048 159.251 63.096 158.899 63.096C158.046 63.096 157.385 62.8667 156.915 62.408C156.446 61.9493 156.211 61.2933 156.211 60.44V55.784H154.771V54.52H156.211V52.664H157.747V54.52H160.179V55.784H157.747V60.376C157.747 60.8347 157.859 61.1867 158.083 61.432C158.318 61.6773 158.649 61.8 159.075 61.8C159.545 61.8 159.945 61.6667 160.275 61.4L160.755 62.504ZM165.963 63.096C165.12 63.096 164.363 62.9093 163.691 62.536C163.019 62.1627 162.491 61.6507 162.107 61C161.734 60.3387 161.547 59.592 161.547 58.76C161.547 57.928 161.734 57.1867 162.107 56.536C162.491 55.8747 163.019 55.3627 163.691 55C164.363 54.6267 165.12 54.44 165.963 54.44C166.806 54.44 167.558 54.6267 168.219 55C168.891 55.3627 169.414 55.8747 169.787 56.536C170.171 57.1867 170.363 57.928 170.363 58.76C170.363 59.592 170.171 60.3387 169.787 61C169.414 61.6507 168.891 62.1627 168.219 62.536C167.558 62.9093 166.806 63.096 165.963 63.096ZM165.963 61.752C166.507 61.752 166.992 61.6293 167.419 61.384C167.856 61.128 168.198 60.776 168.443 60.328C168.688 59.8693 168.811 59.3467 168.811 58.76C168.811 58.1733 168.688 57.656 168.443 57.208C168.198 56.7493 167.856 56.3973 167.419 56.152C166.992 55.9067 166.507 55.784 165.963 55.784C165.419 55.784 164.928 55.9067 164.491 56.152C164.064 56.3973 163.723 56.7493 163.467 57.208C163.222 57.656 163.099 58.1733 163.099 58.76C163.099 59.3467 163.222 59.8693 163.467 60.328C163.723 60.776 164.064 61.128 164.491 61.384C164.928 61.6293 165.419 61.752 165.963 61.752ZM176.983 54.44C177.805 54.44 178.541 54.6213 179.191 54.984C179.842 55.3467 180.349 55.8533 180.711 56.504C181.085 57.1547 181.271 57.9067 181.271 58.76C181.271 59.6133 181.085 60.3707 180.711 61.032C180.349 61.6827 179.842 62.1893 179.191 62.552C178.541 62.9147 177.805 63.096 176.983 63.096C176.375 63.096 175.815 62.9787 175.303 62.744C174.802 62.5093 174.375 62.168 174.023 61.72V66.104H172.487V54.52H173.959V55.864C174.301 55.3947 174.733 55.0427 175.255 54.808C175.778 54.5627 176.354 54.44 176.983 54.44ZM176.855 61.752C177.399 61.752 177.885 61.6293 178.311 61.384C178.749 61.128 179.09 60.776 179.335 60.328C179.591 59.8693 179.719 59.3467 179.719 58.76C179.719 58.1733 179.591 57.656 179.335 57.208C179.09 56.7493 178.749 56.3973 178.311 56.152C177.885 55.9067 177.399 55.784 176.855 55.784C176.322 55.784 175.837 55.912 175.399 56.168C174.973 56.4133 174.631 56.76 174.375 57.208C174.13 57.656 174.007 58.1733 174.007 58.76C174.007 59.3467 174.13 59.8693 174.375 60.328C174.621 60.776 174.962 61.128 175.399 61.384C175.837 61.6293 176.322 61.752 176.855 61.752ZM198.298 54.44C199.365 54.44 200.208 54.7493 200.826 55.368C201.456 55.9867 201.77 56.904 201.77 58.12V63H200.234V58.296C200.234 57.4747 200.042 56.856 199.658 56.44C199.285 56.024 198.746 55.816 198.042 55.816C197.264 55.816 196.645 56.0613 196.186 56.552C195.728 57.032 195.498 57.7253 195.498 58.632V63H193.962V58.296C193.962 57.4747 193.77 56.856 193.386 56.44C193.013 56.024 192.474 55.816 191.77 55.816C190.992 55.816 190.373 56.0613 189.914 56.552C189.456 57.032 189.226 57.7253 189.226 58.632V63H187.69V54.52H189.162V55.784C189.472 55.3467 189.877 55.016 190.378 54.792C190.88 54.5573 191.45 54.44 192.09 54.44C192.752 54.44 193.338 54.5733 193.85 54.84C194.362 55.1067 194.757 55.496 195.034 56.008C195.354 55.5173 195.797 55.1333 196.362 54.856C196.938 54.5787 197.584 54.44 198.298 54.44ZM207.685 54.44C208.858 54.44 209.754 54.728 210.373 55.304C211.002 55.88 211.317 56.7387 211.317 57.88V63H209.861V61.88C209.605 62.2747 209.237 62.5787 208.757 62.792C208.287 62.9947 207.727 63.096 207.077 63.096C206.127 63.096 205.365 62.8667 204.789 62.408C204.223 61.9493 203.941 61.3467 203.941 60.6C203.941 59.8533 204.213 59.256 204.757 58.808C205.301 58.3493 206.165 58.12 207.349 58.12H209.781V57.816C209.781 57.1547 209.589 56.648 209.205 56.296C208.821 55.944 208.255 55.768 207.509 55.768C207.007 55.768 206.517 55.8533 206.037 56.024C205.557 56.184 205.151 56.4027 204.821 56.68L204.181 55.528C204.618 55.176 205.141 54.9093 205.749 54.728C206.357 54.536 207.002 54.44 207.685 54.44ZM207.333 61.912C207.919 61.912 208.426 61.784 208.853 61.528C209.279 61.2613 209.589 60.888 209.781 60.408V59.224H207.413C206.111 59.224 205.461 59.6613 205.461 60.536C205.461 60.9627 205.626 61.2987 205.957 61.544C206.287 61.7893 206.746 61.912 207.333 61.912ZM218.927 62.504C218.703 62.696 218.426 62.8453 218.095 62.952C217.764 63.048 217.423 63.096 217.071 63.096C216.218 63.096 215.556 62.8667 215.087 62.408C214.618 61.9493 214.383 61.2933 214.383 60.44V55.784H212.943V54.52H214.383V52.664H215.919V54.52H218.351V55.784H215.919V60.376C215.919 60.8347 216.031 61.1867 216.255 61.432C216.49 61.6773 216.82 61.8 217.247 61.8C217.716 61.8 218.116 61.6667 218.447 61.4L218.927 62.504ZM228.167 58.808C228.167 58.9253 228.156 59.08 228.135 59.272H221.255C221.351 60.0187 221.676 60.6213 222.231 61.08C222.796 61.528 223.495 61.752 224.327 61.752C225.34 61.752 226.156 61.4107 226.775 60.728L227.623 61.72C227.239 62.168 226.759 62.5093 226.183 62.744C225.618 62.9787 224.983 63.096 224.279 63.096C223.383 63.096 222.588 62.9147 221.895 62.552C221.202 62.1787 220.663 61.6613 220.279 61C219.906 60.3387 219.719 59.592 219.719 58.76C219.719 57.9387 219.9 57.1973 220.263 56.536C220.636 55.8747 221.143 55.3627 221.783 55C222.434 54.6267 223.164 54.44 223.975 54.44C224.786 54.44 225.506 54.6267 226.135 55C226.775 55.3627 227.271 55.8747 227.623 56.536C227.986 57.1973 228.167 57.9547 228.167 58.808ZM223.975 55.736C223.239 55.736 222.62 55.96 222.119 56.408C221.628 56.856 221.34 57.4427 221.255 58.168H226.695C226.61 57.4533 226.316 56.872 225.815 56.424C225.324 55.9653 224.711 55.736 223.975 55.736ZM231.772 55.944C232.038 55.4533 232.433 55.08 232.956 54.824C233.478 54.568 234.113 54.44 234.86 54.44V55.928C234.774 55.9173 234.657 55.912 234.508 55.912C233.676 55.912 233.02 56.1627 232.54 56.664C232.07 57.1547 231.836 57.8587 231.836 58.776V63H230.3V54.52H231.772V55.944ZM236.753 54.52H238.289V63H236.753V54.52ZM237.521 52.888C237.222 52.888 236.972 52.792 236.769 52.6C236.577 52.408 236.481 52.1733 236.481 51.896C236.481 51.6187 236.577 51.384 236.769 51.192C236.972 50.9893 237.222 50.888 237.521 50.888C237.82 50.888 238.065 50.984 238.257 51.176C238.46 51.3573 238.561 51.5867 238.561 51.864C238.561 52.152 238.46 52.3973 238.257 52.6C238.065 52.792 237.82 52.888 237.521 52.888ZM244.31 54.44C245.483 54.44 246.379 54.728 246.998 55.304C247.627 55.88 247.942 56.7387 247.942 57.88V63H246.486V61.88C246.23 62.2747 245.862 62.5787 245.382 62.792C244.912 62.9947 244.352 63.096 243.702 63.096C242.752 63.096 241.99 62.8667 241.414 62.408C240.848 61.9493 240.566 61.3467 240.566 60.6C240.566 59.8533 240.838 59.256 241.382 58.808C241.926 58.3493 242.79 58.12 243.974 58.12H246.406V57.816C246.406 57.1547 246.214 56.648 245.83 56.296C245.446 55.944 244.88 55.768 244.134 55.768C243.632 55.768 243.142 55.8533 242.662 56.024C242.182 56.184 241.776 56.4027 241.446 56.68L240.806 55.528C241.243 55.176 241.766 54.9093 242.374 54.728C242.982 54.536 243.627 54.44 244.31 54.44ZM243.958 61.912C244.544 61.912 245.051 61.784 245.478 61.528C245.904 61.2613 246.214 60.888 246.406 60.408V59.224H244.038C242.736 59.224 242.086 59.6613 242.086 60.536C242.086 60.9627 242.251 61.2987 242.582 61.544C242.912 61.7893 243.371 61.912 243.958 61.912ZM250.784 51.128H252.32V63H250.784V51.128ZM257.685 63.096C256.992 63.096 256.325 63.0053 255.685 62.824C255.045 62.632 254.544 62.392 254.181 62.104L254.821 60.888C255.194 61.1547 255.648 61.368 256.181 61.528C256.714 61.688 257.253 61.768 257.797 61.768C259.141 61.768 259.813 61.384 259.813 60.616C259.813 60.36 259.722 60.1573 259.541 60.008C259.36 59.8587 259.13 59.752 258.853 59.688C258.586 59.6133 258.202 59.5333 257.701 59.448C257.018 59.3413 256.458 59.2187 256.021 59.08C255.594 58.9413 255.226 58.7067 254.917 58.376C254.608 58.0453 254.453 57.5813 254.453 56.984C254.453 56.216 254.773 55.6027 255.413 55.144C256.053 54.6747 256.912 54.44 257.989 54.44C258.554 54.44 259.12 54.5093 259.685 54.648C260.25 54.7867 260.714 54.9733 261.077 55.208L260.421 56.424C259.728 55.976 258.912 55.752 257.973 55.752C257.322 55.752 256.826 55.8587 256.485 56.072C256.144 56.2853 255.973 56.568 255.973 56.92C255.973 57.1973 256.069 57.416 256.261 57.576C256.453 57.736 256.688 57.8533 256.965 57.928C257.253 58.0027 257.653 58.088 258.165 58.184C258.848 58.3013 259.397 58.4293 259.813 58.568C260.24 58.696 260.602 58.92 260.901 59.24C261.2 59.56 261.349 60.008 261.349 60.584C261.349 61.352 261.018 61.9653 260.357 62.424C259.706 62.872 258.816 63.096 257.685 63.096Z" fill="#898989"/>
</svg>
