<svg width="247" height="85" viewBox="0 0 247 85" fill="none" xmlns="http://www.w3.org/2000/svg">
<g clip-path="url(#clip0)">
<path d="M37.8573 36.1742C37.3295 34.5398 37.5545 32.0864 36.1827 30.1921C34.8 28.2829 32.3952 27.7403 31.0373 26.7471C29.6938 25.7645 28.4438 23.6261 26.1837 22.8886C23.9873 22.1719 21.7414 23.1445 20 23.1445C18.2588 23.1445 16.013 22.1717 13.8163 22.8885C11.5566 23.6259 10.3056 25.7647 8.96289 26.7469C7.60648 27.7389 5.19992 28.283 3.8175 30.1919C2.4468 32.0846 2.66953 34.5436 2.14266 36.1741C1.64125 37.7259 0 39.5883 0 42.0002C0 44.4135 1.63938 46.2688 2.14266 47.8262C2.67047 49.4606 2.44547 51.9139 3.81734 53.8082C5.19992 55.7175 7.60461 56.2601 8.96266 57.2533C10.306 58.2358 11.5562 60.3743 13.8163 61.1117C16.0112 61.828 18.2606 60.8559 20 60.8559C21.737 60.8559 23.9916 61.827 26.1837 61.1118C28.4434 60.3745 29.6937 58.2361 31.0371 57.2535C32.3935 56.2615 34.8001 55.7174 36.1825 53.8085C37.5533 51.9157 37.3304 49.4569 37.8573 47.8263C38.3587 46.2744 40 44.412 40 42.0002C40 39.587 38.361 37.7323 37.8573 36.1742ZM34.8838 46.8653C34.2686 48.7696 34.4298 50.9008 33.6516 51.9753C32.863 53.0642 30.7913 53.5615 29.1926 54.7309C27.6114 55.8872 26.5032 57.7203 25.2143 58.1408C23.9949 58.5388 22.0077 57.7307 20.0001 57.7307C17.9777 57.7307 16.011 58.5405 14.7858 58.1408C13.497 57.7203 12.3904 55.8885 10.8075 54.7308C9.21828 53.5685 7.13469 53.061 6.34836 51.9752C5.57273 50.9042 5.72781 48.7583 5.11633 46.8654C4.51695 45.0108 3.125 43.4049 3.125 42.0002C3.125 40.594 4.5157 38.9937 5.11617 37.135C5.73141 35.2308 5.57023 33.0995 6.34836 32.025C7.13648 30.9369 9.20984 30.4379 10.8075 29.2695C12.3937 28.1094 13.4949 26.2807 14.7856 25.8596C16.004 25.4621 17.9977 26.2696 19.9999 26.2696C22.0259 26.2696 23.9877 25.4593 25.2142 25.8596C26.5028 26.28 27.6104 28.1125 29.1926 29.2696C30.7816 30.4318 32.8653 30.9394 33.6516 32.0251C34.4274 33.0963 34.2715 35.24 34.8837 37.1349V37.1349C35.483 38.9896 36.875 40.5954 36.875 42.0002C36.875 43.4064 35.4843 45.0067 34.8838 46.8653ZM27.1987 36.9849C27.8089 37.5952 27.8089 38.5845 27.1987 39.1946L19.3779 47.0154C18.7677 47.6257 17.7783 47.6256 17.1681 47.0154L12.8014 42.6487C12.1912 42.0385 12.1911 41.0492 12.8013 40.439C13.4116 39.8289 14.401 39.8288 15.011 40.439L18.273 43.7009L24.9888 36.985C25.5991 36.3748 26.5884 36.3748 27.1987 36.9849Z" fill="#3A3A3A"/>
</g>
<path d="M82.874 23.4L79.652 33.03L76.466 23.4H74.306L71.048 32.976L67.916 23.4H65.486L69.662 36H72.164L75.332 26.676L78.446 36H80.93L85.106 23.4H82.874ZM89.7476 26.28C88.1996 26.28 86.7056 26.676 85.6796 27.468L86.5616 29.106C87.2816 28.512 88.3976 28.152 89.4776 28.152C91.0796 28.152 91.8716 28.926 91.8716 30.24V30.384H89.3876C86.4716 30.384 85.3916 31.644 85.3916 33.246C85.3916 34.92 86.7776 36.126 88.9736 36.126C90.4136 36.126 91.4576 35.658 91.9976 34.83V36H94.1216V30.366C94.1216 27.594 92.5196 26.28 89.7476 26.28ZM89.4416 34.488C88.2896 34.488 87.6056 33.966 87.6056 33.156C87.6056 32.454 88.0196 31.878 89.5496 31.878H91.8716V32.994C91.4936 33.984 90.5396 34.488 89.4416 34.488ZM99.1512 27.792V26.388H97.0092V36H99.2592V31.338C99.2592 29.376 100.339 28.368 102.049 28.368C102.211 28.368 102.373 28.386 102.571 28.422V26.28C100.969 26.28 99.7992 26.784 99.1512 27.792ZM106.622 27.792V26.388H104.48V36H106.73V31.338C106.73 29.376 107.81 28.368 109.52 28.368C109.682 28.368 109.844 28.386 110.042 28.422V26.28C108.44 26.28 107.27 26.784 106.622 27.792ZM115.57 26.28C114.022 26.28 112.528 26.676 111.502 27.468L112.384 29.106C113.104 28.512 114.22 28.152 115.3 28.152C116.902 28.152 117.694 28.926 117.694 30.24V30.384H115.21C112.294 30.384 111.214 31.644 111.214 33.246C111.214 34.92 112.6 36.126 114.796 36.126C116.236 36.126 117.28 35.658 117.82 34.83V36H119.944V30.366C119.944 27.594 118.342 26.28 115.57 26.28ZM115.264 34.488C114.112 34.488 113.428 33.966 113.428 33.156C113.428 32.454 113.842 31.878 115.372 31.878H117.694V32.994C117.316 33.984 116.362 34.488 115.264 34.488ZM128.285 26.28C126.881 26.28 125.711 26.748 124.973 27.63V26.388H122.831V36H125.081V31.14C125.081 29.214 126.161 28.242 127.763 28.242C129.203 28.242 130.049 29.07 130.049 30.78V36H132.299V30.492C132.299 27.594 130.589 26.28 128.285 26.28ZM141.818 26.388L138.776 33.498L135.752 26.388H133.412L137.606 36.036L137.444 36.414C137.012 37.368 136.544 37.746 135.752 37.746C135.14 37.746 134.528 37.494 134.096 37.08L133.196 38.736C133.808 39.294 134.816 39.618 135.77 39.618C137.372 39.618 138.596 38.952 139.478 36.774L143.978 26.388H141.818ZM155.759 23.4H150.575V36H152.915V32.364H155.759C159.071 32.364 161.123 30.654 161.123 27.882C161.123 25.092 159.071 23.4 155.759 23.4ZM155.651 30.384H152.915V25.38H155.651C157.703 25.38 158.765 26.298 158.765 27.882C158.765 29.466 157.703 30.384 155.651 30.384ZM165.298 27.792V26.388H163.156V36H165.406V31.338C165.406 29.376 166.486 28.368 168.196 28.368C168.358 28.368 168.52 28.386 168.718 28.422V26.28C167.116 26.28 165.946 26.784 165.298 27.792ZM174.859 36.126C177.847 36.126 179.989 34.074 179.989 31.194C179.989 28.314 177.847 26.28 174.859 26.28C171.907 26.28 169.747 28.314 169.747 31.194C169.747 34.074 171.907 36.126 174.859 36.126ZM174.859 34.2C173.239 34.2 172.015 33.03 172.015 31.194C172.015 29.358 173.239 28.188 174.859 28.188C176.497 28.188 177.721 29.358 177.721 31.194C177.721 33.03 176.497 34.2 174.859 34.2ZM187.288 33.876C186.946 34.146 186.496 34.272 186.028 34.272C185.164 34.272 184.696 33.768 184.696 32.832V28.26H187.27V26.46H184.696V24.264H182.446V26.46H180.862V28.26H182.446V32.886C182.446 35.01 183.652 36.126 185.758 36.126C186.568 36.126 187.378 35.91 187.918 35.478L187.288 33.876ZM198.489 31.248C198.489 28.242 196.437 26.28 193.629 26.28C190.767 26.28 188.661 28.332 188.661 31.194C188.661 34.056 190.749 36.126 193.971 36.126C195.627 36.126 196.977 35.586 197.841 34.56L196.635 33.174C195.951 33.876 195.105 34.218 194.025 34.218C192.351 34.218 191.181 33.318 190.911 31.914H198.453C198.471 31.698 198.489 31.428 198.489 31.248ZM193.629 28.08C195.105 28.08 196.167 29.034 196.347 30.42H190.893C191.109 29.016 192.171 28.08 193.629 28.08ZM205.06 36.126C206.932 36.126 208.426 35.316 209.164 33.876L207.436 32.868C206.86 33.786 205.996 34.2 205.042 34.2C203.386 34.2 202.126 33.066 202.126 31.194C202.126 29.34 203.386 28.188 205.042 28.188C205.996 28.188 206.86 28.602 207.436 29.52L209.164 28.512C208.426 27.054 206.932 26.28 205.06 26.28C202.018 26.28 199.858 28.314 199.858 31.194C199.858 34.074 202.018 36.126 205.06 36.126ZM216.38 33.876C216.038 34.146 215.588 34.272 215.12 34.272C214.256 34.272 213.788 33.768 213.788 32.832V28.26H216.362V26.46H213.788V24.264H211.538V26.46H209.954V28.26H211.538V32.886C211.538 35.01 212.744 36.126 214.85 36.126C215.66 36.126 216.47 35.91 217.01 35.478L216.38 33.876ZM219.995 24.804C220.841 24.804 221.435 24.192 221.435 23.4C221.435 22.662 220.823 22.104 219.995 22.104C219.167 22.104 218.555 22.698 218.555 23.454C218.555 24.21 219.167 24.804 219.995 24.804ZM218.861 36H221.111V26.388H218.861V36ZM228.384 36.126C231.372 36.126 233.514 34.074 233.514 31.194C233.514 28.314 231.372 26.28 228.384 26.28C225.432 26.28 223.272 28.314 223.272 31.194C223.272 34.074 225.432 36.126 228.384 36.126ZM228.384 34.2C226.764 34.2 225.54 33.03 225.54 31.194C225.54 29.358 226.764 28.188 228.384 28.188C230.022 28.188 231.246 29.358 231.246 31.194C231.246 33.03 230.022 34.2 228.384 34.2ZM241.119 26.28C239.715 26.28 238.545 26.748 237.807 27.63V26.388H235.665V36H237.915V31.14C237.915 29.214 238.995 28.242 240.597 28.242C242.037 28.242 242.883 29.07 242.883 30.78V36H245.133V30.492C245.133 27.594 243.423 26.28 241.119 26.28Z" fill="#3A3A3A"/>
<path d="M71.736 63.128C70.6053 63.128 69.5867 62.8827 68.68 62.392C67.7733 61.8907 67.0587 61.2027 66.536 60.328C66.024 59.4533 65.768 58.4773 65.768 57.4C65.768 56.3227 66.024 55.3467 66.536 54.472C67.0587 53.5973 67.7733 52.9147 68.68 52.424C69.5867 51.9227 70.6053 51.672 71.736 51.672C72.856 51.672 73.8693 51.9227 74.776 52.424C75.6827 52.9147 76.392 53.5973 76.904 54.472C77.416 55.336 77.672 56.312 77.672 57.4C77.672 58.488 77.416 59.4693 76.904 60.344C76.392 61.208 75.6827 61.8907 74.776 62.392C73.8693 62.8827 72.856 63.128 71.736 63.128ZM71.736 61.704C72.5573 61.704 73.2933 61.5173 73.944 61.144C74.6053 60.7707 75.1227 60.2587 75.496 59.608C75.88 58.9467 76.072 58.2107 76.072 57.4C76.072 56.5893 75.88 55.8587 75.496 55.208C75.1227 54.5467 74.6053 54.0293 73.944 53.656C73.2933 53.2827 72.5573 53.096 71.736 53.096C70.9147 53.096 70.168 53.2827 69.496 53.656C68.8347 54.0293 68.312 54.5467 67.928 55.208C67.5547 55.8587 67.368 56.5893 67.368 57.4C67.368 58.2107 67.5547 58.9467 67.928 59.608C68.312 60.2587 68.8347 60.7707 69.496 61.144C70.168 61.5173 70.9147 61.704 71.736 61.704ZM87.3975 54.52L83.6855 63H82.1175L78.4055 54.52H80.0055L82.9175 61.32L85.8935 54.52H87.3975ZM96.2606 58.808C96.2606 58.9253 96.25 59.08 96.2286 59.272H89.3486C89.4446 60.0187 89.77 60.6213 90.3246 61.08C90.89 61.528 91.5886 61.752 92.4206 61.752C93.434 61.752 94.25 61.4107 94.8686 60.728L95.7166 61.72C95.3326 62.168 94.8526 62.5093 94.2766 62.744C93.7113 62.9787 93.0766 63.096 92.3726 63.096C91.4766 63.096 90.682 62.9147 89.9886 62.552C89.2953 62.1787 88.7566 61.6613 88.3726 61C87.9993 60.3387 87.8126 59.592 87.8126 58.76C87.8126 57.9387 87.994 57.1973 88.3566 56.536C88.73 55.8747 89.2366 55.3627 89.8766 55C90.5273 54.6267 91.258 54.44 92.0686 54.44C92.8793 54.44 93.5993 54.6267 94.2286 55C94.8686 55.3627 95.3646 55.8747 95.7166 56.536C96.0793 57.1973 96.2606 57.9547 96.2606 58.808ZM92.0686 55.736C91.3326 55.736 90.714 55.96 90.2126 56.408C89.722 56.856 89.434 57.4427 89.3486 58.168H94.7886C94.7033 57.4533 94.41 56.872 93.9086 56.424C93.418 55.9653 92.8046 55.736 92.0686 55.736ZM99.8655 55.944C100.132 55.4533 100.527 55.08 101.049 54.824C101.572 54.568 102.207 54.44 102.954 54.44V55.928C102.868 55.9173 102.751 55.912 102.602 55.912C101.77 55.912 101.114 56.1627 100.634 56.664C100.164 57.1547 99.9295 57.8587 99.9295 58.776V63H98.3935V54.52H99.8655V55.944ZM116.437 61.608V63H108.389V61.912L112.949 57.512C113.504 56.9787 113.877 56.52 114.069 56.136C114.261 55.7413 114.357 55.3467 114.357 54.952C114.357 54.3653 114.149 53.912 113.733 53.592C113.328 53.2613 112.741 53.096 111.973 53.096C110.736 53.096 109.781 53.5013 109.109 54.312L108.021 53.368C108.458 52.8347 109.029 52.4187 109.733 52.12C110.448 51.8213 111.242 51.672 112.117 51.672C113.29 51.672 114.224 51.9547 114.917 52.52C115.61 53.0747 115.957 53.832 115.957 54.792C115.957 55.3893 115.829 55.9547 115.573 56.488C115.317 57.0213 114.832 57.6293 114.117 58.312L110.693 61.608H116.437ZM130.241 54.52L126.129 63.848C125.767 64.712 125.34 65.32 124.849 65.672C124.369 66.024 123.788 66.2 123.105 66.2C122.689 66.2 122.284 66.1307 121.889 65.992C121.505 65.864 121.185 65.672 120.929 65.416L121.585 64.264C122.023 64.68 122.529 64.888 123.105 64.888C123.479 64.888 123.788 64.7867 124.033 64.584C124.289 64.392 124.519 64.056 124.721 63.576L124.993 62.984L121.249 54.52H122.849L125.809 61.304L128.737 54.52H130.241ZM139.104 58.808C139.104 58.9253 139.094 59.08 139.072 59.272H132.192C132.288 60.0187 132.614 60.6213 133.168 61.08C133.734 61.528 134.432 61.752 135.264 61.752C136.278 61.752 137.094 61.4107 137.712 60.728L138.56 61.72C138.176 62.168 137.696 62.5093 137.12 62.744C136.555 62.9787 135.92 63.096 135.216 63.096C134.32 63.096 133.526 62.9147 132.832 62.552C132.139 62.1787 131.6 61.6613 131.216 61C130.843 60.3387 130.656 59.592 130.656 58.76C130.656 57.9387 130.838 57.1973 131.2 56.536C131.574 55.8747 132.08 55.3627 132.72 55C133.371 54.6267 134.102 54.44 134.912 54.44C135.723 54.44 136.443 54.6267 137.072 55C137.712 55.3627 138.208 55.8747 138.56 56.536C138.923 57.1973 139.104 57.9547 139.104 58.808ZM134.912 55.736C134.176 55.736 133.558 55.96 133.056 56.408C132.566 56.856 132.278 57.4427 132.192 58.168H137.632C137.547 57.4533 137.254 56.872 136.752 56.424C136.262 55.9653 135.648 55.736 134.912 55.736ZM144.091 54.44C145.264 54.44 146.16 54.728 146.779 55.304C147.408 55.88 147.723 56.7387 147.723 57.88V63H146.267V61.88C146.011 62.2747 145.643 62.5787 145.163 62.792C144.694 62.9947 144.134 63.096 143.483 63.096C142.534 63.096 141.771 62.8667 141.195 62.408C140.63 61.9493 140.347 61.3467 140.347 60.6C140.347 59.8533 140.619 59.256 141.163 58.808C141.707 58.3493 142.571 58.12 143.755 58.12H146.187V57.816C146.187 57.1547 145.995 56.648 145.611 56.296C145.227 55.944 144.662 55.768 143.915 55.768C143.414 55.768 142.923 55.8533 142.443 56.024C141.963 56.184 141.558 56.4027 141.227 56.68L140.587 55.528C141.024 55.176 141.547 54.9093 142.155 54.728C142.763 54.536 143.408 54.44 144.091 54.44ZM143.739 61.912C144.326 61.912 144.832 61.784 145.259 61.528C145.686 61.2613 145.995 60.888 146.187 60.408V59.224H143.819C142.518 59.224 141.867 59.6613 141.867 60.536C141.867 60.9627 142.032 61.2987 142.363 61.544C142.694 61.7893 143.152 61.912 143.739 61.912ZM152.037 55.944C152.304 55.4533 152.699 55.08 153.221 54.824C153.744 54.568 154.379 54.44 155.125 54.44V55.928C155.04 55.9173 154.923 55.912 154.773 55.912C153.941 55.912 153.285 56.1627 152.805 56.664C152.336 57.1547 152.101 57.8587 152.101 58.776V63H150.565V54.52H152.037V55.944ZM159.513 63.096C158.82 63.096 158.153 63.0053 157.513 62.824C156.873 62.632 156.372 62.392 156.009 62.104L156.649 60.888C157.022 61.1547 157.476 61.368 158.009 61.528C158.542 61.688 159.081 61.768 159.625 61.768C160.969 61.768 161.641 61.384 161.641 60.616C161.641 60.36 161.55 60.1573 161.369 60.008C161.188 59.8587 160.958 59.752 160.681 59.688C160.414 59.6133 160.03 59.5333 159.529 59.448C158.846 59.3413 158.286 59.2187 157.849 59.08C157.422 58.9413 157.054 58.7067 156.745 58.376C156.436 58.0453 156.281 57.5813 156.281 56.984C156.281 56.216 156.601 55.6027 157.241 55.144C157.881 54.6747 158.74 54.44 159.817 54.44C160.382 54.44 160.948 54.5093 161.513 54.648C162.078 54.7867 162.542 54.9733 162.905 55.208L162.249 56.424C161.556 55.976 160.74 55.752 159.801 55.752C159.15 55.752 158.654 55.8587 158.313 56.072C157.972 56.2853 157.801 56.568 157.801 56.92C157.801 57.1973 157.897 57.416 158.089 57.576C158.281 57.736 158.516 57.8533 158.793 57.928C159.081 58.0027 159.481 58.088 159.993 58.184C160.676 58.3013 161.225 58.4293 161.641 58.568C162.068 58.696 162.43 58.92 162.729 59.24C163.028 59.56 163.177 60.008 163.177 60.584C163.177 61.352 162.846 61.9653 162.185 62.424C161.534 62.872 160.644 63.096 159.513 63.096Z" fill="#898989"/>
<defs>
<clipPath id="clip0">
<rect width="40" height="40" fill="white" transform="translate(0 22)"/>
</clipPath>
</defs>
</svg>
