<svg width="210" height="85" viewBox="0 0 210 85" fill="none" xmlns="http://www.w3.org/2000/svg">
<g clip-path="url(#clip0)">
<path d="M36.8986 43.7346V25.5198C36.8986 24.87 36.3718 24.3431 35.722 24.3431H4.19674C3.54691 24.3431 3.02008 24.87 3.02008 25.5198V45.1867C2.45246 45.2694 1.89755 45.4898 1.40664 45.8542C-0.140899 46.9516 -0.506918 49.4073 0.789368 50.9218L6.08928 57.347C9.36996 61.1866 12.855 61.657 18.0359 61.657C22.4819 61.657 24.4696 61.6766 28.3443 60.7937L32.1173 59.8913C32.7291 60.7456 33.7003 61.299 34.7922 61.299H36.6508C38.4975 61.299 40 59.7163 40 57.7708V47.2523C40.0001 45.3947 38.63 43.8688 36.8986 43.7346ZM31.6098 46.1551L30.042 45.3588C27.4642 44.0577 24.4839 44.0095 21.8655 45.2269C21.1511 45.5079 19.5929 46.4506 18.7847 46.4191H13.3445C11.54 46.4191 10.0718 47.8872 10.0718 49.6918V50.5499C10.0617 50.5392 10.0511 50.5291 10.0411 50.5182L6.15619 46.3013C5.9211 46.0462 5.65697 45.8326 5.37348 45.6613V33.9874H15.0027V38.3007C15.0027 38.9505 15.5295 39.4773 16.1794 39.4773H23.6042C24.254 39.4773 24.7808 38.9505 24.7808 38.3007V33.9874H34.5454V43.7346C33.1706 43.8408 32.0242 44.8243 31.6098 46.1551ZM17.356 33.9874H22.4274V37.124H17.356V33.9874ZM34.5453 31.634H24.7808V26.6965H34.5454V31.634H34.5453ZM22.4275 26.6965V31.6341H17.356V26.6965H22.4275ZM15.0026 26.6965V31.6341H5.3734V26.6965H15.0026ZM27.7982 58.5046C24.2188 59.3244 22.0631 59.2912 18.0781 59.2912C13.2146 59.2912 10.8646 59.2126 7.90479 55.8494L2.60488 49.4243C1.683 48.2238 3.35276 46.8067 4.4254 47.8957L8.31034 52.1127C9.3371 53.1961 10.6291 53.7923 12.2216 53.8274H22.9926C23.6425 53.8274 24.1693 53.3006 24.1693 52.6507C24.1693 52.0009 23.6425 51.4741 22.9926 51.4741H12.425V49.6916C12.425 49.1847 12.8374 48.7722 13.3444 48.7722H18.7847C20.0103 48.86 21.7793 47.8366 22.8575 47.3607C24.8186 46.4489 27.0508 46.485 28.9789 47.4581L31.4432 48.7098V57.6326L27.7982 58.5046ZM37.6467 57.7707C37.6467 58.4186 37.2 58.9456 36.6509 58.9456H34.7922C34.2431 58.9456 33.7965 58.4186 33.7965 57.7707V47.2523C33.7965 46.6044 34.2432 46.0773 34.7922 46.0773H36.6509C37.2 46.0773 37.6467 46.6044 37.6467 47.2523V57.7707Z" fill="#3A3A3A"/>
</g>
<path d="M74.89 25.362V23.4H65.692V36H68.032V31.176H74.116V29.196H68.032V25.362H74.89ZM78.9032 27.792V26.388H76.7612V36H79.0112V31.338C79.0112 29.376 80.0912 28.368 81.8012 28.368C81.9632 28.368 82.1252 28.386 82.3232 28.422V26.28C80.7212 26.28 79.5512 26.784 78.9032 27.792ZM93.18 31.248C93.18 28.242 91.128 26.28 88.32 26.28C85.458 26.28 83.352 28.332 83.352 31.194C83.352 34.056 85.44 36.126 88.662 36.126C90.318 36.126 91.668 35.586 92.532 34.56L91.326 33.174C90.642 33.876 89.796 34.218 88.716 34.218C87.042 34.218 85.872 33.318 85.602 31.914H93.144C93.162 31.698 93.18 31.428 93.18 31.248ZM88.32 28.08C89.796 28.08 90.858 29.034 91.038 30.42H85.584C85.8 29.016 86.862 28.08 88.32 28.08ZM104.377 31.248C104.377 28.242 102.325 26.28 99.5172 26.28C96.6552 26.28 94.5492 28.332 94.5492 31.194C94.5492 34.056 96.6372 36.126 99.8592 36.126C101.515 36.126 102.865 35.586 103.729 34.56L102.523 33.174C101.839 33.876 100.993 34.218 99.9132 34.218C98.2392 34.218 97.0692 33.318 96.7992 31.914H104.341C104.359 31.698 104.377 31.428 104.377 31.248ZM99.5172 28.08C100.993 28.08 102.055 29.034 102.235 30.42H96.7812C96.9972 29.016 98.0592 28.08 99.5172 28.08ZM115.635 36.18C119.091 36.18 120.729 34.452 120.729 32.436C120.729 27.81 113.259 29.556 113.259 26.874C113.259 25.92 114.051 25.164 115.995 25.164C117.093 25.164 118.335 25.488 119.469 26.154L120.207 24.336C119.109 23.616 117.525 23.22 116.013 23.22C112.557 23.22 110.937 24.948 110.937 26.982C110.937 31.662 118.425 29.88 118.425 32.598C118.425 33.534 117.597 34.236 115.635 34.236C114.087 34.236 112.485 33.66 111.477 32.85L110.667 34.668C111.711 35.568 113.673 36.18 115.635 36.18ZM128.287 26.28C126.955 26.28 125.821 26.712 125.083 27.504V22.644H122.833V36H125.083V31.14C125.083 29.214 126.163 28.242 127.765 28.242C129.205 28.242 130.051 29.07 130.051 30.78V36H132.301V30.492C132.301 27.594 130.591 26.28 128.287 26.28ZM136.29 24.804C137.136 24.804 137.73 24.192 137.73 23.4C137.73 22.662 137.118 22.104 136.29 22.104C135.462 22.104 134.85 22.698 134.85 23.454C134.85 24.21 135.462 24.804 136.29 24.804ZM135.156 36H137.406V26.388H135.156V36ZM145.687 26.28C144.373 26.28 143.257 26.73 142.501 27.648V26.388H140.359V39.492H142.609V34.83C143.383 35.712 144.463 36.126 145.687 36.126C148.495 36.126 150.565 34.182 150.565 31.194C150.565 28.224 148.495 26.28 145.687 26.28ZM145.435 34.2C143.815 34.2 142.573 33.03 142.573 31.194C142.573 29.358 143.815 28.188 145.435 28.188C147.055 28.188 148.279 29.358 148.279 31.194C148.279 33.03 147.055 34.2 145.435 34.2ZM158.027 26.28C156.713 26.28 155.597 26.73 154.841 27.648V26.388H152.699V39.492H154.949V34.83C155.723 35.712 156.803 36.126 158.027 36.126C160.835 36.126 162.905 34.182 162.905 31.194C162.905 28.224 160.835 26.28 158.027 26.28ZM157.775 34.2C156.155 34.2 154.913 33.03 154.913 31.194C154.913 29.358 156.155 28.188 157.775 28.188C159.395 28.188 160.619 29.358 160.619 31.194C160.619 33.03 159.395 34.2 157.775 34.2ZM166.173 24.804C167.019 24.804 167.613 24.192 167.613 23.4C167.613 22.662 167.001 22.104 166.173 22.104C165.345 22.104 164.733 22.698 164.733 23.454C164.733 24.21 165.345 24.804 166.173 24.804ZM165.039 36H167.289V26.388H165.039V36ZM175.696 26.28C174.292 26.28 173.122 26.748 172.384 27.63V26.388H170.242V36H172.492V31.14C172.492 29.214 173.572 28.242 175.174 28.242C176.614 28.242 177.46 29.07 177.46 30.78V36H179.71V30.492C179.71 27.594 178 26.28 175.696 26.28ZM190.05 26.388V27.666C189.258 26.712 188.07 26.28 186.72 26.28C183.966 26.28 181.86 28.116 181.86 30.906C181.86 33.696 183.966 35.568 186.72 35.568C188.016 35.568 189.15 35.154 189.942 34.29V34.794C189.942 36.738 189.006 37.71 186.882 37.71C185.55 37.71 184.182 37.26 183.336 36.558L182.328 38.25C183.426 39.15 185.208 39.618 187.008 39.618C190.374 39.618 192.192 38.034 192.192 34.542V26.388H190.05ZM187.062 33.66C185.352 33.66 184.128 32.544 184.128 30.906C184.128 29.286 185.352 28.188 187.062 28.188C188.754 28.188 189.978 29.286 189.978 30.906C189.978 32.544 188.754 33.66 187.062 33.66Z" fill="#3A3A3A"/>
<path d="M70.736 63.128C69.6053 63.128 68.5867 62.8827 67.68 62.392C66.7733 61.8907 66.0587 61.2027 65.536 60.328C65.024 59.4533 64.768 58.4773 64.768 57.4C64.768 56.3227 65.024 55.3467 65.536 54.472C66.0587 53.5973 66.7733 52.9147 67.68 52.424C68.5867 51.9227 69.6053 51.672 70.736 51.672C71.856 51.672 72.8693 51.9227 73.776 52.424C74.6827 52.9147 75.392 53.5973 75.904 54.472C76.416 55.336 76.672 56.312 76.672 57.4C76.672 58.488 76.416 59.4693 75.904 60.344C75.392 61.208 74.6827 61.8907 73.776 62.392C72.8693 62.8827 71.856 63.128 70.736 63.128ZM70.736 61.704C71.5573 61.704 72.2933 61.5173 72.944 61.144C73.6053 60.7707 74.1227 60.2587 74.496 59.608C74.88 58.9467 75.072 58.2107 75.072 57.4C75.072 56.5893 74.88 55.8587 74.496 55.208C74.1227 54.5467 73.6053 54.0293 72.944 53.656C72.2933 53.2827 71.5573 53.096 70.736 53.096C69.9147 53.096 69.168 53.2827 68.496 53.656C67.8347 54.0293 67.312 54.5467 66.928 55.208C66.5547 55.8587 66.368 56.5893 66.368 57.4C66.368 58.2107 66.5547 58.9467 66.928 59.608C67.312 60.2587 67.8347 60.7707 68.496 61.144C69.168 61.5173 69.9147 61.704 70.736 61.704ZM83.4215 54.44C84.4988 54.44 85.3522 54.7547 85.9815 55.384C86.6215 56.0027 86.9415 56.9147 86.9415 58.12V63H85.4055V58.296C85.4055 57.4747 85.2082 56.856 84.8135 56.44C84.4188 56.024 83.8535 55.816 83.1175 55.816C82.2855 55.816 81.6295 56.0613 81.1495 56.552C80.6695 57.032 80.4295 57.7253 80.4295 58.632V63H78.8935V54.52H80.3655V55.8C80.6748 55.3627 81.0908 55.0267 81.6135 54.792C82.1468 54.5573 82.7495 54.44 83.4215 54.44ZM99.361 63.128C98.2303 63.128 97.2117 62.8827 96.305 62.392C95.3983 61.8907 94.6837 61.2027 94.161 60.328C93.649 59.4533 93.393 58.4773 93.393 57.4C93.393 56.3227 93.649 55.3467 94.161 54.472C94.6837 53.5973 95.3983 52.9147 96.305 52.424C97.2117 51.9227 98.2303 51.672 99.361 51.672C100.481 51.672 101.494 51.9227 102.401 52.424C103.308 52.9147 104.017 53.5973 104.529 54.472C105.041 55.336 105.297 56.312 105.297 57.4C105.297 58.488 105.041 59.4693 104.529 60.344C104.017 61.208 103.308 61.8907 102.401 62.392C101.494 62.8827 100.481 63.128 99.361 63.128ZM99.361 61.704C100.182 61.704 100.918 61.5173 101.569 61.144C102.23 60.7707 102.748 60.2587 103.121 59.608C103.505 58.9467 103.697 58.2107 103.697 57.4C103.697 56.5893 103.505 55.8587 103.121 55.208C102.748 54.5467 102.23 54.0293 101.569 53.656C100.918 53.2827 100.182 53.096 99.361 53.096C98.5397 53.096 97.793 53.2827 97.121 53.656C96.4597 54.0293 95.937 54.5467 95.553 55.208C95.1797 55.8587 94.993 56.5893 94.993 57.4C94.993 58.2107 95.1797 58.9467 95.553 59.608C95.937 60.2587 96.4597 60.7707 97.121 61.144C97.793 61.5173 98.5397 61.704 99.361 61.704ZM115.423 54.52V63H113.967V61.72C113.657 62.1573 113.247 62.4987 112.735 62.744C112.233 62.9787 111.684 63.096 111.087 63.096C109.956 63.096 109.065 62.7867 108.414 62.168C107.764 61.5387 107.439 60.616 107.439 59.4V54.52H108.975V59.224C108.975 60.0453 109.172 60.6693 109.567 61.096C109.961 61.512 110.527 61.72 111.263 61.72C112.073 61.72 112.713 61.4747 113.183 60.984C113.652 60.4933 113.887 59.8 113.887 58.904V54.52H115.423ZM119.819 55.944C120.085 55.4533 120.48 55.08 121.003 54.824C121.525 54.568 122.16 54.44 122.907 54.44V55.928C122.821 55.9173 122.704 55.912 122.555 55.912C121.723 55.912 121.067 56.1627 120.587 56.664C120.117 57.1547 119.883 57.8587 119.883 58.776V63H118.347V54.52H119.819V55.944ZM133.078 58.024L131.03 60.104V63H129.43V51.8H131.03V58.056L137.11 51.8H138.934L134.15 56.84L139.238 63H137.366L133.078 58.024ZM140.55 54.52H142.086V63H140.55V54.52ZM141.318 52.888C141.019 52.888 140.768 52.792 140.566 52.6C140.374 52.408 140.278 52.1733 140.278 51.896C140.278 51.6187 140.374 51.384 140.566 51.192C140.768 50.9893 141.019 50.888 141.318 50.888C141.616 50.888 141.862 50.984 142.054 51.176C142.256 51.3573 142.358 51.5867 142.358 51.864C142.358 52.152 142.256 52.3973 142.054 52.6C141.862 52.792 141.616 52.888 141.318 52.888ZM149.787 62.504C149.563 62.696 149.285 62.8453 148.955 62.952C148.624 63.048 148.283 63.096 147.931 63.096C147.077 63.096 146.416 62.8667 145.947 62.408C145.477 61.9493 145.243 61.2933 145.243 60.44V55.784H143.803V54.52H145.243V52.664H146.779V54.52H149.211V55.784H146.779V60.376C146.779 60.8347 146.891 61.1867 147.115 61.432C147.349 61.6773 147.68 61.8 148.107 61.8C148.576 61.8 148.976 61.6667 149.307 61.4L149.787 62.504ZM161.22 63.128C160.09 63.128 159.071 62.8827 158.164 62.392C157.258 61.8907 156.543 61.2027 156.02 60.328C155.508 59.4533 155.252 58.4773 155.252 57.4C155.252 56.3227 155.508 55.3467 156.02 54.472C156.543 53.5973 157.258 52.9147 158.164 52.424C159.071 51.9227 160.09 51.672 161.22 51.672C162.34 51.672 163.354 51.9227 164.26 52.424C165.167 52.9147 165.876 53.5973 166.388 54.472C166.9 55.336 167.156 56.312 167.156 57.4C167.156 58.488 166.9 59.4693 166.388 60.344C165.876 61.208 165.167 61.8907 164.26 62.392C163.354 62.8827 162.34 63.128 161.22 63.128ZM161.22 61.704C162.042 61.704 162.778 61.5173 163.428 61.144C164.09 60.7707 164.607 60.2587 164.98 59.608C165.364 58.9467 165.556 58.2107 165.556 57.4C165.556 56.5893 165.364 55.8587 164.98 55.208C164.607 54.5467 164.09 54.0293 163.428 53.656C162.778 53.2827 162.042 53.096 161.22 53.096C160.399 53.096 159.652 53.2827 158.98 53.656C158.319 54.0293 157.796 54.5467 157.412 55.208C157.039 55.8587 156.852 56.5893 156.852 57.4C156.852 58.2107 157.039 58.9467 157.412 59.608C157.796 60.2587 158.319 60.7707 158.98 61.144C159.652 61.5173 160.399 61.704 161.22 61.704ZM170.85 55.944C171.117 55.4533 171.511 55.08 172.034 54.824C172.557 54.568 173.191 54.44 173.938 54.44V55.928C173.853 55.9173 173.735 55.912 173.586 55.912C172.754 55.912 172.098 56.1627 171.618 56.664C171.149 57.1547 170.914 57.8587 170.914 58.776V63H169.378V54.52H170.85V55.944ZM183.753 51.128V63H182.281V61.656C181.94 62.1253 181.508 62.4827 180.985 62.728C180.462 62.9733 179.886 63.096 179.257 63.096C178.436 63.096 177.7 62.9147 177.049 62.552C176.398 62.1893 175.886 61.6827 175.513 61.032C175.15 60.3707 174.969 59.6133 174.969 58.76C174.969 57.9067 175.15 57.1547 175.513 56.504C175.886 55.8533 176.398 55.3467 177.049 54.984C177.7 54.6213 178.436 54.44 179.257 54.44C179.865 54.44 180.425 54.5573 180.937 54.792C181.449 55.016 181.876 55.352 182.217 55.8V51.128H183.753ZM179.385 61.752C179.918 61.752 180.404 61.6293 180.841 61.384C181.278 61.128 181.62 60.776 181.865 60.328C182.11 59.8693 182.233 59.3467 182.233 58.76C182.233 58.1733 182.11 57.656 181.865 57.208C181.62 56.7493 181.278 56.3973 180.841 56.152C180.404 55.9067 179.918 55.784 179.385 55.784C178.841 55.784 178.35 55.9067 177.913 56.152C177.486 56.3973 177.145 56.7493 176.889 57.208C176.644 57.656 176.521 58.1733 176.521 58.76C176.521 59.3467 176.644 59.8693 176.889 60.328C177.145 60.776 177.486 61.128 177.913 61.384C178.35 61.6293 178.841 61.752 179.385 61.752ZM194.323 58.808C194.323 58.9253 194.312 59.08 194.291 59.272H187.411C187.507 60.0187 187.832 60.6213 188.387 61.08C188.952 61.528 189.651 61.752 190.483 61.752C191.496 61.752 192.312 61.4107 192.931 60.728L193.779 61.72C193.395 62.168 192.915 62.5093 192.339 62.744C191.774 62.9787 191.139 63.096 190.435 63.096C189.539 63.096 188.744 62.9147 188.051 62.552C187.358 62.1787 186.819 61.6613 186.435 61C186.062 60.3387 185.875 59.592 185.875 58.76C185.875 57.9387 186.056 57.1973 186.419 56.536C186.792 55.8747 187.299 55.3627 187.939 55C188.59 54.6267 189.32 54.44 190.131 54.44C190.942 54.44 191.662 54.6267 192.291 55C192.931 55.3627 193.427 55.8747 193.779 56.536C194.142 57.1973 194.323 57.9547 194.323 58.808ZM190.131 55.736C189.395 55.736 188.776 55.96 188.275 56.408C187.784 56.856 187.496 57.4427 187.411 58.168H192.851C192.766 57.4533 192.472 56.872 191.971 56.424C191.48 55.9653 190.867 55.736 190.131 55.736ZM197.928 55.944C198.195 55.4533 198.589 55.08 199.112 54.824C199.635 54.568 200.269 54.44 201.016 54.44V55.928C200.931 55.9173 200.813 55.912 200.664 55.912C199.832 55.912 199.176 56.1627 198.696 56.664C198.227 57.1547 197.992 57.8587 197.992 58.776V63H196.456V54.52H197.928V55.944ZM205.404 63.096C204.71 63.096 204.044 63.0053 203.404 62.824C202.764 62.632 202.262 62.392 201.9 62.104L202.54 60.888C202.913 61.1547 203.366 61.368 203.9 61.528C204.433 61.688 204.972 61.768 205.516 61.768C206.86 61.768 207.532 61.384 207.532 60.616C207.532 60.36 207.441 60.1573 207.26 60.008C207.078 59.8587 206.849 59.752 206.572 59.688C206.305 59.6133 205.921 59.5333 205.42 59.448C204.737 59.3413 204.177 59.2187 203.74 59.08C203.313 58.9413 202.945 58.7067 202.636 58.376C202.326 58.0453 202.172 57.5813 202.172 56.984C202.172 56.216 202.492 55.6027 203.132 55.144C203.772 54.6747 204.63 54.44 205.708 54.44C206.273 54.44 206.838 54.5093 207.404 54.648C207.969 54.7867 208.433 54.9733 208.796 55.208L208.14 56.424C207.446 55.976 206.63 55.752 205.692 55.752C205.041 55.752 204.545 55.8587 204.204 56.072C203.862 56.2853 203.692 56.568 203.692 56.92C203.692 57.1973 203.788 57.416 203.98 57.576C204.172 57.736 204.406 57.8533 204.684 57.928C204.972 58.0027 205.372 58.088 205.884 58.184C206.566 58.3013 207.116 58.4293 207.532 58.568C207.958 58.696 208.321 58.92 208.62 59.24C208.918 59.56 209.068 60.008 209.068 60.584C209.068 61.352 208.737 61.9653 208.076 62.424C207.425 62.872 206.534 63.096 205.404 63.096Z" fill="#898989"/>
<defs>
<clipPath id="clip0">
<rect width="40" height="40" fill="white" transform="translate(0 23)"/>
</clipPath>
</defs>
</svg>
