<svg width="220" height="85" viewBox="0 0 220 85" fill="none" xmlns="http://www.w3.org/2000/svg">
<g clip-path="url(#clip0)">
<path d="M36.615 37.9752C36.351 29.1216 29.0372 22 20.0837 22C11.1302 22 3.81638 29.1216 3.5523 37.9752L2.36279 39.1598V47.1932L3.54419 48.3696V53.8431C3.54419 57.0435 6.15869 59.6471 9.37239 59.6471H10.8357C11.3234 61.0164 12.6366 62 14.1767 62H16.5395C18.0807 62 19.3945 61.015 19.8814 59.6442C19.9489 59.6454 20.0166 59.6471 20.0837 59.6471C25.7889 59.6471 30.5625 55.5987 31.6601 50.2353H34.7497L37.8046 47.1932V39.1598L36.615 37.9752ZM20.0837 24.3529C27.0957 24.3529 32.9342 29.4493 34.0624 36.1176H31.6601C30.5625 30.7542 25.7889 26.7059 20.0837 26.7059C14.3785 26.7059 9.60489 30.7542 8.5073 36.1176H6.10497C7.2332 29.4493 13.0716 24.3529 20.0837 24.3529V24.3529ZM29.2358 36.1176C25.4168 36.1063 22.7193 36.3379 20.4953 33.1004L19.4153 31.5284L18.4872 33.1938C17.1349 35.6204 15.3138 36.1176 12.9953 36.1176H10.9316C11.9834 32.0629 15.6879 29.0588 20.0837 29.0588C24.4795 29.0588 28.1839 32.0629 29.2358 36.1176V36.1176ZM8.26976 47.8824H6.3963L4.72558 46.2186V40.1344L6.3963 38.4706H8.26976V47.8824ZM5.90697 53.8431V50.2353H8.50501C8.94977 52.4294 10.0139 54.4435 11.5903 56.0611C11.2599 56.4127 11.0007 56.8311 10.8357 57.2941H9.37239C7.46153 57.2941 5.90697 55.746 5.90697 53.8431V53.8431ZM16.5395 59.6471H14.1767C13.5252 59.6471 12.9953 59.1194 12.9953 58.4706C12.9953 57.8219 13.5252 57.2941 14.1767 57.2941H16.5395C17.1909 57.2941 17.7209 57.8219 17.7209 58.4706C17.7209 59.1194 17.1909 59.6471 16.5395 59.6471ZM29.5348 47.8824C29.5348 53.072 25.295 57.2941 20.0837 57.2941C20.016 57.2941 19.9477 57.2928 19.8795 57.2912C19.391 55.9234 18.0785 54.9412 16.5395 54.9412C14.1137 54.9465 14.1524 54.9291 13.85 54.9568C11.799 53.1665 10.6325 50.6166 10.6325 47.8824V38.4706H12.9953C15.0862 38.4706 17.6325 38.1273 19.6035 35.7384C22.2041 38.4524 25.3822 38.4706 28.2351 38.4706H29.5348V47.8824ZM35.4418 46.2186L33.7711 47.8824H31.8976V38.4706H33.7711L35.4418 40.1344V46.2186Z" fill="#3A3A3A"/>
</g>
<path d="M76.1856 34.02V36H66.8976V34.434L71.9016 29.682C72.4656 29.142 72.8436 28.674 73.0356 28.278C73.2396 27.87 73.3416 27.468 73.3416 27.072C73.3416 26.484 73.1436 26.034 72.7476 25.722C72.3516 25.41 71.7696 25.254 71.0016 25.254C69.7176 25.254 68.7336 25.692 68.0496 26.568L66.4116 25.308C66.9036 24.648 67.5636 24.138 68.3916 23.778C69.2316 23.406 70.1676 23.22 71.1996 23.22C72.5676 23.22 73.6596 23.544 74.4756 24.192C75.2916 24.84 75.6996 25.722 75.6996 26.838C75.6996 27.522 75.5556 28.164 75.2676 28.764C74.9796 29.364 74.4276 30.048 73.6116 30.816L70.2456 34.02H76.1856ZM88.5045 33.138H86.2725V36H84.0045V33.138H77.0925V31.518L83.3025 23.4H85.8045L79.9545 31.158H84.0765V28.62H86.2725V31.158H88.5045V33.138ZM99.0719 20.844H101.088L95.1479 37.8H93.1319L99.0719 20.844ZM115.622 23.4V24.966L110.726 36H108.224L112.958 25.38H108.008V27.522H105.83V23.4H115.622ZM126.85 36.18C125.878 36.18 124.936 36.042 124.024 35.766C123.124 35.49 122.41 35.124 121.882 34.668L122.692 32.85C123.208 33.258 123.838 33.594 124.582 33.858C125.338 34.11 126.094 34.236 126.85 34.236C127.786 34.236 128.482 34.086 128.938 33.786C129.406 33.486 129.64 33.09 129.64 32.598C129.64 32.238 129.508 31.944 129.244 31.716C128.992 31.476 128.668 31.29 128.272 31.158C127.876 31.026 127.336 30.876 126.652 30.708C125.692 30.48 124.912 30.252 124.312 30.024C123.724 29.796 123.214 29.442 122.782 28.962C122.362 28.47 122.152 27.81 122.152 26.982C122.152 26.286 122.338 25.656 122.71 25.092C123.094 24.516 123.664 24.06 124.42 23.724C125.188 23.388 126.124 23.22 127.228 23.22C127.996 23.22 128.752 23.316 129.496 23.508C130.24 23.7 130.882 23.976 131.422 24.336L130.684 26.154C130.132 25.83 129.556 25.584 128.956 25.416C128.356 25.248 127.774 25.164 127.21 25.164C126.286 25.164 125.596 25.32 125.14 25.632C124.696 25.944 124.474 26.358 124.474 26.874C124.474 27.234 124.6 27.528 124.852 27.756C125.116 27.984 125.446 28.164 125.842 28.296C126.238 28.428 126.778 28.578 127.462 28.746C128.398 28.962 129.166 29.19 129.766 29.43C130.366 29.658 130.876 30.012 131.296 30.492C131.728 30.972 131.944 31.62 131.944 32.436C131.944 33.132 131.752 33.762 131.368 34.326C130.996 34.89 130.426 35.34 129.658 35.676C128.89 36.012 127.954 36.18 126.85 36.18ZM143.354 26.388V36H141.212V34.776C140.852 35.208 140.402 35.544 139.862 35.784C139.322 36.012 138.74 36.126 138.116 36.126C136.832 36.126 135.818 35.772 135.074 35.064C134.342 34.344 133.976 33.282 133.976 31.878V26.388H136.226V31.572C136.226 32.436 136.418 33.084 136.802 33.516C137.198 33.936 137.756 34.146 138.476 34.146C139.28 34.146 139.916 33.9 140.384 33.408C140.864 32.904 141.104 32.184 141.104 31.248V26.388H143.354ZM151.628 26.28C152.564 26.28 153.398 26.484 154.13 26.892C154.874 27.3 155.456 27.876 155.876 28.62C156.296 29.364 156.506 30.222 156.506 31.194C156.506 32.166 156.296 33.03 155.876 33.786C155.456 34.53 154.874 35.106 154.13 35.514C153.398 35.922 152.564 36.126 151.628 36.126C150.332 36.126 149.306 35.694 148.55 34.83V39.492H146.3V26.388H148.442V27.648C148.814 27.192 149.27 26.85 149.81 26.622C150.362 26.394 150.968 26.28 151.628 26.28ZM151.376 34.2C152.204 34.2 152.882 33.924 153.41 33.372C153.95 32.82 154.22 32.094 154.22 31.194C154.22 30.294 153.95 29.568 153.41 29.016C152.882 28.464 152.204 28.188 151.376 28.188C150.836 28.188 150.35 28.314 149.918 28.566C149.486 28.806 149.144 29.154 148.892 29.61C148.64 30.066 148.514 30.594 148.514 31.194C148.514 31.794 148.64 32.322 148.892 32.778C149.144 33.234 149.486 33.588 149.918 33.84C150.35 34.08 150.836 34.2 151.376 34.2ZM163.968 26.28C164.904 26.28 165.738 26.484 166.47 26.892C167.214 27.3 167.796 27.876 168.216 28.62C168.636 29.364 168.846 30.222 168.846 31.194C168.846 32.166 168.636 33.03 168.216 33.786C167.796 34.53 167.214 35.106 166.47 35.514C165.738 35.922 164.904 36.126 163.968 36.126C162.672 36.126 161.646 35.694 160.89 34.83V39.492H158.64V26.388H160.782V27.648C161.154 27.192 161.61 26.85 162.15 26.622C162.702 26.394 163.308 26.28 163.968 26.28ZM163.716 34.2C164.544 34.2 165.222 33.924 165.75 33.372C166.29 32.82 166.56 32.094 166.56 31.194C166.56 30.294 166.29 29.568 165.75 29.016C165.222 28.464 164.544 28.188 163.716 28.188C163.176 28.188 162.69 28.314 162.258 28.566C161.826 28.806 161.484 29.154 161.232 29.61C160.98 30.066 160.854 30.594 160.854 31.194C160.854 31.794 160.98 32.322 161.232 32.778C161.484 33.234 161.826 33.588 162.258 33.84C162.69 34.08 163.176 34.2 163.716 34.2ZM175.3 36.126C174.328 36.126 173.452 35.916 172.672 35.496C171.892 35.076 171.28 34.494 170.836 33.75C170.404 32.994 170.188 32.142 170.188 31.194C170.188 30.246 170.404 29.4 170.836 28.656C171.28 27.912 171.892 27.33 172.672 26.91C173.452 26.49 174.328 26.28 175.3 26.28C176.284 26.28 177.166 26.49 177.946 26.91C178.726 27.33 179.332 27.912 179.764 28.656C180.208 29.4 180.43 30.246 180.43 31.194C180.43 32.142 180.208 32.994 179.764 33.75C179.332 34.494 178.726 35.076 177.946 35.496C177.166 35.916 176.284 36.126 175.3 36.126ZM175.3 34.2C176.128 34.2 176.812 33.924 177.352 33.372C177.892 32.82 178.162 32.094 178.162 31.194C178.162 30.294 177.892 29.568 177.352 29.016C176.812 28.464 176.128 28.188 175.3 28.188C174.472 28.188 173.788 28.464 173.248 29.016C172.72 29.568 172.456 30.294 172.456 31.194C172.456 32.094 172.72 32.82 173.248 33.372C173.788 33.924 174.472 34.2 175.3 34.2ZM184.723 27.792C185.371 26.784 186.511 26.28 188.143 26.28V28.422C187.951 28.386 187.777 28.368 187.621 28.368C186.745 28.368 186.061 28.626 185.569 29.142C185.077 29.646 184.831 30.378 184.831 31.338V36H182.581V26.388H184.723V27.792ZM196.182 35.478C195.918 35.694 195.594 35.856 195.21 35.964C194.838 36.072 194.442 36.126 194.022 36.126C192.966 36.126 192.15 35.85 191.574 35.298C190.998 34.746 190.71 33.942 190.71 32.886V28.26H189.126V26.46H190.71V24.264H192.96V26.46H195.534V28.26H192.96V32.832C192.96 33.3 193.074 33.66 193.302 33.912C193.53 34.152 193.86 34.272 194.292 34.272C194.796 34.272 195.216 34.14 195.552 33.876L196.182 35.478Z" fill="#3A3A3A"/>
<path d="M67.9476 51.8H72.6676C73.8516 51.8 74.9022 52.0347 75.8196 52.504C76.7369 52.9733 77.4462 53.6347 77.9476 54.488C78.4596 55.3307 78.7156 56.3013 78.7156 57.4C78.7156 58.4987 78.4596 59.4747 77.9476 60.328C77.4462 61.1707 76.7369 61.8267 75.8196 62.296C74.9022 62.7653 73.8516 63 72.6676 63H67.9476V51.8ZM72.5716 61.608C73.4782 61.608 74.2729 61.432 74.9556 61.08C75.6489 60.728 76.1822 60.2373 76.5556 59.608C76.9289 58.968 77.1156 58.232 77.1156 57.4C77.1156 56.568 76.9289 55.8373 76.5556 55.208C76.1822 54.568 75.6489 54.072 74.9556 53.72C74.2729 53.368 73.4782 53.192 72.5716 53.192H69.5476V61.608H72.5716ZM88.6063 58.808C88.6063 58.9253 88.5957 59.08 88.5743 59.272H81.6943C81.7903 60.0187 82.1157 60.6213 82.6703 61.08C83.2357 61.528 83.9343 61.752 84.7663 61.752C85.7797 61.752 86.5957 61.4107 87.2143 60.728L88.0623 61.72C87.6783 62.168 87.1983 62.5093 86.6223 62.744C86.057 62.9787 85.4223 63.096 84.7183 63.096C83.8223 63.096 83.0277 62.9147 82.3343 62.552C81.641 62.1787 81.1023 61.6613 80.7183 61C80.345 60.3387 80.1583 59.592 80.1583 58.76C80.1583 57.9387 80.3397 57.1973 80.7023 56.536C81.0757 55.8747 81.5823 55.3627 82.2223 55C82.873 54.6267 83.6037 54.44 84.4143 54.44C85.225 54.44 85.945 54.6267 86.5743 55C87.2143 55.3627 87.7103 55.8747 88.0623 56.536C88.425 57.1973 88.6063 57.9547 88.6063 58.808ZM84.4143 55.736C83.6783 55.736 83.0597 55.96 82.5583 56.408C82.0677 56.856 81.7797 57.4427 81.6943 58.168H87.1343C87.049 57.4533 86.7557 56.872 86.2543 56.424C85.7637 55.9653 85.1503 55.736 84.4143 55.736ZM98.7392 51.128V63H97.2672V61.656C96.9259 62.1253 96.4939 62.4827 95.9712 62.728C95.4485 62.9733 94.8725 63.096 94.2432 63.096C93.4219 63.096 92.6859 62.9147 92.0352 62.552C91.3845 62.1893 90.8725 61.6827 90.4992 61.032C90.1365 60.3707 89.9552 59.6133 89.9552 58.76C89.9552 57.9067 90.1365 57.1547 90.4992 56.504C90.8725 55.8533 91.3845 55.3467 92.0352 54.984C92.6859 54.6213 93.4219 54.44 94.2432 54.44C94.8512 54.44 95.4112 54.5573 95.9232 54.792C96.4352 55.016 96.8619 55.352 97.2032 55.8V51.128H98.7392ZM94.3712 61.752C94.9045 61.752 95.3899 61.6293 95.8272 61.384C96.2645 61.128 96.6059 60.776 96.8512 60.328C97.0965 59.8693 97.2192 59.3467 97.2192 58.76C97.2192 58.1733 97.0965 57.656 96.8512 57.208C96.6059 56.7493 96.2645 56.3973 95.8272 56.152C95.3899 55.9067 94.9045 55.784 94.3712 55.784C93.8272 55.784 93.3365 55.9067 92.8992 56.152C92.4725 56.3973 92.1312 56.7493 91.8752 57.208C91.6299 57.656 91.5072 58.1733 91.5072 58.76C91.5072 59.3467 91.6299 59.8693 91.8752 60.328C92.1312 60.776 92.4725 61.128 92.8992 61.384C93.3365 61.6293 93.8272 61.752 94.3712 61.752ZM101.645 54.52H103.181V63H101.645V54.52ZM102.413 52.888C102.115 52.888 101.864 52.792 101.661 52.6C101.469 52.408 101.373 52.1733 101.373 51.896C101.373 51.6187 101.469 51.384 101.661 51.192C101.864 50.9893 102.115 50.888 102.413 50.888C102.712 50.888 102.957 50.984 103.149 51.176C103.352 51.3573 103.453 51.5867 103.453 51.864C103.453 52.152 103.352 52.3973 103.149 52.6C102.957 52.792 102.712 52.888 102.413 52.888ZM109.81 63.096C108.946 63.096 108.173 62.9093 107.49 62.536C106.818 62.1627 106.29 61.6507 105.906 61C105.522 60.3387 105.33 59.592 105.33 58.76C105.33 57.928 105.522 57.1867 105.906 56.536C106.29 55.8747 106.818 55.3627 107.49 55C108.173 54.6267 108.946 54.44 109.81 54.44C110.578 54.44 111.261 54.5947 111.858 54.904C112.466 55.2133 112.936 55.6613 113.266 56.248L112.098 57C111.832 56.5947 111.501 56.2907 111.106 56.088C110.712 55.8853 110.274 55.784 109.794 55.784C109.24 55.784 108.738 55.9067 108.29 56.152C107.853 56.3973 107.506 56.7493 107.25 57.208C107.005 57.656 106.882 58.1733 106.882 58.76C106.882 59.3573 107.005 59.8853 107.25 60.344C107.506 60.792 107.853 61.1387 108.29 61.384C108.738 61.6293 109.24 61.752 109.794 61.752C110.274 61.752 110.712 61.6507 111.106 61.448C111.501 61.2453 111.832 60.9413 112.098 60.536L113.266 61.272C112.936 61.8587 112.466 62.312 111.858 62.632C111.261 62.9413 110.578 63.096 109.81 63.096ZM118.343 54.44C119.516 54.44 120.412 54.728 121.031 55.304C121.66 55.88 121.975 56.7387 121.975 57.88V63H120.519V61.88C120.263 62.2747 119.895 62.5787 119.415 62.792C118.945 62.9947 118.385 63.096 117.735 63.096C116.785 63.096 116.023 62.8667 115.447 62.408C114.881 61.9493 114.599 61.3467 114.599 60.6C114.599 59.8533 114.871 59.256 115.415 58.808C115.959 58.3493 116.823 58.12 118.007 58.12H120.439V57.816C120.439 57.1547 120.247 56.648 119.863 56.296C119.479 55.944 118.913 55.768 118.167 55.768C117.665 55.768 117.175 55.8533 116.695 56.024C116.215 56.184 115.809 56.4027 115.479 56.68L114.839 55.528C115.276 55.176 115.799 54.9093 116.407 54.728C117.015 54.536 117.66 54.44 118.343 54.44ZM117.991 61.912C118.577 61.912 119.084 61.784 119.511 61.528C119.937 61.2613 120.247 60.888 120.439 60.408V59.224H118.071C116.769 59.224 116.119 59.6613 116.119 60.536C116.119 60.9627 116.284 61.2987 116.615 61.544C116.945 61.7893 117.404 61.912 117.991 61.912ZM129.585 62.504C129.361 62.696 129.084 62.8453 128.753 62.952C128.423 63.048 128.081 63.096 127.729 63.096C126.876 63.096 126.215 62.8667 125.745 62.408C125.276 61.9493 125.041 61.2933 125.041 60.44V55.784H123.601V54.52H125.041V52.664H126.577V54.52H129.009V55.784H126.577V60.376C126.577 60.8347 126.689 61.1867 126.913 61.432C127.148 61.6773 127.479 61.8 127.905 61.8C128.375 61.8 128.775 61.6667 129.105 61.4L129.585 62.504ZM138.825 58.808C138.825 58.9253 138.814 59.08 138.793 59.272H131.913C132.009 60.0187 132.334 60.6213 132.889 61.08C133.454 61.528 134.153 61.752 134.985 61.752C135.998 61.752 136.814 61.4107 137.433 60.728L138.281 61.72C137.897 62.168 137.417 62.5093 136.841 62.744C136.276 62.9787 135.641 63.096 134.937 63.096C134.041 63.096 133.246 62.9147 132.553 62.552C131.86 62.1787 131.321 61.6613 130.937 61C130.564 60.3387 130.377 59.592 130.377 58.76C130.377 57.9387 130.558 57.1973 130.921 56.536C131.294 55.8747 131.801 55.3627 132.441 55C133.092 54.6267 133.822 54.44 134.633 54.44C135.444 54.44 136.164 54.6267 136.793 55C137.433 55.3627 137.929 55.8747 138.281 56.536C138.644 57.1973 138.825 57.9547 138.825 58.808ZM134.633 55.736C133.897 55.736 133.278 55.96 132.777 56.408C132.286 56.856 131.998 57.4427 131.913 58.168H137.353C137.268 57.4533 136.974 56.872 136.473 56.424C135.982 55.9653 135.369 55.736 134.633 55.736ZM148.958 51.128V63H147.486V61.656C147.145 62.1253 146.713 62.4827 146.19 62.728C145.667 62.9733 145.091 63.096 144.462 63.096C143.641 63.096 142.905 62.9147 142.254 62.552C141.603 62.1893 141.091 61.6827 140.718 61.032C140.355 60.3707 140.174 59.6133 140.174 58.76C140.174 57.9067 140.355 57.1547 140.718 56.504C141.091 55.8533 141.603 55.3467 142.254 54.984C142.905 54.6213 143.641 54.44 144.462 54.44C145.07 54.44 145.63 54.5573 146.142 54.792C146.654 55.016 147.081 55.352 147.422 55.8V51.128H148.958ZM144.59 61.752C145.123 61.752 145.609 61.6293 146.046 61.384C146.483 61.128 146.825 60.776 147.07 60.328C147.315 59.8693 147.438 59.3467 147.438 58.76C147.438 58.1733 147.315 57.656 147.07 57.208C146.825 56.7493 146.483 56.3973 146.046 56.152C145.609 55.9067 145.123 55.784 144.59 55.784C144.046 55.784 143.555 55.9067 143.118 56.152C142.691 56.3973 142.35 56.7493 142.094 57.208C141.849 57.656 141.726 58.1733 141.726 58.76C141.726 59.3467 141.849 59.8693 142.094 60.328C142.35 60.776 142.691 61.128 143.118 61.384C143.555 61.6293 144.046 61.752 144.59 61.752ZM158.593 63.096C157.9 63.096 157.233 63.0053 156.593 62.824C155.953 62.632 155.452 62.392 155.089 62.104L155.729 60.888C156.102 61.1547 156.556 61.368 157.089 61.528C157.622 61.688 158.161 61.768 158.705 61.768C160.049 61.768 160.721 61.384 160.721 60.616C160.721 60.36 160.63 60.1573 160.449 60.008C160.268 59.8587 160.038 59.752 159.761 59.688C159.494 59.6133 159.11 59.5333 158.609 59.448C157.926 59.3413 157.366 59.2187 156.929 59.08C156.502 58.9413 156.134 58.7067 155.825 58.376C155.516 58.0453 155.361 57.5813 155.361 56.984C155.361 56.216 155.681 55.6027 156.321 55.144C156.961 54.6747 157.82 54.44 158.897 54.44C159.462 54.44 160.028 54.5093 160.593 54.648C161.158 54.7867 161.622 54.9733 161.985 55.208L161.329 56.424C160.636 55.976 159.82 55.752 158.881 55.752C158.23 55.752 157.734 55.8587 157.393 56.072C157.052 56.2853 156.881 56.568 156.881 56.92C156.881 57.1973 156.977 57.416 157.169 57.576C157.361 57.736 157.596 57.8533 157.873 57.928C158.161 58.0027 158.561 58.088 159.073 58.184C159.756 58.3013 160.305 58.4293 160.721 58.568C161.148 58.696 161.51 58.92 161.809 59.24C162.108 59.56 162.257 60.008 162.257 60.584C162.257 61.352 161.926 61.9653 161.265 62.424C160.614 62.872 159.724 63.096 158.593 63.096ZM172.081 54.52V63H170.625V61.72C170.315 62.1573 169.905 62.4987 169.393 62.744C168.891 62.9787 168.342 63.096 167.745 63.096C166.614 63.096 165.723 62.7867 165.073 62.168C164.422 61.5387 164.097 60.616 164.097 59.4V54.52H165.633V59.224C165.633 60.0453 165.83 60.6693 166.225 61.096C166.619 61.512 167.185 61.72 167.921 61.72C168.731 61.72 169.371 61.4747 169.841 60.984C170.31 60.4933 170.545 59.8 170.545 58.904V54.52H172.081ZM179.501 54.44C180.322 54.44 181.058 54.6213 181.709 54.984C182.359 55.3467 182.866 55.8533 183.229 56.504C183.602 57.1547 183.789 57.9067 183.789 58.76C183.789 59.6133 183.602 60.3707 183.229 61.032C182.866 61.6827 182.359 62.1893 181.709 62.552C181.058 62.9147 180.322 63.096 179.501 63.096C178.893 63.096 178.333 62.9787 177.821 62.744C177.319 62.5093 176.893 62.168 176.541 61.72V66.104H175.005V54.52H176.477V55.864C176.818 55.3947 177.25 55.0427 177.773 54.808C178.295 54.5627 178.871 54.44 179.501 54.44ZM179.373 61.752C179.917 61.752 180.402 61.6293 180.829 61.384C181.266 61.128 181.607 60.776 181.853 60.328C182.109 59.8693 182.237 59.3467 182.237 58.76C182.237 58.1733 182.109 57.656 181.853 57.208C181.607 56.7493 181.266 56.3973 180.829 56.152C180.402 55.9067 179.917 55.784 179.373 55.784C178.839 55.784 178.354 55.912 177.917 56.168C177.49 56.4133 177.149 56.76 176.893 57.208C176.647 57.656 176.525 58.1733 176.525 58.76C176.525 59.3467 176.647 59.8693 176.893 60.328C177.138 60.776 177.479 61.128 177.917 61.384C178.354 61.6293 178.839 61.752 179.373 61.752ZM190.407 54.44C191.228 54.44 191.964 54.6213 192.615 54.984C193.266 55.3467 193.772 55.8533 194.135 56.504C194.508 57.1547 194.695 57.9067 194.695 58.76C194.695 59.6133 194.508 60.3707 194.135 61.032C193.772 61.6827 193.266 62.1893 192.615 62.552C191.964 62.9147 191.228 63.096 190.407 63.096C189.799 63.096 189.239 62.9787 188.727 62.744C188.226 62.5093 187.799 62.168 187.447 61.72V66.104H185.911V54.52H187.383V55.864C187.724 55.3947 188.156 55.0427 188.679 54.808C189.202 54.5627 189.778 54.44 190.407 54.44ZM190.279 61.752C190.823 61.752 191.308 61.6293 191.735 61.384C192.172 61.128 192.514 60.776 192.759 60.328C193.015 59.8693 193.143 59.3467 193.143 58.76C193.143 58.1733 193.015 57.656 192.759 57.208C192.514 56.7493 192.172 56.3973 191.735 56.152C191.308 55.9067 190.823 55.784 190.279 55.784C189.746 55.784 189.26 55.912 188.823 56.168C188.396 56.4133 188.055 56.76 187.799 57.208C187.554 57.656 187.431 58.1733 187.431 58.76C187.431 59.3467 187.554 59.8693 187.799 60.328C188.044 60.776 188.386 61.128 188.823 61.384C189.26 61.6293 189.746 61.752 190.279 61.752ZM200.449 63.096C199.607 63.096 198.849 62.9093 198.177 62.536C197.505 62.1627 196.977 61.6507 196.593 61C196.22 60.3387 196.033 59.592 196.033 58.76C196.033 57.928 196.22 57.1867 196.593 56.536C196.977 55.8747 197.505 55.3627 198.177 55C198.849 54.6267 199.607 54.44 200.449 54.44C201.292 54.44 202.044 54.6267 202.705 55C203.377 55.3627 203.9 55.8747 204.273 56.536C204.657 57.1867 204.849 57.928 204.849 58.76C204.849 59.592 204.657 60.3387 204.273 61C203.9 61.6507 203.377 62.1627 202.705 62.536C202.044 62.9093 201.292 63.096 200.449 63.096ZM200.449 61.752C200.993 61.752 201.479 61.6293 201.905 61.384C202.343 61.128 202.684 60.776 202.929 60.328C203.175 59.8693 203.297 59.3467 203.297 58.76C203.297 58.1733 203.175 57.656 202.929 57.208C202.684 56.7493 202.343 56.3973 201.905 56.152C201.479 55.9067 200.993 55.784 200.449 55.784C199.905 55.784 199.415 55.9067 198.977 56.152C198.551 56.3973 198.209 56.7493 197.953 57.208C197.708 57.656 197.585 58.1733 197.585 58.76C197.585 59.3467 197.708 59.8693 197.953 60.328C198.209 60.776 198.551 61.128 198.977 61.384C199.415 61.6293 199.905 61.752 200.449 61.752ZM208.446 55.944C208.712 55.4533 209.107 55.08 209.63 54.824C210.152 54.568 210.787 54.44 211.534 54.44V55.928C211.448 55.9173 211.331 55.912 211.182 55.912C210.35 55.912 209.694 56.1627 209.214 56.664C208.744 57.1547 208.51 57.8587 208.51 58.776V63H206.974V54.52H208.446V55.944ZM218.538 62.504C218.314 62.696 218.037 62.8453 217.706 62.952C217.376 63.048 217.034 63.096 216.682 63.096C215.829 63.096 215.168 62.8667 214.698 62.408C214.229 61.9493 213.994 61.2933 213.994 60.44V55.784H212.554V54.52H213.994V52.664H215.53V54.52H217.962V55.784H215.53V60.376C215.53 60.8347 215.642 61.1867 215.866 61.432C216.101 61.6773 216.432 61.8 216.858 61.8C217.328 61.8 217.728 61.6667 218.058 61.4L218.538 62.504Z" fill="#898989"/>
<defs>
<clipPath id="clip0">
<rect width="40.1674" height="40" fill="white" transform="translate(0 22)"/>
</clipPath>
</defs>
</svg>
