<svg width="1154" height="85" viewBox="0 0 1154 85" fill="none" xmlns="http://www.w3.org/2000/svg">
<path d="M54.9033 24.3438C54.0497 24.3438 53.2496 24.5741 52.5595 24.9744V23.1719C52.5595 22.5247 52.0348 22 51.3876 22H32.6376C31.9904 22 31.4657 22.5247 31.4657 23.1719V24.9887C30.7701 24.5795 29.9608 24.3438 29.0972 24.3438C26.5125 24.3438 24.4097 26.4466 24.4097 29.0312C24.4097 31.0027 24.9939 32.9077 26.0991 34.5402C27.9807 37.3193 30.3009 38.0405 32.2208 38.8084C33.3279 41.5653 35.5665 43.7502 38.3591 44.7846L37.495 50.2812H37.3251C35.3866 50.2812 33.8095 51.8584 33.8095 53.7969V59.6562H32.6376C31.9904 59.6562 31.4658 60.1809 31.4658 60.8281C31.4658 61.4753 31.9904 62 32.6376 62H51.3876C52.0348 62 52.5595 61.4753 52.5595 60.8281C52.5595 60.1809 52.0348 59.6562 51.3876 59.6562H50.2158V53.7969C50.2158 51.8584 48.6387 50.2812 46.7001 50.2812H46.5303L45.6662 44.7847C48.4629 43.7487 50.704 41.5591 51.8094 38.7966C53.6231 38.0711 56.0005 37.3478 57.9014 34.5402C59.0066 32.9077 59.5908 31.0027 59.5908 29.0312C59.5908 26.4466 57.4879 24.3438 54.9033 24.3438ZM31.457 35.9787C28.5997 34.8357 26.7534 32.1087 26.7534 29.0312C26.7534 27.7389 27.8048 26.6875 29.0972 26.6875C30.3895 26.6875 31.4409 27.7389 31.4409 29.0312C31.4409 29.1137 31.4496 29.194 31.4658 29.2716V34.8906C31.4658 35.2673 31.486 35.6392 31.5247 36.0058L31.457 35.9787ZM47.872 59.6562H36.1533V57.3125H47.872V59.6562ZM46.7001 52.625C47.3463 52.625 47.872 53.1507 47.872 53.7969V54.9688H36.1533V53.7969C36.1533 53.1507 36.679 52.625 37.3251 52.625C37.9609 52.625 45.2091 52.625 46.7001 52.625ZM39.8675 50.2812L40.6429 45.3487C41.0914 45.4071 41.5485 45.4375 42.0126 45.4375C42.4768 45.4375 42.9339 45.407 43.3823 45.3487L44.1578 50.2812H39.8675ZM50.2158 34.8906C50.2158 39.4138 46.5358 43.0938 42.0126 43.0938C37.4894 43.0938 33.8095 39.4138 33.8095 34.8906V29.0312H50.2158V34.8906ZM50.2158 26.6875H33.8095V24.3438H50.2158V26.6875ZM52.5433 35.9787L52.5017 35.9953C52.5397 35.6322 52.5594 35.2637 52.5594 34.8906V29.0312C52.5595 27.7389 53.6109 26.6875 54.9033 26.6875C56.1956 26.6875 57.247 27.7389 57.247 29.0312C57.247 32.1087 55.4008 34.8358 52.5433 35.9787Z" fill="#3A3A3A"/>
<path d="M98.888 23.4V36H96.548V30.6H90.032V36H87.692V23.4H90.032V28.602H96.548V23.4H98.888ZM102.048 26.388H104.298V36H102.048V26.388ZM103.182 24.804C102.774 24.804 102.432 24.678 102.156 24.426C101.88 24.162 101.742 23.838 101.742 23.454C101.742 23.07 101.88 22.752 102.156 22.5C102.432 22.236 102.774 22.104 103.182 22.104C103.59 22.104 103.932 22.23 104.208 22.482C104.484 22.722 104.622 23.028 104.622 23.4C104.622 23.796 104.484 24.132 104.208 24.408C103.944 24.672 103.602 24.804 103.182 24.804ZM116.791 26.388V34.542C116.791 37.926 115.063 39.618 111.607 39.618C110.683 39.618 109.807 39.498 108.979 39.258C108.151 39.03 107.467 38.694 106.927 38.25L107.935 36.558C108.355 36.906 108.883 37.182 109.519 37.386C110.167 37.602 110.821 37.71 111.481 37.71C112.537 37.71 113.311 37.47 113.803 36.99C114.295 36.51 114.541 35.778 114.541 34.794V34.29C114.157 34.71 113.689 35.028 113.137 35.244C112.585 35.46 111.979 35.568 111.319 35.568C110.407 35.568 109.579 35.376 108.835 34.992C108.103 34.596 107.521 34.044 107.089 33.336C106.669 32.628 106.459 31.818 106.459 30.906C106.459 29.994 106.669 29.19 107.089 28.494C107.521 27.786 108.103 27.24 108.835 26.856C109.579 26.472 110.407 26.28 111.319 26.28C112.015 26.28 112.645 26.394 113.209 26.622C113.785 26.85 114.265 27.198 114.649 27.666V26.388H116.791ZM111.661 33.66C112.513 33.66 113.209 33.408 113.749 32.904C114.301 32.388 114.577 31.722 114.577 30.906C114.577 30.102 114.301 29.448 113.749 28.944C113.209 28.44 112.513 28.188 111.661 28.188C110.797 28.188 110.089 28.44 109.537 28.944C108.997 29.448 108.727 30.102 108.727 30.906C108.727 31.722 108.997 32.388 109.537 32.904C110.089 33.408 110.797 33.66 111.661 33.66ZM125.203 26.28C126.415 26.28 127.387 26.634 128.119 27.342C128.851 28.05 129.217 29.1 129.217 30.492V36H126.967V30.78C126.967 29.94 126.769 29.31 126.373 28.89C125.977 28.458 125.413 28.242 124.681 28.242C123.853 28.242 123.199 28.494 122.719 28.998C122.239 29.49 121.999 30.204 121.999 31.14V36H119.749V22.644H121.999V27.504C122.371 27.108 122.827 26.808 123.367 26.604C123.919 26.388 124.531 26.28 125.203 26.28ZM150.564 37.26C150.144 37.752 149.652 38.124 149.088 38.376C148.536 38.628 147.93 38.754 147.27 38.754C146.406 38.754 145.614 38.556 144.894 38.16C144.174 37.776 143.352 37.104 142.428 36.144C141.264 36.048 140.22 35.712 139.296 35.136C138.372 34.548 137.652 33.786 137.136 32.85C136.62 31.902 136.362 30.852 136.362 29.7C136.362 28.476 136.656 27.372 137.244 26.388C137.832 25.392 138.642 24.618 139.674 24.066C140.706 23.502 141.864 23.22 143.148 23.22C144.432 23.22 145.59 23.502 146.622 24.066C147.654 24.618 148.464 25.386 149.052 26.37C149.64 27.354 149.934 28.464 149.934 29.7C149.934 30.696 149.736 31.62 149.34 32.472C148.944 33.312 148.392 34.032 147.684 34.632C146.976 35.22 146.154 35.646 145.218 35.91C145.566 36.282 145.908 36.552 146.244 36.72C146.58 36.888 146.94 36.972 147.324 36.972C148.152 36.972 148.872 36.636 149.484 35.964L150.564 37.26ZM138.72 29.7C138.72 30.54 138.912 31.302 139.296 31.986C139.68 32.658 140.208 33.186 140.88 33.57C141.552 33.942 142.308 34.128 143.148 34.128C143.988 34.128 144.744 33.942 145.416 33.57C146.088 33.186 146.616 32.658 147 31.986C147.384 31.302 147.576 30.54 147.576 29.7C147.576 28.86 147.384 28.104 147 27.432C146.616 26.748 146.088 26.22 145.416 25.848C144.744 25.464 143.988 25.272 143.148 25.272C142.308 25.272 141.552 25.464 140.88 25.848C140.208 26.22 139.68 26.748 139.296 27.432C138.912 28.104 138.72 28.86 138.72 29.7ZM161.505 26.388V36H159.363V34.776C159.003 35.208 158.553 35.544 158.013 35.784C157.473 36.012 156.891 36.126 156.267 36.126C154.983 36.126 153.969 35.772 153.225 35.064C152.493 34.344 152.127 33.282 152.127 31.878V26.388H154.377V31.572C154.377 32.436 154.569 33.084 154.953 33.516C155.349 33.936 155.907 34.146 156.627 34.146C157.431 34.146 158.067 33.9 158.535 33.408C159.015 32.904 159.255 32.184 159.255 31.248V26.388H161.505ZM168.123 26.28C169.539 26.28 170.619 26.622 171.363 27.306C172.119 27.978 172.497 28.998 172.497 30.366V36H170.373V34.83C170.097 35.25 169.701 35.574 169.185 35.802C168.681 36.018 168.069 36.126 167.349 36.126C166.629 36.126 165.999 36.006 165.459 35.766C164.919 35.514 164.499 35.172 164.199 34.74C163.911 34.296 163.767 33.798 163.767 33.246C163.767 32.382 164.085 31.692 164.721 31.176C165.369 30.648 166.383 30.384 167.763 30.384H170.247V30.24C170.247 29.568 170.043 29.052 169.635 28.692C169.239 28.332 168.645 28.152 167.853 28.152C167.313 28.152 166.779 28.236 166.251 28.404C165.735 28.572 165.297 28.806 164.937 29.106L164.055 27.468C164.559 27.084 165.165 26.79 165.873 26.586C166.581 26.382 167.331 26.28 168.123 26.28ZM167.817 34.488C168.381 34.488 168.879 34.362 169.311 34.11C169.755 33.846 170.067 33.474 170.247 32.994V31.878H167.925C166.629 31.878 165.981 32.304 165.981 33.156C165.981 33.564 166.143 33.888 166.467 34.128C166.791 34.368 167.241 34.488 167.817 34.488ZM175.384 22.644H177.634V36H175.384V22.644ZM180.587 26.388H182.837V36H180.587V26.388ZM181.721 24.804C181.313 24.804 180.971 24.678 180.695 24.426C180.419 24.162 180.281 23.838 180.281 23.454C180.281 23.07 180.419 22.752 180.695 22.5C180.971 22.236 181.313 22.104 181.721 22.104C182.129 22.104 182.471 22.23 182.747 22.482C183.023 22.722 183.161 23.028 183.161 23.4C183.161 23.796 183.023 24.132 182.747 24.408C182.483 24.672 182.141 24.804 181.721 24.804ZM191.568 35.478C191.304 35.694 190.98 35.856 190.596 35.964C190.224 36.072 189.828 36.126 189.408 36.126C188.352 36.126 187.536 35.85 186.96 35.298C186.384 34.746 186.096 33.942 186.096 32.886V28.26H184.512V26.46H186.096V24.264H188.346V26.46H190.92V28.26H188.346V32.832C188.346 33.3 188.46 33.66 188.688 33.912C188.916 34.152 189.246 34.272 189.678 34.272C190.182 34.272 190.602 34.14 190.938 33.876L191.568 35.478ZM202.244 26.388L197.744 36.774C197.324 37.818 196.814 38.55 196.214 38.97C195.614 39.402 194.888 39.618 194.036 39.618C193.556 39.618 193.082 39.54 192.614 39.384C192.146 39.228 191.762 39.012 191.462 38.736L192.362 37.08C192.578 37.284 192.83 37.446 193.118 37.566C193.418 37.686 193.718 37.746 194.018 37.746C194.414 37.746 194.738 37.644 194.99 37.44C195.254 37.236 195.494 36.894 195.71 36.414L195.872 36.036L191.678 26.388H194.018L197.042 33.498L200.084 26.388H202.244Z" fill="#3A3A3A"/>
<path d="M91.952 54.44C92.7733 54.44 93.5093 54.6213 94.16 54.984C94.8107 55.3467 95.3173 55.8533 95.68 56.504C96.0533 57.1547 96.24 57.9067 96.24 58.76C96.24 59.6133 96.0533 60.3707 95.68 61.032C95.3173 61.6827 94.8107 62.1893 94.16 62.552C93.5093 62.9147 92.7733 63.096 91.952 63.096C91.3227 63.096 90.7467 62.9733 90.224 62.728C89.7013 62.4827 89.2693 62.1253 88.928 61.656V63H87.456V51.128H88.992V55.8C89.3333 55.352 89.76 55.016 90.272 54.792C90.784 54.5573 91.344 54.44 91.952 54.44ZM91.824 61.752C92.368 61.752 92.8533 61.6293 93.28 61.384C93.7173 61.128 94.0587 60.776 94.304 60.328C94.56 59.8693 94.688 59.3467 94.688 58.76C94.688 58.1733 94.56 57.656 94.304 57.208C94.0587 56.7493 93.7173 56.3973 93.28 56.152C92.8533 55.9067 92.368 55.784 91.824 55.784C91.2907 55.784 90.8053 55.9067 90.368 56.152C89.9307 56.3973 89.5893 56.7493 89.344 57.208C89.0987 57.656 88.976 58.1733 88.976 58.76C88.976 59.3467 89.0987 59.8693 89.344 60.328C89.5893 60.776 89.9307 61.128 90.368 61.384C90.8053 61.6293 91.2907 61.752 91.824 61.752ZM106.266 54.52V63H104.81V61.72C104.501 62.1573 104.09 62.4987 103.578 62.744C103.077 62.9787 102.528 63.096 101.93 63.096C100.8 63.096 99.9089 62.7867 99.2582 62.168C98.6076 61.5387 98.2823 60.616 98.2823 59.4V54.52H99.8183V59.224C99.8183 60.0453 100.016 60.6693 100.41 61.096C100.805 61.512 101.37 61.72 102.106 61.72C102.917 61.72 103.557 61.4747 104.026 60.984C104.496 60.4933 104.73 59.8 104.73 58.904V54.52H106.266ZM109.19 54.52H110.726V63H109.19V54.52ZM109.958 52.888C109.66 52.888 109.409 52.792 109.206 52.6C109.014 52.408 108.918 52.1733 108.918 51.896C108.918 51.6187 109.014 51.384 109.206 51.192C109.409 50.9893 109.66 50.888 109.958 50.888C110.257 50.888 110.502 50.984 110.694 51.176C110.897 51.3573 110.998 51.5867 110.998 51.864C110.998 52.152 110.897 52.3973 110.694 52.6C110.502 52.792 110.257 52.888 109.958 52.888ZM113.659 51.128H115.195V63H113.659V51.128ZM126.128 51.128V63H124.656V61.656C124.315 62.1253 123.883 62.4827 123.36 62.728C122.837 62.9733 122.261 63.096 121.632 63.096C120.811 63.096 120.075 62.9147 119.424 62.552C118.773 62.1893 118.261 61.6827 117.888 61.032C117.525 60.3707 117.344 59.6133 117.344 58.76C117.344 57.9067 117.525 57.1547 117.888 56.504C118.261 55.8533 118.773 55.3467 119.424 54.984C120.075 54.6213 120.811 54.44 121.632 54.44C122.24 54.44 122.8 54.5573 123.312 54.792C123.824 55.016 124.251 55.352 124.592 55.8V51.128H126.128ZM121.76 61.752C122.293 61.752 122.779 61.6293 123.216 61.384C123.653 61.128 123.995 60.776 124.24 60.328C124.485 59.8693 124.608 59.3467 124.608 58.76C124.608 58.1733 124.485 57.656 124.24 57.208C123.995 56.7493 123.653 56.3973 123.216 56.152C122.779 55.9067 122.293 55.784 121.76 55.784C121.216 55.784 120.725 55.9067 120.288 56.152C119.861 56.3973 119.52 56.7493 119.264 57.208C119.019 57.656 118.896 58.1733 118.896 58.76C118.896 59.3467 119.019 59.8693 119.264 60.328C119.52 60.776 119.861 61.128 120.288 61.384C120.725 61.6293 121.216 61.752 121.76 61.752ZM136.435 52.296C135.518 52.296 135.059 52.792 135.059 53.784V54.52H137.523V55.784H135.091V63H133.555V55.784H132.115V54.52H133.555V53.768C133.555 52.9253 133.8 52.2587 134.291 51.768C134.782 51.2773 135.47 51.032 136.355 51.032C136.696 51.032 137.016 51.0747 137.315 51.16C137.614 51.2453 137.87 51.368 138.083 51.528L137.619 52.696C137.267 52.4293 136.872 52.296 136.435 52.296ZM141.725 55.944C141.992 55.4533 142.386 55.08 142.909 54.824C143.432 54.568 144.066 54.44 144.813 54.44V55.928C144.728 55.9173 144.61 55.912 144.461 55.912C143.629 55.912 142.973 56.1627 142.493 56.664C142.024 57.1547 141.789 57.8587 141.789 58.776V63H140.253V54.52H141.725V55.944ZM150.26 63.096C149.417 63.096 148.66 62.9093 147.988 62.536C147.316 62.1627 146.788 61.6507 146.404 61C146.031 60.3387 145.844 59.592 145.844 58.76C145.844 57.928 146.031 57.1867 146.404 56.536C146.788 55.8747 147.316 55.3627 147.988 55C148.66 54.6267 149.417 54.44 150.26 54.44C151.103 54.44 151.855 54.6267 152.516 55C153.188 55.3627 153.711 55.8747 154.084 56.536C154.468 57.1867 154.66 57.928 154.66 58.76C154.66 59.592 154.468 60.3387 154.084 61C153.711 61.6507 153.188 62.1627 152.516 62.536C151.855 62.9093 151.103 63.096 150.26 63.096ZM150.26 61.752C150.804 61.752 151.289 61.6293 151.716 61.384C152.153 61.128 152.495 60.776 152.74 60.328C152.985 59.8693 153.108 59.3467 153.108 58.76C153.108 58.1733 152.985 57.656 152.74 57.208C152.495 56.7493 152.153 56.3973 151.716 56.152C151.289 55.9067 150.804 55.784 150.26 55.784C149.716 55.784 149.225 55.9067 148.788 56.152C148.361 56.3973 148.02 56.7493 147.764 57.208C147.519 57.656 147.396 58.1733 147.396 58.76C147.396 59.3467 147.519 59.8693 147.764 60.328C148.02 60.776 148.361 61.128 148.788 61.384C149.225 61.6293 149.716 61.752 150.26 61.752ZM167.392 54.44C168.459 54.44 169.301 54.7493 169.92 55.368C170.549 55.9867 170.864 56.904 170.864 58.12V63H169.328V58.296C169.328 57.4747 169.136 56.856 168.752 56.44C168.379 56.024 167.84 55.816 167.136 55.816C166.357 55.816 165.739 56.0613 165.28 56.552C164.821 57.032 164.592 57.7253 164.592 58.632V63H163.056V58.296C163.056 57.4747 162.864 56.856 162.48 56.44C162.107 56.024 161.568 55.816 160.864 55.816C160.085 55.816 159.467 56.0613 159.008 56.552C158.549 57.032 158.32 57.7253 158.32 58.632V63H156.784V54.52H158.256V55.784C158.565 55.3467 158.971 55.016 159.472 54.792C159.973 54.5573 160.544 54.44 161.184 54.44C161.845 54.44 162.432 54.5733 162.944 54.84C163.456 55.1067 163.851 55.496 164.128 56.008C164.448 55.5173 164.891 55.1333 165.456 54.856C166.032 54.5787 166.677 54.44 167.392 54.44ZM182.755 62.504C182.531 62.696 182.254 62.8453 181.923 62.952C181.593 63.048 181.251 63.096 180.899 63.096C180.046 63.096 179.385 62.8667 178.915 62.408C178.446 61.9493 178.211 61.2933 178.211 60.44V55.784H176.771V54.52H178.211V52.664H179.747V54.52H182.179V55.784H179.747V60.376C179.747 60.8347 179.859 61.1867 180.083 61.432C180.318 61.6773 180.649 61.8 181.075 61.8C181.545 61.8 181.945 61.6667 182.275 61.4L182.755 62.504ZM187.963 63.096C187.12 63.096 186.363 62.9093 185.691 62.536C185.019 62.1627 184.491 61.6507 184.107 61C183.734 60.3387 183.547 59.592 183.547 58.76C183.547 57.928 183.734 57.1867 184.107 56.536C184.491 55.8747 185.019 55.3627 185.691 55C186.363 54.6267 187.12 54.44 187.963 54.44C188.806 54.44 189.558 54.6267 190.219 55C190.891 55.3627 191.414 55.8747 191.787 56.536C192.171 57.1867 192.363 57.928 192.363 58.76C192.363 59.592 192.171 60.3387 191.787 61C191.414 61.6507 190.891 62.1627 190.219 62.536C189.558 62.9093 188.806 63.096 187.963 63.096ZM187.963 61.752C188.507 61.752 188.992 61.6293 189.419 61.384C189.856 61.128 190.198 60.776 190.443 60.328C190.688 59.8693 190.811 59.3467 190.811 58.76C190.811 58.1733 190.688 57.656 190.443 57.208C190.198 56.7493 189.856 56.3973 189.419 56.152C188.992 55.9067 188.507 55.784 187.963 55.784C187.419 55.784 186.928 55.9067 186.491 56.152C186.064 56.3973 185.723 56.7493 185.467 57.208C185.222 57.656 185.099 58.1733 185.099 58.76C185.099 59.3467 185.222 59.8693 185.467 60.328C185.723 60.776 186.064 61.128 186.491 61.384C186.928 61.6293 187.419 61.752 187.963 61.752ZM198.983 54.44C199.805 54.44 200.541 54.6213 201.191 54.984C201.842 55.3467 202.349 55.8533 202.711 56.504C203.085 57.1547 203.271 57.9067 203.271 58.76C203.271 59.6133 203.085 60.3707 202.711 61.032C202.349 61.6827 201.842 62.1893 201.191 62.552C200.541 62.9147 199.805 63.096 198.983 63.096C198.375 63.096 197.815 62.9787 197.303 62.744C196.802 62.5093 196.375 62.168 196.023 61.72V66.104H194.487V54.52H195.959V55.864C196.301 55.3947 196.733 55.0427 197.255 54.808C197.778 54.5627 198.354 54.44 198.983 54.44ZM198.855 61.752C199.399 61.752 199.885 61.6293 200.311 61.384C200.749 61.128 201.09 60.776 201.335 60.328C201.591 59.8693 201.719 59.3467 201.719 58.76C201.719 58.1733 201.591 57.656 201.335 57.208C201.09 56.7493 200.749 56.3973 200.311 56.152C199.885 55.9067 199.399 55.784 198.855 55.784C198.322 55.784 197.837 55.912 197.399 56.168C196.973 56.4133 196.631 56.76 196.375 57.208C196.13 57.656 196.007 58.1733 196.007 58.76C196.007 59.3467 196.13 59.8693 196.375 60.328C196.621 60.776 196.962 61.128 197.399 61.384C197.837 61.6293 198.322 61.752 198.855 61.752ZM220.298 54.44C221.365 54.44 222.208 54.7493 222.826 55.368C223.456 55.9867 223.77 56.904 223.77 58.12V63H222.234V58.296C222.234 57.4747 222.042 56.856 221.658 56.44C221.285 56.024 220.746 55.816 220.042 55.816C219.264 55.816 218.645 56.0613 218.186 56.552C217.728 57.032 217.498 57.7253 217.498 58.632V63H215.962V58.296C215.962 57.4747 215.77 56.856 215.386 56.44C215.013 56.024 214.474 55.816 213.77 55.816C212.992 55.816 212.373 56.0613 211.914 56.552C211.456 57.032 211.226 57.7253 211.226 58.632V63H209.69V54.52H211.162V55.784C211.472 55.3467 211.877 55.016 212.378 54.792C212.88 54.5573 213.45 54.44 214.09 54.44C214.752 54.44 215.338 54.5733 215.85 54.84C216.362 55.1067 216.757 55.496 217.034 56.008C217.354 55.5173 217.797 55.1333 218.362 54.856C218.938 54.5787 219.584 54.44 220.298 54.44ZM229.685 54.44C230.858 54.44 231.754 54.728 232.373 55.304C233.002 55.88 233.317 56.7387 233.317 57.88V63H231.861V61.88C231.605 62.2747 231.237 62.5787 230.757 62.792C230.287 62.9947 229.727 63.096 229.077 63.096C228.127 63.096 227.365 62.8667 226.789 62.408C226.223 61.9493 225.941 61.3467 225.941 60.6C225.941 59.8533 226.213 59.256 226.757 58.808C227.301 58.3493 228.165 58.12 229.349 58.12H231.781V57.816C231.781 57.1547 231.589 56.648 231.205 56.296C230.821 55.944 230.255 55.768 229.509 55.768C229.007 55.768 228.517 55.8533 228.037 56.024C227.557 56.184 227.151 56.4027 226.821 56.68L226.181 55.528C226.618 55.176 227.141 54.9093 227.749 54.728C228.357 54.536 229.002 54.44 229.685 54.44ZM229.333 61.912C229.919 61.912 230.426 61.784 230.853 61.528C231.279 61.2613 231.589 60.888 231.781 60.408V59.224H229.413C228.111 59.224 227.461 59.6613 227.461 60.536C227.461 60.9627 227.626 61.2987 227.957 61.544C228.287 61.7893 228.746 61.912 229.333 61.912ZM240.927 62.504C240.703 62.696 240.426 62.8453 240.095 62.952C239.764 63.048 239.423 63.096 239.071 63.096C238.218 63.096 237.556 62.8667 237.087 62.408C236.618 61.9493 236.383 61.2933 236.383 60.44V55.784H234.943V54.52H236.383V52.664H237.919V54.52H240.351V55.784H237.919V60.376C237.919 60.8347 238.031 61.1867 238.255 61.432C238.49 61.6773 238.82 61.8 239.247 61.8C239.716 61.8 240.116 61.6667 240.447 61.4L240.927 62.504ZM250.167 58.808C250.167 58.9253 250.156 59.08 250.135 59.272H243.255C243.351 60.0187 243.676 60.6213 244.231 61.08C244.796 61.528 245.495 61.752 246.327 61.752C247.34 61.752 248.156 61.4107 248.775 60.728L249.623 61.72C249.239 62.168 248.759 62.5093 248.183 62.744C247.618 62.9787 246.983 63.096 246.279 63.096C245.383 63.096 244.588 62.9147 243.895 62.552C243.202 62.1787 242.663 61.6613 242.279 61C241.906 60.3387 241.719 59.592 241.719 58.76C241.719 57.9387 241.9 57.1973 242.263 56.536C242.636 55.8747 243.143 55.3627 243.783 55C244.434 54.6267 245.164 54.44 245.975 54.44C246.786 54.44 247.506 54.6267 248.135 55C248.775 55.3627 249.271 55.8747 249.623 56.536C249.986 57.1973 250.167 57.9547 250.167 58.808ZM245.975 55.736C245.239 55.736 244.62 55.96 244.119 56.408C243.628 56.856 243.34 57.4427 243.255 58.168H248.695C248.61 57.4533 248.316 56.872 247.815 56.424C247.324 55.9653 246.711 55.736 245.975 55.736ZM253.772 55.944C254.038 55.4533 254.433 55.08 254.956 54.824C255.478 54.568 256.113 54.44 256.86 54.44V55.928C256.774 55.9173 256.657 55.912 256.508 55.912C255.676 55.912 255.02 56.1627 254.54 56.664C254.07 57.1547 253.836 57.8587 253.836 58.776V63H252.3V54.52H253.772V55.944ZM258.753 54.52H260.289V63H258.753V54.52ZM259.521 52.888C259.222 52.888 258.972 52.792 258.769 52.6C258.577 52.408 258.481 52.1733 258.481 51.896C258.481 51.6187 258.577 51.384 258.769 51.192C258.972 50.9893 259.222 50.888 259.521 50.888C259.82 50.888 260.065 50.984 260.257 51.176C260.46 51.3573 260.561 51.5867 260.561 51.864C260.561 52.152 260.46 52.3973 260.257 52.6C260.065 52.792 259.82 52.888 259.521 52.888ZM266.31 54.44C267.483 54.44 268.379 54.728 268.998 55.304C269.627 55.88 269.942 56.7387 269.942 57.88V63H268.486V61.88C268.23 62.2747 267.862 62.5787 267.382 62.792C266.912 62.9947 266.352 63.096 265.702 63.096C264.752 63.096 263.99 62.8667 263.414 62.408C262.848 61.9493 262.566 61.3467 262.566 60.6C262.566 59.8533 262.838 59.256 263.382 58.808C263.926 58.3493 264.79 58.12 265.974 58.12H268.406V57.816C268.406 57.1547 268.214 56.648 267.83 56.296C267.446 55.944 266.88 55.768 266.134 55.768C265.632 55.768 265.142 55.8533 264.662 56.024C264.182 56.184 263.776 56.4027 263.446 56.68L262.806 55.528C263.243 55.176 263.766 54.9093 264.374 54.728C264.982 54.536 265.627 54.44 266.31 54.44ZM265.958 61.912C266.544 61.912 267.051 61.784 267.478 61.528C267.904 61.2613 268.214 60.888 268.406 60.408V59.224H266.038C264.736 59.224 264.086 59.6613 264.086 60.536C264.086 60.9627 264.251 61.2987 264.582 61.544C264.912 61.7893 265.371 61.912 265.958 61.912ZM272.784 51.128H274.32V63H272.784V51.128ZM279.685 63.096C278.992 63.096 278.325 63.0053 277.685 62.824C277.045 62.632 276.544 62.392 276.181 62.104L276.821 60.888C277.194 61.1547 277.648 61.368 278.181 61.528C278.714 61.688 279.253 61.768 279.797 61.768C281.141 61.768 281.813 61.384 281.813 60.616C281.813 60.36 281.722 60.1573 281.541 60.008C281.36 59.8587 281.13 59.752 280.853 59.688C280.586 59.6133 280.202 59.5333 279.701 59.448C279.018 59.3413 278.458 59.2187 278.021 59.08C277.594 58.9413 277.226 58.7067 276.917 58.376C276.608 58.0453 276.453 57.5813 276.453 56.984C276.453 56.216 276.773 55.6027 277.413 55.144C278.053 54.6747 278.912 54.44 279.989 54.44C280.554 54.44 281.12 54.5093 281.685 54.648C282.25 54.7867 282.714 54.9733 283.077 55.208L282.421 56.424C281.728 55.976 280.912 55.752 279.973 55.752C279.322 55.752 278.826 55.8587 278.485 56.072C278.144 56.2853 277.973 56.568 277.973 56.92C277.973 57.1973 278.069 57.416 278.261 57.576C278.453 57.736 278.688 57.8533 278.965 57.928C279.253 58.0027 279.653 58.088 280.165 58.184C280.848 58.3013 281.397 58.4293 281.813 58.568C282.24 58.696 282.602 58.92 282.901 59.24C283.2 59.56 283.349 60.008 283.349 60.584C283.349 61.352 283.018 61.9653 282.357 62.424C281.706 62.872 280.816 63.096 279.685 63.096Z" fill="#898989"/>
<g clip-path="url(#clip0)">
<path d="M377.857 36.1742C377.33 34.5398 377.555 32.0864 376.183 30.1921C374.8 28.2829 372.395 27.7403 371.037 26.7471C369.694 25.7645 368.444 23.6261 366.184 22.8886C363.987 22.1719 361.741 23.1445 360 23.1445C358.259 23.1445 356.013 22.1717 353.816 22.8885C351.557 23.6259 350.306 25.7647 348.963 26.7469C347.606 27.7389 345.2 28.283 343.817 30.1919C342.447 32.0846 342.67 34.5436 342.143 36.1741C341.641 37.7259 340 39.5883 340 42.0002C340 44.4135 341.639 46.2688 342.143 47.8262C342.67 49.4606 342.445 51.9139 343.817 53.8082C345.2 55.7175 347.605 56.2601 348.963 57.2533C350.306 58.2358 351.556 60.3743 353.816 61.1117C356.011 61.828 358.261 60.8559 360 60.8559C361.737 60.8559 363.992 61.827 366.184 61.1118C368.443 60.3745 369.694 58.2361 371.037 57.2535C372.394 56.2615 374.8 55.7174 376.182 53.8085C377.553 51.9157 377.33 49.4569 377.857 47.8263C378.359 46.2744 380 44.412 380 42.0002C380 39.587 378.361 37.7323 377.857 36.1742ZM374.884 46.8653C374.269 48.7696 374.43 50.9008 373.652 51.9753C372.863 53.0642 370.791 53.5615 369.193 54.7309C367.611 55.8872 366.503 57.7203 365.214 58.1408C363.995 58.5388 362.008 57.7307 360 57.7307C357.978 57.7307 356.011 58.5405 354.786 58.1408C353.497 57.7203 352.39 55.8885 350.807 54.7308C349.218 53.5685 347.135 53.061 346.348 51.9752C345.573 50.9042 345.728 48.7583 345.116 46.8654C344.517 45.0108 343.125 43.4049 343.125 42.0002C343.125 40.594 344.516 38.9937 345.116 37.135C345.731 35.2308 345.57 33.0995 346.348 32.025C347.136 30.9369 349.21 30.4379 350.807 29.2695C352.394 28.1094 353.495 26.2807 354.786 25.8596C356.004 25.4621 357.998 26.2696 360 26.2696C362.026 26.2696 363.988 25.4593 365.214 25.8596C366.503 26.28 367.61 28.1125 369.193 29.2696C370.782 30.4318 372.865 30.9394 373.652 32.0251C374.427 33.0963 374.271 35.24 374.884 37.1349V37.1349C375.483 38.9896 376.875 40.5954 376.875 42.0002C376.875 43.4064 375.484 45.0067 374.884 46.8653ZM367.199 36.9849C367.809 37.5952 367.809 38.5845 367.199 39.1946L359.378 47.0154C358.768 47.6257 357.778 47.6256 357.168 47.0154L352.801 42.6487C352.191 42.0385 352.191 41.0492 352.801 40.439C353.412 39.8289 354.401 39.8288 355.011 40.439L358.273 43.7009L364.989 36.985C365.599 36.3748 366.588 36.3748 367.199 36.9849Z" fill="#3A3A3A"/>
</g>
<path d="M422.874 23.4L419.652 33.03L416.466 23.4H414.306L411.048 32.976L407.916 23.4H405.486L409.662 36H412.164L415.332 26.676L418.446 36H420.93L425.106 23.4H422.874ZM429.748 26.28C428.2 26.28 426.706 26.676 425.68 27.468L426.562 29.106C427.282 28.512 428.398 28.152 429.478 28.152C431.08 28.152 431.872 28.926 431.872 30.24V30.384H429.388C426.472 30.384 425.392 31.644 425.392 33.246C425.392 34.92 426.778 36.126 428.974 36.126C430.414 36.126 431.458 35.658 431.998 34.83V36H434.122V30.366C434.122 27.594 432.52 26.28 429.748 26.28ZM429.442 34.488C428.29 34.488 427.606 33.966 427.606 33.156C427.606 32.454 428.02 31.878 429.55 31.878H431.872V32.994C431.494 33.984 430.54 34.488 429.442 34.488ZM439.151 27.792V26.388H437.009V36H439.259V31.338C439.259 29.376 440.339 28.368 442.049 28.368C442.211 28.368 442.373 28.386 442.571 28.422V26.28C440.969 26.28 439.799 26.784 439.151 27.792ZM446.622 27.792V26.388H444.48V36H446.73V31.338C446.73 29.376 447.81 28.368 449.52 28.368C449.682 28.368 449.844 28.386 450.042 28.422V26.28C448.44 26.28 447.27 26.784 446.622 27.792ZM455.57 26.28C454.022 26.28 452.528 26.676 451.502 27.468L452.384 29.106C453.104 28.512 454.22 28.152 455.3 28.152C456.902 28.152 457.694 28.926 457.694 30.24V30.384H455.21C452.294 30.384 451.214 31.644 451.214 33.246C451.214 34.92 452.6 36.126 454.796 36.126C456.236 36.126 457.28 35.658 457.82 34.83V36H459.944V30.366C459.944 27.594 458.342 26.28 455.57 26.28ZM455.264 34.488C454.112 34.488 453.428 33.966 453.428 33.156C453.428 32.454 453.842 31.878 455.372 31.878H457.694V32.994C457.316 33.984 456.362 34.488 455.264 34.488ZM468.285 26.28C466.881 26.28 465.711 26.748 464.973 27.63V26.388H462.831V36H465.081V31.14C465.081 29.214 466.161 28.242 467.763 28.242C469.203 28.242 470.049 29.07 470.049 30.78V36H472.299V30.492C472.299 27.594 470.589 26.28 468.285 26.28ZM481.818 26.388L478.776 33.498L475.752 26.388H473.412L477.606 36.036L477.444 36.414C477.012 37.368 476.544 37.746 475.752 37.746C475.14 37.746 474.528 37.494 474.096 37.08L473.196 38.736C473.808 39.294 474.816 39.618 475.77 39.618C477.372 39.618 478.596 38.952 479.478 36.774L483.978 26.388H481.818ZM495.759 23.4H490.575V36H492.915V32.364H495.759C499.071 32.364 501.123 30.654 501.123 27.882C501.123 25.092 499.071 23.4 495.759 23.4ZM495.651 30.384H492.915V25.38H495.651C497.703 25.38 498.765 26.298 498.765 27.882C498.765 29.466 497.703 30.384 495.651 30.384ZM505.298 27.792V26.388H503.156V36H505.406V31.338C505.406 29.376 506.486 28.368 508.196 28.368C508.358 28.368 508.52 28.386 508.718 28.422V26.28C507.116 26.28 505.946 26.784 505.298 27.792ZM514.859 36.126C517.847 36.126 519.989 34.074 519.989 31.194C519.989 28.314 517.847 26.28 514.859 26.28C511.907 26.28 509.747 28.314 509.747 31.194C509.747 34.074 511.907 36.126 514.859 36.126ZM514.859 34.2C513.239 34.2 512.015 33.03 512.015 31.194C512.015 29.358 513.239 28.188 514.859 28.188C516.497 28.188 517.721 29.358 517.721 31.194C517.721 33.03 516.497 34.2 514.859 34.2ZM527.288 33.876C526.946 34.146 526.496 34.272 526.028 34.272C525.164 34.272 524.696 33.768 524.696 32.832V28.26H527.27V26.46H524.696V24.264H522.446V26.46H520.862V28.26H522.446V32.886C522.446 35.01 523.652 36.126 525.758 36.126C526.568 36.126 527.378 35.91 527.918 35.478L527.288 33.876ZM538.489 31.248C538.489 28.242 536.437 26.28 533.629 26.28C530.767 26.28 528.661 28.332 528.661 31.194C528.661 34.056 530.749 36.126 533.971 36.126C535.627 36.126 536.977 35.586 537.841 34.56L536.635 33.174C535.951 33.876 535.105 34.218 534.025 34.218C532.351 34.218 531.181 33.318 530.911 31.914H538.453C538.471 31.698 538.489 31.428 538.489 31.248ZM533.629 28.08C535.105 28.08 536.167 29.034 536.347 30.42H530.893C531.109 29.016 532.171 28.08 533.629 28.08ZM545.06 36.126C546.932 36.126 548.426 35.316 549.164 33.876L547.436 32.868C546.86 33.786 545.996 34.2 545.042 34.2C543.386 34.2 542.126 33.066 542.126 31.194C542.126 29.34 543.386 28.188 545.042 28.188C545.996 28.188 546.86 28.602 547.436 29.52L549.164 28.512C548.426 27.054 546.932 26.28 545.06 26.28C542.018 26.28 539.858 28.314 539.858 31.194C539.858 34.074 542.018 36.126 545.06 36.126ZM556.38 33.876C556.038 34.146 555.588 34.272 555.12 34.272C554.256 34.272 553.788 33.768 553.788 32.832V28.26H556.362V26.46H553.788V24.264H551.538V26.46H549.954V28.26H551.538V32.886C551.538 35.01 552.744 36.126 554.85 36.126C555.66 36.126 556.47 35.91 557.01 35.478L556.38 33.876ZM559.995 24.804C560.841 24.804 561.435 24.192 561.435 23.4C561.435 22.662 560.823 22.104 559.995 22.104C559.167 22.104 558.555 22.698 558.555 23.454C558.555 24.21 559.167 24.804 559.995 24.804ZM558.861 36H561.111V26.388H558.861V36ZM568.384 36.126C571.372 36.126 573.514 34.074 573.514 31.194C573.514 28.314 571.372 26.28 568.384 26.28C565.432 26.28 563.272 28.314 563.272 31.194C563.272 34.074 565.432 36.126 568.384 36.126ZM568.384 34.2C566.764 34.2 565.54 33.03 565.54 31.194C565.54 29.358 566.764 28.188 568.384 28.188C570.022 28.188 571.246 29.358 571.246 31.194C571.246 33.03 570.022 34.2 568.384 34.2ZM581.119 26.28C579.715 26.28 578.545 26.748 577.807 27.63V26.388H575.665V36H577.915V31.14C577.915 29.214 578.995 28.242 580.597 28.242C582.037 28.242 582.883 29.07 582.883 30.78V36H585.133V30.492C585.133 27.594 583.423 26.28 581.119 26.28Z" fill="#3A3A3A"/>
<path d="M411.736 63.128C410.605 63.128 409.587 62.8827 408.68 62.392C407.773 61.8907 407.059 61.2027 406.536 60.328C406.024 59.4533 405.768 58.4773 405.768 57.4C405.768 56.3227 406.024 55.3467 406.536 54.472C407.059 53.5973 407.773 52.9147 408.68 52.424C409.587 51.9227 410.605 51.672 411.736 51.672C412.856 51.672 413.869 51.9227 414.776 52.424C415.683 52.9147 416.392 53.5973 416.904 54.472C417.416 55.336 417.672 56.312 417.672 57.4C417.672 58.488 417.416 59.4693 416.904 60.344C416.392 61.208 415.683 61.8907 414.776 62.392C413.869 62.8827 412.856 63.128 411.736 63.128ZM411.736 61.704C412.557 61.704 413.293 61.5173 413.944 61.144C414.605 60.7707 415.123 60.2587 415.496 59.608C415.88 58.9467 416.072 58.2107 416.072 57.4C416.072 56.5893 415.88 55.8587 415.496 55.208C415.123 54.5467 414.605 54.0293 413.944 53.656C413.293 53.2827 412.557 53.096 411.736 53.096C410.915 53.096 410.168 53.2827 409.496 53.656C408.835 54.0293 408.312 54.5467 407.928 55.208C407.555 55.8587 407.368 56.5893 407.368 57.4C407.368 58.2107 407.555 58.9467 407.928 59.608C408.312 60.2587 408.835 60.7707 409.496 61.144C410.168 61.5173 410.915 61.704 411.736 61.704ZM427.398 54.52L423.686 63H422.118L418.405 54.52H420.006L422.918 61.32L425.894 54.52H427.398ZM436.261 58.808C436.261 58.9253 436.25 59.08 436.229 59.272H429.349C429.445 60.0187 429.77 60.6213 430.325 61.08C430.89 61.528 431.589 61.752 432.421 61.752C433.434 61.752 434.25 61.4107 434.869 60.728L435.717 61.72C435.333 62.168 434.853 62.5093 434.277 62.744C433.711 62.9787 433.077 63.096 432.373 63.096C431.477 63.096 430.682 62.9147 429.989 62.552C429.295 62.1787 428.757 61.6613 428.373 61C427.999 60.3387 427.813 59.592 427.813 58.76C427.813 57.9387 427.994 57.1973 428.357 56.536C428.73 55.8747 429.237 55.3627 429.877 55C430.527 54.6267 431.258 54.44 432.069 54.44C432.879 54.44 433.599 54.6267 434.229 55C434.869 55.3627 435.365 55.8747 435.717 56.536C436.079 57.1973 436.261 57.9547 436.261 58.808ZM432.069 55.736C431.333 55.736 430.714 55.96 430.213 56.408C429.722 56.856 429.434 57.4427 429.349 58.168H434.789C434.703 57.4533 434.41 56.872 433.909 56.424C433.418 55.9653 432.805 55.736 432.069 55.736ZM439.866 55.944C440.132 55.4533 440.527 55.08 441.049 54.824C441.572 54.568 442.207 54.44 442.954 54.44V55.928C442.868 55.9173 442.751 55.912 442.602 55.912C441.77 55.912 441.114 56.1627 440.634 56.664C440.164 57.1547 439.93 57.8587 439.93 58.776V63H438.394V54.52H439.866V55.944ZM456.437 61.608V63H448.389V61.912L452.949 57.512C453.504 56.9787 453.877 56.52 454.069 56.136C454.261 55.7413 454.357 55.3467 454.357 54.952C454.357 54.3653 454.149 53.912 453.733 53.592C453.328 53.2613 452.741 53.096 451.973 53.096C450.736 53.096 449.781 53.5013 449.109 54.312L448.021 53.368C448.458 52.8347 449.029 52.4187 449.733 52.12C450.448 51.8213 451.242 51.672 452.117 51.672C453.29 51.672 454.224 51.9547 454.917 52.52C455.61 53.0747 455.957 53.832 455.957 54.792C455.957 55.3893 455.829 55.9547 455.573 56.488C455.317 57.0213 454.832 57.6293 454.117 58.312L450.693 61.608H456.437ZM470.241 54.52L466.129 63.848C465.767 64.712 465.34 65.32 464.849 65.672C464.369 66.024 463.788 66.2 463.105 66.2C462.689 66.2 462.284 66.1307 461.889 65.992C461.505 65.864 461.185 65.672 460.929 65.416L461.585 64.264C462.023 64.68 462.529 64.888 463.105 64.888C463.479 64.888 463.788 64.7867 464.033 64.584C464.289 64.392 464.519 64.056 464.721 63.576L464.993 62.984L461.249 54.52H462.849L465.809 61.304L468.737 54.52H470.241ZM479.104 58.808C479.104 58.9253 479.094 59.08 479.072 59.272H472.192C472.288 60.0187 472.614 60.6213 473.168 61.08C473.734 61.528 474.432 61.752 475.264 61.752C476.278 61.752 477.094 61.4107 477.712 60.728L478.56 61.72C478.176 62.168 477.696 62.5093 477.12 62.744C476.555 62.9787 475.92 63.096 475.216 63.096C474.32 63.096 473.526 62.9147 472.832 62.552C472.139 62.1787 471.6 61.6613 471.216 61C470.843 60.3387 470.656 59.592 470.656 58.76C470.656 57.9387 470.838 57.1973 471.2 56.536C471.574 55.8747 472.08 55.3627 472.72 55C473.371 54.6267 474.102 54.44 474.912 54.44C475.723 54.44 476.443 54.6267 477.072 55C477.712 55.3627 478.208 55.8747 478.56 56.536C478.923 57.1973 479.104 57.9547 479.104 58.808ZM474.912 55.736C474.176 55.736 473.558 55.96 473.056 56.408C472.566 56.856 472.278 57.4427 472.192 58.168H477.632C477.547 57.4533 477.254 56.872 476.752 56.424C476.262 55.9653 475.648 55.736 474.912 55.736ZM484.091 54.44C485.264 54.44 486.16 54.728 486.779 55.304C487.408 55.88 487.723 56.7387 487.723 57.88V63H486.267V61.88C486.011 62.2747 485.643 62.5787 485.163 62.792C484.694 62.9947 484.134 63.096 483.483 63.096C482.534 63.096 481.771 62.8667 481.195 62.408C480.63 61.9493 480.347 61.3467 480.347 60.6C480.347 59.8533 480.619 59.256 481.163 58.808C481.707 58.3493 482.571 58.12 483.755 58.12H486.187V57.816C486.187 57.1547 485.995 56.648 485.611 56.296C485.227 55.944 484.662 55.768 483.915 55.768C483.414 55.768 482.923 55.8533 482.443 56.024C481.963 56.184 481.558 56.4027 481.227 56.68L480.587 55.528C481.024 55.176 481.547 54.9093 482.155 54.728C482.763 54.536 483.408 54.44 484.091 54.44ZM483.739 61.912C484.326 61.912 484.832 61.784 485.259 61.528C485.686 61.2613 485.995 60.888 486.187 60.408V59.224H483.819C482.518 59.224 481.867 59.6613 481.867 60.536C481.867 60.9627 482.032 61.2987 482.363 61.544C482.694 61.7893 483.152 61.912 483.739 61.912ZM492.037 55.944C492.304 55.4533 492.699 55.08 493.221 54.824C493.744 54.568 494.379 54.44 495.125 54.44V55.928C495.04 55.9173 494.923 55.912 494.773 55.912C493.941 55.912 493.285 56.1627 492.805 56.664C492.336 57.1547 492.101 57.8587 492.101 58.776V63H490.565V54.52H492.037V55.944ZM499.513 63.096C498.82 63.096 498.153 63.0053 497.513 62.824C496.873 62.632 496.372 62.392 496.009 62.104L496.649 60.888C497.022 61.1547 497.476 61.368 498.009 61.528C498.542 61.688 499.081 61.768 499.625 61.768C500.969 61.768 501.641 61.384 501.641 60.616C501.641 60.36 501.55 60.1573 501.369 60.008C501.188 59.8587 500.958 59.752 500.681 59.688C500.414 59.6133 500.03 59.5333 499.529 59.448C498.846 59.3413 498.286 59.2187 497.849 59.08C497.422 58.9413 497.054 58.7067 496.745 58.376C496.436 58.0453 496.281 57.5813 496.281 56.984C496.281 56.216 496.601 55.6027 497.241 55.144C497.881 54.6747 498.74 54.44 499.817 54.44C500.382 54.44 500.948 54.5093 501.513 54.648C502.078 54.7867 502.542 54.9733 502.905 55.208L502.249 56.424C501.556 55.976 500.74 55.752 499.801 55.752C499.15 55.752 498.654 55.8587 498.313 56.072C497.972 56.2853 497.801 56.568 497.801 56.92C497.801 57.1973 497.897 57.416 498.089 57.576C498.281 57.736 498.516 57.8533 498.793 57.928C499.081 58.0027 499.481 58.088 499.993 58.184C500.676 58.3013 501.225 58.4293 501.641 58.568C502.068 58.696 502.43 58.92 502.729 59.24C503.028 59.56 503.177 60.008 503.177 60.584C503.177 61.352 502.846 61.9653 502.185 62.424C501.534 62.872 500.644 63.096 499.513 63.096Z" fill="#898989"/>
<g clip-path="url(#clip1)">
<path d="M685.899 43.7346V25.5198C685.899 24.87 685.372 24.3431 684.722 24.3431H653.197C652.547 24.3431 652.02 24.87 652.02 25.5198V45.1867C651.452 45.2694 650.898 45.4898 650.407 45.8542C648.859 46.9516 648.493 49.4073 649.789 50.9218L655.089 57.347C658.37 61.1866 661.855 61.657 667.036 61.657C671.482 61.657 673.47 61.6766 677.344 60.7937L681.117 59.8913C681.729 60.7456 682.7 61.299 683.792 61.299H685.651C687.498 61.299 689 59.7163 689 57.7708V47.2523C689 45.3947 687.63 43.8688 685.899 43.7346ZM680.61 46.1551L679.042 45.3588C676.464 44.0577 673.484 44.0095 670.865 45.2269C670.151 45.5079 668.593 46.4506 667.785 46.4191H662.344C660.54 46.4191 659.072 47.8872 659.072 49.6918V50.5499C659.062 50.5392 659.051 50.5291 659.041 50.5182L655.156 46.3013C654.921 46.0462 654.657 45.8326 654.373 45.6613V33.9874H664.003V38.3007C664.003 38.9505 664.53 39.4773 665.179 39.4773H672.604C673.254 39.4773 673.781 38.9505 673.781 38.3007V33.9874H683.545V43.7346C682.171 43.8408 681.024 44.8243 680.61 46.1551ZM666.356 33.9874H671.427V37.124H666.356V33.9874ZM683.545 31.634H673.781V26.6965H683.545V31.634H683.545ZM671.428 26.6965V31.6341H666.356V26.6965H671.428ZM664.003 26.6965V31.6341H654.373V26.6965H664.003ZM676.798 58.5046C673.219 59.3244 671.063 59.2912 667.078 59.2912C662.215 59.2912 659.865 59.2126 656.905 55.8494L651.605 49.4243C650.683 48.2238 652.353 46.8067 653.425 47.8957L657.31 52.1127C658.337 53.1961 659.629 53.7923 661.222 53.8274H671.993C672.642 53.8274 673.169 53.3006 673.169 52.6507C673.169 52.0009 672.642 51.4741 671.993 51.4741H661.425V49.6916C661.425 49.1847 661.837 48.7722 662.344 48.7722H667.785C669.01 48.86 670.779 47.8366 671.858 47.3607C673.819 46.4489 676.051 46.485 677.979 47.4581L680.443 48.7098V57.6326L676.798 58.5046ZM686.647 57.7707C686.647 58.4186 686.2 58.9456 685.651 58.9456H683.792C683.243 58.9456 682.796 58.4186 682.796 57.7707V47.2523C682.796 46.6044 683.243 46.0773 683.792 46.0773H685.651C686.2 46.0773 686.647 46.6044 686.647 47.2523V57.7707Z" fill="#3A3A3A"/>
</g>
<path d="M723.89 25.362V23.4H714.692V36H717.032V31.176H723.116V29.196H717.032V25.362H723.89ZM727.903 27.792V26.388H725.761V36H728.011V31.338C728.011 29.376 729.091 28.368 730.801 28.368C730.963 28.368 731.125 28.386 731.323 28.422V26.28C729.721 26.28 728.551 26.784 727.903 27.792ZM742.18 31.248C742.18 28.242 740.128 26.28 737.32 26.28C734.458 26.28 732.352 28.332 732.352 31.194C732.352 34.056 734.44 36.126 737.662 36.126C739.318 36.126 740.668 35.586 741.532 34.56L740.326 33.174C739.642 33.876 738.796 34.218 737.716 34.218C736.042 34.218 734.872 33.318 734.602 31.914H742.144C742.162 31.698 742.18 31.428 742.18 31.248ZM737.32 28.08C738.796 28.08 739.858 29.034 740.038 30.42H734.584C734.8 29.016 735.862 28.08 737.32 28.08ZM753.377 31.248C753.377 28.242 751.325 26.28 748.517 26.28C745.655 26.28 743.549 28.332 743.549 31.194C743.549 34.056 745.637 36.126 748.859 36.126C750.515 36.126 751.865 35.586 752.729 34.56L751.523 33.174C750.839 33.876 749.993 34.218 748.913 34.218C747.239 34.218 746.069 33.318 745.799 31.914H753.341C753.359 31.698 753.377 31.428 753.377 31.248ZM748.517 28.08C749.993 28.08 751.055 29.034 751.235 30.42H745.781C745.997 29.016 747.059 28.08 748.517 28.08ZM764.635 36.18C768.091 36.18 769.729 34.452 769.729 32.436C769.729 27.81 762.259 29.556 762.259 26.874C762.259 25.92 763.051 25.164 764.995 25.164C766.093 25.164 767.335 25.488 768.469 26.154L769.207 24.336C768.109 23.616 766.525 23.22 765.013 23.22C761.557 23.22 759.937 24.948 759.937 26.982C759.937 31.662 767.425 29.88 767.425 32.598C767.425 33.534 766.597 34.236 764.635 34.236C763.087 34.236 761.485 33.66 760.477 32.85L759.667 34.668C760.711 35.568 762.673 36.18 764.635 36.18ZM777.287 26.28C775.955 26.28 774.821 26.712 774.083 27.504V22.644H771.833V36H774.083V31.14C774.083 29.214 775.163 28.242 776.765 28.242C778.205 28.242 779.051 29.07 779.051 30.78V36H781.301V30.492C781.301 27.594 779.591 26.28 777.287 26.28ZM785.29 24.804C786.136 24.804 786.73 24.192 786.73 23.4C786.73 22.662 786.118 22.104 785.29 22.104C784.462 22.104 783.85 22.698 783.85 23.454C783.85 24.21 784.462 24.804 785.29 24.804ZM784.156 36H786.406V26.388H784.156V36ZM794.687 26.28C793.373 26.28 792.257 26.73 791.501 27.648V26.388H789.359V39.492H791.609V34.83C792.383 35.712 793.463 36.126 794.687 36.126C797.495 36.126 799.565 34.182 799.565 31.194C799.565 28.224 797.495 26.28 794.687 26.28ZM794.435 34.2C792.815 34.2 791.573 33.03 791.573 31.194C791.573 29.358 792.815 28.188 794.435 28.188C796.055 28.188 797.279 29.358 797.279 31.194C797.279 33.03 796.055 34.2 794.435 34.2ZM807.027 26.28C805.713 26.28 804.597 26.73 803.841 27.648V26.388H801.699V39.492H803.949V34.83C804.723 35.712 805.803 36.126 807.027 36.126C809.835 36.126 811.905 34.182 811.905 31.194C811.905 28.224 809.835 26.28 807.027 26.28ZM806.775 34.2C805.155 34.2 803.913 33.03 803.913 31.194C803.913 29.358 805.155 28.188 806.775 28.188C808.395 28.188 809.619 29.358 809.619 31.194C809.619 33.03 808.395 34.2 806.775 34.2ZM815.173 24.804C816.019 24.804 816.613 24.192 816.613 23.4C816.613 22.662 816.001 22.104 815.173 22.104C814.345 22.104 813.733 22.698 813.733 23.454C813.733 24.21 814.345 24.804 815.173 24.804ZM814.039 36H816.289V26.388H814.039V36ZM824.696 26.28C823.292 26.28 822.122 26.748 821.384 27.63V26.388H819.242V36H821.492V31.14C821.492 29.214 822.572 28.242 824.174 28.242C825.614 28.242 826.46 29.07 826.46 30.78V36H828.71V30.492C828.71 27.594 827 26.28 824.696 26.28ZM839.05 26.388V27.666C838.258 26.712 837.07 26.28 835.72 26.28C832.966 26.28 830.86 28.116 830.86 30.906C830.86 33.696 832.966 35.568 835.72 35.568C837.016 35.568 838.15 35.154 838.942 34.29V34.794C838.942 36.738 838.006 37.71 835.882 37.71C834.55 37.71 833.182 37.26 832.336 36.558L831.328 38.25C832.426 39.15 834.208 39.618 836.008 39.618C839.374 39.618 841.192 38.034 841.192 34.542V26.388H839.05ZM836.062 33.66C834.352 33.66 833.128 32.544 833.128 30.906C833.128 29.286 834.352 28.188 836.062 28.188C837.754 28.188 838.978 29.286 838.978 30.906C838.978 32.544 837.754 33.66 836.062 33.66Z" fill="#3A3A3A"/>
<path d="M719.736 63.128C718.605 63.128 717.587 62.8827 716.68 62.392C715.773 61.8907 715.059 61.2027 714.536 60.328C714.024 59.4533 713.768 58.4773 713.768 57.4C713.768 56.3227 714.024 55.3467 714.536 54.472C715.059 53.5973 715.773 52.9147 716.68 52.424C717.587 51.9227 718.605 51.672 719.736 51.672C720.856 51.672 721.869 51.9227 722.776 52.424C723.683 52.9147 724.392 53.5973 724.904 54.472C725.416 55.336 725.672 56.312 725.672 57.4C725.672 58.488 725.416 59.4693 724.904 60.344C724.392 61.208 723.683 61.8907 722.776 62.392C721.869 62.8827 720.856 63.128 719.736 63.128ZM719.736 61.704C720.557 61.704 721.293 61.5173 721.944 61.144C722.605 60.7707 723.123 60.2587 723.496 59.608C723.88 58.9467 724.072 58.2107 724.072 57.4C724.072 56.5893 723.88 55.8587 723.496 55.208C723.123 54.5467 722.605 54.0293 721.944 53.656C721.293 53.2827 720.557 53.096 719.736 53.096C718.915 53.096 718.168 53.2827 717.496 53.656C716.835 54.0293 716.312 54.5467 715.928 55.208C715.555 55.8587 715.368 56.5893 715.368 57.4C715.368 58.2107 715.555 58.9467 715.928 59.608C716.312 60.2587 716.835 60.7707 717.496 61.144C718.168 61.5173 718.915 61.704 719.736 61.704ZM732.422 54.44C733.499 54.44 734.352 54.7547 734.982 55.384C735.622 56.0027 735.942 56.9147 735.942 58.12V63H734.406V58.296C734.406 57.4747 734.208 56.856 733.814 56.44C733.419 56.024 732.854 55.816 732.118 55.816C731.286 55.816 730.63 56.0613 730.15 56.552C729.67 57.032 729.43 57.7253 729.43 58.632V63H727.894V54.52H729.366V55.8C729.675 55.3627 730.091 55.0267 730.614 54.792C731.147 54.5573 731.75 54.44 732.422 54.44ZM748.361 63.128C747.23 63.128 746.212 62.8827 745.305 62.392C744.398 61.8907 743.684 61.2027 743.161 60.328C742.649 59.4533 742.393 58.4773 742.393 57.4C742.393 56.3227 742.649 55.3467 743.161 54.472C743.684 53.5973 744.398 52.9147 745.305 52.424C746.212 51.9227 747.23 51.672 748.361 51.672C749.481 51.672 750.494 51.9227 751.401 52.424C752.308 52.9147 753.017 53.5973 753.529 54.472C754.041 55.336 754.297 56.312 754.297 57.4C754.297 58.488 754.041 59.4693 753.529 60.344C753.017 61.208 752.308 61.8907 751.401 62.392C750.494 62.8827 749.481 63.128 748.361 63.128ZM748.361 61.704C749.182 61.704 749.918 61.5173 750.569 61.144C751.23 60.7707 751.748 60.2587 752.121 59.608C752.505 58.9467 752.697 58.2107 752.697 57.4C752.697 56.5893 752.505 55.8587 752.121 55.208C751.748 54.5467 751.23 54.0293 750.569 53.656C749.918 53.2827 749.182 53.096 748.361 53.096C747.54 53.096 746.793 53.2827 746.121 53.656C745.46 54.0293 744.937 54.5467 744.553 55.208C744.18 55.8587 743.993 56.5893 743.993 57.4C743.993 58.2107 744.18 58.9467 744.553 59.608C744.937 60.2587 745.46 60.7707 746.121 61.144C746.793 61.5173 747.54 61.704 748.361 61.704ZM764.423 54.52V63H762.967V61.72C762.657 62.1573 762.247 62.4987 761.735 62.744C761.233 62.9787 760.684 63.096 760.087 63.096C758.956 63.096 758.065 62.7867 757.414 62.168C756.764 61.5387 756.439 60.616 756.439 59.4V54.52H757.975V59.224C757.975 60.0453 758.172 60.6693 758.567 61.096C758.961 61.512 759.527 61.72 760.263 61.72C761.073 61.72 761.713 61.4747 762.183 60.984C762.652 60.4933 762.887 59.8 762.887 58.904V54.52H764.423ZM768.819 55.944C769.085 55.4533 769.48 55.08 770.003 54.824C770.525 54.568 771.16 54.44 771.907 54.44V55.928C771.821 55.9173 771.704 55.912 771.555 55.912C770.723 55.912 770.067 56.1627 769.587 56.664C769.117 57.1547 768.883 57.8587 768.883 58.776V63H767.347V54.52H768.819V55.944ZM782.078 58.024L780.03 60.104V63H778.43V51.8H780.03V58.056L786.11 51.8H787.934L783.15 56.84L788.238 63H786.366L782.078 58.024ZM789.55 54.52H791.086V63H789.55V54.52ZM790.318 52.888C790.019 52.888 789.768 52.792 789.566 52.6C789.374 52.408 789.278 52.1733 789.278 51.896C789.278 51.6187 789.374 51.384 789.566 51.192C789.768 50.9893 790.019 50.888 790.318 50.888C790.616 50.888 790.862 50.984 791.054 51.176C791.256 51.3573 791.358 51.5867 791.358 51.864C791.358 52.152 791.256 52.3973 791.054 52.6C790.862 52.792 790.616 52.888 790.318 52.888ZM798.787 62.504C798.563 62.696 798.285 62.8453 797.955 62.952C797.624 63.048 797.283 63.096 796.931 63.096C796.077 63.096 795.416 62.8667 794.947 62.408C794.477 61.9493 794.243 61.2933 794.243 60.44V55.784H792.803V54.52H794.243V52.664H795.779V54.52H798.211V55.784H795.779V60.376C795.779 60.8347 795.891 61.1867 796.115 61.432C796.349 61.6773 796.68 61.8 797.107 61.8C797.576 61.8 797.976 61.6667 798.307 61.4L798.787 62.504ZM810.22 63.128C809.09 63.128 808.071 62.8827 807.164 62.392C806.258 61.8907 805.543 61.2027 805.02 60.328C804.508 59.4533 804.252 58.4773 804.252 57.4C804.252 56.3227 804.508 55.3467 805.02 54.472C805.543 53.5973 806.258 52.9147 807.164 52.424C808.071 51.9227 809.09 51.672 810.22 51.672C811.34 51.672 812.354 51.9227 813.26 52.424C814.167 52.9147 814.876 53.5973 815.388 54.472C815.9 55.336 816.156 56.312 816.156 57.4C816.156 58.488 815.9 59.4693 815.388 60.344C814.876 61.208 814.167 61.8907 813.26 62.392C812.354 62.8827 811.34 63.128 810.22 63.128ZM810.22 61.704C811.042 61.704 811.778 61.5173 812.428 61.144C813.09 60.7707 813.607 60.2587 813.98 59.608C814.364 58.9467 814.556 58.2107 814.556 57.4C814.556 56.5893 814.364 55.8587 813.98 55.208C813.607 54.5467 813.09 54.0293 812.428 53.656C811.778 53.2827 811.042 53.096 810.22 53.096C809.399 53.096 808.652 53.2827 807.98 53.656C807.319 54.0293 806.796 54.5467 806.412 55.208C806.039 55.8587 805.852 56.5893 805.852 57.4C805.852 58.2107 806.039 58.9467 806.412 59.608C806.796 60.2587 807.319 60.7707 807.98 61.144C808.652 61.5173 809.399 61.704 810.22 61.704ZM819.85 55.944C820.117 55.4533 820.511 55.08 821.034 54.824C821.557 54.568 822.191 54.44 822.938 54.44V55.928C822.853 55.9173 822.735 55.912 822.586 55.912C821.754 55.912 821.098 56.1627 820.618 56.664C820.149 57.1547 819.914 57.8587 819.914 58.776V63H818.378V54.52H819.85V55.944ZM832.753 51.128V63H831.281V61.656C830.94 62.1253 830.508 62.4827 829.985 62.728C829.462 62.9733 828.886 63.096 828.257 63.096C827.436 63.096 826.7 62.9147 826.049 62.552C825.398 62.1893 824.886 61.6827 824.513 61.032C824.15 60.3707 823.969 59.6133 823.969 58.76C823.969 57.9067 824.15 57.1547 824.513 56.504C824.886 55.8533 825.398 55.3467 826.049 54.984C826.7 54.6213 827.436 54.44 828.257 54.44C828.865 54.44 829.425 54.5573 829.937 54.792C830.449 55.016 830.876 55.352 831.217 55.8V51.128H832.753ZM828.385 61.752C828.918 61.752 829.404 61.6293 829.841 61.384C830.278 61.128 830.62 60.776 830.865 60.328C831.11 59.8693 831.233 59.3467 831.233 58.76C831.233 58.1733 831.11 57.656 830.865 57.208C830.62 56.7493 830.278 56.3973 829.841 56.152C829.404 55.9067 828.918 55.784 828.385 55.784C827.841 55.784 827.35 55.9067 826.913 56.152C826.486 56.3973 826.145 56.7493 825.889 57.208C825.644 57.656 825.521 58.1733 825.521 58.76C825.521 59.3467 825.644 59.8693 825.889 60.328C826.145 60.776 826.486 61.128 826.913 61.384C827.35 61.6293 827.841 61.752 828.385 61.752ZM843.323 58.808C843.323 58.9253 843.312 59.08 843.291 59.272H836.411C836.507 60.0187 836.832 60.6213 837.387 61.08C837.952 61.528 838.651 61.752 839.483 61.752C840.496 61.752 841.312 61.4107 841.931 60.728L842.779 61.72C842.395 62.168 841.915 62.5093 841.339 62.744C840.774 62.9787 840.139 63.096 839.435 63.096C838.539 63.096 837.744 62.9147 837.051 62.552C836.358 62.1787 835.819 61.6613 835.435 61C835.062 60.3387 834.875 59.592 834.875 58.76C834.875 57.9387 835.056 57.1973 835.419 56.536C835.792 55.8747 836.299 55.3627 836.939 55C837.59 54.6267 838.32 54.44 839.131 54.44C839.942 54.44 840.662 54.6267 841.291 55C841.931 55.3627 842.427 55.8747 842.779 56.536C843.142 57.1973 843.323 57.9547 843.323 58.808ZM839.131 55.736C838.395 55.736 837.776 55.96 837.275 56.408C836.784 56.856 836.496 57.4427 836.411 58.168H841.851C841.766 57.4533 841.472 56.872 840.971 56.424C840.48 55.9653 839.867 55.736 839.131 55.736ZM846.928 55.944C847.195 55.4533 847.589 55.08 848.112 54.824C848.635 54.568 849.269 54.44 850.016 54.44V55.928C849.931 55.9173 849.813 55.912 849.664 55.912C848.832 55.912 848.176 56.1627 847.696 56.664C847.227 57.1547 846.992 57.8587 846.992 58.776V63H845.456V54.52H846.928V55.944ZM854.404 63.096C853.71 63.096 853.044 63.0053 852.404 62.824C851.764 62.632 851.262 62.392 850.9 62.104L851.54 60.888C851.913 61.1547 852.366 61.368 852.9 61.528C853.433 61.688 853.972 61.768 854.516 61.768C855.86 61.768 856.532 61.384 856.532 60.616C856.532 60.36 856.441 60.1573 856.26 60.008C856.078 59.8587 855.849 59.752 855.572 59.688C855.305 59.6133 854.921 59.5333 854.42 59.448C853.737 59.3413 853.177 59.2187 852.74 59.08C852.313 58.9413 851.945 58.7067 851.636 58.376C851.326 58.0453 851.172 57.5813 851.172 56.984C851.172 56.216 851.492 55.6027 852.132 55.144C852.772 54.6747 853.63 54.44 854.708 54.44C855.273 54.44 855.838 54.5093 856.404 54.648C856.969 54.7867 857.433 54.9733 857.796 55.208L857.14 56.424C856.446 55.976 855.63 55.752 854.692 55.752C854.041 55.752 853.545 55.8587 853.204 56.072C852.862 56.2853 852.692 56.568 852.692 56.92C852.692 57.1973 852.788 57.416 852.98 57.576C853.172 57.736 853.406 57.8533 853.684 57.928C853.972 58.0027 854.372 58.088 854.884 58.184C855.566 58.3013 856.116 58.4293 856.532 58.568C856.958 58.696 857.321 58.92 857.62 59.24C857.918 59.56 858.068 60.008 858.068 60.584C858.068 61.352 857.737 61.9653 857.076 62.424C856.425 62.872 855.534 63.096 854.404 63.096Z" fill="#898989"/>
<g clip-path="url(#clip2)">
<path d="M973.463 37.9752C973.2 29.1216 965.916 22 957 22C948.084 22 940.801 29.1216 940.538 37.9752L939.353 39.1598V47.1932L940.529 48.3696V53.8431C940.529 57.0435 943.133 59.6471 946.333 59.6471H947.791C948.276 61.0164 949.584 62 951.118 62H953.471C955.005 62 956.314 61.015 956.799 59.6442C956.866 59.6454 956.933 59.6471 957 59.6471C962.682 59.6471 967.435 55.5987 968.528 50.2353H971.605L974.647 47.1932V39.1598L973.463 37.9752ZM957 24.3529C963.983 24.3529 969.797 29.4493 970.921 36.1176H968.528C967.435 30.7542 962.682 26.7059 957 26.7059C951.319 26.7059 946.565 30.7542 945.472 36.1176H943.08C944.203 29.4493 950.017 24.3529 957 24.3529ZM966.114 36.1176C962.311 36.1063 959.625 36.3379 957.41 33.1004L956.335 31.5284L955.41 33.1938C954.064 35.6204 952.25 36.1176 949.941 36.1176H947.886C948.934 32.0629 952.623 29.0588 957 29.0588C961.378 29.0588 965.067 32.0629 966.114 36.1176ZM945.235 47.8824H943.37L941.706 46.2186V40.1344L943.37 38.4706H945.235V47.8824ZM942.882 53.8431V50.2353H945.47C945.913 52.4294 946.972 54.4435 948.542 56.0611C948.213 56.4127 947.955 56.8311 947.791 57.2941H946.333C944.431 57.2941 942.882 55.746 942.882 53.8431ZM953.471 59.6471H951.118C950.469 59.6471 949.941 59.1194 949.941 58.4706C949.941 57.8219 950.469 57.2941 951.118 57.2941H953.471C954.119 57.2941 954.647 57.8219 954.647 58.4706C954.647 59.1194 954.119 59.6471 953.471 59.6471ZM966.412 47.8824C966.412 53.072 962.19 57.2941 957 57.2941C956.933 57.2941 956.865 57.2928 956.797 57.2912C956.31 55.9234 955.003 54.9412 953.471 54.9412C951.055 54.9465 951.094 54.9291 950.792 54.9568C948.75 53.1665 947.588 50.6166 947.588 47.8824V38.4706H949.941C952.023 38.4706 954.559 38.1273 956.522 35.7384C959.112 38.4524 962.277 38.4706 965.118 38.4706H966.412V47.8824ZM972.294 46.2186L970.63 47.8824H968.765V38.4706H970.63L972.294 40.1344V46.2186Z" fill="#3A3A3A"/>
</g>
<path d="M1010.92 34.02V36H1001.63V34.434L1006.63 29.682C1007.2 29.142 1007.58 28.674 1007.77 28.278C1007.97 27.87 1008.07 27.468 1008.07 27.072C1008.07 26.484 1007.88 26.034 1007.48 25.722C1007.08 25.41 1006.5 25.254 1005.73 25.254C1004.45 25.254 1003.47 25.692 1002.78 26.568L1001.14 25.308C1001.64 24.648 1002.3 24.138 1003.12 23.778C1003.96 23.406 1004.9 23.22 1005.93 23.22C1007.3 23.22 1008.39 23.544 1009.21 24.192C1010.02 24.84 1010.43 25.722 1010.43 26.838C1010.43 27.522 1010.29 28.164 1010 28.764C1009.71 29.364 1009.16 30.048 1008.34 30.816L1004.98 34.02H1010.92ZM1023.24 33.138H1021V36H1018.74V33.138H1011.82V31.518L1018.03 23.4H1020.54L1014.69 31.158H1018.81V28.62H1021V31.158H1023.24V33.138ZM1033.8 20.844H1035.82L1029.88 37.8H1027.86L1033.8 20.844ZM1050.35 23.4V24.966L1045.46 36H1042.96L1047.69 25.38H1042.74V27.522H1040.56V23.4H1050.35ZM1061.58 36.18C1060.61 36.18 1059.67 36.042 1058.76 35.766C1057.86 35.49 1057.14 35.124 1056.61 34.668L1057.42 32.85C1057.94 33.258 1058.57 33.594 1059.31 33.858C1060.07 34.11 1060.83 34.236 1061.58 34.236C1062.52 34.236 1063.21 34.086 1063.67 33.786C1064.14 33.486 1064.37 33.09 1064.37 32.598C1064.37 32.238 1064.24 31.944 1063.98 31.716C1063.72 31.476 1063.4 31.29 1063 31.158C1062.61 31.026 1062.07 30.876 1061.38 30.708C1060.42 30.48 1059.64 30.252 1059.04 30.024C1058.46 29.796 1057.95 29.442 1057.51 28.962C1057.09 28.47 1056.88 27.81 1056.88 26.982C1056.88 26.286 1057.07 25.656 1057.44 25.092C1057.83 24.516 1058.4 24.06 1059.15 23.724C1059.92 23.388 1060.86 23.22 1061.96 23.22C1062.73 23.22 1063.48 23.316 1064.23 23.508C1064.97 23.7 1065.61 23.976 1066.15 24.336L1065.42 26.154C1064.86 25.83 1064.29 25.584 1063.69 25.416C1063.09 25.248 1062.51 25.164 1061.94 25.164C1061.02 25.164 1060.33 25.32 1059.87 25.632C1059.43 25.944 1059.21 26.358 1059.21 26.874C1059.21 27.234 1059.33 27.528 1059.58 27.756C1059.85 27.984 1060.18 28.164 1060.57 28.296C1060.97 28.428 1061.51 28.578 1062.19 28.746C1063.13 28.962 1063.9 29.19 1064.5 29.43C1065.1 29.658 1065.61 30.012 1066.03 30.492C1066.46 30.972 1066.68 31.62 1066.68 32.436C1066.68 33.132 1066.48 33.762 1066.1 34.326C1065.73 34.89 1065.16 35.34 1064.39 35.676C1063.62 36.012 1062.69 36.18 1061.58 36.18ZM1078.09 26.388V36H1075.94V34.776C1075.58 35.208 1075.13 35.544 1074.59 35.784C1074.05 36.012 1073.47 36.126 1072.85 36.126C1071.56 36.126 1070.55 35.772 1069.81 35.064C1069.07 34.344 1068.71 33.282 1068.71 31.878V26.388H1070.96V31.572C1070.96 32.436 1071.15 33.084 1071.53 33.516C1071.93 33.936 1072.49 34.146 1073.21 34.146C1074.01 34.146 1074.65 33.9 1075.12 33.408C1075.6 32.904 1075.84 32.184 1075.84 31.248V26.388H1078.09ZM1086.36 26.28C1087.3 26.28 1088.13 26.484 1088.86 26.892C1089.61 27.3 1090.19 27.876 1090.61 28.62C1091.03 29.364 1091.24 30.222 1091.24 31.194C1091.24 32.166 1091.03 33.03 1090.61 33.786C1090.19 34.53 1089.61 35.106 1088.86 35.514C1088.13 35.922 1087.3 36.126 1086.36 36.126C1085.06 36.126 1084.04 35.694 1083.28 34.83V39.492H1081.03V26.388H1083.17V27.648C1083.55 27.192 1084 26.85 1084.54 26.622C1085.09 26.394 1085.7 26.28 1086.36 26.28ZM1086.11 34.2C1086.94 34.2 1087.61 33.924 1088.14 33.372C1088.68 32.82 1088.95 32.094 1088.95 31.194C1088.95 30.294 1088.68 29.568 1088.14 29.016C1087.61 28.464 1086.94 28.188 1086.11 28.188C1085.57 28.188 1085.08 28.314 1084.65 28.566C1084.22 28.806 1083.88 29.154 1083.62 29.61C1083.37 30.066 1083.25 30.594 1083.25 31.194C1083.25 31.794 1083.37 32.322 1083.62 32.778C1083.88 33.234 1084.22 33.588 1084.65 33.84C1085.08 34.08 1085.57 34.2 1086.11 34.2ZM1098.7 26.28C1099.64 26.28 1100.47 26.484 1101.2 26.892C1101.95 27.3 1102.53 27.876 1102.95 28.62C1103.37 29.364 1103.58 30.222 1103.58 31.194C1103.58 32.166 1103.37 33.03 1102.95 33.786C1102.53 34.53 1101.95 35.106 1101.2 35.514C1100.47 35.922 1099.64 36.126 1098.7 36.126C1097.4 36.126 1096.38 35.694 1095.62 34.83V39.492H1093.37V26.388H1095.51V27.648C1095.89 27.192 1096.34 26.85 1096.88 26.622C1097.43 26.394 1098.04 26.28 1098.7 26.28ZM1098.45 34.2C1099.28 34.2 1099.95 33.924 1100.48 33.372C1101.02 32.82 1101.29 32.094 1101.29 31.194C1101.29 30.294 1101.02 29.568 1100.48 29.016C1099.95 28.464 1099.28 28.188 1098.45 28.188C1097.91 28.188 1097.42 28.314 1096.99 28.566C1096.56 28.806 1096.22 29.154 1095.96 29.61C1095.71 30.066 1095.59 30.594 1095.59 31.194C1095.59 31.794 1095.71 32.322 1095.96 32.778C1096.22 33.234 1096.56 33.588 1096.99 33.84C1097.42 34.08 1097.91 34.2 1098.45 34.2ZM1110.03 36.126C1109.06 36.126 1108.18 35.916 1107.4 35.496C1106.62 35.076 1106.01 34.494 1105.57 33.75C1105.14 32.994 1104.92 32.142 1104.92 31.194C1104.92 30.246 1105.14 29.4 1105.57 28.656C1106.01 27.912 1106.62 27.33 1107.4 26.91C1108.18 26.49 1109.06 26.28 1110.03 26.28C1111.02 26.28 1111.9 26.49 1112.68 26.91C1113.46 27.33 1114.06 27.912 1114.5 28.656C1114.94 29.4 1115.16 30.246 1115.16 31.194C1115.16 32.142 1114.94 32.994 1114.5 33.75C1114.06 34.494 1113.46 35.076 1112.68 35.496C1111.9 35.916 1111.02 36.126 1110.03 36.126ZM1110.03 34.2C1110.86 34.2 1111.54 33.924 1112.08 33.372C1112.62 32.82 1112.89 32.094 1112.89 31.194C1112.89 30.294 1112.62 29.568 1112.08 29.016C1111.54 28.464 1110.86 28.188 1110.03 28.188C1109.2 28.188 1108.52 28.464 1107.98 29.016C1107.45 29.568 1107.19 30.294 1107.19 31.194C1107.19 32.094 1107.45 32.82 1107.98 33.372C1108.52 33.924 1109.2 34.2 1110.03 34.2ZM1119.46 27.792C1120.1 26.784 1121.24 26.28 1122.88 26.28V28.422C1122.68 28.386 1122.51 28.368 1122.35 28.368C1121.48 28.368 1120.79 28.626 1120.3 29.142C1119.81 29.646 1119.56 30.378 1119.56 31.338V36H1117.31V26.388H1119.46V27.792ZM1130.91 35.478C1130.65 35.694 1130.33 35.856 1129.94 35.964C1129.57 36.072 1129.17 36.126 1128.75 36.126C1127.7 36.126 1126.88 35.85 1126.31 35.298C1125.73 34.746 1125.44 33.942 1125.44 32.886V28.26H1123.86V26.46H1125.44V24.264H1127.69V26.46H1130.27V28.26H1127.69V32.832C1127.69 33.3 1127.81 33.66 1128.03 33.912C1128.26 34.152 1128.59 34.272 1129.02 34.272C1129.53 34.272 1129.95 34.14 1130.28 33.876L1130.91 35.478Z" fill="#3A3A3A"/>
<path d="M1002.68 63H1007.4C1011 63 1013.45 60.728 1013.45 57.4C1013.45 54.072 1011 51.8 1007.4 51.8H1002.68V63ZM1004.28 61.608V53.192H1007.3C1010.07 53.192 1011.85 54.888 1011.85 57.4C1011.85 59.912 1010.07 61.608 1007.3 61.608H1004.28ZM1023.34 58.808C1023.34 56.2 1021.59 54.44 1019.15 54.44C1016.7 54.44 1014.89 56.248 1014.89 58.76C1014.89 61.288 1016.71 63.096 1019.45 63.096C1020.86 63.096 1022.03 62.616 1022.79 61.72L1021.95 60.728C1021.32 61.416 1020.49 61.752 1019.5 61.752C1017.82 61.752 1016.62 60.76 1016.43 59.272H1023.31C1023.32 59.128 1023.34 58.936 1023.34 58.808ZM1019.15 55.736C1020.63 55.736 1021.71 56.744 1021.87 58.168H1016.43C1016.59 56.728 1017.67 55.736 1019.15 55.736ZM1031.94 51.128V55.8C1031.23 54.888 1030.18 54.44 1028.98 54.44C1026.5 54.44 1024.69 56.168 1024.69 58.76C1024.69 61.352 1026.5 63.096 1028.98 63.096C1030.22 63.096 1031.31 62.616 1032 61.656V63H1033.47V51.128H1031.94ZM1029.1 61.752C1027.47 61.752 1026.24 60.568 1026.24 58.76C1026.24 56.952 1027.47 55.784 1029.1 55.784C1030.72 55.784 1031.95 56.952 1031.95 58.76C1031.95 60.568 1030.72 61.752 1029.1 61.752ZM1037.15 52.888C1037.75 52.888 1038.19 52.44 1038.19 51.864C1038.19 51.32 1037.74 50.888 1037.15 50.888C1036.55 50.888 1036.11 51.336 1036.11 51.896C1036.11 52.456 1036.55 52.888 1037.15 52.888ZM1036.38 63H1037.91V54.52H1036.38V63ZM1044.54 63.096C1046.06 63.096 1047.33 62.456 1048 61.272L1046.83 60.536C1046.29 61.368 1045.45 61.752 1044.53 61.752C1042.86 61.752 1041.61 60.6 1041.61 58.76C1041.61 56.952 1042.86 55.784 1044.53 55.784C1045.45 55.784 1046.29 56.168 1046.83 57L1048 56.248C1047.33 55.064 1046.06 54.44 1044.54 54.44C1041.93 54.44 1040.06 56.232 1040.06 58.76C1040.06 61.288 1041.93 63.096 1044.54 63.096ZM1053.08 54.44C1051.72 54.44 1050.45 54.824 1049.57 55.528L1050.21 56.68C1050.87 56.12 1051.89 55.768 1052.9 55.768C1054.42 55.768 1055.17 56.52 1055.17 57.816V58.12H1052.74C1050.21 58.12 1049.33 59.24 1049.33 60.6C1049.33 62.072 1050.55 63.096 1052.47 63.096C1053.8 63.096 1054.74 62.648 1055.25 61.88V63H1056.71V57.88C1056.71 55.56 1055.4 54.44 1053.08 54.44ZM1052.72 61.912C1051.56 61.912 1050.85 61.384 1050.85 60.536C1050.85 59.816 1051.28 59.224 1052.8 59.224H1055.17V60.408C1054.79 61.384 1053.88 61.912 1052.72 61.912ZM1063.84 61.4C1063.52 61.656 1063.09 61.8 1062.64 61.8C1061.79 61.8 1061.31 61.288 1061.31 60.376V55.784H1063.74V54.52H1061.31V52.664H1059.77V54.52H1058.33V55.784H1059.77V60.44C1059.77 62.152 1060.75 63.096 1062.46 63.096C1063.15 63.096 1063.85 62.904 1064.32 62.504L1063.84 61.4ZM1073.56 58.808C1073.56 56.2 1071.81 54.44 1069.37 54.44C1066.92 54.44 1065.11 56.248 1065.11 58.76C1065.11 61.288 1066.93 63.096 1069.67 63.096C1071.08 63.096 1072.25 62.616 1073.01 61.72L1072.17 60.728C1071.54 61.416 1070.71 61.752 1069.72 61.752C1068.04 61.752 1066.84 60.76 1066.65 59.272H1073.53C1073.54 59.128 1073.56 58.936 1073.56 58.808ZM1069.37 55.736C1070.85 55.736 1071.93 56.744 1072.09 58.168H1066.65C1066.81 56.728 1067.89 55.736 1069.37 55.736ZM1082.15 51.128V55.8C1081.45 54.888 1080.39 54.44 1079.19 54.44C1076.71 54.44 1074.91 56.168 1074.91 58.76C1074.91 61.352 1076.71 63.096 1079.19 63.096C1080.44 63.096 1081.53 62.616 1082.22 61.656V63H1083.69V51.128H1082.15ZM1079.32 61.752C1077.69 61.752 1076.46 60.568 1076.46 58.76C1076.46 56.952 1077.69 55.784 1079.32 55.784C1080.94 55.784 1082.17 56.952 1082.17 58.76C1082.17 60.568 1080.94 61.752 1079.32 61.752ZM1093.33 63.096C1095.58 63.096 1096.99 62.12 1096.99 60.584C1096.99 57.288 1091.61 58.92 1091.61 56.92C1091.61 56.248 1092.27 55.752 1093.61 55.752C1094.45 55.752 1095.29 55.928 1096.06 56.424L1096.72 55.208C1095.98 54.728 1094.73 54.44 1093.63 54.44C1091.45 54.44 1090.09 55.464 1090.09 56.984C1090.09 60.36 1095.45 58.712 1095.45 60.616C1095.45 61.336 1094.86 61.768 1093.44 61.768C1092.33 61.768 1091.18 61.4 1090.46 60.888L1089.82 62.104C1090.53 62.664 1091.92 63.096 1093.33 63.096ZM1105.28 54.52V58.904C1105.28 60.728 1104.25 61.72 1102.65 61.72C1101.2 61.72 1100.37 60.888 1100.37 59.224V54.52H1098.83V59.4C1098.83 61.896 1100.29 63.096 1102.48 63.096C1103.68 63.096 1104.73 62.6 1105.36 61.72V63H1106.81V54.52H1105.28ZM1114.23 54.44C1112.99 54.44 1111.9 54.92 1111.21 55.864V54.52H1109.74V66.104H1111.27V61.72C1111.98 62.632 1113.03 63.096 1114.23 63.096C1116.71 63.096 1118.52 61.368 1118.52 58.76C1118.52 56.168 1116.71 54.44 1114.23 54.44ZM1114.11 61.752C1112.49 61.752 1111.26 60.568 1111.26 58.76C1111.26 56.968 1112.49 55.784 1114.11 55.784C1115.74 55.784 1116.97 56.968 1116.97 58.76C1116.97 60.568 1115.74 61.752 1114.11 61.752ZM1125.14 54.44C1123.89 54.44 1122.8 54.92 1122.12 55.864V54.52H1120.64V66.104H1122.18V61.72C1122.88 62.632 1123.94 63.096 1125.14 63.096C1127.62 63.096 1129.43 61.368 1129.43 58.76C1129.43 56.168 1127.62 54.44 1125.14 54.44ZM1125.01 61.752C1123.4 61.752 1122.16 60.568 1122.16 58.76C1122.16 56.968 1123.4 55.784 1125.01 55.784C1126.64 55.784 1127.88 56.968 1127.88 58.76C1127.88 60.568 1126.64 61.752 1125.01 61.752ZM1135.18 63.096C1137.73 63.096 1139.58 61.288 1139.58 58.76C1139.58 56.232 1137.73 54.44 1135.18 54.44C1132.64 54.44 1130.77 56.232 1130.77 58.76C1130.77 61.288 1132.64 63.096 1135.18 63.096ZM1135.18 61.752C1133.55 61.752 1132.32 60.568 1132.32 58.76C1132.32 56.952 1133.55 55.784 1135.18 55.784C1136.81 55.784 1138.03 56.952 1138.03 58.76C1138.03 60.568 1136.81 61.752 1135.18 61.752ZM1143.18 55.944V54.52H1141.71V63H1143.24V58.776C1143.24 56.92 1144.27 55.912 1145.91 55.912C1146.03 55.912 1146.14 55.912 1146.27 55.928V54.44C1144.78 54.44 1143.72 54.952 1143.18 55.944ZM1152.79 61.4C1152.47 61.656 1152.04 61.8 1151.59 61.8C1150.74 61.8 1150.26 61.288 1150.26 60.376V55.784H1152.69V54.52H1150.26V52.664H1148.73V54.52H1147.29V55.784H1148.73V60.44C1148.73 62.152 1149.7 63.096 1151.41 63.096C1152.1 63.096 1152.81 62.904 1153.27 62.504L1152.79 61.4Z" fill="#898989"/>
<defs>
<clipPath id="clip0">
<rect width="40" height="40" fill="white" transform="translate(340 22)"/>
</clipPath>
<clipPath id="clip1">
<rect width="40" height="40" fill="white" transform="translate(649 23)"/>
</clipPath>
<clipPath id="clip2">
<rect width="40" height="40" fill="white" transform="translate(937 22)"/>
</clipPath>
</defs>
</svg>
