<?xml version="1.0" standalone="no"?>
<!DOCTYPE svg PUBLIC "-//W3C//DTD SVG 20010904//EN"
 "http://www.w3.org/TR/2001/REC-SVG-20010904/DTD/svg10.dtd">
<svg version="1.0" xmlns="http://www.w3.org/2000/svg"
 width="1080.000000pt" height="1516.000000pt" viewBox="0 0 1080.000000 1516.000000"
 preserveAspectRatio="xMidYMid meet">

<g transform="translate(0.000000,1516.000000) scale(0.100000,-0.100000)"
fill="#000000" stroke="none">
<path d="M5460 14844 c19 -33 30 -63 27 -75 -4 -13 -1 -19 6 -16 7 2 11 16 10
31 -2 32 -49 116 -64 116 -6 0 4 -25 21 -56z"/>
<path d="M5318 14830 c-22 -50 -24 -61 -12 -71 11 -9 14 -6 14 16 0 15 10 43
21 62 13 20 18 38 13 43 -6 6 -20 -15 -36 -50z"/>
<path d="M5071 14719 c-10 -30 -9 -35 21 -66 43 -45 58 -43 58 8 0 33 -3 40
-15 35 -12 -4 -15 1 -13 22 2 21 -2 28 -18 30 -17 2 -24 -5 -33 -29z"/>
<path d="M5687 14744 c-4 -4 -4 -18 -1 -31 5 -18 3 -22 -10 -17 -13 5 -16 -1
-16 -35 0 -51 15 -53 58 -8 30 31 31 36 21 65 -10 30 -36 42 -52 26z"/>
<path d="M5305 14720 c3 -5 11 -10 16 -10 6 0 7 5 4 10 -3 6 -11 10 -16 10 -6
0 -7 -4 -4 -10z"/>
<path d="M5437 14673 c-4 -3 -7 -11 -7 -17 0 -6 5 -5 12 2 6 6 9 14 7 17 -3 3
-9 2 -12 -2z"/>
<path d="M5260 14560 c-9 -6 -10 -10 -3 -10 6 0 15 5 18 10 8 12 4 12 -15 0z"/>
<path d="M5395 14493 c-3 -32 -15 -73 -25 -90 -24 -40 -17 -42 16 -5 24 27 24
27 40 7 l17 -20 -8 20 c-4 11 -12 47 -16 79 -5 33 -11 61 -13 63 -2 2 -7 -22
-11 -54z"/>
<path d="M5580 14450 c0 -19 7 -33 20 -40 24 -13 24 -10 6 35 -18 43 -26 44
-26 5z"/>
<path d="M5202 14445 c-15 -32 -15 -48 -2 -40 6 4 18 1 27 -7 15 -12 15 -11 5
8 -6 11 -8 30 -5 42 8 30 -11 28 -25 -3z"/>
<path d="M5460 14401 c0 -5 6 -14 14 -20 10 -9 15 -8 19 3 3 8 -1 17 -9 20
-21 8 -24 8 -24 -3z"/>
<path d="M5392 14367 c-15 -42 -16 -94 -1 -103 8 -4 9 0 4 15 -5 17 -2 21 14
21 12 0 21 6 21 14 0 8 9 21 20 29 17 12 18 16 7 26 -8 6 -17 8 -21 4 -3 -4
-12 1 -19 11 -11 15 -14 14 -25 -17z"/>
<path d="M5571 14334 c0 -11 3 -14 6 -6 3 7 2 16 -1 19 -3 4 -6 -2 -5 -13z"/>
<path d="M5170 14301 c-13 -25 -13 -34 0 -26 12 7 42 -13 36 -24 -3 -4 0 -13
5 -21 8 -11 9 -5 5 23 -2 20 -12 44 -20 52 -13 14 -16 13 -26 -4z"/>
<path d="M5613 14302 c-6 -4 -14 -25 -17 -47 -3 -22 -3 -31 0 -20 9 31 24 44
41 38 13 -5 13 -3 4 15 -13 25 -12 24 -28 14z"/>
<path d="M6660 14222 c-45 -30 -79 -74 -96 -125 -14 -42 -15 -58 -5 -104 7
-29 23 -66 37 -82 l24 -29 -26 -17 c-25 -16 -54 -69 -54 -98 0 -9 26 -17 83
-26 45 -7 96 -15 113 -18 27 -4 38 2 82 42 51 47 91 120 74 137 -6 6 -2 24 9
46 46 89 3 233 -81 277 -39 20 -128 19 -160 -3z m172 -87 c9 -36 -1 -112 -17
-125 -20 -17 -27 5 -16 47 6 20 8 55 4 76 -5 31 -3 39 7 35 8 -2 17 -17 22
-33z m-164 -55 c3 -66 -8 -92 -22 -54 -8 21 -8 109 1 117 15 15 19 4 21 -63z
m84 -2 c-9 -9 -12 -4 -11 23 0 32 1 33 11 11 8 -17 8 -26 0 -34z"/>
<path d="M3968 14190 c-76 -41 -122 -154 -97 -240 7 -25 14 -52 14 -60 6 -53
44 -112 102 -156 l35 -26 61 15 c34 9 85 19 113 22 l51 6 -7 37 c-10 52 -19
70 -37 76 -14 6 -14 9 2 26 13 14 19 41 22 92 4 62 1 80 -19 117 -50 97 -156
137 -240 91z m8 -117 c0 -32 4 -68 8 -80 6 -17 5 -23 -7 -23 -8 0 -17 10 -21
23 -8 29 -8 101 0 121 12 32 20 15 20 -41z m159 24 c9 -36 2 -110 -12 -114 -8
-3 -11 17 -11 66 1 70 12 93 23 48z m-78 -59 c-2 -13 -4 -3 -4 22 0 25 2 35 4
23 2 -13 2 -33 0 -45z"/>
<path d="M6960 14050 c-13 -18 -24 -53 -27 -88 -3 -31 -12 -66 -19 -77 -17
-24 -18 -134 -2 -170 6 -14 22 -28 37 -31 14 -3 33 -9 41 -13 18 -9 39 -7 105
12 91 26 145 65 145 106 0 8 9 24 20 36 12 13 25 46 30 81 13 76 13 75 -11
103 -25 31 -38 19 -41 -37 -1 -35 -8 -48 -38 -76 -39 -35 -43 -36 -152 -21
-37 5 -58 12 -58 20 0 7 6 15 13 18 8 2 11 25 9 76 -3 102 -14 114 -52 61z"/>
<path d="M3771 13970 c-2 -69 1 -82 18 -97 30 -25 26 -34 -16 -34 -21 0 -65
-2 -99 -5 -60 -6 -61 -5 -92 31 -21 23 -32 47 -33 68 0 18 -4 41 -8 51 -7 17
-9 17 -29 -9 -20 -25 -22 -36 -16 -89 8 -70 51 -155 92 -185 29 -19 114 -50
161 -57 19 -3 43 4 74 23 37 23 48 36 56 70 11 43 5 130 -10 139 -5 3 -9 20
-9 39 0 40 -16 81 -44 113 -34 39 -43 28 -45 -58z"/>
<path d="M7350 13882 c-52 -27 -58 -35 -102 -122 -37 -71 -48 -104 -48 -139 0
-92 63 -161 146 -161 24 0 44 -3 44 -6 0 -3 -12 -20 -27 -38 -36 -42 -63 -104
-63 -145 0 -79 26 -122 111 -182 l22 -15 -36 -21 c-75 -45 -115 -153 -87 -237
6 -20 27 -53 46 -73 19 -19 34 -37 34 -38 0 -2 -20 -15 -45 -29 -48 -28 -88
-87 -99 -145 -14 -76 46 -178 98 -165 14 3 30 3 37 -1 16 -11 127 -17 111 -7
-8 6 6 14 40 25 51 17 99 60 83 75 -3 4 -11 -1 -16 -11 -11 -18 -39 -24 -39
-7 0 5 -7 7 -15 4 -20 -8 -19 -21 3 -27 10 -3 6 -5 -10 -6 -19 -1 -28 4 -28
14 0 8 -9 15 -19 15 -11 0 -21 5 -23 11 -2 7 -19 13 -37 14 -19 2 -37 9 -42
16 -5 8 -8 45 -7 83 3 56 7 71 23 80 10 6 25 17 33 24 7 6 19 13 25 13 30 4
103 -3 117 -11 13 -7 15 -3 12 25 -4 30 0 36 36 59 109 69 114 262 7 325 -52
30 -55 49 -15 83 19 15 30 28 26 28 -5 0 -2 8 6 18 32 37 32 44 0 28 -21 -11
-38 -13 -54 -7 -13 4 -29 6 -35 4 -7 -3 -13 -1 -13 4 0 5 -8 9 -17 10 -20 1
-72 11 -89 17 -28 10 -21 149 7 167 17 10 42 -10 35 -27 -3 -8 0 -11 9 -8 12
5 12 9 0 28 -17 25 -11 36 17 36 11 0 27 7 35 16 10 10 25 13 39 10 13 -4 24
-2 24 3 0 9 -48 22 -90 23 -25 1 -24 3 20 48 113 116 86 302 -50 340 -55 16
-81 12 -140 -18z m180 -128 c0 -38 -5 -58 -21 -75 l-20 -24 5 40 c3 22 6 65 6
95 1 51 2 53 15 36 9 -12 15 -42 15 -72z m-165 -9 c1 -47 -3 -65 -12 -65 -9 0
-13 17 -13 58 0 55 5 72 19 72 3 0 6 -29 6 -65z m82 -7 c-2 -13 -4 -3 -4 22 0
25 2 35 4 23 2 -13 2 -33 0 -45z m187 -759 c10 -49 7 -73 -10 -98 -26 -36 -34
-12 -22 62 12 73 22 84 32 36z m-171 -74 c4 -8 2 -17 -3 -20 -6 -4 -10 3 -10
14 0 25 6 27 13 6z"/>
<path d="M5310 13878 c-19 -13 -45 -39 -58 -58 -21 -30 -23 -44 -19 -100 5
-73 36 -170 68 -214 l21 -28 -35 -35 c-53 -51 -71 -106 -58 -176 10 -56 37
-118 72 -168 l18 -26 -43 -45 c-79 -83 -75 -194 13 -321 l32 -47 -35 -30 c-70
-62 -83 -156 -34 -257 l25 -52 -30 -7 c-17 -3 -78 -7 -136 -8 -59 -1 -112 -6
-119 -10 -8 -5 -26 -12 -40 -17 -16 -5 -1 -5 38 -1 36 4 234 6 442 6 310 -1
375 2 371 13 -6 15 -13 16 -45 5 -21 -8 -187 1 -215 12 -9 4 -6 18 11 58 48
109 40 184 -26 250 -21 21 -38 40 -38 43 0 2 14 24 30 47 32 46 70 143 70 180
0 49 -23 101 -61 139 l-41 41 27 38 c38 55 74 149 75 193 0 49 -23 104 -61
143 l-31 32 30 63 c97 208 52 348 -116 357 -58 3 -72 0 -102 -20z m24 -175 c4
-9 2 -21 -4 -27 -7 -7 -10 -7 -10 1 0 6 -3 18 -6 27 -3 9 -2 16 4 16 5 0 13
-8 16 -17z m152 -30 c-11 -11 -19 6 -11 24 8 17 8 17 12 0 3 -10 2 -21 -1 -24z
m4 -263 c24 -24 28 -125 6 -155 -12 -17 -17 -18 -41 -7 -24 11 -25 15 -14 29
13 15 12 15 -9 4 -13 -7 -30 -10 -38 -7 -8 3 -14 2 -14 -3 0 -4 -12 -13 -27
-20 -23 -11 -29 -10 -40 5 -16 21 -17 117 -3 145 6 10 20 19 31 19 22 0 22 -8
7 -95 -2 -14 3 -21 20 -23 26 -4 28 3 7 25 -9 8 -13 18 -10 21 3 4 10 0 15 -7
5 -9 8 -2 7 22 -1 22 -5 33 -11 29 -6 -3 -5 2 3 11 7 9 16 15 20 13 4 -3 13
-1 21 5 24 14 49 10 70 -11z m80 -119 c0 -71 -6 -63 -14 19 -5 45 -4 60 4 50
5 -8 10 -39 10 -69z m-323 -3 c-3 -7 -5 -2 -5 12 0 14 2 19 5 13 2 -7 2 -19 0
-25z m299 -90 c-9 -12 -16 -19 -16 -15 0 11 24 47 28 42 2 -2 -3 -14 -12 -27z
m-53 -606 c22 -19 24 -119 3 -148 -14 -18 -16 -18 -48 -2 -55 27 -66 28 -93 6
-38 -30 -55 -11 -55 61 0 66 15 93 56 97 18 2 24 0 16 -5 -18 -11 -28 -116
-13 -125 7 -5 11 1 11 14 0 12 5 18 10 15 6 -4 10 8 10 30 0 22 -4 34 -10 30
-5 -3 -10 0 -10 8 0 9 10 13 29 12 21 -1 31 4 34 17 6 20 29 16 60 -10z"/>
<path d="M5440 13330 c0 -18 4 -29 10 -25 6 3 10 15 10 25 0 10 -4 22 -10 25
-6 4 -10 -7 -10 -25z"/>
<path d="M5443 12525 c0 -27 2 -38 4 -22 2 15 2 37 0 50 -2 12 -4 0 -4 -28z"/>
<path d="M3243 13836 c-47 -41 -67 -89 -65 -158 1 -67 51 -155 102 -184 l25
-13 -35 -1 c-44 0 -68 -14 -49 -26 32 -20 62 -34 76 -34 8 0 11 -4 8 -10 -3
-5 3 -10 14 -10 11 0 25 -9 31 -19 13 -25 13 -112 0 -145 -9 -24 -13 -26 -51
-20 -28 5 -40 4 -36 -3 4 -7 -4 -11 -21 -12 -55 -1 -62 -2 -62 -14 0 -7 -4 -6
-10 3 -5 8 -10 11 -10 7 0 -4 -9 -3 -21 3 -17 9 -20 20 -18 58 2 51 -8 85 -22
76 -11 -6 -12 -87 -2 -98 4 -3 8 -12 9 -19 4 -23 23 -62 23 -49 1 21 21 3 21
-18 0 -11 9 -24 20 -30 33 -17 24 -52 -21 -83 -67 -46 -97 -144 -67 -214 20
-46 58 -91 95 -114 28 -17 33 -26 29 -44 -7 -27 10 -37 37 -23 27 14 127 -10
148 -36 22 -25 25 -109 7 -153 -11 -24 -17 -29 -33 -22 -31 12 -61 11 -48 -2
8 -8 4 -18 -13 -36 -24 -26 -59 -28 -59 -3 0 9 -9 15 -23 15 -12 0 -26 6 -31
14 -6 10 -10 10 -16 1 -7 -12 64 -84 74 -74 2 2 10 -4 18 -14 8 -9 12 -11 8
-4 -8 15 11 16 21 1 8 -14 111 -4 130 12 7 6 23 8 34 4 42 -13 90 55 90 127
-1 69 -37 127 -104 167 l-57 35 32 24 c99 78 88 230 -22 309 -27 19 -49 37
-49 39 0 2 17 12 38 23 56 29 81 62 94 123 10 48 9 62 -7 103 -10 27 -33 65
-51 85 -19 21 -34 40 -34 44 0 3 17 6 38 6 50 0 102 28 129 69 38 56 32 140
-15 232 -50 99 -96 132 -190 137 -65 4 -68 2 -109 -32z m39 -113 c4 -89 1
-104 -19 -78 -20 29 -15 155 7 155 5 0 10 -35 12 -77z m158 -1 c0 -26 -5 -54
-10 -62 -7 -10 -10 5 -10 53 0 43 4 66 10 62 6 -3 10 -27 10 -53z m-268 -787
c-2 -14 1 -38 8 -54 15 -37 3 -63 -17 -36 -20 29 -15 134 7 120 4 -2 5 -16 2
-30z m168 -15 c0 -5 -5 -10 -11 -10 -5 0 -7 5 -4 10 3 6 8 10 11 10 2 0 4 -4
4 -10z m-6 -45 c-4 -8 -10 -15 -15 -15 -4 0 -6 7 -3 15 4 8 10 15 15 15 4 0 6
-7 3 -15z"/>
<path d="M4961 13760 c-11 -25 -21 -50 -21 -57 0 -6 -16 -32 -35 -58 -25 -32
-34 -53 -30 -66 4 -11 11 -17 16 -14 5 4 9 -3 9 -14 0 -23 -16 -28 -23 -8 -2
6 -7 10 -10 7 -3 -3 1 -21 9 -40 12 -27 17 -32 24 -20 5 8 10 25 10 38 0 13
11 51 24 85 38 97 58 166 53 180 -3 6 -14 -8 -26 -33z"/>
<path d="M5837 13710 c8 -42 51 -140 63 -140 6 0 20 23 20 34 0 2 -12 16 -26
32 -14 16 -34 47 -44 69 l-19 40 6 -35z"/>
<path d="M4112 13700 c-225 -59 -398 -229 -458 -450 -14 -49 -18 -101 -18
-215 1 -135 4 -163 33 -279 36 -141 70 -232 154 -406 60 -127 89 -221 70 -227
-7 -3 -9 -11 -6 -20 5 -12 1 -14 -15 -9 -11 4 -23 2 -27 -3 -3 -6 -29 -22 -57
-36 -49 -24 -118 -75 -102 -75 4 0 -1 -10 -12 -22 -12 -14 24 1 106 44 92 48
124 69 122 81 -3 18 14 24 20 6 4 -11 86 17 148 51 l35 19 -36 1 c-19 0 -39
-4 -45 -10 -6 -6 -22 1 -47 21 -20 17 -37 26 -37 20 0 -5 12 -19 26 -30 33
-26 26 -51 -15 -51 -25 0 -32 5 -36 28 -4 15 -11 47 -16 72 -6 25 -39 106 -74
180 -83 178 -123 286 -141 385 -3 22 -9 45 -13 50 -3 6 -4 20 -2 33 1 12 -1
22 -6 22 -12 0 -8 309 5 362 70 281 312 459 627 459 146 1 368 -53 481 -116
50 -28 54 -29 54 -15 0 27 -214 108 -358 136 -105 20 -270 17 -360 -6z"/>
<path d="M6310 13705 c-36 -8 -96 -24 -134 -36 -80 -24 -225 -91 -209 -96 6
-2 37 9 69 26 75 37 236 86 337 102 325 50 633 -120 733 -404 20 -57 36 -162
35 -234 0 -36 4 -65 11 -69 15 -9 3 167 -18 255 -49 211 -191 362 -419 442
-79 28 -307 36 -405 14z"/>
<path d="M5940 13550 c0 -5 5 -10 10 -10 6 0 10 5 10 10 0 6 -4 10 -10 10 -5
0 -10 -4 -10 -10z"/>
<path d="M4876 13438 c-8 -32 -7 -40 3 -34 11 7 21 56 11 56 -4 0 -10 -10 -14
-22z"/>
<path d="M4134 13416 c-51 -13 -104 -33 -119 -44 -34 -27 -33 -27 41 -3 80 26
204 51 255 51 59 0 46 6 -26 13 -43 4 -85 -1 -151 -17z"/>
<path d="M6460 13424 c90 -7 187 -26 278 -55 51 -16 94 -29 97 -29 3 0 5 11 5
25 0 25 -23 35 -35 15 -8 -13 -25 -13 -25 -1 0 5 12 14 28 19 25 9 24 9 -24
16 -27 4 -54 6 -60 5 -5 -1 -11 -1 -14 0 -3 1 -70 3 -150 5 -80 2 -125 2 -100
0z"/>
<path d="M4857 13296 c-4 -42 -9 -95 -12 -118 -4 -33 -3 -37 4 -18 5 14 10 21
11 15 1 -5 3 -17 4 -25 11 -53 13 -221 5 -310 -6 -58 -11 -204 -12 -325 -2
-219 -2 -220 -24 -220 -12 0 -25 -4 -29 -8 -4 -4 19 -7 51 -7 47 0 55 2 46 13
-11 14 -10 140 4 637 6 202 5 222 -18 329 l-24 113 -6 -76z"/>
<path d="M7680 13353 c0 -13 5 -23 10 -23 13 0 13 11 0 30 -8 12 -10 11 -10
-7z"/>
<path d="M7057 13311 c4 -17 2 -20 -11 -15 -9 3 -16 11 -16 17 0 18 -41 -26
-61 -65 -10 -21 -19 -47 -19 -60 0 -37 31 -107 45 -102 7 3 31 -17 54 -44 33
-41 41 -58 42 -93 l1 -44 10 55 c5 30 7 89 4 131 -6 82 -33 218 -47 233 -4 5
-5 -1 -2 -13z"/>
<path d="M7678 13295 c-3 -14 -2 -28 2 -30 4 -3 10 9 12 25 5 36 -8 40 -14 5z"/>
<path d="M3731 13289 c-18 -15 -27 -38 -37 -92 -15 -82 -18 -244 -4 -212 5 11
9 15 9 8 2 -22 25 -4 48 36 13 22 31 42 42 46 19 6 51 75 51 111 0 40 -51 124
-74 124 -6 -1 -22 -10 -35 -21z"/>
<path d="M5927 13300 c-4 -8 -12 -46 -20 -85 -15 -74 -15 -142 -2 -623 5 -201
4 -287 -4 -296 -9 -11 -2 -15 35 -20 52 -7 85 8 63 28 -8 8 -13 8 -16 -1 -3
-7 -12 -13 -20 -13 -13 0 -15 14 -11 90 4 81 10 111 22 99 3 -2 6 -37 7 -77 1
-45 6 -69 11 -64 11 11 3 580 -9 687 l-8 70 -7 -70 c-4 -38 -4 -101 0 -140 4
-38 5 -86 2 -105 l-5 -35 -12 40 c-21 68 -25 169 -13 307 10 125 3 247 -13
208z m49 -637 c-10 -10 -19 5 -10 18 6 11 8 11 12 0 2 -7 1 -15 -2 -18z m4
-48 c0 -14 -4 -25 -8 -25 -4 0 -9 11 -10 25 -1 14 3 25 8 25 6 0 10 -11 10
-25z m-2 -76 c-3 -52 -18 -62 -18 -11 0 34 6 52 17 52 2 0 3 -18 1 -41z"/>
<path d="M5996 13134 c-9 -23 -7 -46 3 -40 12 8 21 45 11 51 -4 3 -11 -2 -14
-11z"/>
<path d="M4770 13133 c0 -4 5 -15 10 -23 8 -13 10 -13 10 2 0 9 -4 20 -10 23
-5 3 -10 3 -10 -2z"/>
<path d="M4833 13052 c-8 -5 -13 -91 -17 -297 -4 -183 -2 -277 4 -255 5 19 11
125 15 235 3 110 7 228 9 263 2 34 3 62 2 62 -1 0 -6 -4 -13 -8z"/>
<path d="M7133 12910 c-20 -134 -23 -146 -42 -206 -32 -98 -67 -183 -120 -295
-57 -121 -86 -199 -96 -258 -6 -35 -10 -41 -31 -41 -13 0 -33 9 -44 20 -11 11
-25 20 -32 20 -6 0 4 14 22 30 40 36 24 41 -18 5 -17 -14 -40 -25 -53 -25 -21
-1 -19 -4 16 -25 22 -14 62 -32 89 -40 27 -8 70 -28 95 -44 39 -25 174 -91
187 -91 13 0 0 24 -27 47 -50 45 -146 92 -182 89 -18 -2 -25 -2 -17 1 10 2 15
18 16 51 1 27 13 74 29 112 50 116 55 130 55 135 -1 3 6 13 15 21 8 9 13 19
10 24 -3 5 0 10 6 12 6 2 13 15 14 30 2 14 10 36 18 49 39 59 113 361 105 424
-2 21 -7 7 -15 -45z"/>
<path d="M7082 12865 c0 -16 2 -22 5 -12 2 9 2 23 0 30 -3 6 -5 -1 -5 -18z"/>
<path d="M7435 12611 c-3 -5 -1 -12 5 -16 5 -3 10 1 10 9 0 18 -6 21 -15 7z"/>
<path d="M7603 12613 c-19 -7 -16 -68 5 -103 24 -38 42 -23 42 35 0 43 -23 77
-47 68z"/>
<path d="M3151 12549 c-21 -62 -8 -105 24 -79 20 17 21 110 1 110 -8 0 -19
-14 -25 -31z"/>
<path d="M7420 12558 c0 -10 7 -18 15 -18 8 0 15 8 15 18 0 10 -7 19 -15 19
-8 0 -15 -9 -15 -19z"/>
<path d="M3340 12560 c0 -5 5 -10 11 -10 5 0 7 5 4 10 -3 6 -8 10 -11 10 -2 0
-4 -4 -4 -10z"/>
<path d="M5165 12125 c-52 -10 -29 -11 175 -8 277 4 270 4 200 13 -84 12 -308
9 -375 -5z"/>
<path d="M5857 12113 c-16 -15 -4 -21 56 -28 182 -19 709 -130 743 -157 6 -4
25 -5 41 -2 18 4 42 0 59 -9 16 -8 34 -13 39 -11 6 2 37 -12 70 -32 33 -19 49
-32 35 -28 -14 3 -29 10 -35 14 -12 10 -92 25 -85 17 12 -13 218 -88 255 -93
22 -3 59 -13 81 -21 l42 -15 6 -71 c7 -76 -4 -181 -28 -257 -13 -43 -100 -180
-114 -180 -3 0 -25 10 -49 21 -24 12 -46 19 -49 16 -8 -7 79 -47 104 -47 12 0
22 6 22 13 0 6 20 41 45 75 48 69 85 169 85 229 0 21 3 69 7 106 4 51 9 67 19
63 36 -14 5 15 -78 73 -104 74 -228 134 -308 150 -60 12 -165 34 -278 57 -53
11 -72 19 -68 29 5 15 -34 26 -184 50 -244 39 -418 54 -433 38z m1158 -298
c39 -17 21 -18 -25 0 -19 7 -28 14 -20 14 8 0 29 -6 45 -14z"/>
<path d="M4630 12094 c-47 -8 -130 -21 -185 -30 -126 -19 -206 -40 -215 -54
-4 -6 -35 -15 -71 -21 -142 -22 -208 -42 -305 -88 -154 -74 -345 -209 -265
-188 17 4 19 -5 25 -109 8 -154 29 -242 74 -325 49 -88 62 -79 16 12 -61 122
-86 276 -68 412 7 50 18 58 109 73 22 3 81 22 130 41 309 121 677 220 985 264
l95 14 -55 7 c-84 10 -177 7 -270 -8z m-550 -174 c-26 -15 -183 -70 -188 -66
-6 7 38 28 113 52 75 24 100 29 75 14z"/>
<path d="M5252 11918 l-123 -90 120 -89 c66 -49 125 -89 131 -89 10 0 205 137
242 169 6 6 -233 192 -244 191 -2 -1 -58 -42 -126 -92z"/>
<path d="M5880 11960 c0 -16 4 -30 9 -30 10 0 22 40 15 52 -11 18 -24 6 -24
-22z"/>
<path d="M4832 11971 c-8 -5 -10 -18 -6 -39 7 -36 34 -44 33 -9 -1 36 -13 57
-27 48z"/>
<path d="M7100 11906 c54 -56 150 -136 164 -136 12 0 27 52 21 71 -4 11 -12
19 -20 19 -7 0 -26 7 -41 15 -16 8 -36 15 -44 15 -8 0 -28 9 -45 21 -16 11
-43 27 -60 36 -24 12 -20 4 25 -41z"/>
<path d="M4678 11943 c7 -3 16 -2 19 1 4 3 -2 6 -13 5 -11 0 -14 -3 -6 -6z"/>
<path d="M3670 11916 c-19 -13 -46 -26 -60 -30 -57 -16 -100 -40 -99 -55 2
-53 12 -51 98 19 88 72 108 90 100 90 -2 0 -20 -11 -39 -24z"/>
<path d="M4555 11930 c-27 -7 -27 -8 -5 -8 14 0 36 4 50 8 20 6 21 8 5 8 -11
0 -33 -4 -50 -8z"/>
<path d="M3560 11919 c0 -5 5 -7 10 -4 6 3 10 8 10 11 0 2 -4 4 -10 4 -5 0
-10 -5 -10 -11z"/>
<path d="M6278 11923 c7 -3 16 -2 19 1 4 3 -2 6 -13 5 -11 0 -14 -3 -6 -6z"/>
<path d="M4430 11910 c-16 -6 -6 -7 30 -3 30 3 57 7 59 9 8 7 -64 2 -89 -6z"/>
<path d="M6328 11913 c6 -2 18 -2 25 0 6 3 1 5 -13 5 -14 0 -19 -2 -12 -5z"/>
<path d="M6389 11901 c11 -7 10 -28 -6 -127 -17 -107 -20 -119 -38 -117 -11 1
-45 4 -75 7 -30 3 -82 10 -115 16 -181 33 -281 46 -291 39 -6 -5 -14 -6 -17
-2 -4 3 -7 0 -7 -8 0 -8 -3 -23 -6 -35 -5 -19 2 -22 98 -38 57 -10 177 -33
268 -51 91 -19 168 -30 173 -26 8 8 57 289 57 329 0 17 -6 22 -27 22 -20 0
-24 -3 -14 -9z"/>
<path d="M6715 11903 c11 -3 24 -9 30 -14 5 -5 13 -9 19 -9 5 0 1 7 -10 15
-10 8 -28 14 -39 14 l-20 -1 20 -5z"/>
<path d="M4304 11892 c-7 -5 -2 -58 17 -174 29 -174 32 -188 52 -188 7 0 128
23 270 51 l257 52 0 28 c0 55 -41 56 -330 3 -47 -9 -111 -18 -142 -21 l-57 -5
-5 34 c-7 43 -26 187 -26 198 0 5 15 14 33 19 32 9 32 9 -13 10 -25 0 -50 -3
-56 -7z"/>
<path d="M3771 11659 c-97 -138 -97 -141 -42 -155 12 -4 70 -26 127 -50 l104
-43 47 67 c26 37 70 95 96 130 27 35 48 65 46 67 -3 3 -69 29 -275 112 -6 2
-52 -55 -103 -128z"/>
<path d="M6785 11736 c-71 -29 -131 -58 -133 -65 -2 -6 18 -39 46 -74 27 -34
68 -90 91 -124 l41 -63 58 26 c113 50 172 74 184 74 7 0 19 4 27 9 12 7 6 21
-30 69 -24 34 -66 92 -92 131 -26 39 -51 71 -55 70 -4 0 -65 -24 -137 -53z
m209 -161 c19 -15 19 -15 -3 -15 -14 0 -20 4 -15 11 4 8 -1 9 -17 4 -19 -5
-21 -4 -9 4 19 14 21 13 44 -4z"/>
<path d="M5852 11755 c0 -16 2 -22 5 -12 2 9 2 23 0 30 -3 6 -5 -1 -5 -18z"/>
<path d="M5205 11550 c-447 -20 -607 -37 -895 -95 -243 -48 -260 -54 -315
-102 -38 -33 -43 -41 -24 -36 13 4 38 15 56 25 46 27 296 97 345 97 24 0 96 9
161 20 65 11 164 25 220 32 56 6 133 18 171 26 49 10 141 14 320 14 138 0 296
4 351 8 l100 8 -131 1 c-72 1 -144 4 -160 6 -16 2 -105 0 -199 -4z"/>
<path d="M5765 11530 c28 -5 106 -16 175 -24 69 -8 181 -22 250 -32 69 -10
139 -17 155 -17 45 1 196 -28 225 -42 14 -7 54 -20 89 -29 34 -9 75 -24 90
-35 25 -17 91 -44 91 -37 0 15 -108 68 -164 80 -37 9 -76 21 -85 27 -14 8 -13
9 4 5 92 -23 116 -28 121 -23 12 12 -332 77 -571 108 -157 20 -475 36 -380 19z"/>
<path d="M4965 11429 c-187 -18 -374 -40 -495 -60 -132 -22 -424 -88 -417 -95
2 -2 77 12 165 31 200 44 370 72 504 85 217 21 326 29 421 32 54 1 100 6 103
10 6 10 -161 8 -281 -3z"/>
<path d="M5630 11431 c0 -7 37 -11 112 -11 61 0 109 2 107 4 -2 2 -52 7 -111
11 -76 5 -108 4 -108 -4z"/>
<path d="M5270 11411 c0 -24 32 -33 98 -28 37 3 103 2 147 -1 74 -6 80 -9 78
-28 -3 -29 124 -165 232 -249 45 -36 133 -96 194 -134 110 -68 142 -78 155
-45 4 11 11 11 32 4 53 -21 31 -4 -54 40 -47 25 -105 59 -128 76 -23 18 -52
37 -64 44 -100 54 -330 262 -351 318 -4 11 -8 12 -13 4 -7 -12 -306 -12 -306
1 0 4 -4 7 -10 7 -5 0 -10 -4 -10 -9z m435 -161 c27 -27 47 -50 44 -50 -3 0
-27 23 -54 50 -27 28 -47 50 -44 50 3 0 27 -22 54 -50z m451 -315 c-8 -21 -25
-11 -21 13 2 9 4 19 4 22 1 2 6 -1 12 -7 7 -7 9 -19 5 -28z"/>
<path d="M5903 11413 c15 -2 37 -2 50 0 12 2 0 4 -28 4 -27 0 -38 -2 -22 -4z"/>
<path d="M3775 11239 c-19 -12 -24 -19 -14 -19 9 0 27 9 40 20 30 25 13 25
-26 -1z"/>
<path d="M3870 11240 c-13 -8 -12 -10 3 -10 9 0 17 5 17 10 0 12 -1 12 -20 0z"/>
<path d="M6257 10909 c7 -7 15 -10 18 -7 3 3 -2 9 -12 12 -14 6 -15 5 -6 -5z"/>
<path d="M6165 10890 c3 -5 8 -10 11 -10 2 0 4 5 4 10 0 6 -5 10 -11 10 -5 0
-7 -4 -4 -10z"/>
<path d="M6355 10866 c162 -74 536 -168 655 -165 19 1 -17 9 -80 20 -186 29
-411 89 -558 148 -70 28 -80 26 -17 -3z"/>
<path d="M4370 10819 c-30 -11 -107 -33 -170 -49 -105 -26 -179 -39 -475 -82
l-90 -13 59 -3 c64 -3 301 34 466 74 125 30 322 97 274 93 -5 0 -34 -9 -64
-20z"/>
<path d="M8716 10755 c-56 -20 -88 -46 -109 -87 -16 -32 -16 -39 -2 -78 17
-47 211 -330 227 -330 18 0 72 43 178 145 76 72 113 100 133 101 14 1 39 11
54 22 24 18 28 27 28 71 0 37 -4 51 -14 51 -24 0 -101 -50 -101 -65 0 -13
-186 -201 -215 -218 -10 -5 -36 24 -90 99 -130 182 -143 228 -71 252 46 15 68
31 60 43 -7 12 -32 11 -78 -6z"/>
<path d="M1733 10668 c20 -37 43 -54 156 -120 73 -42 157 -95 189 -117 31 -22
58 -38 60 -36 11 11 -24 69 -59 99 -44 37 -340 216 -358 216 -7 0 -3 -16 12
-42z"/>
<path d="M7063 10693 c9 -2 23 -2 30 0 6 3 -1 5 -18 5 -16 0 -22 -2 -12 -5z"/>
<path d="M4005 10678 c-218 -20 -506 -60 -560 -77 -59 -18 1 -11 123 15 20 4
23 1 22 -18 -3 -38 -1 -42 33 -65 29 -20 38 -21 97 -13 36 6 117 17 180 26 63
8 129 22 145 30 37 19 135 22 765 29 261 2 477 5 480 6 3 0 21 0 41 -1 22 -1
41 5 48 14 8 9 19 16 25 16 6 0 4 -5 -4 -10 -11 -7 -6 -10 21 -10 25 0 36 4
36 15 0 10 -6 13 -19 9 -22 -7 -24 11 -2 20 10 4 26 -3 42 -19 27 -27 28 -27
56 -16 18 7 16 9 -12 19 -42 14 -42 24 1 10 17 -5 40 -12 50 -15 13 -4 16 -1
11 11 -5 14 1 16 42 15 27 -1 57 -8 66 -16 15 -13 16 -13 11 6 l-5 21 -812 2
c-446 2 -842 0 -881 -4z m1372 -16 c9 -6 7 -11 -7 -20 -11 -7 -20 -8 -20 -3 0
4 -10 7 -22 7 -31 -3 -43 5 -27 15 17 11 60 11 76 1z m-300 -8 c-3 -3 -12 -4
-19 -1 -8 3 -5 6 6 6 11 1 17 -2 13 -5z m208 -13 c3 -5 1 -12 -5 -16 -5 -3
-10 1 -10 9 0 18 6 21 15 7z"/>
<path d="M5713 10674 c7 -7 117 -7 125 1 3 3 -25 5 -63 5 -38 0 -66 -3 -62 -6z"/>
<path d="M5863 10674 c7 -8 128 -6 135 1 3 3 -28 5 -68 5 -40 0 -70 -3 -67 -6z"/>
<path d="M6023 10673 c9 -2 23 -2 30 0 6 3 -1 5 -18 5 -16 0 -22 -2 -12 -5z"/>
<path d="M6098 10673 c7 -3 16 -2 19 1 4 3 -2 6 -13 5 -11 0 -14 -3 -6 -6z"/>
<path d="M6173 10673 c9 -2 23 -2 30 0 6 3 -1 5 -18 5 -16 0 -22 -2 -12 -5z"/>
<path d="M6238 10673 c12 -2 32 -2 45 0 12 2 2 4 -23 4 -25 0 -35 -2 -22 -4z"/>
<path d="M8771 10666 c-10 -11 -7 -25 10 -65 43 -101 116 -129 184 -70 38 34
43 50 20 69 -25 21 -17 33 10 16 23 -15 28 -15 54 -1 61 31 50 50 -35 61 -39
4 -61 2 -88 -11 -51 -24 -61 -46 -35 -79 11 -14 16 -26 10 -26 -14 0 -69 58
-87 91 -16 32 -26 36 -43 15z"/>
<path d="M3588 10663 c6 -2 18 -2 25 0 6 3 1 5 -13 5 -14 0 -19 -2 -12 -5z"/>
<path d="M3538 10653 c7 -3 16 -2 19 1 4 3 -2 6 -13 5 -11 0 -14 -3 -6 -6z"/>
<path d="M3468 10643 c7 -3 16 -2 19 1 4 3 -2 6 -13 5 -11 0 -14 -3 -6 -6z"/>
<path d="M7020 10640 c-8 -5 -54 -14 -103 -20 -142 -19 -123 -41 52 -60 57 -6
107 -8 111 -3 5 4 11 27 14 51 5 42 5 42 -27 41 -18 0 -39 -4 -47 -9z"/>
<path d="M3428 10633 c7 -3 16 -2 19 1 4 3 -2 6 -13 5 -11 0 -14 -3 -6 -6z"/>
<path d="M5590 10619 c0 -5 5 -7 10 -4 6 3 10 8 10 11 0 2 -4 4 -10 4 -5 0
-10 -5 -10 -11z"/>
<path d="M1645 10594 c-10 -8 -29 -14 -42 -14 -13 0 -23 -4 -23 -8 0 -16 88
-94 99 -88 13 8 281 -134 281 -149 -1 -5 -16 -27 -34 -49 -29 -34 -36 -37 -54
-27 -12 6 -48 14 -81 17 -59 7 -60 6 -67 -20 -4 -15 -3 -51 2 -79 13 -89 11
-155 -8 -173 -15 -15 -24 -13 -131 44 -82 43 -130 75 -166 113 -49 51 -50 52
-75 35 -14 -9 -34 -16 -46 -16 -29 0 -25 -14 16 -60 23 -25 45 -40 60 -40 19
0 274 -119 293 -136 2 -2 -13 -24 -33 -49 l-37 -45 -92 0 c-57 0 -124 -8 -175
-20 -46 -11 -88 -20 -93 -20 -12 0 -3 34 33 128 l29 76 -28 22 c-15 13 -33 23
-39 24 -13 0 -64 -171 -64 -213 0 -38 23 -88 53 -116 23 -21 33 -23 78 -18 28
4 56 13 63 21 11 14 163 53 172 44 2 -3 -43 -65 -102 -139 -121 -152 -138
-185 -131 -247 5 -46 38 -92 67 -92 9 0 36 20 60 45 24 24 47 42 52 39 22 -14
-84 -155 -145 -192 -83 -50 -134 -34 -177 57 -25 53 -53 68 -63 31 -8 -30 46
-133 89 -168 70 -58 137 -52 217 18 48 42 57 42 57 -2 0 -32 -2 -31 39 -17 22
8 31 17 31 33 0 15 9 25 28 32 25 10 28 15 24 43 -4 31 -6 32 -38 26 -19 -3
-34 -4 -34 -3 0 2 9 21 20 43 29 57 26 98 -11 139 -47 54 -64 55 -115 5 -24
-24 -44 -38 -44 -32 0 6 46 60 103 120 119 126 143 155 264 324 109 151 113
159 113 201 0 29 5 36 43 54 31 15 63 47 119 119 42 55 77 103 77 106 2 12
-117 88 -214 137 -70 36 -110 63 -133 91 -43 53 -62 63 -87 45z m198 -391 c8
-7 -23 -32 -40 -33 -7 0 -13 9 -13 20 0 14 7 20 23 20 13 0 27 -3 30 -7z
m-333 -997 c0 -17 -7 -25 -25 -28 -31 -6 -31 -1 -3 29 27 29 28 29 28 -1z"/>
<path d="M3368 10583 c6 -2 18 -2 25 0 6 3 1 5 -13 5 -14 0 -19 -2 -12 -5z"/>
<path d="M3777 10493 c-3 -4 -34 -107 -69 -229 l-65 -220 486 -815 c267 -448
589 -987 715 -1199 126 -212 241 -403 254 -425 l25 -40 18 60 c9 33 37 123 61
200 l44 141 -17 64 c-9 36 -69 272 -133 525 -65 253 -175 687 -246 965 -244
958 -242 951 -230 965 9 11 -64 13 -414 14 -233 1 -426 -2 -429 -6z"/>
<path d="M4736 10492 c-2 -1 28 -125 66 -275 38 -150 111 -438 163 -642 51
-203 151 -595 220 -870 70 -275 128 -502 130 -504 4 -4 75 220 75 237 0 7 4
12 8 12 4 0 23 -47 42 -105 21 -63 37 -100 41 -92 4 7 30 121 58 252 28 132
91 429 141 660 50 231 122 566 160 745 38 179 80 376 94 439 15 63 26 120 26
127 0 11 -110 14 -611 16 -336 2 -612 2 -613 0z"/>
<path d="M6495 10490 l-399 -5 -43 -195 c-23 -107 -62 -292 -87 -410 -25 -118
-65 -307 -90 -420 -24 -113 -77 -358 -116 -545 -40 -187 -101 -471 -136 -631
l-63 -291 74 -223 c41 -123 76 -225 79 -227 4 -5 28 36 211 377 305 564 633
1170 687 1270 20 36 136 249 258 474 l221 409 -72 209 c-43 126 -77 208 -84
208 -8 0 -19 1 -27 3 -7 1 -193 0 -413 -3z"/>
<path d="M7910 10479 c-13 -6 -26 -11 -27 -13 -4 -4 44 -142 57 -163 9 -15 10
-14 4 7 -39 139 -39 143 -16 136 28 -8 102 -17 102 -12 0 4 -90 57 -94 55 0 0
-12 -5 -26 -10z"/>
<path d="M2800 10403 c-54 -32 -180 -123 -180 -129 0 -6 25 9 84 51 26 19 57
35 68 35 10 0 31 6 46 14 52 26 72 29 73 9 0 -14 2 -12 10 6 11 28 12 27 -26
35 -22 5 -41 -1 -75 -21z"/>
<path d="M8120 10361 c0 -14 18 -23 31 -15 8 4 7 9 -2 15 -18 11 -29 11 -29 0z"/>
<path d="M2861 10283 c-1 -6 -4 -20 -7 -30 -5 -17 -5 -17 6 0 6 10 9 23 6 30
-3 9 -5 9 -5 0z"/>
<path d="M7836 10145 c-171 -70 -248 -273 -166 -434 87 -171 297 -231 459
-131 l34 21 -28 29 c-25 26 -29 27 -53 14 -15 -8 -32 -14 -38 -14 -7 0 -19
-11 -28 -25 -10 -15 -30 -27 -52 -31 -30 -6 -49 0 -120 36 -52 26 -93 55 -109
76 l-26 34 24 0 c13 0 36 -13 53 -31 35 -38 103 -69 150 -69 50 0 41 13 -24
33 -100 32 -140 82 -153 192 -10 79 0 123 39 171 9 11 0 2 -21 -19 -20 -22
-40 -51 -43 -63 -4 -15 -14 -24 -26 -24 -18 0 -19 -6 -16 -70 4 -80 -10 -79
-21 3 -9 70 10 150 47 196 41 51 93 89 127 94 43 7 115 27 115 32 0 13 -72 2
-124 -20z"/>
<path d="M8734 10159 c-9 -16 15 -110 40 -156 44 -78 199 -128 277 -88 116 60
199 145 199 205 0 18 -4 20 -22 14 -71 -22 -79 -29 -97 -86 -17 -50 -44 -68
-107 -68 -106 0 -187 48 -229 135 -24 53 -46 68 -61 44z"/>
<path d="M3010 10130 c0 -5 6 -10 14 -10 25 0 125 -120 137 -164 14 -52 5
-140 -19 -197 -25 -57 -95 -121 -175 -159 -35 -16 -69 -30 -75 -30 -7 0 -12
-4 -12 -10 0 -17 -64 -11 -97 10 -18 11 -33 26 -33 34 0 23 -29 35 -56 22 -33
-15 -26 -26 36 -60 43 -23 70 -30 130 -34 133 -7 241 53 306 170 26 48 29 62
29 148 0 107 -15 147 -82 221 -46 50 -103 83 -103 59z"/>
<path d="M7895 10085 c-29 -13 -29 -13 -5 -14 28 -1 57 14 44 22 -5 3 -22 -1
-39 -8z"/>
<path d="M7955 10090 c3 -5 8 -10 11 -10 2 0 4 5 4 10 0 6 -5 10 -11 10 -5 0
-7 -4 -4 -10z"/>
<path d="M3040 10001 c29 -36 34 -50 38 -114 3 -57 0 -82 -13 -110 -26 -55
-75 -102 -128 -122 -47 -18 -54 -35 -14 -35 29 0 120 53 143 83 19 23 25 27
43 27 12 0 30 48 32 85 3 68 -1 95 -15 95 -8 0 -27 22 -42 50 -15 27 -38 57
-52 66 -22 14 -21 11 8 -25z"/>
<path d="M9417 9983 l-47 -26 6 -48 c6 -45 4 -49 -32 -89 l-39 -41 -52 73
c-39 54 -51 78 -47 95 8 29 2 29 -52 -3 -52 -31 -64 -62 -39 -102 42 -64 156
-210 193 -246 l41 -39 37 22 c20 12 93 70 162 129 69 59 132 106 140 104 8 -2
27 2 43 8 28 12 35 26 30 60 -1 8 -2 30 -2 48 0 17 -3 32 -7 32 -23 -1 -98
-49 -100 -66 -4 -18 -224 -223 -248 -231 -6 -2 -25 17 -43 42 l-32 45 54 53
c30 29 62 67 71 85 19 37 33 122 20 122 -5 0 -30 -12 -57 -27z"/>
<path d="M7107 9838 c-195 -354 -387 -703 -520 -943 -88 -159 -210 -382 -272
-495 -139 -254 -195 -356 -350 -635 -67 -121 -140 -254 -162 -295 l-41 -75 55
-167 c31 -93 58 -168 62 -168 4 0 59 75 124 168 65 92 175 248 245 347 70 99
294 414 497 700 203 286 432 608 508 715 l140 195 -118 350 c-65 193 -121 354
-126 358 -4 5 -23 -20 -42 -55z"/>
<path d="M3487 9516 c-59 -200 -107 -369 -107 -375 0 -10 109 -153 833 -1086
192 -247 440 -568 550 -711 111 -144 204 -260 206 -258 3 2 26 73 52 157 l48
152 -53 90 c-29 50 -104 178 -168 285 -63 107 -277 470 -475 805 -198 336
-440 745 -538 910 -98 165 -186 316 -197 335 -42 75 -37 85 -151 -304z"/>
<path d="M9835 9795 c-5 -2 -22 -6 -36 -9 -14 -3 -84 -55 -155 -116 -71 -61
-155 -127 -187 -147 -32 -20 -54 -40 -49 -45 19 -19 117 13 193 62 181 120
338 290 234 255z"/>
<path d="M2610 9376 c0 -20 6 -24 48 -30 61 -8 100 -29 140 -78 33 -41 41 -43
21 -6 -6 11 -7 18 -2 15 5 -3 20 -27 33 -54 54 -107 32 -257 -51 -343 -38 -39
-107 -79 -137 -80 -23 0 -2 19 42 38 45 20 92 61 121 106 23 35 43 123 39 171
-3 40 -14 58 -21 38 -5 -14 -33 -18 -33 -5 0 13 -41 74 -46 69 -3 -3 1 -16 10
-29 21 -33 29 -110 16 -159 -24 -87 -123 -158 -224 -160 -37 -1 -38 -2 -14 -9
31 -9 106 3 145 24 16 8 41 28 57 45 34 35 46 39 46 13 0 -24 -43 -64 -100
-94 -58 -30 -184 -34 -204 -5 -18 23 -38 22 -54 -4 -28 -44 55 -76 176 -67 71
5 135 35 191 90 158 157 115 420 -84 514 -51 24 -96 34 -65 14 19 -13 8 -13
-24 0 -23 8 -26 7 -26 -14z"/>
<path d="M8113 9379 c-153 -76 -223 -268 -151 -421 50 -107 152 -179 266 -186
70 -5 142 10 172 35 18 16 18 18 3 35 -20 22 -62 23 -77 2 -7 -8 -32 -18 -56
-21 -25 -4 -50 -12 -57 -19 -24 -23 -126 21 -180 78 -52 54 -73 111 -73 203 0
64 5 90 25 133 16 35 29 51 36 46 8 -5 9 -3 4 6 -6 10 -4 12 8 7 9 -3 20 0 24
7 14 24 81 57 120 60 41 3 43 5 43 36 0 27 -51 27 -107 -1z"/>
<path d="M9981 9374 c0 -11 3 -14 6 -6 3 7 2 16 -1 19 -3 4 -6 -2 -5 -13z"/>
<path d="M9975 9280 c-4 -41 -15 -102 -25 -135 -48 -160 -61 -217 -50 -230 8
-9 10 -65 8 -163 -2 -83 -1 -149 2 -147 3 2 4 -14 2 -36 -3 -22 0 -39 6 -39
17 0 28 72 37 250 3 69 13 220 21 337 16 205 15 315 -1 163z"/>
<path d="M901 9300 c0 -19 6 -93 13 -165 8 -71 18 -211 22 -310 4 -99 12 -198
19 -220 l12 -40 1 50 c3 109 12 292 16 323 3 19 -10 86 -29 160 -19 70 -38
152 -43 182 -8 45 -10 48 -11 20z"/>
<path d="M8037 9175 c-18 -38 -34 -45 -44 -17 -6 14 -8 13 -14 -8 -18 -65 4
-171 44 -213 12 -12 19 -18 15 -13 -25 33 7 34 41 2 42 -39 102 -66 146 -65
39 1 38 2 -14 11 -46 9 -62 18 -106 62 -72 72 -88 145 -53 239 16 41 4 42 -15
2z"/>
<path d="M8051 9094 c0 -11 3 -14 6 -6 3 7 2 16 -1 19 -3 4 -6 -2 -5 -13z"/>
<path d="M7250 8778 c-380 -521 -674 -925 -710 -973 -336 -455 -578 -790 -575
-795 2 -4 111 -6 242 -6 l239 1 324 345 c272 289 582 619 862 915 l57 61 -60
174 c-154 450 -182 530 -188 530 -4 0 -89 -114 -191 -252z"/>
<path d="M3330 8986 c0 -2 -47 -163 -105 -357 l-105 -354 93 -95 c121 -124
432 -442 743 -760 137 -140 279 -285 314 -322 l65 -67 253 -3 c196 -3 251 -1
248 8 -3 7 -163 219 -357 471 -194 252 -421 547 -503 655 -320 418 -638 828
-642 828 -2 0 -4 -2 -4 -4z"/>
<path d="M8137 8839 c7 -7 15 -10 18 -7 3 3 -2 9 -12 12 -14 6 -15 5 -6 -5z"/>
<path d="M8364 8591 c-49 -35 -77 -68 -106 -123 -19 -36 -23 -58 -23 -138 0
-84 3 -101 27 -145 49 -92 133 -154 236 -173 66 -12 144 3 181 34 2 1 -7 17
-19 33 -20 30 -24 31 -94 31 -117 0 -180 38 -210 127 -23 68 -20 135 8 191 27
54 47 73 94 92 30 12 44 30 22 30 -38 0 -142 -106 -151 -155 -3 -11 -12 -21
-22 -23 -38 -8 -6 99 46 149 34 33 80 59 103 59 22 0 40 25 25 34 -5 3 -35 -8
-67 -24 l-59 -29 35 29 c44 38 25 39 -26 1z m22 -432 c38 -42 95 -63 174 -65
100 -2 106 -24 13 -54 -23 -7 -58 -10 -78 -7 -69 11 -161 71 -187 122 -6 12 4
6 26 -14 19 -19 38 -32 41 -29 3 2 -4 13 -15 23 -11 10 -20 24 -20 32 0 20 24
16 46 -8z"/>
<path d="M2460 8587 c8 -7 21 -20 29 -30 12 -16 12 -17 -5 -10 -13 5 -9 -5 15
-34 31 -39 65 -125 54 -137 -16 -15 -34 -2 -61 47 -40 70 -122 143 -122 108 0
-5 16 -18 36 -30 53 -32 88 -114 82 -195 -11 -130 -82 -196 -212 -196 -29 0
-45 -4 -41 -10 19 -31 156 5 211 55 44 40 54 43 54 14 0 -15 5 -19 15 -15 10
4 7 -6 -9 -27 -14 -19 -53 -48 -87 -65 -54 -28 -72 -32 -143 -32 -60 -1 -76
-3 -63 -11 20 -12 101 -14 149 -4 207 45 313 296 201 477 -28 46 -89 108 -106
108 -8 -1 -7 -5 3 -13z"/>
<path d="M5367 8189 c-20 -64 -37 -120 -37 -125 0 -5 -18 -65 -40 -133 -23
-68 -39 -126 -36 -128 5 -5 86 244 86 266 0 7 12 25 28 39 16 16 20 23 10 19
-12 -4 -18 -2 -18 9 0 11 6 13 22 8 20 -6 21 -5 9 10 -12 14 -12 16 3 10 9 -3
16 -12 16 -20 0 -7 11 -21 25 -30 14 -9 24 -22 22 -28 -3 -6 1 -18 7 -26 7 -8
40 -103 75 -210 35 -107 68 -203 72 -212 5 -10 9 -27 9 -38 0 -11 5 -20 11
-20 6 0 8 9 3 23 -4 12 -57 175 -119 362 l-112 340 -36 -116z"/>
<path d="M1490 8256 c0 -15 129 -177 239 -300 64 -71 129 -144 144 -162 16
-19 36 -34 45 -34 9 0 35 -19 57 -43 22 -24 48 -46 58 -50 10 -4 15 -11 12
-17 -3 -6 1 -7 9 -4 9 3 16 1 16 -4 0 -6 9 -14 21 -17 11 -4 55 -41 97 -83 98
-99 75 -71 -79 102 -151 168 -170 193 -146 183 18 -7 24 7 7 18 -5 3 -7 11 -4
18 2 7 -11 57 -30 112 -19 55 -35 94 -35 87 -1 -7 13 -54 29 -104 17 -50 28
-93 26 -95 -8 -9 -70 38 -139 103 -40 38 -94 87 -122 109 -55 44 -66 54 -149
134 -31 30 -56 51 -56 47z"/>
<path d="M9340 8199 c-19 -17 -55 -50 -80 -73 -25 -22 -63 -54 -85 -71 -22
-16 -69 -57 -105 -90 -36 -34 -89 -78 -117 -99 -57 -41 -65 -51 -31 -40 26 8
17 -4 -176 -218 -128 -141 -129 -142 -38 -55 50 48 96 87 102 87 6 0 33 22 60
49 28 27 50 47 50 44 0 -3 16 10 35 30 19 20 35 33 35 30 0 -3 9 5 21 18 11
13 18 18 14 12 -3 -7 -4 -13 -2 -13 8 0 253 275 298 335 72 95 75 104 19 54z"/>
<path d="M7499 7943 c-129 -136 -279 -295 -334 -353 -56 -58 -143 -150 -195
-205 -52 -55 -155 -162 -227 -238 -73 -76 -133 -140 -133 -143 0 -2 122 -4
271 -4 246 0 273 2 297 18 26 18 97 58 577 327 116 64 213 120 218 124 6 6
-74 251 -212 644 l-27 78 -235 -248z"/>
<path d="M2480 8135 c-8 -9 -8 -15 -2 -15 12 0 26 19 19 26 -2 2 -10 -2 -17
-11z"/>
<path d="M3075 8118 c-2 -7 -45 -150 -94 -318 -50 -168 -97 -327 -105 -353
l-14 -48 51 -33 c29 -18 135 -86 236 -151 102 -64 215 -137 253 -162 38 -25
71 -43 74 -40 3 3 -4 10 -15 17 -12 6 -21 14 -21 18 0 4 102 4 227 1 286 -8
631 -8 542 0 l-65 6 -225 230 c-661 677 -822 840 -830 843 -5 2 -11 -2 -14
-10z"/>
<path d="M8970 8028 c0 -8 -11 -37 -25 -64 -14 -27 -25 -62 -25 -79 0 -21 10
-3 31 58 17 49 28 91 25 95 -3 3 -6 -1 -6 -10z"/>
<path d="M8770 7840 c0 -19 30 -83 36 -78 8 8 -17 88 -28 88 -4 0 -8 -5 -8
-10z"/>
<path d="M5225 7730 c-10 -33 -16 -62 -13 -65 2 -3 12 23 22 56 22 80 15 87
-9 9z"/>
<path d="M2075 7760 c-3 -5 -1 -10 4 -10 6 0 11 5 11 10 0 6 -2 10 -4 10 -3 0
-8 -4 -11 -10z"/>
<path d="M5186 7602 c-4 -19 -30 -101 -56 -184 -38 -118 -47 -156 -39 -175 5
-14 7 -29 3 -34 -3 -5 -1 -9 4 -9 17 0 22 42 7 56 -11 11 -11 21 -3 44 5 17
14 27 19 24 5 -3 6 2 3 10 -3 9 13 72 36 141 23 69 40 133 38 143 -3 11 -7 5
-12 -16z"/>
<path d="M5366 7583 c-6 -14 -5 -15 5 -6 7 7 10 15 7 18 -3 3 -9 -2 -12 -12z"/>
<path d="M5687 7408 c70 -203 103 -319 96 -332 -3 -5 -1 -6 5 -2 8 5 12 -3 12
-23 l0 -30 -92 -4 -93 -3 108 -2 c83 -2 108 1 104 11 -3 6 -44 132 -93 280
-48 147 -91 267 -96 267 -4 0 18 -73 49 -162z"/>
<path d="M5351 7524 c0 -11 3 -14 6 -6 3 7 2 16 -1 19 -3 4 -6 -2 -5 -13z"/>
<path d="M5334 7245 l-71 -235 148 0 c82 0 149 3 149 6 0 9 -151 464 -153 464
-2 0 -34 -106 -73 -235z"/>
<path d="M5321 7424 c0 -11 3 -14 6 -6 3 7 2 16 -1 19 -3 4 -6 -2 -5 -13z"/>
<path d="M2306 7385 c35 -87 76 -166 129 -251 30 -48 55 -94 55 -102 0 -7 16
-42 35 -77 36 -65 106 -279 127 -391 10 -52 14 -59 24 -46 18 24 27 9 32 -53
4 -47 2 -55 -13 -55 -15 0 -16 -11 -10 -117 8 -141 -8 -390 -35 -540 -47 -261
-174 -580 -313 -788 -23 -33 -83 -118 -136 -190 -133 -182 -211 -306 -259
-409 -23 -49 -42 -90 -42 -92 0 -2 39 -5 87 -6 l87 -3 8 -40 c5 -22 5 -125 0
-230 -9 -175 -3 -423 13 -542 25 -188 82 -365 202 -628 73 -159 139 -260 244
-369 252 -263 309 -375 327 -641 l7 -100 6 100 c19 301 -42 430 -336 705 -44
41 -82 74 -85 73 -27 -8 -126 169 -213 383 -91 223 -125 337 -141 479 -14 120
-18 403 -8 470 6 39 14 97 17 130 7 82 26 208 32 219 3 5 11 -1 17 -13 11 -20
12 -18 12 16 -1 82 51 278 104 398 5 11 18 45 28 75 24 65 59 143 107 241 19
39 35 77 35 85 0 8 4 14 8 14 11 0 81 150 88 190 9 52 35 120 46 120 5 0 19
-5 31 -11 18 -10 23 -8 36 10 l14 22 12 -29 c7 -16 61 -158 120 -316 86 -228
111 -286 123 -281 9 3 299 168 646 367 347 199 698 400 781 447 l149 86 53
160 c53 164 60 190 44 181 -5 -3 -299 -87 -653 -187 -1293 -363 -1238 -348
-1238 -334 0 3 7 22 15 42 8 19 15 44 15 54 0 10 3 20 8 22 4 3 84 26 177 52
94 26 276 76 405 111 129 36 325 90 435 120 259 72 399 111 623 173 101 28
190 51 198 51 8 0 14 4 14 8 0 15 -109 94 -245 179 l-130 82 -630 6 c-622 6
-773 10 -781 18 -3 2 -7 27 -11 56 -6 50 -3 54 27 53 256 -8 1192 -11 1185 -4
-5 5 -129 83 -275 174 -146 91 -404 252 -575 358 -170 106 -316 195 -325 197
-12 3 -26 -35 -69 -181 -30 -102 -57 -190 -61 -196 -4 -6 -13 9 -20 34 -14 52
-27 56 -67 22 -25 -22 -26 -26 -16 -60 6 -20 7 -36 2 -36 -14 0 -34 38 -74
135 -39 93 -80 172 -126 240 -14 22 -40 67 -57 100 -17 33 -37 69 -46 80 -14
18 -14 16 0 -20z m339 -1784 c-7 -29 -9 -54 -4 -62 15 -24 10 -35 -6 -12 -12
17 -13 29 -2 72 6 28 15 51 18 51 4 0 1 -22 -6 -49z"/>
<path d="M8572 7398 c-26 -33 -191 -332 -221 -400 -18 -43 -40 -83 -47 -89
-19 -15 -18 -13 16 84 40 114 40 117 -14 117 -24 0 -48 -6 -54 -13 -6 -7 -24
-52 -41 -101 -24 -73 -31 -85 -39 -69 -6 10 -41 108 -78 218 -37 110 -69 202
-70 204 -3 4 -40 -16 -369 -202 -126 -71 -237 -137 -245 -147 -8 -9 -73 -59
-145 -110 -71 -51 -190 -136 -264 -189 l-133 -96 158 -6 c88 -4 301 -9 474
-13 173 -3 375 -9 448 -12 l133 -7 -7 -56 c-3 -31 -8 -57 -9 -59 -2 -2 -313 2
-692 9 l-689 12 -200 -145 c-109 -80 -212 -153 -227 -163 -15 -10 -24 -21 -20
-25 4 -5 170 -47 368 -95 460 -110 1404 -343 1471 -361 l52 -15 15 -62 c9 -34
14 -63 13 -65 -2 -2 -167 36 -367 84 -200 48 -445 106 -544 129 -273 64 -639
152 -839 201 -99 24 -182 42 -185 39 -3 -3 16 -70 42 -148 l47 -142 173 -92
c94 -51 280 -152 412 -224 132 -71 281 -152 330 -179 50 -27 250 -136 445
-242 215 -118 358 -190 361 -184 4 6 44 117 88 246 106 305 112 320 122 320 5
0 9 -5 9 -11 0 -9 24 -68 55 -132 15 -30 16 -24 -86 -297 -15 -41 -44 -122
-64 -180 -34 -98 -56 -156 -76 -205 -4 -11 -17 -49 -29 -85 -12 -36 -25 -74
-30 -85 -17 -41 -93 -256 -156 -445 -36 -107 -72 -208 -79 -225 -14 -31 -66
-182 -69 -200 -1 -5 -4 -14 -7 -20 -4 -5 -14 -37 -24 -70 -10 -33 -24 -69 -32
-80 -7 -11 -13 -26 -13 -35 0 -8 -7 -28 -15 -44 -8 -15 -15 -36 -15 -46 0 -10
-6 -25 -13 -32 -12 -12 -41 -98 -53 -156 -3 -13 -11 -34 -19 -46 -15 -23 -59
-144 -77 -213 -6 -24 -15 -43 -20 -43 -4 0 -8 -8 -8 -17 0 -10 -7 -31 -16 -48
-9 -16 -24 -55 -34 -85 -29 -86 -77 -216 -88 -237 -6 -11 -20 -48 -32 -84 -12
-35 -25 -73 -30 -84 -41 -102 -110 -285 -110 -292 0 -5 -6 -20 -14 -34 -27
-52 -28 -82 -5 -171 13 -49 26 -88 30 -88 3 0 20 42 37 93 27 83 170 486 289
817 25 69 66 186 93 260 26 74 57 160 68 190 11 30 52 145 91 255 40 110 80
223 91 250 23 60 210 576 251 690 48 137 105 294 162 450 30 83 86 235 123
338 46 129 74 191 87 199 13 6 17 6 13 0 -3 -6 5 -32 18 -59 146 -294 248
-587 271 -783 3 -19 6 -48 9 -64 2 -16 -2 -55 -8 -87 -13 -62 -7 -70 14 -19 8
20 16 28 23 21 5 -5 11 -101 14 -213 3 -111 8 -217 12 -233 12 -44 -6 -256
-29 -348 -11 -44 -20 -82 -20 -84 0 -2 -3 -2 -7 0 -5 3 -9 -7 -10 -21 0 -15
-6 -28 -12 -30 -6 -2 -11 -8 -11 -13 0 -24 -180 -385 -243 -488 -22 -37 -55
-84 -73 -107 -37 -45 -42 -59 -19 -50 9 3 15 0 15 -9 0 -25 14 -17 51 28 81
98 127 181 215 388 154 362 179 512 172 1040 -1 163 0 301 5 305 4 4 42 3 85
-2 73 -8 78 -8 80 10 3 41 -127 268 -247 430 -131 178 -233 330 -273 410 -200
396 -268 709 -255 1164 3 103 10 201 15 217 5 17 17 66 27 110 25 114 79 276
109 327 14 24 32 63 40 86 9 24 40 80 69 125 43 66 134 257 122 257 -1 0 -7
-6 -13 -12z m-371 -886 c-6 -11 -11 -32 -11 -46 0 -14 -5 -26 -11 -26 -6 0 -8
8 -5 18 3 9 8 34 12 55 4 25 10 35 16 29 6 -6 6 -17 -1 -30z m45 -883 c6 -27
8 -49 5 -49 -7 0 -31 80 -31 102 0 25 16 -6 26 -53z m118 -345 c3 -8 2 -12 -4
-9 -6 3 -10 10 -10 16 0 14 7 11 14 -7z m286 -489 c14 -19 14 -19 -2 -6 -10 7
-18 18 -18 24 0 6 1 8 3 6 1 -2 9 -13 17 -24z m120 -516 c0 -11 -4 -18 -10
-14 -5 3 -7 12 -3 20 7 21 13 19 13 -6z m-1087 -1044 c-3 -9 -8 -14 -10 -11
-3 3 -2 9 2 15 9 16 15 13 8 -4z"/>
<path d="M5306 7385 c-3 -9 -6 -22 -5 -28 0 -7 5 -1 10 12 5 13 8 26 5 28 -2
2 -6 -3 -10 -12z"/>
<path d="M5247 7198 c-26 -77 -45 -143 -43 -146 6 -6 3 -14 56 151 23 71 40
130 38 132 -2 2 -25 -59 -51 -137z"/>
<path d="M5061 7198 c-7 -29 -16 -62 -21 -73 -21 -49 -112 -347 -107 -351 3
-3 13 17 23 44 11 31 23 48 31 45 9 -4 10 3 4 24 -10 40 -3 63 17 56 14 -6 15
-4 4 9 -10 12 -10 22 -1 44 7 16 11 35 10 43 -2 9 3 12 14 7 9 -3 13 -2 10 4
-3 5 -1 27 4 47 6 21 12 49 15 63 2 14 8 40 12 58 11 53 -1 36 -15 -20z"/>
<path d="M5197 7033 c-4 -3 -7 -13 -7 -22 0 -9 -6 -28 -14 -42 -7 -14 -16 -43
-19 -65 -4 -24 5 -7 23 45 28 80 32 100 17 84z"/>
<path d="M3550 7014 c1 -5 135 -109 298 -232 163 -122 338 -253 387 -291 50
-38 272 -207 495 -375 223 -168 415 -315 428 -326 l23 -20 81 61 c44 34 76 64
71 68 -52 45 -133 98 -133 87 0 -17 19 -33 45 -38 11 -2 19 -10 17 -17 -1 -7
2 -10 7 -7 5 4 12 3 15 -2 3 -5 -8 -16 -24 -25 -16 -10 -32 -27 -35 -38 -4
-11 -9 -18 -12 -15 -4 3 -12 1 -18 -4 -9 -7 -16 -6 -24 4 -7 8 -19 12 -27 9
-8 -3 -24 3 -36 13 -12 11 -18 13 -14 6 4 -7 -15 5 -43 25 -29 22 -51 46 -51
56 0 13 -5 17 -18 12 -13 -3 -25 3 -38 20 -10 14 -26 25 -34 25 -8 0 -32 16
-53 35 -32 30 -36 38 -27 55 7 13 7 26 2 37 -5 9 -7 23 -5 32 2 9 -7 27 -21
40 -14 14 -26 30 -26 37 0 7 -8 11 -17 10 -19 -4 -48 20 -35 27 24 15 70 10
92 -11 13 -12 32 -24 42 -28 10 -3 15 -10 12 -16 -5 -7 -2 -8 6 -3 9 6 10 2 5
-16 -7 -21 -6 -22 8 -10 14 11 18 11 23 -3 3 -9 12 -16 19 -16 7 0 16 -7 19
-16 3 -8 9 -13 14 -10 8 5 138 -88 184 -131 15 -15 30 -24 33 -22 3 3 -10 17
-28 31 -34 28 -40 32 -348 268 -111 85 -232 178 -268 205 -36 28 -127 97 -201
154 -74 57 -139 108 -145 113 -7 7 103 8 325 3 185 -4 338 -11 341 -16 3 -5
20 39 37 98 18 58 31 107 29 108 -1 1 -305 12 -676 24 -370 13 -680 25 -687
28 -8 3 -14 1 -14 -3z m575 -154 c-3 -5 -12 -10 -20 -10 -8 0 -17 5 -20 10 -4
6 5 10 20 10 15 0 24 -4 20 -10z m435 -4 c0 -22 52 -24 73 -3 12 12 22 15 30
9 19 -14 49 -23 42 -12 -3 6 0 11 7 11 46 5 68 4 68 -2 0 -4 8 -5 19 -2 20 5
36 -11 26 -27 -4 -7 -13 -6 -27 1 -18 10 -19 8 -14 -13 3 -12 3 -17 0 -10 -8
17 -24 15 -24 -4 0 -8 -5 -12 -10 -9 -6 4 -8 10 -5 15 3 4 -2 10 -10 14 -8 3
-17 1 -20 -3 -2 -5 -16 -11 -30 -13 -18 -4 -26 0 -30 13 -7 22 -16 24 -32 8
-9 -9 -20 -9 -43 0 -18 6 -36 9 -40 6 -5 -3 -6 4 -3 15 6 23 23 27 23 6z
m-420 -16 c0 -5 -4 -10 -10 -10 -5 0 -10 5 -10 10 0 6 5 10 10 10 6 0 10 -4
10 -10z m540 -491 c0 -5 -4 -9 -8 -9 -5 0 -9 7 -9 15 0 8 4 12 9 9 4 -3 8 -9
8 -15z m74 -25 c9 -23 8 -27 -8 -21 -7 3 -19 0 -25 -6 -8 -8 -15 -6 -25 9 -18
24 -12 31 11 13 9 -8 14 -9 10 -2 -4 6 -1 14 5 16 21 9 26 8 32 -9z m40 -129
c3 -8 1 -15 -4 -15 -6 0 -10 7 -10 15 0 8 2 15 4 15 2 0 6 -7 10 -15z m473
-321 c-3 -3 -12 -4 -19 -1 -8 3 -5 6 6 6 11 1 17 -2 13 -5z"/>
<path d="M7090 6950 c-91 -3 -160 -8 -155 -12 6 -3 34 -4 63 -2 42 3 52 0 52
-12 0 -11 6 -13 20 -9 23 7 26 -7 8 -27 -37 -39 -52 -61 -38 -53 8 4 3 -4 -12
-19 -15 -14 -32 -26 -38 -26 -5 0 -10 -4 -10 -10 0 -5 -19 -22 -42 -37 -24
-15 -69 -47 -100 -70 -99 -75 -190 -133 -199 -127 -5 3 -8 1 -7 -4 5 -16 -249
-200 -267 -194 -5 2 -7 0 -3 -4 5 -4 0 -12 -11 -18 -32 -19 -136 -91 -141 -98
-3 -3 -17 -4 -31 -1 -21 4 -30 16 -49 69 -12 36 -24 63 -27 61 -2 -2 8 -36 22
-74 14 -39 25 -80 25 -92 0 -11 5 -21 11 -21 6 0 198 133 427 297 229 163 477
339 550 390 120 86 146 107 125 101 -5 -1 -82 -5 -173 -8z m12 -82 c-7 -7 -12
-8 -12 -2 0 14 12 26 19 19 2 -3 -1 -11 -7 -17z"/>
<path d="M5228 6895 c-8 -30 -11 -52 -7 -49 5 2 11 20 15 39 3 19 10 32 15 29
5 -3 8 0 7 8 -2 8 9 13 35 14 57 2 57 14 0 14 l-50 0 -15 -55z"/>
<path d="M5988 6943 c7 -3 16 -2 19 1 4 3 -2 6 -13 5 -11 0 -14 -3 -6 -6z"/>
<path d="M6248 6943 c7 -3 16 -2 19 1 4 3 -2 6 -13 5 -11 0 -14 -3 -6 -6z"/>
<path d="M6418 6943 c6 -2 18 -2 25 0 6 3 1 5 -13 5 -14 0 -19 -2 -12 -5z"/>
<path d="M6718 6943 c7 -3 16 -2 19 1 4 3 -2 6 -13 5 -11 0 -14 -3 -6 -6z"/>
<path d="M6843 6943 c15 -2 37 -2 50 0 12 2 0 4 -28 4 -27 0 -38 -2 -22 -4z"/>
<path d="M5133 6843 c-1 -10 -18 -66 -37 -124 -20 -59 -36 -115 -36 -125 0
-16 -2 -17 -11 -4 -9 12 -10 12 -5 -4 8 -24 -19 -120 -39 -140 -8 -8 -15 -27
-15 -41 0 -24 -3 -26 -25 -21 -18 5 -23 3 -19 -8 3 -8 -3 -16 -15 -19 -12 -3
-18 -1 -15 4 8 14 -26 23 -39 10 -17 -17 -29 -13 -22 8 3 11 1 22 -5 26 -5 3
-10 11 -10 16 0 6 4 8 9 5 5 -4 11 18 14 46 6 71 31 154 46 150 7 -1 9 6 6 20
-3 13 1 42 9 65 8 23 12 45 7 47 -4 3 -13 -16 -21 -42 -7 -26 -35 -112 -61
-192 -26 -80 -47 -145 -46 -146 1 0 37 -27 80 -59 43 -32 80 -55 83 -53 3 3
23 66 45 139 22 74 63 204 90 290 27 86 49 159 49 162 0 16 -16 5 -17 -10z"/>
<path d="M5201 6799 c-6 -18 -11 -34 -11 -35 0 -2 322 -4 717 -4 394 0 714 2
712 4 -5 4 -830 16 -1162 16 l-247 0 6 25 c9 36 -2 31 -15 -6z"/>
<path d="M4330 6730 c1 -8 414 -312 424 -312 11 1 108 313 101 321 -3 2 -5 -1
-5 -7 0 -13 -199 -15 -403 -4 -64 4 -117 5 -117 2z"/>
<path d="M6128 6702 l-146 -3 46 -139 c28 -85 51 -139 58 -136 14 5 363 253
384 273 13 12 0 13 -90 11 -58 -2 -171 -4 -252 -6z"/>
<path d="M5167 6693 c-3 -5 -24 -71 -47 -148 -23 -77 -55 -182 -71 -234 -24
-77 -28 -97 -17 -106 7 -7 87 -68 178 -135 91 -68 170 -127 176 -131 9 -8 44
16 337 231 54 40 87 70 85 80 -2 8 -37 113 -78 232 l-75 218 -242 0 c-133 0
-244 -3 -246 -7z"/>
<path d="M5730 6688 c0 -7 5 -20 10 -28 8 -12 10 -11 10 8 0 22 2 23 82 20
l81 -3 13 -35 c6 -19 31 -89 54 -155 51 -150 62 -177 66 -172 2 2 -25 86 -60
188 l-63 184 -97 3 c-73 2 -96 0 -96 -10z"/>
<path d="M4800 6253 c8 -3 18 -11 22 -17 5 -7 8 -4 8 7 0 11 -7 17 -22 16 -16
0 -18 -2 -8 -6z"/>
<path d="M6060 6259 c0 -4 22 -71 49 -150 26 -79 59 -178 71 -219 12 -41 25
-79 28 -84 3 -5 0 -6 -6 -2 -7 4 -12 2 -12 -3 0 -6 7 -11 16 -11 10 0 14 -6
10 -15 -3 -8 -1 -15 5 -15 5 0 0 -13 -12 -30 -13 -16 -20 -33 -16 -37 4 -3 7
-1 7 5 0 7 10 12 23 11 12 0 17 -3 10 -5 -8 -4 -7 -17 4 -51 11 -32 18 -41 24
-32 12 20 11 2 -1 -22 -7 -13 -7 -25 -1 -37 7 -13 7 -22 -1 -30 -13 -13 6 -42
28 -42 10 0 11 -6 4 -24 -5 -13 -7 -26 -6 -27 2 -2 6 -17 10 -33 l7 -28 -27
21 c-15 12 -30 19 -33 16 -3 -4 1 -10 9 -15 8 -5 16 -15 16 -22 1 -7 2 -17 3
-22 0 -5 8 -3 16 4 12 10 15 10 15 -4 0 -9 -1 -18 -2 -19 -2 -2 4 -12 12 -21
12 -16 12 -19 -3 -27 -27 -16 -20 -32 10 -24 23 5 25 4 14 -9 -7 -8 -13 -37
-13 -66 -1 -35 -5 -49 -13 -46 -7 2 -25 -2 -40 -10 -30 -15 -56 -14 -79 5 -8
7 -20 10 -25 7 -6 -4 -8 4 -5 20 4 24 2 26 -21 22 -21 -4 -25 -2 -25 18 0 28
-16 32 -23 7 -4 -15 -6 -15 -12 4 -4 13 -11 20 -16 17 -5 -3 -9 0 -9 6 0 7 -6
10 -14 7 -9 -4 -17 4 -21 21 -7 25 -8 26 -15 7 -7 -17 -9 -17 -9 -2 -1 10 -9
17 -20 17 -11 0 -23 5 -27 12 -5 8 -2 9 10 5 14 -6 15 -3 5 14 -8 15 -17 19
-34 15 -18 -5 -28 0 -39 16 -9 12 -16 19 -16 14 0 -5 -6 -3 -13 3 -8 6 -17 8
-20 4 -4 -3 -7 -1 -7 6 0 7 -4 9 -10 6 -14 -9 -13 8 2 23 9 9 9 12 0 12 -7 0
-12 -4 -12 -10 0 -5 -5 -10 -11 -10 -6 0 -8 7 -5 16 3 9 2 12 -5 9 -13 -9 -56
38 -51 56 2 10 -1 9 -11 -3 -12 -15 -15 -14 -40 12 -15 15 -27 36 -27 45 0 9
-4 13 -10 10 -6 -3 -7 1 -4 9 3 9 11 13 18 10 6 -3 2 2 -9 11 -12 9 -21 11
-23 5 -6 -18 -22 -11 -22 10 0 13 -7 20 -20 20 -11 0 -20 4 -20 8 0 5 -6 16
-13 26 -13 17 -16 17 -55 -10 -23 -16 -41 -32 -42 -36 0 -3 28 -26 63 -50 80
-57 719 -520 902 -654 77 -56 141 -102 142 -101 1 2 -32 101 -74 222 -152 444
-375 1102 -393 1156 -16 52 -39 102 -40 88z m-471 -691 c12 -15 11 -18 -3 -18
-10 0 -16 8 -16 22 0 12 1 19 3 17 1 -2 9 -12 16 -21z m275 -237 c-2 -3 -12 3
-22 13 -16 17 -16 18 5 5 12 -7 20 -15 17 -18z m467 16 c-1 -12 -15 -9 -19 4
-3 6 1 10 8 8 6 -3 11 -8 11 -12z"/>
<path d="M5790 6138 c-19 -16 -26 -25 -14 -20 29 15 64 11 66 -8 0 -8 2 -20 2
-26 1 -6 6 -18 12 -25 7 -8 15 -24 18 -36 6 -18 2 -25 -18 -35 -14 -6 -26 -14
-26 -18 0 -3 -30 -28 -67 -55 -38 -27 -69 -53 -71 -57 -2 -5 -8 -8 -13 -8 -6
0 -19 -9 -31 -20 -12 -11 -34 -26 -50 -32 -15 -7 -28 -16 -28 -20 0 -9 -70
-56 -90 -60 -8 -2 -21 -9 -28 -15 -16 -15 -42 -17 -42 -3 0 25 -28 6 -34 -23
-3 -18 -16 -38 -29 -46 -20 -13 -21 -13 -9 2 8 9 12 26 9 39 l-4 23 -8 -23
c-6 -17 -12 -21 -29 -16 -17 5 -19 4 -8 -7 18 -19 15 -29 -10 -29 l-23 -1 24
-13 24 -13 -29 -2 c-16 -1 -36 -2 -45 -2 -12 0 -15 -7 -12 -20 6 -21 -7 -25
-24 -8 -12 12 -33 4 -33 -12 0 -6 5 -7 10 -4 6 3 10 2 10 -3 0 -23 -28 -20
-34 4 -7 28 -26 33 -26 7 0 -10 -4 -14 -8 -8 -15 21 -34 16 -27 -7 4 -14 3
-18 -2 -11 -7 10 -15 9 -37 -2 -35 -19 -46 -19 -46 -1 0 8 -6 17 -12 20 -7 3
1 2 17 -1 26 -6 28 -4 17 9 -10 13 -10 18 -1 24 7 4 10 3 7 -2 -4 -5 5 -10 19
-11 16 0 21 2 13 7 -10 6 -9 9 1 14 8 3 3 3 -11 0 -19 -5 -22 -3 -14 6 6 6 20
13 30 15 11 1 18 8 17 14 -2 6 6 11 18 11 11 0 18 4 14 9 -3 5 1 11 10 13 15
3 101 70 163 127 l37 33 -40 -29 c-22 -16 -50 -35 -62 -43 -32 -22 -419 -297
-481 -343 -47 -34 -52 -41 -40 -55 12 -15 11 -16 -5 -3 -16 12 -20 12 -35 -2
-10 -11 -12 -17 -4 -17 20 0 14 -20 -15 -51 -32 -33 -47 -36 -63 -11 -10 15
-11 14 -7 -6 4 -16 -2 -27 -19 -39 -30 -19 -46 -9 -18 12 16 12 17 14 2 15
-14 0 -15 5 -5 36 6 20 13 31 15 25 2 -6 8 -11 13 -11 14 0 11 28 -3 33 -9 4
-8 6 3 6 8 1 21 -5 28 -11 11 -11 12 -9 7 7 -5 17 -2 21 21 20 26 0 29 5 93
204 103 312 133 411 129 414 -2 2 -39 29 -82 61 -42 33 -79 57 -81 55 -1 -2
-55 -159 -119 -349 -64 -190 -161 -477 -216 -639 -56 -162 -100 -296 -98 -297
1 -1 37 23 79 54 42 31 105 78 140 103 105 76 584 422 913 661 171 123 356
257 413 298 56 41 100 79 98 85 -3 5 -17 47 -32 93 -16 45 -31 82 -34 82 -3
-1 -21 -15 -40 -32z m-1030 -288 c0 -5 -4 -10 -10 -10 -5 0 -10 5 -10 10 0 6
5 10 10 10 6 0 10 -4 10 -10z m0 -36 c0 -3 -7 -12 -15 -20 -12 -13 -15 -13
-15 -1 0 7 3 17 7 20 8 8 23 9 23 1z m-70 -178 c0 -3 -4 -8 -10 -11 -5 -3 -10
-1 -10 4 0 6 5 11 10 11 6 0 10 -2 10 -4z m-13 -68 c-3 -8 -6 -5 -6 6 -1 11 2
17 5 13 3 -3 4 -12 1 -19z m329 -59 c8 -14 -14 -29 -33 -22 -10 4 -11 9 -2 19
14 17 25 18 35 3z m-52 -40 c-8 -14 -31 -11 -37 4 -4 10 2 13 19 9 13 -2 21
-8 18 -13z m-234 -159 c0 -5 -4 -10 -10 -10 -5 0 -10 5 -10 10 0 6 5 10 10 10
6 0 10 -4 10 -10z m-50 -64 c0 -11 -19 -15 -25 -6 -3 5 1 10 9 10 9 0 16 -2
16 -4z"/>
<path d="M5815 6100 c3 -5 8 -10 11 -10 2 0 4 5 4 10 0 6 -5 10 -11 10 -5 0
-7 -4 -4 -10z"/>
<path d="M5675 6059 c-48 -37 -51 -39 -39 -39 5 0 27 16 49 35 49 42 44 44
-10 4z"/>
<path d="M4845 6070 c3 -5 8 -10 11 -10 2 0 4 5 4 10 0 6 -5 10 -11 10 -5 0
-7 -4 -4 -10z"/>
<path d="M5962 5989 c6 -16 12 -28 14 -26 5 5 -13 57 -20 57 -3 0 0 -14 6 -31z"/>
<path d="M5589 5993 c-13 -17 -13 -17 6 -3 11 8 22 16 24 17 2 2 0 3 -6 3 -6
0 -17 -8 -24 -17z"/>
<path d="M5549 5963 c-13 -16 -12 -17 4 -4 9 7 17 15 17 17 0 8 -8 3 -21 -13z"/>
<path d="M5460 5904 c-64 -50 -73 -63 -17 -24 42 30 77 61 66 59 -2 0 -24 -16
-49 -35z"/>
<path d="M5796 5846 c-64 -46 -116 -88 -115 -93 1 -4 85 -68 188 -142 102 -73
192 -138 200 -145 12 -9 13 -7 9 9 -16 53 -152 441 -158 447 -3 5 -59 -30
-124 -76z"/>
<path d="M4892 5892 c-6 -15 -40 -112 -76 -217 -35 -104 -68 -199 -72 -209 -7
-18 -6 -18 12 -5 11 8 102 74 202 148 l181 133 -109 83 c-59 46 -113 86 -118
89 -5 3 -14 -7 -20 -22z"/>
<path d="M5582 5688 c-17 -11 -29 -24 -26 -30 4 -6 10 -5 15 3 8 14 13 5 9
-16 -1 -5 7 -1 18 10 11 11 17 25 14 30 -3 6 4 2 16 -9 12 -10 19 -23 16 -27
-8 -13 20 -11 33 2 7 7 27 -2 67 -32 31 -23 56 -45 56 -49 0 -4 7 -7 15 -7 9
0 12 4 8 8 -23 23 -189 139 -198 138 -5 0 -25 -10 -43 -21z"/>
<path d="M5617 5656 c-4 -10 -5 -21 -2 -24 9 -9 17 6 13 25 -3 17 -4 17 -11
-1z"/>
<path d="M6073 5660 c12 -46 91 -266 98 -274 13 -14 4 19 -36 129 -34 93 -71
180 -62 145z"/>
<path d="M6232 5590 c0 -14 2 -19 5 -12 2 6 2 18 0 25 -3 6 -5 1 -5 -13z"/>
<path d="M5843 5545 c0 -8 4 -12 8 -9 4 2 10 0 14 -6 3 -5 11 -10 16 -10 14 0
2 18 -20 29 -13 7 -18 6 -18 -4z"/>
<path d="M6361 5553 c0 -4 28 -88 62 -186 l62 -177 270 -273 c629 -636 979
-986 982 -984 4 4 252 722 250 724 -1 1 -279 155 -617 343 -338 188 -694 386
-790 440 -221 123 -220 122 -219 113z"/>
<path d="M4390 5501 c-25 -16 -121 -72 -215 -126 -93 -54 -233 -135 -310 -180
-77 -45 -259 -151 -405 -235 -455 -263 -501 -292 -497 -304 2 -6 64 -172 137
-370 l134 -358 75 78 c42 44 231 239 421 434 589 606 544 557 565 625 10 33
49 151 86 263 37 111 64 202 61 201 -4 0 -27 -13 -52 -28z"/>
<path d="M5260 5466 l-85 -62 -162 -810 c-360 -1805 -554 -2786 -550 -2790 7
-7 1005 -9 1012 -2 7 6 7 253 0 313 -2 17 -6 131 -9 255 -4 124 -9 279 -12
345 -3 66 -16 469 -29 895 -52 1628 -63 1921 -74 1919 -3 0 -44 -29 -91 -63z"/>
<path d="M5725 5520 c-3 -5 -1 -10 4 -10 6 0 11 5 11 10 0 6 -2 10 -4 10 -3 0
-8 -4 -11 -10z"/>
<path d="M5904 5508 c3 -20 17 -39 25 -34 11 7 52 -24 46 -33 -2 -5 9 -11 26
-15 24 -4 30 -10 27 -24 -4 -14 0 -18 23 -16 35 2 60 -22 38 -38 -10 -7 -6 -8
14 -3 17 3 35 1 43 -6 8 -6 14 -9 14 -6 0 3 -53 43 -117 88 -65 45 -123 86
-130 91 -7 6 -11 5 -9 -4z"/>
<path d="M5494 5288 c4 -117 13 -433 21 -703 20 -655 43 -1376 55 -1725 5
-157 15 -456 21 -665 6 -209 15 -384 20 -390 12 -13 956 -18 964 -6 4 8 -879
3560 -887 3566 -43 33 -190 135 -194 135 -4 0 -4 -96 0 -212z"/>
<path d="M5930 5460 c0 -5 5 -10 11 -10 5 0 7 5 4 10 -3 6 -8 10 -11 10 -2 0
-4 -4 -4 -10z"/>
<path d="M5887 5411 c-2 -10 0 -25 5 -32 8 -11 9 -10 4 4 -3 9 -2 17 3 17 4 0
8 7 8 15 0 21 -14 19 -20 -4z"/>
<path d="M5925 5400 c3 -5 10 -10 16 -10 5 0 9 5 9 10 0 6 -7 10 -16 10 -8 0
-12 -4 -9 -10z"/>
<path d="M6015 5340 c3 -5 8 -10 11 -10 2 0 4 5 4 10 0 6 -5 10 -11 10 -5 0
-7 -4 -4 -10z"/>
<path d="M6052 5310 c0 -14 2 -19 5 -12 2 6 2 18 0 25 -3 6 -5 1 -5 -13z"/>
<path d="M4936 5232 c-43 -31 -83 -64 -88 -72 -4 -8 -56 -114 -114 -235 -59
-121 -145 -299 -191 -395 -47 -96 -146 -301 -220 -455 -157 -325 -249 -514
-397 -820 -59 -121 -137 -282 -173 -357 -36 -76 -70 -135 -74 -132 -5 3 -9 1
-9 -3 0 -5 67 -189 149 -409 82 -219 161 -434 176 -477 l28 -77 157 0 157 0
16 82 c42 217 209 1071 222 1133 17 84 123 622 235 1195 64 328 166 850 206
1053 3 15 4 27 2 27 -2 0 -39 -26 -82 -58z"/>
<path d="M5834 5244 c3 -11 73 -289 156 -619 83 -330 191 -757 240 -950 49
-192 161 -638 250 -990 89 -352 176 -696 193 -765 l32 -125 139 -3 c76 -2 142
0 147 5 9 9 339 959 339 975 0 6 -6 8 -13 5 -9 -3 -46 56 -109 172 -82 152
-477 882 -908 1681 -287 532 -253 479 -354 551 -119 85 -119 85 -112 63z"/>
<path d="M6186 5174 c-8 -21 10 -42 23 -28 6 5 5 16 -3 27 -13 16 -14 16 -20
1z"/>
<path d="M6270 5170 c-12 -8 -11 -10 8 -10 12 0 22 5 22 10 0 13 -11 13 -30 0z"/>
<path d="M4418 4860 c-130 -94 -239 -170 -242 -170 -3 0 -3 7 0 15 4 8 2 15
-4 15 -6 0 -12 -4 -14 -9 -3 -8 -414 -434 -740 -766 l-138 -141 74 -199 c194
-525 259 -695 265 -695 4 0 38 64 76 143 38 78 156 320 263 537 107 217 225
458 262 535 37 77 152 311 254 519 102 209 185 381 183 382 -2 2 -110 -73
-239 -166z"/>
<path d="M6250 4952 c0 -4 4 -12 9 -17 7 -9 268 -484 496 -905 255 -470 608
-1116 615 -1123 4 -5 17 18 28 50 57 167 209 604 248 713 l45 125 -68 70 c-37
39 -245 252 -463 475 -218 223 -439 449 -490 503 -52 54 -96 95 -97 90 -2 -5
15 -62 37 -127 22 -65 39 -120 38 -122 -3 -2 -86 56 -281 198 -109 79 -117 84
-117 70z"/>
<path d="M8667 3960 c-4 -14 -14 -47 -22 -75 -8 -27 -12 -45 -7 -40 16 18 44
104 40 122 -3 14 -5 12 -11 -7z"/>
<path d="M8000 3782 c0 -4 13 -29 29 -55 25 -38 38 -48 73 -57 169 -42 278
-74 317 -91 24 -10 46 -17 49 -15 8 8 -57 103 -81 119 -30 19 -132 52 -257 82
-114 27 -130 29 -130 17z"/>
<path d="M2600 3754 c-72 -30 -98 -109 -61 -189 28 -61 55 -80 112 -80 l48 0
37 -135 c20 -74 40 -138 44 -143 6 -7 39 1 102 25 29 11 68 67 68 97 0 10 -11
34 -24 53 l-23 35 66 28 c38 17 79 28 97 26 36 -3 46 10 59 67 6 29 4 32 -18
32 -13 0 -35 -8 -48 -19 -37 -28 -99 -57 -162 -76 -53 -15 -60 -15 -82 -1 -30
20 -32 42 -6 51 23 7 71 50 71 65 0 19 -59 10 -96 -15 -55 -37 -104 -34 -142
10 -17 19 -34 51 -38 71 -9 50 11 64 93 64 51 0 64 3 73 19 5 11 10 22 10 25
0 12 -147 4 -180 -10z m260 -441 c0 -23 -17 -6 -29 29 l-11 33 20 -24 c11 -13
20 -30 20 -38z"/>
<path d="M2876 3708 c-22 -30 -20 -55 3 -61 24 -6 47 17 56 56 6 24 4 27 -18
27 -15 0 -32 -9 -41 -22z"/>
<path d="M8080 3544 c0 -16 45 -84 59 -89 9 -3 44 -9 78 -12 35 -3 63 -9 63
-13 0 -4 -9 -19 -21 -34 -17 -22 -28 -26 -72 -26 -29 0 -76 3 -105 7 -49 5
-54 9 -68 42 -17 42 -52 81 -71 81 -15 0 -18 -26 -3 -35 16 -10 11 -45 -7 -52
-10 -4 -21 -11 -25 -17 -5 -7 -8 -7 -8 2 0 15 -63 16 -91 2 -22 -12 -25 -48
-5 -75 13 -18 14 -18 42 2 16 11 39 24 52 27 12 4 20 13 16 19 -3 7 1 4 10 -7
17 -21 6 -56 -19 -56 -20 0 -19 -13 6 -44 39 -50 97 -17 86 49 -8 47 7 52 33
11 23 -39 30 -42 113 -52 62 -7 68 -15 42 -64 -23 -45 -45 -52 -117 -40 -111
18 -119 12 -69 -57 25 -35 29 -50 33 -129 3 -70 9 -98 28 -131 39 -70 48 -66
105 46 22 45 26 64 23 108 -4 51 -4 54 28 72 44 26 77 93 78 157 1 44 6 57 38
92 20 22 44 55 53 72 16 31 16 33 -10 70 -15 21 -39 43 -53 49 -48 20 -242 39
-242 25z m31 -521 c-9 -16 -10 -15 -11 8 0 14 3 29 8 33 12 12 14 -22 3 -41z"/>
<path d="M3300 3265 c0 -5 5 -17 10 -25 5 -8 10 -10 10 -5 0 6 -5 17 -10 25
-5 8 -10 11 -10 5z"/>
<path d="M3380 3208 c0 -19 2 -20 10 -8 13 19 13 30 0 30 -5 0 -10 -10 -10
-22z"/>
<path d="M2687 3179 c-11 -15 -17 -43 -17 -77 0 -42 5 -58 24 -77 24 -23 82
-45 123 -45 17 0 24 -9 32 -37 6 -21 11 -44 11 -51 0 -17 33 -8 165 46 61 25
124 45 140 44 17 -1 35 1 41 6 11 7 54 85 54 98 0 10 -74 -7 -90 -21 -14 -12
-217 -95 -233 -95 -17 0 -5 39 16 53 13 9 30 29 37 46 17 42 1 61 -52 61 -50
0 -74 -13 -93 -50 -13 -26 -18 -28 -42 -19 -50 17 -75 44 -88 94 l-12 48 -16
-24z"/>
<path d="M3330 3181 c0 -6 4 -13 10 -16 6 -3 7 1 4 9 -7 18 -14 21 -14 7z"/>
<path d="M3421 3134 c0 -11 3 -14 6 -6 3 7 2 16 -1 19 -3 4 -6 -2 -5 -13z"/>
<path d="M3391 3131 c-8 -6 -11 -16 -6 -31 5 -15 4 -20 -4 -16 -7 5 -8 1 -4
-9 4 -12 8 -13 13 -5 6 9 9 9 12 -1 3 -8 5 5 6 29 1 23 1 42 -1 42 -1 0 -8 -4
-16 -9z"/>
<path d="M3430 3100 c0 -5 5 -10 11 -10 5 0 7 5 4 10 -3 6 -8 10 -11 10 -2 0
-4 -4 -4 -10z"/>
<path d="M3436 3065 c4 -10 0 -15 -14 -15 -26 0 -34 -33 -17 -73 7 -18 59
-160 115 -317 56 -157 141 -395 190 -530 48 -135 105 -292 125 -350 20 -58 46
-132 59 -165 l22 -60 40 3 c21 1 58 2 82 2 36 0 41 2 30 14 -9 10 -17 11 -26
4 -7 -6 -16 -8 -19 -4 -4 4 -3 10 3 14 17 12 14 50 -4 55 -14 4 -13 5 3 6 17
1 18 3 5 12 -11 8 -12 12 -2 16 15 6 16 23 1 23 -6 0 -17 7 -26 15 -8 8 -18
13 -23 10 -5 -3 -27 43 -50 102 -23 60 -52 135 -65 168 -13 33 -42 110 -65
170 -22 61 -45 119 -50 130 -5 11 -23 58 -40 105 -18 47 -38 99 -45 115 -7 17
-28 71 -46 122 -18 50 -37 89 -43 86 -5 -4 -7 1 -3 11 8 21 -36 118 -66 148
-12 12 -17 18 -10 14 6 -3 14 -2 18 4 3 5 -1 10 -10 10 -11 0 -15 5 -12 15 4
8 2 17 -3 20 -5 3 -9 13 -9 23 -1 36 -26 112 -38 112 -7 0 -10 -7 -7 -15z m11
-37 c-2 -7 0 -25 4 -40 4 -16 4 -28 0 -28 -12 0 -51 40 -51 52 0 7 6 4 13 -7
10 -12 16 -14 21 -7 4 7 2 12 -3 12 -6 0 -11 7 -11 15 0 8 7 15 16 15 9 0 14
-6 11 -12z m13 -94 c0 -8 -4 -12 -10 -9 -5 3 -10 10 -10 16 0 5 5 9 10 9 6 0
10 -7 10 -16z m8 -59 c-3 -3 -9 2 -12 12 -6 14 -5 15 5 6 7 -7 10 -15 7 -18z
m32 -51 c0 -22 -4 -33 -10 -29 -6 4 -8 16 -4 27 4 14 2 18 -5 14 -12 -8 -15 6
-4 17 15 15 23 5 23 -29z m494 -1150 c3 -8 2 -12 -4 -9 -6 3 -10 10 -10 16 0
14 7 11 14 -7z"/>
<path d="M3040 2915 c-157 -57 -199 -87 -141 -100 21 -4 57 2 113 20 194 63
258 95 258 129 0 19 -104 -4 -230 -49z"/>
<path d="M8240 2748 c-18 -46 -50 -135 -72 -198 -22 -63 -59 -151 -83 -195
-72 -133 -113 -245 -129 -350 -8 -54 -17 -100 -20 -103 -3 -3 -14 2 -24 11
-72 65 -223 82 -323 35 -172 -79 -241 -274 -158 -445 30 -63 118 -136 188
-158 20 -6 22 -5 13 11 -5 9 -25 25 -43 33 -33 15 -54 61 -29 61 22 0 90 -53
90 -71 0 -11 5 -19 11 -19 5 0 7 5 4 10 -3 6 1 10 10 10 10 0 13 -5 9 -12 -5
-7 -3 -8 7 -2 8 5 18 9 23 9 5 0 11 6 14 13 2 7 -6 12 -21 12 -31 0 -110 62
-138 109 -18 29 -22 49 -20 104 3 81 -6 127 -24 127 -17 0 -25 -23 -25 -72 0
-28 -7 -49 -25 -69 l-24 -30 -7 25 c-7 28 11 124 33 176 34 83 115 134 211
134 35 0 67 -5 70 -10 4 -5 27 -19 51 -32 l44 -23 21 20 22 21 11 -30 c16 -42
27 -38 48 16 24 62 33 44 47 -89 5 -56 11 -103 12 -105 2 -1 6 64 9 145 4 82
12 167 17 191 21 88 72 177 174 300 116 140 110 132 91 132 -12 0 -16 6 -12
20 5 21 -104 -73 -144 -124 -11 -14 -24 -26 -29 -26 -9 0 24 107 87 279 43
116 76 232 68 239 -2 2 -17 -34 -35 -80z m-206 -563 c-4 -8 -10 -15 -15 -15
-4 0 -6 7 -3 15 4 8 10 15 15 15 4 0 6 -7 3 -15z m26 -40 c0 -8 -4 -15 -10
-15 -5 0 -7 7 -4 15 4 8 8 15 10 15 2 0 4 -7 4 -15z"/>
<path d="M2840 2466 c0 -9 82 -234 133 -365 11 -30 22 -50 25 -43 4 13 -9 50
-82 240 -54 140 -75 186 -76 168z"/>
<path d="M2376 2141 c-4 -7 -5 -15 -2 -18 9 -9 19 4 14 18 -4 11 -6 11 -12 0z"/>
<path d="M8490 2141 c0 -6 4 -11 9 -11 6 0 12 -19 14 -42 4 -40 4 -39 3 6 -1
30 -6 51 -13 54 -7 2 -13 -1 -13 -7z"/>
<path d="M3170 1962 c-49 -20 -90 -44 -90 -52 0 -3 12 -13 28 -22 24 -14 32
-14 67 -1 135 48 214 35 301 -52 65 -64 80 -115 75 -254 -1 -24 -2 -24 -26 9
-17 24 -25 47 -25 76 0 38 -13 64 -26 52 -2 -3 -7 -36 -9 -74 -7 -80 -34 -146
-79 -188 -37 -35 -20 -47 23 -17 38 27 41 27 41 -9 0 -26 -5 -31 -30 -37 -17
-3 -35 -14 -41 -24 -13 -24 -8 -24 49 5 61 31 115 88 144 151 34 74 32 190 -3
265 -54 113 -158 182 -284 187 -50 2 -83 -2 -115 -15z"/>
<path d="M4047 1705 c3 -8 9 -12 14 -9 12 7 11 11 -5 17 -10 4 -13 1 -9 -8z"/>
<path d="M4085 1590 c-3 -5 -2 -10 4 -10 5 0 13 5 16 10 3 6 2 10 -4 10 -5 0
-13 -4 -16 -10z"/>
<path d="M5200 1446 c-13 -35 -13 -99 0 -112 8 -8 42 -166 37 -170 -1 -1 -29
-4 -61 -6 l-59 -5 27 19 c22 17 26 27 26 73 0 30 -5 57 -11 60 -6 4 -9 23 -7
43 4 48 -13 50 -61 7 -33 -30 -40 -44 -43 -78 -3 -41 -4 -42 -35 -39 -28 3
-34 -1 -43 -24 -6 -15 -9 -33 -6 -41 6 -16 1 -16 -23 -3 -15 8 -18 18 -14 55
4 35 2 45 -9 45 -36 0 -64 -141 -38 -190 19 -35 64 -40 364 -40 242 0 295 3
313 15 18 13 25 13 55 1 22 -9 78 -16 154 -17 l119 -3 3 53 c2 29 -3 85 -11
124 -10 45 -13 99 -10 143 l5 71 -31 11 c-17 6 -31 17 -31 24 -1 8 -6 5 -15
-6 -17 -22 -20 -107 -5 -122 6 -6 17 -48 25 -95 8 -46 15 -84 15 -84 0 0 -20
-1 -45 -3 -42 -3 -45 -1 -59 30 -8 18 -23 44 -34 57 -18 23 -22 24 -52 11 -18
-8 -53 -31 -77 -52 -25 -22 -55 -38 -69 -38 -13 0 -27 -1 -31 -2 -4 -2 -15 31
-25 72 -13 58 -14 83 -6 110 14 49 7 82 -18 95 -12 6 -29 17 -38 24 -13 11
-17 9 -26 -14 -13 -34 -13 -102 0 -107 8 -2 40 -146 40 -178 0 -3 -20 -4 -44
-2 l-44 4 -15 76 c-10 52 -12 84 -5 103 15 44 6 93 -17 97 -11 2 -28 11 -37
19 -16 14 -18 13 -28 -11z"/>
<path d="M5940 1415 c-11 -20 -11 -48 -1 -157 23 -251 21 -245 46 -212 26 35
29 87 11 227 -22 179 -28 194 -56 142z"/>
<path d="M4096 1274 c-142 -45 -228 -157 -230 -299 l-1 -70 45 2 c299 15 436
13 574 -9 41 -6 38 120 -4 207 -29 59 -94 123 -155 151 -67 31 -165 38 -229
18z m168 -129 c20 -8 36 -20 36 -25 0 -6 6 -9 13 -8 7 2 12 -7 11 -20 0 -17 4
-21 17 -17 14 5 20 -3 29 -37 6 -24 14 -51 17 -62 4 -16 1 -18 -22 -12 -68 17
-86 18 -102 5 -11 -10 -14 -10 -9 -1 4 7 2 12 -8 12 -8 0 -16 -6 -19 -12 -3
-10 -10 -10 -31 1 -21 12 -34 13 -56 4 -16 -6 -30 -7 -32 -2 -2 4 -20 4 -40 0
-27 -6 -42 -5 -55 5 -15 11 -16 15 -4 23 7 5 11 13 7 19 -9 14 4 42 19 42 15
0 50 38 42 46 -3 3 -10 -4 -17 -15 -6 -12 -15 -21 -20 -21 -6 0 0 11 12 25 15
17 32 25 55 25 18 0 33 4 33 9 0 7 51 28 76 30 6 1 28 -6 48 -14z m-97 -181
c-3 -3 -12 -4 -19 -1 -8 3 -5 6 6 6 11 1 17 -2 13 -5z"/>
<path d="M4178 1013 c7 -3 16 -2 19 1 4 3 -2 6 -13 5 -11 0 -14 -3 -6 -6z"/>
<path d="M6762 1274 c-72 -19 -106 -38 -154 -86 -57 -57 -90 -133 -91 -216
l-2 -67 40 2 c214 12 292 13 435 5 91 -5 167 -7 170 -5 3 3 5 32 4 66 -2 144
-106 269 -252 303 -70 17 -83 16 -150 -2z m135 -129 c47 -3 128 -79 135 -126
7 -48 0 -65 -18 -42 -13 17 -14 17 -7 -1 5 -16 3 -18 -19 -13 -60 16 -168 20
-183 7 -11 -9 -22 -9 -44 -2 -20 7 -42 7 -70 0 -23 -6 -44 -8 -48 -5 -8 8 5
53 20 69 6 7 18 25 26 41 8 15 18 27 23 27 5 0 24 11 42 25 18 14 44 25 57 25
13 0 31 4 39 10 9 6 17 5 21 -2 4 -6 16 -12 26 -13z"/>
<path d="M5562 1042 c-16 -14 -19 -21 -10 -25 7 -2 10 -8 5 -12 -4 -5 -13 -3
-19 3 -7 7 -17 12 -22 12 -6 0 -4 -5 4 -10 13 -8 13 -10 -1 -10 -9 0 -19 -7
-23 -15 -6 -17 -42 -20 -51 -5 -3 6 -19 10 -36 10 -16 0 -29 5 -29 11 0 5 -4
7 -10 4 -5 -3 -10 -2 -10 2 0 5 -17 10 -37 11 -21 1 -51 4 -68 7 -24 4 -26 3
-10 -4 14 -7 -10 -10 -78 -10 -95 -1 -97 -2 -87 -21 9 -16 8 -22 -5 -26 -8 -3
-12 -10 -9 -15 3 -5 -2 -9 -11 -9 -9 0 -13 5 -10 10 3 6 0 10 -8 10 -8 0 -17
9 -20 20 -7 29 -34 25 -69 -10 -16 -16 -34 -30 -39 -30 -6 0 -7 -4 -4 -10 9
-15 -2 -12 -31 6 -21 15 -28 15 -50 4 l-25 -14 28 -11 c17 -7 43 -8 68 -4 55
11 57 11 49 -3 -4 -7 3 -2 16 10 12 13 25 20 29 14 3 -5 16 -12 28 -16 33 -10
393 -15 417 -6 11 5 17 9 11 10 -5 0 -3 5 5 10 16 11 201 13 237 4 13 -4 20
-10 17 -15 -3 -5 4 -9 15 -9 12 0 22 6 22 13 3 29 -4 52 -19 64 -10 7 -12 13
-7 13 15 2 -27 18 -48 19 -10 1 -15 -3 -12 -9 8 -13 -5 -13 -25 0 -11 7 -11
10 -2 10 7 0 10 5 6 11 -3 6 -14 -2 -25 -20 -20 -33 -36 -40 -36 -16 0 8 4 12
8 10 11 -7 17 18 10 38 -6 17 -8 17 -29 -1z m58 -82 c0 -5 -2 -10 -4 -10 -3 0
-8 5 -11 10 -3 6 -1 10 4 10 6 0 11 -4 11 -10z"/>
<path d="M5068 1023 c23 -2 59 -2 80 0 20 2 1 4 -43 4 -44 0 -61 -2 -37 -4z"/>
<path d="M5405 1010 c3 -5 8 -10 11 -10 2 0 4 5 4 10 0 6 -5 10 -11 10 -5 0
-7 -4 -4 -10z"/>
<path d="M5774 971 c8 -12 46 -21 46 -11 0 8 -24 20 -41 20 -6 0 -8 -4 -5 -9z"/>
<path d="M5844 934 c4 -11 2 -15 -6 -11 -7 2 -22 1 -33 -4 -16 -6 -14 -8 12
-8 47 -1 66 8 52 25 -16 19 -33 18 -25 -2z"/>
<path d="M7596 935 c-3 -8 -1 -15 4 -15 6 0 10 7 10 15 0 8 -2 15 -4 15 -2 0
-6 -7 -10 -15z"/>
</g>
</svg>
