<svg version="1.2" baseProfile="tiny-ps" xmlns="http://www.w3.org/2000/svg" viewBox="0 0 3710 3710" width="3710" height="3710">
	<title>Wavy_Bus-20_Single-10-ai</title>
	<defs>
		<linearGradient id="grd1" gradientUnits="userSpaceOnUse"  x1="2230.779" y1="655.985" x2="3004.624" y2="2103.658">
			<stop offset="0" stop-color="#ff9085"  />
			<stop offset="1" stop-color="#fb6fbb"  />
		</linearGradient>
		<linearGradient id="grd2" gradientUnits="userSpaceOnUse"  x1="3190.822" y1="1285.076" x2="2149.053" y2="2989.787">
			<stop offset="0" stop-color="#ffffff"  />
			<stop offset="0.996" stop-color="#ebeff2"  />
		</linearGradient>
		<linearGradient id="grd3" gradientUnits="userSpaceOnUse"  x1="951.986" y1="2478.607" x2="1879.44" y2="2478.607">
			<stop offset="0" stop-color="#ffffff"  />
			<stop offset="0.996" stop-color="#ebeff2"  />
		</linearGradient>
		<linearGradient id="grd4" gradientUnits="userSpaceOnUse"  x1="951.986" y1="2604.913" x2="1879.44" y2="2604.913">
			<stop offset="0" stop-color="#ffffff"  />
			<stop offset="0.996" stop-color="#ebeff2"  />
		</linearGradient>
		<linearGradient id="grd5" gradientUnits="userSpaceOnUse"  x1="951.986" y1="2731.218" x2="1879.44" y2="2731.218">
			<stop offset="0" stop-color="#ffffff"  />
			<stop offset="0.996" stop-color="#ebeff2"  />
		</linearGradient>
		<linearGradient id="grd6" gradientUnits="userSpaceOnUse"  x1="951.986" y1="630.299" x2="1418.505" y2="630.299">
			<stop offset="0" stop-color="#ffffff"  />
			<stop offset="0.996" stop-color="#ebeff2"  />
		</linearGradient>
		<linearGradient id="grd7" gradientUnits="userSpaceOnUse"  x1="951.986" y1="694.747" x2="1418.505" y2="694.747">
			<stop offset="0" stop-color="#ffffff"  />
			<stop offset="0.996" stop-color="#ebeff2"  />
		</linearGradient>
		<linearGradient id="grd8" gradientUnits="userSpaceOnUse"  x1="951.986" y1="759.195" x2="1418.505" y2="759.195">
			<stop offset="0" stop-color="#ffffff"  />
			<stop offset="0.996" stop-color="#ebeff2"  />
		</linearGradient>
		<linearGradient id="grd9" gradientUnits="userSpaceOnUse"  x1="3402.102" y1="1199.014" x2="2691.428" y2="2567.721">
			<stop offset="0" stop-color="#f9cf6b"  />
			<stop offset="0.592" stop-color="#f2a56c"  />
			<stop offset="1" stop-color="#e65b6f"  />
		</linearGradient>
		<linearGradient id="grd10" gradientUnits="userSpaceOnUse"  x1="3493.237" y1="1263.129" x2="2407.063" y2="3040.502">
			<stop offset="0" stop-color="#ffffff"  />
			<stop offset="0.996" stop-color="#ebeff2"  />
		</linearGradient>
		<linearGradient id="grd11" gradientUnits="userSpaceOnUse"  x1="1600.783" y1="997.335" x2="1697.943" y2="1875.654">
			<stop offset="0" stop-color="#ffc444"  />
			<stop offset="0.996" stop-color="#f36f56"  />
		</linearGradient>
		<linearGradient id="grd12" gradientUnits="userSpaceOnUse"  x1="2066.487" y1="1550.375" x2="2454.202" y2="2333.485">
			<stop offset="0.004" stop-color="#e38ddd"  />
			<stop offset="1" stop-color="#9571f6"  />
		</linearGradient>
		<linearGradient id="grd13" gradientUnits="userSpaceOnUse"  x1="1291.218" y1="1298.024" x2="1812.124" y2="1967.76">
			<stop offset="0" stop-color="#aa80f9"  />
			<stop offset="0.996" stop-color="#6165d7"  />
		</linearGradient>
		<linearGradient id="grd14" gradientUnits="userSpaceOnUse"  x1="2582.27" y1="1067.433" x2="2166.035" y2="1647.871">
			<stop offset="0" stop-color="#ff9085"  />
			<stop offset="1" stop-color="#fb6fbb"  />
		</linearGradient>
		<linearGradient id="grd15" gradientUnits="userSpaceOnUse"  x1="1358.219" y1="913.939" x2="958.169" y2="2224.629">
			<stop offset="0" stop-color="#ffc444"  />
			<stop offset="0.996" stop-color="#f36f56"  />
		</linearGradient>
		<linearGradient id="grd16" gradientUnits="userSpaceOnUse"  x1="979.682" y1="2704.782" x2="1759.59" y2="1617.203">
			<stop offset="0" stop-color="#ff9085"  />
			<stop offset="1" stop-color="#fb6fbb"  />
		</linearGradient>
		<linearGradient id="grd17" gradientUnits="userSpaceOnUse"  x1="2573.282" y1="2970.888" x2="2595.627" y2="3246.794">
			<stop offset="0" stop-color="#311944"  />
			<stop offset="1" stop-color="#a03976"  />
		</linearGradient>
		<linearGradient id="grd18" gradientUnits="userSpaceOnUse"  x1="2547.197" y1="3128.371" x2="2542.502" y2="2838.42">
			<stop offset="0" stop-color="#ffc444"  />
			<stop offset="0.996" stop-color="#f36f56"  />
		</linearGradient>
		<linearGradient id="grd19" gradientUnits="userSpaceOnUse"  x1="2991.021" y1="2927.166" x2="3014.993" y2="3223.159">
			<stop offset="0" stop-color="#311944"  />
			<stop offset="1" stop-color="#a03976"  />
		</linearGradient>
		<linearGradient id="grd20" gradientUnits="userSpaceOnUse"  x1="2943.558" y1="3119.001" x2="2938.91" y2="2831.918">
			<stop offset="0" stop-color="#ffc444"  />
			<stop offset="0.996" stop-color="#f36f56"  />
		</linearGradient>
		<linearGradient id="grd21" gradientUnits="userSpaceOnUse"  x1="2492.665" y1="2172.107" x2="2706.924" y2="2171.592">
			<stop offset="0" stop-color="#444b8c"  />
			<stop offset="0.996" stop-color="#3e4177"  />
		</linearGradient>
		<linearGradient id="grd22" gradientUnits="userSpaceOnUse"  x1="2492.033" y1="2172.11" x2="2706.895" y2="2171.594">
			<stop offset="0" stop-color="#444b8c"  />
			<stop offset="0.996" stop-color="#3e4177"  />
		</linearGradient>
		<linearGradient id="grd23" gradientUnits="userSpaceOnUse"  x1="2554.153" y1="2158.577" x2="3007.74" y2="2157.488">
			<stop offset="0" stop-color="#444b8c"  />
			<stop offset="0.996" stop-color="#3e4177"  />
		</linearGradient>
		<linearGradient id="grd24" gradientUnits="userSpaceOnUse"  x1="2925.419" y1="1579.731" x2="2878.449" y2="1994.076">
			<stop offset="0" stop-color="#ffc444"  />
			<stop offset="0.996" stop-color="#f36f56"  />
		</linearGradient>
		<linearGradient id="grd25" gradientUnits="userSpaceOnUse"  x1="2795.493" y1="1685.156" x2="2728.109" y2="1486.86">
			<stop offset="0" stop-color="#444b8c"  />
			<stop offset="0.996" stop-color="#3e4177"  />
		</linearGradient>
		<linearGradient id="grd26" gradientUnits="userSpaceOnUse"  x1="2825.889" y1="1516.47" x2="2862.026" y2="1815.424">
			<stop offset="0" stop-color="#ffc444"  />
			<stop offset="0.996" stop-color="#f36f56"  />
		</linearGradient>
		<linearGradient id="grd27" gradientUnits="userSpaceOnUse"  x1="2232.037" y1="1903.901" x2="2599.204" y2="1903.901">
			<stop offset="0" stop-color="#aa80f9"  />
			<stop offset="0.996" stop-color="#6165d7"  />
		</linearGradient>
		<linearGradient id="grd28" gradientUnits="userSpaceOnUse"  x1="2174.097" y1="2077.219" x2="2234.502" y2="2113.817">
			<stop offset="0" stop-color="#ffc444"  />
			<stop offset="0.996" stop-color="#f36f56"  />
		</linearGradient>
		<linearGradient id="grd29" gradientUnits="userSpaceOnUse"  x1="2465.492" y1="1845.744" x2="3206.945" y2="1845.744">
			<stop offset="0" stop-color="#aa80f9"  />
			<stop offset="0.996" stop-color="#6165d7"  />
		</linearGradient>
		<linearGradient id="grd30" gradientUnits="userSpaceOnUse"  x1="2083.544" y1="2004.887" x2="3013.433" y2="2004.887">
			<stop offset="0" stop-color="#444b8c"  />
			<stop offset="0.996" stop-color="#26264f"  />
		</linearGradient>
		<linearGradient id="grd31" gradientUnits="userSpaceOnUse"  x1="1266.011" y1="1390.198" x2="2132.991" y2="1390.198">
			<stop offset="0" stop-color="#444b8c"  />
			<stop offset="0.996" stop-color="#26264f"  />
		</linearGradient>
		<linearGradient id="grd32" gradientUnits="userSpaceOnUse"  x1="1686.545" y1="2416.257" x2="1686.545" y2="1414.761">
			<stop offset="0" stop-color="#444b8c"  />
			<stop offset="0.996" stop-color="#26264f"  />
		</linearGradient>
		<linearGradient id="grd33" gradientUnits="userSpaceOnUse"  x1="1685.402" y1="2388.753" x2="1685.402" y2="1444.013">
			<stop offset="0" stop-color="#444b8c"  />
			<stop offset="0.996" stop-color="#26264f"  />
		</linearGradient>
		<linearGradient id="grd34" gradientUnits="userSpaceOnUse"  x1="3007.774" y1="2374.212" x2="3043.954" y2="2280.892">
			<stop offset="0" stop-color="#ffc444"  />
			<stop offset="0.996" stop-color="#f36f56"  />
		</linearGradient>
		<linearGradient id="grd35" gradientUnits="userSpaceOnUse"  x1="2835.427" y1="1565.752" x2="2847.77" y2="1746.583">
			<stop offset="0" stop-color="#444b8c"  />
			<stop offset="0.996" stop-color="#26264f"  />
		</linearGradient>
		<linearGradient id="grd36" gradientUnits="userSpaceOnUse"  x1="2689.995" y1="1957.815" x2="2689.995" y2="1497.637">
			<stop offset="0" stop-color="#444b8c"  />
			<stop offset="0.996" stop-color="#26264f"  />
		</linearGradient>
		<linearGradient id="grd37" gradientUnits="userSpaceOnUse"  x1="3144.749" y1="727.664" x2="2938.692" y2="1617.981">
			<stop offset="0" stop-color="#d8dee8"  />
			<stop offset="1" stop-color="#ffffff"  />
		</linearGradient>
		<linearGradient id="grd38" gradientUnits="userSpaceOnUse"  x1="2993.948" y1="798.96" x2="2575.121" y2="1483.65">
			<stop offset="0" stop-color="#ff9085"  />
			<stop offset="1" stop-color="#fb6fbb"  />
		</linearGradient>
		<linearGradient id="grd39" gradientUnits="userSpaceOnUse"  x1="2284.157" y1="953.08" x2="2188.173" y2="1252.615">
			<stop offset="0" stop-color="#ff9085"  />
			<stop offset="1" stop-color="#fb6fbb"  />
		</linearGradient>
		<linearGradient id="grd40" gradientUnits="userSpaceOnUse"  x1="2357.165" y1="1050.13" x2="2303.933" y2="1216.252">
			<stop offset="0" stop-color="#ff9085"  />
			<stop offset="1" stop-color="#fb6fbb"  />
		</linearGradient>
		<linearGradient id="grd41" gradientUnits="userSpaceOnUse"  x1="2445.022" y1="1096.202" x2="2412.047" y2="1199.104">
			<stop offset="0" stop-color="#ff9085"  />
			<stop offset="1" stop-color="#fb6fbb"  />
		</linearGradient>
		<linearGradient id="grd42" gradientUnits="userSpaceOnUse"  x1="2629.309" y1="836.796" x2="2481.81" y2="1297.097">
			<stop offset="0" stop-color="#ff9085"  />
			<stop offset="1" stop-color="#fb6fbb"  />
		</linearGradient>
		<linearGradient id="grd43" gradientUnits="userSpaceOnUse"  x1="2716.996" y1="874.407" x2="2586.022" y2="1283.138">
			<stop offset="0" stop-color="#ff9085"  />
			<stop offset="1" stop-color="#fb6fbb"  />
		</linearGradient>
		<linearGradient id="grd44" gradientUnits="userSpaceOnUse"  x1="2834.571" y1="814.389" x2="2677.046" y2="1305.977">
			<stop offset="0" stop-color="#ff9085"  />
			<stop offset="1" stop-color="#fb6fbb"  />
		</linearGradient>
		<linearGradient id="grd45" gradientUnits="userSpaceOnUse"  x1="2900.852" y1="910.178" x2="2785.522" y2="1270.089">
			<stop offset="0" stop-color="#ff9085"  />
			<stop offset="1" stop-color="#fb6fbb"  />
		</linearGradient>
		<linearGradient id="grd46" gradientUnits="userSpaceOnUse"  x1="2962.932" y1="1014.907" x2="2893.74" y2="1230.832">
			<stop offset="0" stop-color="#ff9085"  />
			<stop offset="1" stop-color="#fb6fbb"  />
		</linearGradient>
	</defs>
	<style>
		tspan { white-space:pre }
		.shp0 { fill: url(#grd1) } 
		.shp1 { fill: #d8dee8 } 
		.shp2 { opacity: 0.302;fill: url(#grd2) } 
		.shp3 { opacity: 0.6;fill: url(#grd3) } 
		.shp4 { opacity: 0.6;fill: url(#grd4) } 
		.shp5 { opacity: 0.6;fill: url(#grd5) } 
		.shp6 { opacity: 0.6;fill: url(#grd6) } 
		.shp7 { opacity: 0.6;fill: url(#grd7) } 
		.shp8 { opacity: 0.6;fill: url(#grd8) } 
		.shp9 { opacity: 0.349;mix-blend-mode: soft-light;fill: #ffffff } 
		.shp10 { fill: url(#grd9) } 
		.shp11 { fill: url(#grd10) } 
		.shp12 { fill: url(#grd11) } 
		.shp13 { fill: url(#grd12) } 
		.shp14 { fill: url(#grd13) } 
		.shp15 { fill: url(#grd14) } 
		.shp16 { fill: url(#grd15) } 
		.shp17 { opacity: 0.671;fill: #ffffff } 
		.shp18 { opacity: 0.302;mix-blend-mode: multiply;fill: url(#grd16) } 
		.shp19 { fill: url(#grd17) } 
		.shp20 { fill: url(#grd18) } 
		.shp21 { fill: url(#grd19) } 
		.shp22 { fill: url(#grd20) } 
		.shp23 { fill: url(#grd21) } 
		.shp24 { opacity: 0.302;mix-blend-mode: multiply;fill: url(#grd22) } 
		.shp25 { fill: url(#grd23) } 
		.shp26 { fill: #ffffff } 
		.shp27 { fill: url(#grd24) } 
		.shp28 { fill: url(#grd25) } 
		.shp29 { fill: url(#grd26) } 
		.shp30 { opacity: 0.302;mix-blend-mode: multiply;fill: url(#grd27) } 
		.shp31 { fill: url(#grd28) } 
		.shp32 { opacity: 0.302;mix-blend-mode: multiply;fill: url(#grd29) } 
		.shp33 { fill: url(#grd30) } 
		.shp34 { fill: url(#grd31) } 
		.shp35 { opacity: 0.302;mix-blend-mode: multiply;fill: #d8dee8 } 
		.shp36 { fill: url(#grd32) } 
		.shp37 { fill: url(#grd33) } 
		.shp38 { fill: url(#grd34) } 
		.shp39 { fill: url(#grd35) } 
		.shp40 { fill: url(#grd36) } 
		.shp41 { fill: url(#grd37) } 
		.shp42 { fill: url(#grd38) } 
		.shp43 { fill: url(#grd39) } 
		.shp44 { fill: url(#grd40) } 
		.shp45 { fill: url(#grd41) } 
		.shp46 { fill: url(#grd42) } 
		.shp47 { fill: url(#grd43) } 
		.shp48 { fill: url(#grd44) } 
		.shp49 { fill: url(#grd45) } 
		.shp50 { fill: url(#grd46) } 
	</style>
	<g id="Illustration">
		<g id="Business analysis">
			<g id="&lt;Group&gt;">
				<g id="&lt;Group&gt;">
					<g id="&lt;Group&gt;">
						<path id="&lt;Path&gt;" class="shp0" d="M2111.58 509.59L700.19 461.82C667.92 460.73 641.71 485.73 641.71 517.66L641.71 3081.48C641.71 3113.42 667.92 3137.81 700.19 3135.98L2111.58 3055.72C2140.77 3054.06 2164.39 3028.17 2164.39 2997.88L2164.39 566.22C2164.39 535.93 2140.77 510.58 2111.58 509.59Z" />
						<g id="&lt;Group&gt;" style="opacity: 0.302;mix-blend-mode: multiply">
							<path id="&lt;Path&gt;" class="shp1" d="M1532.48 2402.78C1508.48 2109.62 1688.56 1988.62 1619.89 1723.02C1535 1394.72 1208.53 1380.65 1097.35 1058.71C1054.75 935.36 1037.92 748.88 1159.87 477.38L700.19 461.82C667.92 460.73 641.71 485.73 641.71 517.66L641.71 3081.48C641.71 3113.42 667.92 3137.81 700.19 3135.98L1958.67 3064.42C1638.48 2816.5 1547.23 2582.96 1532.48 2402.78Z" />
						</g>
						<path id="&lt;Path&gt;" class="shp2" d="M2111.58 541.96L700.19 495.82C686.96 495.39 676.19 505.68 676.19 518.76L676.19 3079.59C676.19 3092.67 686.96 3102.72 700.19 3101.98L2111.58 3023.35C2123.56 3022.68 2133.3 3012.02 2133.3 2999.58L2133.3 565.23C2133.3 552.79 2123.56 542.35 2111.58 541.96Z" />
					</g>
					<g id="&lt;Group&gt;">
						<path id="&lt;Path&gt;" class="shp3" d="M1845.02 2480.6L988.61 2511.46C968.4 2512.19 951.99 2529.15 951.99 2549.35C951.99 2569.55 968.4 2585.29 988.61 2584.51L1845.02 2551.51C1864.04 2550.78 1879.44 2534.33 1879.44 2514.77C1879.44 2495.22 1864.04 2479.92 1845.02 2480.6Z" />
						<path id="&lt;Path&gt;" class="shp4" d="M1845.02 2606.91L988.61 2641.59C968.4 2642.41 951.99 2659.44 951.99 2679.64C951.99 2699.84 968.4 2715.51 988.61 2714.64L1845.02 2677.82C1864.04 2677 1879.44 2660.49 1879.44 2640.93C1879.44 2621.37 1864.04 2606.14 1845.02 2606.91Z" />
						<path id="&lt;Path&gt;" class="shp5" d="M1845.02 2733.22L988.61 2771.72C968.4 2772.62 951.99 2789.74 951.99 2809.93C951.99 2830.13 968.4 2845.73 988.61 2844.77L1845.02 2804.13C1864.04 2803.23 1879.44 2786.64 1879.44 2767.09C1879.44 2747.53 1864.04 2732.37 1845.02 2733.22Z" />
					</g>
					<g id="&lt;Group&gt;">
						<path id="&lt;Path&gt;" class="shp6" d="M1400.92 644.48L970.13 632.28C960.11 632 951.99 639.87 951.99 649.87C951.99 659.87 960.11 668.19 970.13 668.46L1400.92 680.13C1410.63 680.39 1418.51 672.63 1418.51 662.8C1418.51 652.96 1410.63 644.76 1400.92 644.48Z" />
						<path id="&lt;Path&gt;" class="shp7" d="M1400.92 707.98L970.13 696.73C960.11 696.47 951.99 704.36 951.99 714.36C951.99 724.36 960.11 732.66 970.13 732.91L1400.92 743.63C1410.63 743.87 1418.51 736.09 1418.51 726.25C1418.51 716.42 1410.63 708.24 1400.92 707.98Z" />
						<path id="&lt;Path&gt;" class="shp8" d="M1400.92 771.48L970.13 761.18C960.11 760.94 951.99 768.85 951.99 778.85C951.99 788.84 960.11 797.13 970.13 797.36L1400.92 807.13C1410.63 807.35 1418.51 799.55 1418.51 789.71C1418.51 779.87 1410.63 771.71 1400.92 771.48Z" />
					</g>
				</g>
				<path id="&lt;Path&gt;" class="shp9" d="M1535.73 2402.67C1511.73 2109.55 1691.77 1988.56 1623.11 1722.99C1538.25 1394.73 1211.85 1380.66 1100.7 1058.76C1059.87 940.51 1042.71 764.22 1148.88 510.49L703.62 495.93C690.4 495.5 679.63 505.79 679.63 518.87L679.63 3079.4C679.63 3092.48 690.4 3102.52 703.62 3101.79L1923.6 3033.82C1634.31 2797.15 1549.87 2575.38 1535.73 2402.67Z" />
			</g>
			<g id="&lt;Group&gt;">
				<g id="&lt;Group&gt;">
					<g id="&lt;Group&gt;">
						<g id="&lt;Group&gt;">
							<path id="&lt;Path&gt;" class="shp10" d="M2368.06 454.63L896.51 404.82C862.87 403.69 835.54 429.75 835.54 463.05L835.54 3136.15C835.54 3169.45 862.87 3194.88 896.51 3192.97L2368.06 3109.29C2398.5 3107.56 2423.12 3080.56 2423.12 3048.98L2423.12 513.67C2423.12 482.09 2398.5 455.66 2368.06 454.63Z" />
							<g id="&lt;Group&gt;" style="opacity: 0.302;mix-blend-mode: multiply">
								<path id="&lt;Path&gt;" class="shp1" d="M1764.28 2428.51C1739.26 2122.87 1927.01 1996.71 1855.41 1719.79C1766.91 1377.49 1426.53 1362.82 1310.61 1027.16C1266.19 898.55 1248.64 704.12 1375.79 421.05L896.51 404.82C862.87 403.69 835.54 429.75 835.54 463.05L835.54 3136.15C835.54 3169.45 862.87 3194.88 896.51 3192.97L2208.64 3118.36C1874.8 2859.87 1779.67 2616.38 1764.28 2428.51Z" />
							</g>
							<path id="&lt;Path&gt;" class="shp11" d="M2368.06 488.38L896.51 440.27C882.72 439.82 871.49 450.55 871.49 464.19L871.49 3134.18C871.49 3147.82 882.72 3158.29 896.51 3157.52L2368.06 3075.54C2380.55 3074.84 2390.71 3063.73 2390.71 3050.76L2390.71 512.64C2390.71 499.67 2380.55 488.79 2368.06 488.38Z" />
						</g>
						<g id="&lt;Group&gt;">
							<path id="&lt;Path&gt;" class="shp1" d="M2090.14 2509.66L1197.23 2541.83C1176.15 2542.59 1159.04 2560.28 1159.04 2581.34C1159.04 2602.4 1176.15 2618.81 1197.23 2618L2090.14 2583.59C2109.97 2582.83 2126.03 2565.68 2126.03 2545.29C2126.03 2524.89 2109.97 2508.94 2090.14 2509.66Z" />
							<path id="&lt;Path&gt;" class="shp1" d="M2090.14 2641.35L1197.23 2677.51C1176.15 2678.36 1159.04 2696.12 1159.04 2717.18C1159.04 2738.24 1176.15 2754.58 1197.23 2753.67L2090.14 2715.28C2109.97 2714.43 2126.03 2697.21 2126.03 2676.82C2126.03 2656.43 2109.97 2640.55 2090.14 2641.35Z" />
							<path id="&lt;Path&gt;" class="shp1" d="M2090.14 2773.05L1197.23 2813.18C1176.15 2814.13 1159.04 2831.97 1159.04 2853.03C1159.04 2874.09 1176.15 2890.35 1197.23 2889.35L2090.14 2846.98C2109.97 2846.04 2126.03 2828.75 2126.03 2808.35C2126.03 2787.96 2109.97 2772.15 2090.14 2773.05Z" />
						</g>
						<g id="&lt;Group&gt;">
							<path id="&lt;Path&gt;" class="shp1" d="M1627.11 595.28L1177.96 582.56C1167.52 582.26 1159.04 590.47 1159.04 600.89C1159.04 611.32 1167.52 620 1177.96 620.28L1627.11 632.44C1637.24 632.72 1645.45 624.63 1645.45 614.37C1645.45 604.11 1637.24 595.56 1627.11 595.28Z" />
							<path id="&lt;Path&gt;" class="shp1" d="M1627.11 661.48L1177.96 649.75C1167.52 649.48 1159.04 657.71 1159.04 668.13C1159.04 678.55 1167.52 687.21 1177.96 687.47L1627.11 698.65C1637.24 698.9 1645.45 690.79 1645.45 680.53C1645.45 670.27 1637.24 661.75 1627.11 661.48Z" />
							<path id="&lt;Path&gt;" class="shp1" d="M1627.11 727.68L1177.96 716.94C1167.52 716.69 1159.04 724.94 1159.04 735.37C1159.04 745.79 1167.52 754.43 1177.96 754.67L1627.11 764.85C1637.24 765.08 1645.45 756.95 1645.45 746.69C1645.45 736.44 1637.24 727.93 1627.11 727.68Z" />
						</g>
					</g>
					<g id="&lt;Group&gt;">
						<g id="&lt;Group&gt;">
							<path id="&lt;Path&gt;" class="shp12" d="M1454.05 1438.77C1483.21 1383.61 1537.79 1344.42 1601.74 1337.11L1606.2 1064.51C1423.93 1069.27 1266.92 1181.66 1196.58 1342.74L1454.05 1438.77Z" />
							<path id="&lt;Path&gt;" class="shp13" d="M1811.55 1562.74C1795.98 1653.32 1718.24 1722.83 1624.13 1723.7C1596.32 1723.96 1569.84 1718.19 1545.9 1707.59L1403.05 1942.41C1469.08 1977.48 1544.44 1996.64 1624.13 1995.18C1861.11 1990.84 2053.07 1805.4 2074.7 1572.69L1811.55 1562.74Z" />
							<path id="&lt;Path&gt;" class="shp14" d="M1358.93 1915.67L1502.19 1680.65C1459.02 1645.23 1431.43 1591.12 1431.43 1530.33C1431.43 1515.64 1433.05 1501.33 1436.11 1487.57L1178.33 1391.9C1164.76 1435.88 1157.44 1482.64 1157.44 1531.1C1157.44 1691.58 1237.44 1832.36 1358.93 1915.67Z" />
						</g>
						<g id="&lt;Group&gt;">
							<path id="&lt;Path&gt;" class="shp15" d="M1652.78 1338.14C1738.77 1351.53 1805.6 1422.92 1813.58 1511.39L2249.1 1528.6C2249.1 1528.41 2249.1 1528.22 2249.1 1528.02C2249.1 1190.48 1991.39 910.01 1660.19 885.1L1652.78 1338.14Z" />
						</g>
					</g>
					<path id="&lt;Path&gt;" class="shp9" d="M1767.67 2428.4C1742.65 2122.79 1930.36 1996.65 1858.78 1719.76C1770.3 1377.5 1429.99 1362.83 1314.1 1027.21C1271.52 903.92 1253.64 720.12 1364.33 455.57L900.1 440.39C886.31 439.94 875.08 450.67 875.08 464.31L875.08 3133.98C875.08 3147.62 886.31 3158.09 900.1 3157.32L2172.07 3086.46C1870.45 2839.7 1782.41 2608.47 1767.67 2428.4Z" />
				</g>
				<g id="&lt;Group&gt;">
					<path id="&lt;Path&gt;" class="shp16" d="M1275.54 1178.43L563.36 1171.34C547.25 1171.18 534.18 1158.35 534.18 1142.68L534.18 871.8C534.18 856.14 547.25 843.75 563.36 844.13L1183.35 858.9C1198.6 859.27 1210.95 871.89 1210.95 887.11L1210.95 1119.92L1275.54 1178.43Z" />
					<path id="&lt;Path&gt;" class="shp17" d="M1110.91 956.8L639.27 947.6L639.27 915.13L1110.91 924.97L1110.91 956.8Z" />
					<path id="&lt;Path&gt;" class="shp17" d="M1110.91 1020.44L639.27 1012.55L639.27 980.07L1110.91 988.62L1110.91 1020.44Z" />
					<path id="&lt;Path&gt;" class="shp17" d="M1110.91 1084.09L639.27 1077.5L639.27 1045.02L1110.91 1052.26L1110.91 1084.09Z" />
				</g>
				<g id="&lt;Group&gt;">
					<path id="&lt;Path&gt;" class="shp18" d="M1651.58 1962.9L2507.94 1944.5C2530.23 1944.02 2548.29 1962.32 2548.29 1985.38L2548.29 2384.1C2548.29 2407.16 2530.23 2426.46 2507.94 2427.21L1605.35 2457.63C1582 2458.42 1563.05 2439.9 1563.05 2416.26L1563.05 1895.07L1651.58 1962.9Z" />
					<path id="&lt;Path&gt;" class="shp17" d="M1715.48 2300.45L2402.1 2279.92L2402.1 2328.11L1715.48 2349.47L1715.48 2300.45Z" />
					<path id="&lt;Path&gt;" class="shp17" d="M1715.48 2202.4L2402.1 2183.54L2402.1 2231.73L1715.48 2251.42L1715.48 2202.4Z" />
					<path id="&lt;Path&gt;" class="shp17" d="M1715.48 2104.34L2402.1 2087.15L2402.1 2135.35L1715.48 2153.37L1715.48 2104.34Z" />
				</g>
			</g>
			<g id="&lt;Group&gt;">
				<path id="&lt;Path&gt;" class="shp19" d="M2552 3114.02C2489.64 3142.54 2457.96 3159.07 2456.95 3163.6C2455.44 3170.4 2517.16 3161.18 2542.37 3162.1C2567.58 3163.02 2588.3 3155.52 2586 3144.84C2584.46 3137.73 2580.72 3125.23 2574.8 3107.34L2552 3114.02Z" />
				<path id="&lt;Path&gt;" class="shp20" d="M2548.49 3079.49L2554.29 3121.64C2564.18 3125.13 2572.44 3124.79 2579.07 3120.61L2583.2 3074.37L2548.49 3079.49Z" />
				<path id="&lt;Path&gt;" class="shp21" d="M2989.46 3079.44L3000.4 3096.9C3003.45 3101.78 3004.38 3107.67 3002.93 3113.25C2999.16 3127.79 2991.62 3156.15 2988.32 3163.54C2985.32 3170.26 2963.63 3175.66 2923.24 3179.74C2919.63 3174.68 2922.01 3169.08 2930.38 3162.94C2942.94 3153.72 2951.02 3152.26 2955.43 3138.7C2958.37 3129.65 2960.79 3112.35 2962.71 3086.79L2989.46 3079.44Z" />
				<path id="&lt;Path&gt;" class="shp22" d="M2944.02 3035.12C2946.68 3037.23 2954.54 3057.96 2967.61 3097.31C2971.83 3102.67 2977.91 3101.37 2985.87 3093.43C2993.83 3085.48 2995.63 3083.7 2991.27 3088.08L2988.89 3029.99L2944.02 3035.12Z" />
				<path id="&lt;Path&gt;" class="shp23" d="M2494.94 2232.62C2490.3 2358.39 2490.42 2495.02 2498.01 2640.97C2506.55 2805.31 2523.29 2957.19 2544.25 3094.85C2551.93 3095.08 2559.99 3095.1 2568.4 3094.84C2574.09 3094.67 2579.6 3094.38 2584.92 3094C2595.56 3065.42 2608.13 3027.84 2619.35 2982.96C2631.15 2935.77 2638.24 2893.44 2643.26 2852.98C2660.95 2710.49 2639.79 2698.12 2654.17 2592.52C2666.91 2499 2685.33 2495.3 2706.65 2362.52C2729.77 2218.44 2712.25 2196.87 2703.73 2189.09C2667.47 2155.94 2582.54 2178.77 2494.94 2232.62Z" />
				<path id="&lt;Path&gt;" class="shp24" d="M2703.73 2189.09C2669.15 2157.48 2590.28 2176.85 2507.05 2225.43C2603.18 2328.79 2613.8 2395.97 2602.41 2439.6C2589.53 2488.91 2550.07 2503.2 2550.35 2557.09C2550.69 2623.31 2610.5 2640.71 2609.4 2710.79C2608.67 2757.13 2582.41 2756.71 2576.34 2813.96C2569.17 2881.7 2603.54 2904.95 2592.54 2955.08C2587.81 2976.64 2574.24 3004.84 2535.44 3033.95C2538.29 3054.52 2541.21 3074.88 2544.26 3094.85C2551.93 3095.08 2559.99 3095.1 2568.4 3094.84C2574.09 3094.67 2579.6 3094.38 2584.92 3094C2595.56 3065.42 2608.13 3027.84 2619.35 2982.96C2631.15 2935.77 2638.24 2893.44 2643.26 2852.98C2660.95 2710.49 2639.79 2698.12 2654.17 2592.52C2666.91 2499 2685.33 2495.3 2706.65 2362.51C2729.77 2218.43 2712.25 2196.87 2703.73 2189.09Z" />
				<path id="&lt;Path&gt;" class="shp25" d="M2554.32 2230.36C2637.17 2350.97 2726.59 2501.1 2806.66 2680.86C2867.16 2816.71 2911.12 2944.29 2943.44 3058.01C2947.78 3060 2958.02 3063.99 2971.09 3062.23C2988.91 3059.83 2999.57 3048.42 3002.35 3045.24C3015.2 2963.63 3013.6 2894.54 3009.05 2844.69C3006.14 2812.78 3000.99 2759.62 2980.49 2694.04C2957.52 2620.58 2941.84 2616.48 2911.92 2538.77C2880.86 2458.12 2888.29 2437.95 2858.49 2336.99C2846.25 2295.52 2825.77 2233.81 2792.06 2160.01C2712.81 2183.46 2633.57 2206.91 2554.32 2230.36Z" />
				<path id="&lt;Path&gt;" class="shp26" d="M2217.77 2060.19C2218.55 2089.54 2266.79 2115.39 2305.62 2123.32C2396.43 2141.85 2501.7 2075.87 2551.67 2002.88C2561.48 1988.55 2572.38 1971.18 2575.01 1972.52C2580.95 1975.56 2526.36 2065.26 2502.7 2167.27C2490.59 2219.45 2493.76 2243.89 2471.12 2278.64C2465.99 2286.51 2459.67 2294.7 2461.89 2304.01C2467.45 2327.33 2520.78 2333.39 2557.77 2337.59C2596.83 2342.02 2633.25 2341.59 2669.26 2341.07C2726.89 2340.23 2731.43 2337.23 2744.59 2343.69C2784.68 2363.36 2781.96 2410.5 2812.13 2416.79C2837.46 2422.07 2863.16 2393.78 2871.31 2384.81C2913.67 2338.19 2911.4 2281.97 2918.92 2225.27C2936.38 2093.45 3008 1949.03 3078.05 1857.6C3099.3 1829.88 3114.08 1815.29 3115 1789.52C3117.71 1713.88 2997.87 1630.37 2898.09 1620.78C2870.74 1618.15 2821.77 1618.98 2775.86 1623.31C2757.51 1625.03 2737.98 1627.58 2716.98 1631.25C2666.06 1640.16 2630.61 1646.36 2594.48 1662.89C2448.81 1729.54 2480.6 1877.92 2322.92 1980.5C2268.71 2015.77 2216.95 2029.46 2217.77 2060.19Z" />
				<path id="&lt;Path&gt;" class="shp27" d="M2814.65 1542.31C2818.83 1565.58 2825.71 1585.51 2835.31 1602.08C2848.33 1624.54 2902.15 1632.59 2913.36 1636.5C2924.57 1640.41 2896.44 1659.94 2866.53 1667.02C2836.62 1674.1 2749.13 1678.73 2731.99 1669.31C2714.86 1659.9 2743.12 1657.02 2763.7 1646.2C2784.28 1635.37 2791.17 1591.39 2784.8 1572.69C2780.55 1560.22 2790.5 1550.09 2814.65 1542.31Z" />
				<g id="&lt;Group&gt;">
					<path id="&lt;Path&gt;" class="shp28" d="M2757.79 1532.2C2736.08 1516.69 2730.07 1474.74 2742.13 1465.32C2745.57 1462.63 2748.86 1463.87 2797.85 1483.51C2822.18 1493.27 2834.14 1498.47 2838.08 1509.21C2840.49 1515.77 2840.1 1524.63 2837.44 1531.61C2836.07 1535.2 2833.41 1539.67 2827.48 1548.21C2822.21 1555.78 2822.57 1555.53 2820.96 1557.73C2817.08 1563.02 2809.6 1571.92 2795.91 1582.24C2795.15 1578.38 2793.94 1573.59 2791.92 1568.36C2791.15 1566.35 2788.02 1558.49 2783.06 1551.87C2774.52 1540.48 2764.83 1537.24 2757.79 1532.2Z" />
					<path id="&lt;Path&gt;" class="shp29" d="M2813.42 1572.1C2803.95 1586.2 2790.45 1592.3 2772.91 1590.38C2749.36 1587.81 2748.22 1534.69 2763.8 1524.11C2768.99 1520.58 2779.14 1519.47 2787.24 1522.12C2792.02 1523.69 2793.57 1525.77 2801.43 1528.18C2808.68 1530.41 2810.79 1529.68 2812.93 1531.65C2815.59 1534.1 2817.37 1539.9 2812.07 1555.19C2816.77 1550.82 2822.26 1549.31 2826.01 1551.28C2826.61 1551.6 2828.19 1552.77 2829.02 1554.48C2832.06 1560.68 2826.2 1568.16 2813.42 1572.1Z" />
				</g>
				<path id="&lt;Path&gt;" class="shp30" d="M2345.14 2055.68C2410.98 2040.85 2437.21 2041.33 2469.77 2015.1C2523.98 1971.43 2532.12 1904.95 2563.62 1905.76C2578.5 1906.15 2590.6 1921.35 2599.2 1936.24C2591.27 1948.66 2583.34 1961.08 2575.41 1973.5C2575.38 1973.02 2575.28 1972.66 2575.01 1972.52C2572.38 1971.18 2561.48 1988.55 2551.67 2002.88C2501.7 2075.87 2396.43 2141.85 2305.62 2123.32C2279.59 2118 2249.39 2104.61 2232.04 2087.53C2276.85 2072.4 2315.13 2062.44 2345.14 2055.68Z" />
				<path id="&lt;Path&gt;" class="shp31" d="M2237.92 2112.29C2213.15 2109.83 2193.39 2105.44 2178.63 2099.13C2156.49 2089.65 2142.19 2103.25 2144.23 2112.67C2146.26 2122.08 2182.68 2135.19 2197.23 2135.66C2206.93 2135.97 2220.49 2128.18 2237.92 2112.29Z" />
				<path id="&lt;Path&gt;" class="shp26" d="M3038.02 2308.79C3077.9 2312.35 3167.69 2313.97 3231.19 2255.23C3336.9 2157.43 3284.46 1971.27 3247.66 1891.21C3205.47 1799.42 3138.32 1748.04 3097.51 1716.82C3046.89 1678.08 3015.98 1654.43 2978.81 1659.73C2882.66 1673.42 2816.07 1870.48 2868.85 1926.9C2886.13 1945.37 2903.24 1934.91 2953.25 1950.84C2969.53 1956.02 3091.08 1994.74 3112.25 2084.26C3127.06 2146.92 3089.35 2220.28 3022.23 2269.56C3027.49 2282.64 3032.75 2295.71 3038.02 2308.79Z" />
				<path id="&lt;Path&gt;" class="shp32" d="M2590.94 2276.33C2636.1 2247.8 2642.78 2218.87 2693.34 2199.33C2759.03 2173.94 2790.6 2206.19 2823.17 2180.16C2861.93 2149.17 2827.62 2095.18 2856.62 2001.5C2861.54 1985.6 2898.93 1864.83 2984.73 1849.44C3024.73 1842.26 3077.57 1857.59 3097.94 1891.49C3113.87 1918.02 3099.03 1937.8 3118.4 1967.09C3137.76 1996.37 3160.92 1989.21 3185.6 2013.62C3224.79 2052.39 3230.79 2134.13 3195.41 2180.36C3178.91 2201.93 3157.47 2210.45 3117.11 2226.5C3092.47 2236.3 3069.55 2242.39 3049.82 2246.26C3099.23 2198.84 3124.87 2137.68 3112.24 2084.26C3099.05 2028.46 3046.86 1992.4 3005.46 1971.9C2964.04 2049.85 2930.19 2140.18 2918.92 2225.27C2911.4 2281.97 2913.67 2338.19 2871.31 2384.81C2863.16 2393.78 2837.46 2422.07 2812.13 2416.79C2781.96 2410.5 2784.68 2363.36 2744.59 2343.69C2731.43 2337.23 2726.89 2340.23 2669.26 2341.07C2633.25 2341.59 2596.83 2342.02 2557.77 2337.59C2524.88 2333.85 2479.14 2328.62 2465.49 2311.11C2524.88 2309.49 2564.52 2293.03 2590.94 2276.33Z" />
				<g id="&lt;Group&gt;">
					<path id="&lt;Path&gt;" class="shp33" d="M3011.83 2340.14L3016.48 2326.47C3023.88 2304.68 3011.7 2281.44 2989.29 2274.61L2110.33 2006.86L2083.54 2097.64L2958.06 2367C2980.36 2373.87 3004.44 2361.86 3011.83 2340.14Z" />
					<path id="&lt;Compound Path&gt;" fill-rule="evenodd" class="shp34" d="M1236.89 1760.92C1304.09 1495.42 1567.44 1335.42 1827.88 1410.41C2093.1 1486.77 2244.94 1774.13 2164.36 2045.02C2085.67 2309.54 1815.82 2452.24 1564.01 2370.63C1316.55 2290.43 1171.22 2020.38 1236.89 1760.92ZM2087.86 2021.58C2154.45 1794.89 2027.38 1554.78 1805.91 1490.35C1587.78 1426.89 1366.17 1560.09 1308.99 1783C1252.9 2001.64 1375.38 2229.54 1584.33 2296.68C1796.37 2364.81 2022.57 2243.81 2087.86 2021.58Z" />
					<path id="&lt;Path&gt;" class="shp35" d="M2110.33 2006.86L2222.4 2041C2230.09 2076.74 2245.04 2097.22 2260.09 2109.69C2316.69 2156.62 2392.28 2105.44 2497.74 2160.47C2550.66 2188.08 2540.61 2205.65 2590.21 2224.92C2672.21 2256.77 2709.75 2212.65 2782.32 2241.64C2855.73 2270.96 2862.97 2334.33 2904.6 2332.06C2922.41 2331.09 2945.34 2318.13 2970.9 2269.01L2989.29 2274.61C3011.7 2281.44 3023.88 2304.68 3016.48 2326.47L3011.83 2340.14C3004.44 2361.86 2980.36 2373.87 2958.06 2367L2083.54 2097.64L2110.33 2006.86Z" />
					<path id="&lt;Path&gt;" class="shp26" d="M1563.58 2333.01C1782.91 2403.6 2017.08 2278.6 2084.8 2048.63C2153.92 1813.87 2022.33 1565.16 1792.89 1498.54C1567.04 1432.96 1337.79 1571.02 1278.75 1801.72C1220.88 2027.85 1347.55 2263.49 1563.58 2333.01Z" />
					<path id="&lt;Compound Path&gt;" fill-rule="evenodd" class="shp36" d="M1219.87 1783.69C1287.07 1518.19 1550.42 1358.19 1810.85 1433.18C2076.07 1509.54 2227.91 1796.9 2147.33 2067.79C2068.64 2332.31 1798.79 2475.01 1546.98 2393.4C1299.53 2313.2 1154.19 2043.15 1219.87 1783.69ZM2070.83 2044.35C2137.43 1817.65 2010.36 1577.55 1788.89 1513.12C1570.76 1449.66 1349.15 1582.85 1291.96 1805.77C1235.88 2024.41 1358.36 2252.31 1567.3 2319.45C1779.35 2387.58 2005.55 2266.58 2070.83 2044.35Z" />
					<path id="&lt;Compound Path&gt;" fill-rule="evenodd" class="shp37" d="M1245.32 1791.49C1309.01 1541.05 1557.62 1390.58 1803.07 1461.51C2052.76 1533.67 2195.82 1804.26 2120.23 2059.49C2046.32 2309.05 1791.92 2444.13 1554.15 2367.3C1320.27 2291.73 1183 2036.54 1245.32 1791.49ZM2070.83 2044.35C2137.43 1817.65 2010.36 1577.55 1788.89 1513.12C1570.76 1449.66 1349.15 1582.85 1291.96 1805.77C1235.88 2024.41 1358.36 2252.31 1567.3 2319.45C1779.35 2387.58 2005.55 2266.58 2070.83 2044.35Z" />
				</g>
				<path id="&lt;Path&gt;" class="shp38" d="M3034.63 2300.38L3025.75 2278.3C3016.08 2278.89 3007.28 2276.34 2999.35 2270.65C2992.86 2266 2981.36 2264.62 2978.01 2265.55C2974.67 2266.47 2962.04 2265.92 2976.43 2272.79C2990.83 2279.66 2990.72 2284.76 2984.71 2290.4C2978.71 2296.03 2955.88 2308.16 2947.66 2308.74C2939.44 2309.33 2954.3 2322.04 2962.59 2323.66C2970.88 2325.28 2984.47 2327.34 3001.29 2317.44C3005.38 2315.03 3016.49 2309.34 3034.63 2300.38Z" />
				<g id="&lt;Group&gt;">
					<path id="&lt;Path&gt;" class="shp39" d="M2784.05 1674.61C2783.34 1689.73 2790.31 1703.14 2801.75 1708.59C2809.04 1712.06 2816.19 1711.37 2819.93 1710.69C2826.85 1697.74 2833.77 1684.8 2840.7 1671.85C2833.26 1672.57 2825.58 1673.17 2817.66 1673.63C2805.98 1674.3 2794.76 1674.6 2784.05 1674.61Z" />
					<path id="&lt;Path&gt;" class="shp40" d="M2796.77 1705.6C2781.21 1880.3 2746.16 1981.63 2691.62 2009.6C2693.02 2015.19 2693.02 2040.71 2691.62 2086.16C2742.46 2070.85 2769.33 2063.7 2772.23 2064.71C2776.58 2066.23 2864.59 1920.35 2819.93 1710.69L2796.77 1705.6Z" />
				</g>
			</g>
			<g id="&lt;Group&gt;">
				<g id="&lt;Group&gt;">
					<path id="&lt;Path&gt;" class="shp41" d="M2012.04 679.4L2012.04 1183.32C2012.04 1200.05 2025.59 1213.61 2042.27 1213.61L3006.88 1213.61C3021.4 1213.61 3033.15 1201 3033.15 1185.43L3033.15 716.63L2012.04 679.4Z" />
					<path id="&lt;Path&gt;" class="shp42" d="M3006.88 656.05L2042.27 616.67C2025.59 615.99 2012.04 628.99 2012.04 645.72L2012.04 697.36L3033.15 733.34L3033.15 685.3C3033.15 669.74 3021.4 656.64 3006.88 656.05Z" />
					<path id="&lt;Path&gt;" class="shp26" d="M2081.31 658.47C2081.31 665.87 2075.34 671.65 2067.96 671.38C2060.57 671.1 2054.58 664.87 2054.58 657.45C2054.58 650.04 2060.57 644.26 2067.96 644.55C2075.34 644.83 2081.31 651.07 2081.31 658.47Z" />
				</g>
				<g id="&lt;Group&gt;">
					<path id="&lt;Path&gt;" class="shp26" d="M2219.49 1148.33L2143.83 1147.99L2143.83 773.18L2219.49 775.48L2219.49 1148.33Z" />
					<path id="&lt;Path&gt;" class="shp43" d="M2219.49 1148.33L2143.83 1147.99L2143.83 970.04L2219.49 971.31L2219.49 1148.33Z" />
					<path id="&lt;Path&gt;" class="shp26" d="M2323.45 1148.8L2248.88 1148.47L2248.88 776.37L2323.45 778.63L2323.45 1148.8Z" />
					<path id="&lt;Path&gt;" class="shp44" d="M2323.45 1148.8L2248.88 1148.47L2248.88 1060.13L2323.45 1060.93L2323.45 1148.8Z" />
					<path id="&lt;Path&gt;" class="shp26" d="M2425.92 1149.27L2352.41 1148.93L2352.41 779.51L2425.92 781.74L2425.92 1149.27Z" />
					<path id="&lt;Path&gt;" class="shp45" d="M2425.92 1149.27L2352.41 1148.93L2352.41 1102.89L2425.92 1103.46L2425.92 1149.27Z" />
					<path id="&lt;Path&gt;" class="shp26" d="M2526.93 1149.72L2454.47 1149.4L2454.47 782.61L2526.93 784.8L2526.93 1149.72Z" />
					<path id="&lt;Path&gt;" class="shp46" d="M2526.93 1149.72L2454.47 1149.4L2454.47 862.06L2526.93 863.85L2526.93 1149.72Z" />
					<path id="&lt;Path&gt;" class="shp26" d="M2626.53 1150.17L2555.09 1149.85L2555.09 785.66L2626.53 787.82L2626.53 1150.17Z" />
					<path id="&lt;Path&gt;" class="shp47" d="M2626.53 1150.17L2555.09 1149.85L2555.09 896.97L2626.53 898.57L2626.53 1150.17Z" />
					<path id="&lt;Path&gt;" class="shp26" d="M2724.73 1150.62L2654.29 1150.3L2654.29 788.67L2724.73 790.8L2724.73 1150.62Z" />
					<path id="&lt;Path&gt;" class="shp48" d="M2724.73 1150.62L2654.29 1150.3L2654.29 841.25L2724.73 843.12L2724.73 1150.62Z" />
					<path id="&lt;Path&gt;" class="shp26" d="M2821.57 1151.05L2752.1 1150.74L2752.1 791.63L2821.57 793.74L2821.57 1151.05Z" />
					<path id="&lt;Path&gt;" class="shp49" d="M2821.57 1151.05L2752.1 1150.74L2752.1 930.16L2821.57 931.58L2821.57 1151.05Z" />
					<path id="&lt;Path&gt;" class="shp26" d="M2917.07 1151.49L2848.56 1151.18L2848.56 794.56L2917.07 796.64L2917.07 1151.49Z" />
					<path id="&lt;Path&gt;" class="shp50" d="M2917.07 1151.49L2848.56 1151.18L2848.56 1027.37L2917.07 1028.29L2917.07 1151.49Z" />
				</g>
			</g>
		</g>
	</g>
</svg>