<svg width="288" height="38" viewBox="0 0 288 38" fill="none" xmlns="http://www.w3.org/2000/svg">
<path d="M169.165 24.1493V21.9707L177.677 9.76H181.173V21.6413H183.529V24.1493H181.173V28H178.336V24.1493H169.165ZM178.463 12.6987L172.484 21.6413H178.463V12.6987ZM187.468 28.1773C186.944 28.1773 186.505 28 186.15 27.6453C185.796 27.2907 185.618 26.8516 185.618 26.328C185.618 25.8044 185.796 25.3653 186.15 25.0107C186.505 24.656 186.944 24.4787 187.468 24.4787C187.974 24.4787 188.405 24.656 188.76 25.0107C189.114 25.3653 189.292 25.8044 189.292 26.328C189.292 26.8516 189.114 27.2907 188.76 27.6453C188.405 28 187.974 28.1773 187.468 28.1773ZM203.737 11.7613L196.694 28H193.781L200.9 12.0653H191.526V9.608H203.737V11.7613ZM218.115 12.0147H209.629V17.056C209.983 16.5831 210.507 16.1862 211.199 15.8653C211.909 15.5444 212.66 15.384 213.454 15.384C214.873 15.384 216.021 15.688 216.899 16.296C217.795 16.904 218.428 17.6724 218.799 18.6013C219.188 19.5302 219.382 20.5098 219.382 21.54C219.382 22.7898 219.137 23.9044 218.647 24.884C218.175 25.8467 217.457 26.6067 216.494 27.164C215.548 27.7213 214.383 28 212.998 28C211.157 28 209.679 27.544 208.565 26.632C207.45 25.72 206.783 24.5124 206.563 23.0093H209.375C209.561 23.8031 209.975 24.4364 210.617 24.9093C211.259 25.3653 212.061 25.5933 213.023 25.5933C214.223 25.5933 215.118 25.2302 215.709 24.504C216.317 23.7778 216.621 22.8151 216.621 21.616C216.621 20.4 216.317 19.4711 215.709 18.8293C215.101 18.1707 214.206 17.8413 213.023 17.8413C212.196 17.8413 211.495 18.0524 210.921 18.4747C210.363 18.88 209.958 19.4373 209.705 20.1467H206.969V9.48133H218.115V12.0147Z" fill="#06070D"/>
<path d="M238.723 4.08533L231.832 32.4333H228.995L235.86 4.08533H238.723ZM260.47 12.0147H251.983V17.056C252.338 16.5831 252.861 16.1862 253.554 15.8653C254.263 15.5444 255.015 15.384 255.808 15.384C257.227 15.384 258.375 15.688 259.254 16.296C260.149 16.904 260.782 17.6724 261.154 18.6013C261.542 19.5302 261.736 20.5098 261.736 21.54C261.736 22.7898 261.491 23.9044 261.002 24.884C260.529 25.8467 259.811 26.6067 258.848 27.164C257.903 27.7213 256.737 28 255.352 28C253.511 28 252.034 27.544 250.919 26.632C249.804 25.72 249.137 24.5124 248.918 23.0093H251.73C251.915 23.8031 252.329 24.4364 252.971 24.9093C253.613 25.3653 254.415 25.5933 255.378 25.5933C256.577 25.5933 257.472 25.2302 258.063 24.504C258.671 23.7778 258.975 22.8151 258.975 21.616C258.975 20.4 258.671 19.4711 258.063 18.8293C257.455 18.1707 256.56 17.8413 255.378 17.8413C254.55 17.8413 253.849 18.0524 253.275 18.4747C252.718 18.88 252.312 19.4373 252.059 20.1467H249.323V9.48133H260.47V12.0147ZM266.288 28.1773C265.764 28.1773 265.325 28 264.971 27.6453C264.616 27.2907 264.439 26.8516 264.439 26.328C264.439 25.8044 264.616 25.3653 264.971 25.0107C265.325 24.656 265.764 24.4787 266.288 24.4787C266.795 24.4787 267.225 24.656 267.58 25.0107C267.935 25.3653 268.112 25.8044 268.112 26.328C268.112 26.8516 267.935 27.2907 267.58 27.6453C267.225 28 266.795 28.1773 266.288 28.1773ZM270.853 18.5253C270.853 15.6036 271.343 13.3236 272.323 11.6853C273.319 10.0302 275.025 9.20267 277.44 9.20267C279.855 9.20267 281.552 10.0302 282.532 11.6853C283.528 13.3236 284.027 15.6036 284.027 18.5253C284.027 21.4809 283.528 23.7947 282.532 25.4667C281.552 27.1218 279.855 27.9493 277.44 27.9493C275.025 27.9493 273.319 27.1218 272.323 25.4667C271.343 23.7947 270.853 21.4809 270.853 18.5253ZM281.189 18.5253C281.189 17.1573 281.096 16.0004 280.911 15.0547C280.742 14.1089 280.387 13.3404 279.847 12.7493C279.306 12.1413 278.504 11.8373 277.44 11.8373C276.376 11.8373 275.574 12.1413 275.033 12.7493C274.493 13.3404 274.13 14.1089 273.944 15.0547C273.775 16.0004 273.691 17.1573 273.691 18.5253C273.691 19.944 273.775 21.1347 273.944 22.0973C274.113 23.06 274.468 23.8369 275.008 24.428C275.565 25.0191 276.376 25.3147 277.44 25.3147C278.504 25.3147 279.306 25.0191 279.847 24.428C280.404 23.8369 280.767 23.06 280.936 22.0973C281.105 21.1347 281.189 19.944 281.189 18.5253Z" fill="#828285"/>
<path d="M12.1865 8.14805C12.3902 7.762 12.9431 7.762 13.1468 8.14805L16.4137 14.3399C16.4922 14.4888 16.6354 14.5928 16.8012 14.6215L23.6995 15.8151C24.1296 15.8895 24.3005 16.4153 23.9963 16.7283L19.117 21.7487C18.9997 21.8694 18.945 22.0377 18.969 22.2043L19.9655 29.1338C20.0276 29.5659 19.5803 29.8908 19.1886 29.6982L12.9062 26.6092C12.7551 26.5349 12.5782 26.5349 12.4271 26.6092L6.14471 29.6982C5.75301 29.8908 5.30571 29.5659 5.36785 29.1338L6.36438 22.2043C6.38834 22.0377 6.33365 21.8694 6.21634 21.7487L1.33706 16.7283C1.03284 16.4153 1.20369 15.8895 1.63379 15.8151L8.5321 14.6215C8.69796 14.5928 8.84113 14.4888 8.91968 14.3399L12.1865 8.14805Z" fill="#FFC444"/>
<path d="M44.7578 8.14805C44.9615 7.762 45.5144 7.762 45.7181 8.14805L48.9849 14.3399C49.0635 14.4888 49.2067 14.5928 49.3725 14.6215L56.2708 15.8151C56.7009 15.8895 56.8718 16.4153 56.5676 16.7283L51.6883 21.7487C51.571 21.8694 51.5163 22.0377 51.5402 22.2043L52.5368 29.1338C52.5989 29.5659 52.1516 29.8908 51.7599 29.6982L45.4775 26.6092C45.3264 26.5349 45.1495 26.5349 44.9984 26.6092L38.716 29.6982C38.3243 29.8908 37.877 29.5659 37.9391 29.1338L38.9357 22.2043C38.9596 22.0377 38.9049 21.8694 38.7876 21.7487L33.9083 16.7283C33.6041 16.4153 33.775 15.8895 34.2051 15.8151L41.1034 14.6215C41.2693 14.5928 41.4124 14.4888 41.491 14.3399L44.7578 8.14805Z" fill="#FFC444"/>
<path d="M77.3296 8.14805C77.5333 7.762 78.0862 7.762 78.2899 8.14805L81.5567 14.3399C81.6353 14.4888 81.7784 14.5928 81.9443 14.6215L88.8426 15.8151C89.2727 15.8895 89.4436 16.4153 89.1393 16.7283L84.2601 21.7487C84.1427 21.8694 84.0881 22.0377 84.112 22.2043L85.1086 29.1338C85.1707 29.5659 84.7234 29.8908 84.3317 29.6982L78.0493 26.6092C77.8982 26.5349 77.7213 26.5349 77.5702 26.6092L71.2878 29.6982C70.8961 29.8908 70.4488 29.5659 70.5109 29.1338L71.5074 22.2043C71.5314 22.0377 71.4767 21.8694 71.3594 21.7487L66.4801 16.7283C66.1759 16.4153 66.3468 15.8895 66.7769 15.8151L73.6752 14.6215C73.841 14.5928 73.9842 14.4888 74.0627 14.3399L77.3296 8.14805Z" fill="#FFC444"/>
<path d="M109.901 8.14805C110.105 7.762 110.657 7.762 110.861 8.14805L114.128 14.3399C114.207 14.4888 114.35 14.5928 114.516 14.6215L121.414 15.8151C121.844 15.8895 122.015 16.4153 121.711 16.7283L116.831 21.7487C116.714 21.8694 116.659 22.0377 116.683 22.2043L117.68 29.1338C117.742 29.5659 117.295 29.8908 116.903 29.6982L110.621 26.6092C110.47 26.5349 110.293 26.5349 110.141 26.6092L103.859 29.6982C103.467 29.8908 103.02 29.5659 103.082 29.1338L104.079 22.2043C104.103 22.0377 104.048 21.8694 103.931 21.7487L99.0514 16.7283C98.7472 16.4153 98.9181 15.8895 99.3481 15.8151L106.246 14.6215C106.412 14.5928 106.555 14.4888 106.634 14.3399L109.901 8.14805Z" fill="#FFC444"/>
<path d="M142.187 8.14805C142.39 7.762 142.943 7.762 143.147 8.14805L146.414 14.3399C146.492 14.4888 146.635 14.5928 146.801 14.6215L153.7 15.8151C154.13 15.8895 154.3 16.4153 153.996 16.7283L149.117 21.7487C149 21.8694 148.945 22.0377 148.969 22.2043L149.965 29.1338C150.028 29.5659 149.58 29.8908 149.189 29.6982L142.906 26.6092C142.755 26.5349 142.578 26.5349 142.427 26.6092L136.145 29.6982C135.753 29.8908 135.306 29.5659 135.368 29.1338L136.364 22.2043C136.388 22.0377 136.334 21.8694 136.216 21.7487L131.337 16.7283C131.033 16.4153 131.204 15.8895 131.634 15.8151L138.532 14.6215C138.698 14.5928 138.841 14.4888 138.92 14.3399L142.187 8.14805Z" fill="#FFC444"/>
<path d="M144.595 10.8952L146.126 13.7753C146.2 13.9143 146.331 14.0144 146.484 14.0495L154.043 15.7809C154.459 15.8762 154.608 16.3921 154.306 16.6939L149.2 21.8001C149.075 21.9254 149.018 22.1039 149.049 22.2783L150.309 29.4184C150.387 29.8612 149.924 30.2015 149.525 29.9947L144.617 27.4517C144.437 27.3584 144.324 27.1725 144.324 26.9697V20.7457L144.595 10.8952Z" fill="#B7C0CE"/>
</svg>
