<svg width="1440" height="400" viewBox="0 0 1440 400" fill="none" xmlns="http://www.w3.org/2000/svg">
<rect width="1440" height="400" fill="white"/>
<rect width="1440" height="200" fill="url(#paint0_linear)" fill-opacity="0.3"/>
<g filter="url(#filter0_d)">
<rect x="165" y="80" width="1110" height="240" rx="8" fill="white"/>
<rect x="260.5" y="112" width="64" height="64" rx="32" fill="#F4F5F7"/>
<g clip-path="url(#clip0)">
<path d="M298.5 142H304.5L301.5 138L298.5 142ZM298.5 146H304.5L301.5 150L298.5 146Z" fill="#FBC171"/>
<path d="M281.5 132H287.5V156H281.5C281.235 156 280.98 155.895 280.793 155.707C280.605 155.52 280.5 155.265 280.5 155V133C280.5 132.735 280.605 132.48 280.793 132.293C280.98 132.105 281.235 132 281.5 132Z" fill="#F8A026"/>
<path d="M289.5 132H295.5C295.765 132 296.02 132.105 296.207 132.293C296.395 132.48 296.5 132.735 296.5 133V155C296.5 155.265 296.395 155.52 296.207 155.707C296.02 155.895 295.765 156 295.5 156H289.5V132Z" fill="#FC8E9E"/>
</g>
<path d="M244.609 235.205H261.467V241H269.359V235.205H273.705V228.557H269.359V219.182H261.739V228.557H252.978V228.284L265.404 206.091H257.325L244.609 228.625V235.205ZM292.566 241.852C301.702 241.869 307.31 235.119 307.327 223.597C307.344 212.142 301.702 205.614 292.566 205.614C283.43 205.614 277.839 212.125 277.822 223.597C277.788 235.085 283.43 241.852 292.566 241.852ZM292.566 234.949C288.935 234.949 286.464 231.301 286.498 223.597C286.515 216.045 288.952 212.466 292.566 212.466C296.197 212.466 298.634 216.045 298.651 223.597C298.668 231.301 296.214 234.949 292.566 234.949ZM322.626 235.955H329.495V227.057H338.393V220.188H329.495V211.273H322.626V220.188H313.711V227.057H322.626V235.955Z" fill="#E65B6F"/>
<path d="M234.091 279H235.676V273.145H242.656V279H244.242V265.909H242.656V271.739H235.676V265.909H234.091V279ZM250.918 279.205C252.81 279.205 253.449 278.028 253.782 277.491H253.961V279H255.418V269.182H253.91V270.741H253.782C253.449 270.23 252.861 269.054 250.944 269.054C248.464 269.054 246.751 271.023 246.751 274.116C246.751 277.236 248.464 279.205 250.918 279.205ZM251.123 277.849C249.231 277.849 248.259 276.188 248.259 274.091C248.259 272.02 249.205 270.409 251.123 270.409C252.964 270.409 253.935 271.892 253.935 274.091C253.935 276.315 252.938 277.849 251.123 277.849ZM258.39 282.682H259.899V277.491H260.027C260.359 278.028 260.998 279.205 262.89 279.205C265.345 279.205 267.058 277.236 267.058 274.116C267.058 271.023 265.345 269.054 262.865 269.054C260.947 269.054 260.359 270.23 260.027 270.741H259.848V269.182H258.39V282.682ZM259.873 274.091C259.873 271.892 260.845 270.409 262.686 270.409C264.604 270.409 265.55 272.02 265.55 274.091C265.55 276.188 264.578 277.849 262.686 277.849C260.871 277.849 259.873 276.315 259.873 274.091ZM269.359 282.682H270.868V277.491H270.996C271.328 278.028 271.967 279.205 273.859 279.205C276.314 279.205 278.027 277.236 278.027 274.116C278.027 271.023 276.314 269.054 273.834 269.054C271.916 269.054 271.328 270.23 270.996 270.741H270.817V269.182H269.359V282.682ZM270.842 274.091C270.842 271.892 271.814 270.409 273.655 270.409C275.572 270.409 276.518 272.02 276.518 274.091C276.518 276.188 275.547 277.849 273.655 277.849C271.839 277.849 270.842 276.315 270.842 274.091ZM280.948 282.682C282.309 282.682 283.268 281.96 283.837 280.432L288.018 269.207L286.368 269.182L283.658 277.006H283.556L280.846 269.182H279.209L282.84 279.051L282.559 279.818C282.009 281.314 281.331 281.455 280.232 281.173L279.849 282.503C280.002 282.58 280.437 282.682 280.948 282.682ZM305.815 270C305.329 267.315 303.181 265.73 300.548 265.73C297.198 265.73 294.769 268.312 294.769 272.455C294.769 276.597 297.198 279.179 300.548 279.179C303.181 279.179 305.329 277.594 305.815 274.909H304.229C303.846 276.724 302.286 277.696 300.548 277.696C298.17 277.696 296.303 275.855 296.303 272.455C296.303 269.054 298.17 267.213 300.548 267.213C302.286 267.213 303.846 268.185 304.229 270H305.815ZM308.172 265.909V276.852C308.172 278.252 308.888 279.077 310.319 279.077C310.754 279.077 311.182 279 311.444 278.923L311.138 277.619C310.991 277.664 310.856 277.709 310.498 277.722C309.834 277.741 309.68 277.396 309.68 276.443V265.909H308.172ZM312.83 279H314.338V269.182H312.83V279ZM313.597 267.545C314.185 267.545 314.671 267.085 314.671 266.523C314.671 265.96 314.185 265.5 313.597 265.5C313.009 265.5 312.523 265.96 312.523 266.523C312.523 267.085 313.009 267.545 313.597 267.545ZM321.218 279.205C323.212 279.205 324.67 278.207 325.13 276.724L323.672 276.315C323.289 277.338 322.4 277.849 321.218 277.849C319.447 277.849 318.226 276.705 318.156 274.602H325.283V273.963C325.283 270.307 323.11 269.054 321.064 269.054C318.405 269.054 316.641 271.151 316.641 274.168C316.641 277.185 318.38 279.205 321.218 279.205ZM318.156 273.298C318.258 271.771 319.339 270.409 321.064 270.409C322.701 270.409 323.749 271.636 323.749 273.298H318.156ZM329.086 273.094C329.086 271.381 330.148 270.409 331.592 270.409C332.992 270.409 333.842 271.323 333.842 272.864V279H335.351V272.761C335.351 270.256 334.015 269.054 332.027 269.054C330.544 269.054 329.623 269.719 329.163 270.716H329.035V269.182H327.578V279H329.086V273.094ZM342.377 269.182H340.281V266.83H338.772V269.182H337.289V270.46H338.772V276.597C338.772 278.31 340.153 279.128 341.431 279.128C341.994 279.128 342.352 279.026 342.556 278.949L342.249 277.594C342.121 277.619 341.917 277.67 341.585 277.67C340.92 277.67 340.281 277.466 340.281 276.188V270.46H342.377V269.182ZM351.425 271.381C350.952 269.987 349.891 269.054 347.948 269.054C345.877 269.054 344.343 270.23 344.343 271.892C344.343 273.247 345.148 274.155 346.951 274.577L348.587 274.96C349.578 275.19 350.044 275.663 350.044 276.341C350.044 277.185 349.15 277.875 347.743 277.875C346.51 277.875 345.736 277.344 345.468 276.29L344.036 276.648C344.387 278.316 345.762 279.205 347.769 279.205C350.051 279.205 351.604 277.958 351.604 276.264C351.604 274.896 350.748 274.033 348.996 273.605L347.539 273.247C346.375 272.96 345.851 272.57 345.851 271.815C345.851 270.972 346.746 270.358 347.948 270.358C349.265 270.358 349.808 271.087 350.07 271.764L351.425 271.381Z" fill="#18191F"/>
<rect x="545.5" y="112" width="64" height="64" rx="32" fill="#F4F5F7"/>
<path d="M569.5 133H588.5L585.5 139H566.5L569.5 133Z" fill="#F8A026"/>
<path d="M569.5 141H588.5L585.5 147H566.5L569.5 141Z" fill="#FC8E9E"/>
<path d="M569.5 149H588.5L585.5 155H566.5L569.5 149Z" fill="#FBC171"/>
<path d="M527.625 241.477C535.756 241.477 541.176 236.364 541.176 229.17C541.176 222.523 536.54 217.784 530.267 217.784C526.96 217.784 524.216 219.199 523.057 221.125H522.852L523.653 212.892H539.114V206.091H516.716L515.199 224.909L522.648 226.307C523.585 224.739 525.528 223.767 527.574 223.784C530.778 223.784 533.062 226.051 533.045 229.409C533.062 232.75 530.812 235 527.625 235C524.915 235 522.682 233.312 522.562 230.739H514.381C514.483 237.011 519.989 241.477 527.625 241.477ZM545.382 235.205H562.24V241H570.132V235.205H574.479V228.557H570.132V219.182H562.513V228.557H553.751V228.284L566.178 206.091H558.098L545.382 228.625V235.205ZM593.339 241.852C602.476 241.869 608.084 235.119 608.101 223.597C608.118 212.142 602.476 205.614 593.339 205.614C584.203 205.614 578.612 212.125 578.595 223.597C578.561 235.085 584.203 241.852 593.339 241.852ZM593.339 234.949C589.709 234.949 587.237 231.301 587.271 223.597C587.288 216.045 589.726 212.466 593.339 212.466C596.97 212.466 599.408 216.045 599.425 223.597C599.442 231.301 596.987 234.949 593.339 234.949ZM623.399 235.955H630.268V227.057H639.166V220.188H630.268V211.273H623.399V220.188H614.484V227.057H623.399V235.955Z" fill="#E65B6F"/>
<path d="M494.886 279H496.471V274.219H499.335C502.384 274.219 503.758 272.365 503.758 270.051C503.758 267.737 502.384 265.909 499.309 265.909H494.886V279ZM496.471 272.812V267.315H499.258C501.387 267.315 502.199 268.479 502.199 270.051C502.199 271.624 501.387 272.812 499.284 272.812H496.471ZM506.107 265.909V276.852C506.107 278.252 506.823 279.077 508.255 279.077C508.69 279.077 509.118 279 509.38 278.923L509.073 277.619C508.926 277.664 508.792 277.709 508.434 277.722C507.769 277.741 507.616 277.396 507.616 276.443V265.909H506.107ZM514.473 279.205C516.365 279.205 517.004 278.028 517.336 277.491H517.515V279H518.973V269.182H517.464V270.741H517.336C517.004 270.23 516.416 269.054 514.498 269.054C512.018 269.054 510.305 271.023 510.305 274.116C510.305 277.236 512.018 279.205 514.473 279.205ZM514.677 277.849C512.785 277.849 511.814 276.188 511.814 274.091C511.814 272.02 512.76 270.409 514.677 270.409C516.518 270.409 517.49 271.892 517.49 274.091C517.49 276.315 516.493 277.849 514.677 277.849ZM526.215 269.182H524.118V266.83H522.61V269.182H521.127V270.46H522.61V276.597C522.61 278.31 523.991 279.128 525.269 279.128C525.831 279.128 526.189 279.026 526.394 278.949L526.087 277.594C525.959 277.619 525.755 277.67 525.422 277.67C524.758 277.67 524.118 277.466 524.118 276.188V270.46H526.215V269.182ZM532.856 269.182H530.657V268.185C530.657 267.213 531.067 266.702 532.064 266.702C532.498 266.702 532.754 266.804 532.907 266.855L533.342 265.551C533.112 265.449 532.652 265.295 531.91 265.295C530.504 265.295 529.149 266.139 529.149 267.827V269.182H527.564V270.46H529.149V279H530.657V270.46H532.856V269.182ZM538.555 279.205C541.214 279.205 543.004 277.185 543.004 274.142C543.004 271.074 541.214 269.054 538.555 269.054C535.896 269.054 534.106 271.074 534.106 274.142C534.106 277.185 535.896 279.205 538.555 279.205ZM538.555 277.849C536.535 277.849 535.615 276.111 535.615 274.142C535.615 272.173 536.535 270.409 538.555 270.409C540.575 270.409 541.495 272.173 541.495 274.142C541.495 276.111 540.575 277.849 538.555 277.849ZM545.306 279H546.815V272.787C546.815 271.464 547.863 270.486 549.295 270.486C549.672 270.486 549.953 270.556 550.164 270.665L550.676 269.386C550.369 269.169 549.966 269.028 549.423 269.028C548.234 269.028 547.218 269.693 546.866 270.665H546.764V269.182H545.306V279ZM552.215 279H553.723V272.864C553.723 271.425 554.771 270.409 555.948 270.409C557.092 270.409 557.891 271.157 557.891 272.276V279H559.425V272.608C559.425 271.342 560.218 270.409 561.598 270.409C562.672 270.409 563.593 270.978 563.593 272.429V279H565.101V272.429C565.101 270.121 563.861 269.054 562.11 269.054C560.703 269.054 559.674 269.7 559.169 270.716H559.067C558.581 269.668 557.725 269.054 556.433 269.054C555.155 269.054 554.209 269.668 553.8 270.716H553.672V269.182H552.215V279ZM574.814 271.381C574.341 269.987 573.28 269.054 571.336 269.054C569.265 269.054 567.731 270.23 567.731 271.892C567.731 273.247 568.537 274.155 570.339 274.577L571.976 274.96C572.966 275.19 573.433 275.663 573.433 276.341C573.433 277.185 572.538 277.875 571.132 277.875C569.898 277.875 569.125 277.344 568.856 276.29L567.425 276.648C567.776 278.316 569.15 279.205 571.157 279.205C573.439 279.205 574.993 277.958 574.993 276.264C574.993 274.896 574.136 274.033 572.385 273.605L570.927 273.247C569.764 272.96 569.24 272.57 569.24 271.815C569.24 270.972 570.135 270.358 571.336 270.358C572.653 270.358 573.197 271.087 573.459 271.764L574.814 271.381ZM586.57 279C590.559 279 592.809 276.52 592.809 272.429C592.809 268.364 590.559 265.909 586.749 265.909H582.531V279H586.57ZM584.116 277.594V267.315H586.647C589.715 267.315 591.275 269.259 591.275 272.429C591.275 275.625 589.715 277.594 586.468 277.594H584.116ZM599.38 279.205C601.374 279.205 602.832 278.207 603.292 276.724L601.835 276.315C601.451 277.338 600.562 277.849 599.38 277.849C597.609 277.849 596.388 276.705 596.318 274.602H603.445V273.963C603.445 270.307 601.272 269.054 599.227 269.054C596.567 269.054 594.803 271.151 594.803 274.168C594.803 277.185 596.542 279.205 599.38 279.205ZM596.318 273.298C596.42 271.771 597.501 270.409 599.227 270.409C600.863 270.409 601.911 271.636 601.911 273.298H596.318ZM605.74 265.909V276.852C605.74 278.252 606.456 279.077 607.888 279.077C608.322 279.077 608.751 279 609.013 278.923L608.706 277.619C608.559 277.664 608.425 277.709 608.067 277.722C607.402 277.741 607.249 277.396 607.249 276.443V265.909H605.74ZM610.398 279H611.907V269.182H610.398V279ZM611.165 267.545C611.753 267.545 612.239 267.085 612.239 266.523C612.239 265.96 611.753 265.5 611.165 265.5C610.577 265.5 610.091 265.96 610.091 266.523C610.091 267.085 610.577 267.545 611.165 267.545ZM622.698 269.182H621.062L618.352 277.006H618.249L615.539 269.182H613.903L617.533 279H619.067L622.698 269.182ZM628.454 279.205C630.449 279.205 631.906 278.207 632.366 276.724L630.909 276.315C630.525 277.338 629.637 277.849 628.454 277.849C626.684 277.849 625.463 276.705 625.392 274.602H632.52V273.963C632.52 270.307 630.346 269.054 628.301 269.054C625.642 269.054 623.877 271.151 623.877 274.168C623.877 277.185 625.616 279.205 628.454 279.205ZM625.392 273.298C625.495 271.771 626.575 270.409 628.301 270.409C629.937 270.409 630.985 271.636 630.985 273.298H625.392ZM634.814 279H636.323V272.787C636.323 271.464 637.371 270.486 638.803 270.486C639.18 270.486 639.461 270.556 639.672 270.665L640.184 269.386C639.877 269.169 639.474 269.028 638.931 269.028C637.742 269.028 636.725 269.693 636.374 270.665H636.272V269.182H634.814V279ZM645.54 279.205C647.534 279.205 648.992 278.207 649.452 276.724L647.995 276.315C647.611 277.338 646.723 277.849 645.54 277.849C643.77 277.849 642.549 276.705 642.478 274.602H649.605V273.963C649.605 270.307 647.432 269.054 645.387 269.054C642.728 269.054 640.963 271.151 640.963 274.168C640.963 277.185 642.702 279.205 645.54 279.205ZM642.478 273.298C642.581 271.771 643.661 270.409 645.387 270.409C647.023 270.409 648.071 271.636 648.071 273.298H642.478ZM655.608 279.205C657.5 279.205 658.139 278.028 658.471 277.491H658.65V279H660.108V265.909H658.599V270.741H658.471C658.139 270.23 657.551 269.054 655.633 269.054C653.153 269.054 651.44 271.023 651.44 274.116C651.44 277.236 653.153 279.205 655.608 279.205ZM655.812 277.849C653.92 277.849 652.949 276.188 652.949 274.091C652.949 272.02 653.895 270.409 655.812 270.409C657.653 270.409 658.625 271.892 658.625 274.091C658.625 276.315 657.627 277.849 655.812 277.849Z" fill="#18191F"/>
<rect x="830.5" y="112" width="64" height="64" rx="32" fill="#F4F5F7"/>
<path d="M873.5 138V134C873.5 133.735 873.395 133.48 873.207 133.293C873.02 133.105 872.765 133 872.5 133H852.5C852.235 133 851.98 133.105 851.793 133.293C851.605 133.48 851.5 133.735 851.5 134V138H873.5Z" fill="#FC8E9E"/>
<path d="M851.5 140V154C851.5 154.265 851.605 154.52 851.793 154.707C851.98 154.895 852.235 155 852.5 155H857.5V140H851.5Z" fill="#FBC171"/>
<path d="M859.5 155H872.5C872.765 155 873.02 154.895 873.207 154.707C873.395 154.52 873.5 154.265 873.5 154V140H859.5V155Z" fill="#F8A026"/>
<path d="M814.536 230.739C814.673 237.097 820.161 241.477 828.292 241.477C836.218 241.477 842.252 237.301 842.252 231.011C842.252 226.767 839.508 222.165 831.701 221.295V221.023L841.11 212.159V206.091H816.292V212.892H830.951V213.114L823.519 220.341V226.034H827.627C831.241 226.034 833.406 227.79 833.406 230.364C833.406 232.886 831.36 234.625 828.309 234.625C825.411 234.625 823.161 233.074 823.042 230.739H814.536ZM861.441 241.852C870.577 241.869 876.185 235.119 876.202 223.597C876.219 212.142 870.577 205.614 861.441 205.614C852.305 205.614 846.714 212.125 846.697 223.597C846.663 235.085 852.305 241.852 861.441 241.852ZM861.441 234.949C857.81 234.949 855.339 231.301 855.373 223.597C855.39 216.045 857.827 212.466 861.441 212.466C865.072 212.466 867.509 216.045 867.526 223.597C867.543 231.301 865.089 234.949 861.441 234.949ZM895.472 241.852C904.609 241.869 910.217 235.119 910.234 223.597C910.251 212.142 904.609 205.614 895.472 205.614C886.336 205.614 880.745 212.125 880.728 223.597C880.694 235.085 886.336 241.852 895.472 241.852ZM895.472 234.949C891.842 234.949 889.37 231.301 889.404 223.597C889.421 216.045 891.859 212.466 895.472 212.466C899.103 212.466 901.54 216.045 901.558 223.597C901.575 231.301 899.12 234.949 895.472 234.949Z" fill="#E65B6F"/>
<path d="M777.813 279L779.129 275.293H784.422L785.739 279H787.401L782.594 265.909H780.957L776.151 279H777.813ZM779.628 273.886L781.725 267.98H781.827L783.923 273.886H779.628ZM793.224 279.205C795.397 279.205 796.829 277.875 797.085 276.136H795.576C795.295 277.21 794.4 277.849 793.224 277.849C791.434 277.849 790.283 276.366 790.283 274.091C790.283 271.866 791.46 270.409 793.224 270.409C794.553 270.409 795.346 271.227 795.576 272.122H797.085C796.829 270.281 795.269 269.054 793.198 269.054C790.539 269.054 788.775 271.151 788.775 274.142C788.775 277.082 790.462 279.205 793.224 279.205ZM803.56 269.182H801.463V266.83H799.955V269.182H798.472V270.46H799.955V276.597C799.955 278.31 801.335 279.128 802.614 279.128C803.176 279.128 803.534 279.026 803.739 278.949L803.432 277.594C803.304 277.619 803.1 277.67 802.767 277.67C802.102 277.67 801.463 277.466 801.463 276.188V270.46H803.56V269.182ZM805.829 279H807.337V269.182H805.829V279ZM806.596 267.545C807.184 267.545 807.67 267.085 807.67 266.523C807.67 265.96 807.184 265.5 806.596 265.5C806.008 265.5 805.522 265.96 805.522 266.523C805.522 267.085 806.008 267.545 806.596 267.545ZM818.129 269.182H816.492L813.782 277.006H813.68L810.97 269.182H809.333L812.964 279H814.498L818.129 269.182ZM823.885 279.205C825.879 279.205 827.337 278.207 827.797 276.724L826.339 276.315C825.956 277.338 825.067 277.849 823.885 277.849C822.114 277.849 820.893 276.705 820.823 274.602H827.95V273.963C827.95 270.307 825.777 269.054 823.731 269.054C821.072 269.054 819.308 271.151 819.308 274.168C819.308 277.185 821.047 279.205 823.885 279.205ZM820.823 273.298C820.925 271.771 822.006 270.409 823.731 270.409C825.368 270.409 826.416 271.636 826.416 273.298H820.823ZM835.512 265.909V279H836.995V269.054H837.123L841.214 279H842.646L846.736 269.054H846.864V279H848.347V265.909H846.455L842.006 276.776H841.853L837.404 265.909H835.512ZM855.438 279.205C857.432 279.205 858.889 278.207 859.35 276.724L857.892 276.315C857.509 277.338 856.62 277.849 855.438 277.849C853.667 277.849 852.446 276.705 852.376 274.602H859.503V273.963C859.503 270.307 857.33 269.054 855.284 269.054C852.625 269.054 850.861 271.151 850.861 274.168C850.861 277.185 852.6 279.205 855.438 279.205ZM852.376 273.298C852.478 271.771 853.558 270.409 855.284 270.409C856.921 270.409 857.969 271.636 857.969 273.298H852.376ZM861.798 279H863.306V272.864C863.306 271.425 864.354 270.409 865.531 270.409C866.675 270.409 867.474 271.157 867.474 272.276V279H869.008V272.608C869.008 271.342 869.801 270.409 871.181 270.409C872.255 270.409 873.176 270.978 873.176 272.429V279H874.684V272.429C874.684 270.121 873.444 269.054 871.693 269.054C870.286 269.054 869.257 269.7 868.752 270.716H868.65C868.164 269.668 867.308 269.054 866.016 269.054C864.738 269.054 863.792 269.668 863.383 270.716H863.255V269.182H861.798V279ZM877.647 279H879.104V277.491H879.283C879.616 278.028 880.255 279.205 882.147 279.205C884.601 279.205 886.314 277.236 886.314 274.116C886.314 271.023 884.601 269.054 882.121 269.054C880.204 269.054 879.616 270.23 879.283 270.741H879.155V265.909H877.647V279ZM879.13 274.091C879.13 271.892 880.101 270.409 881.942 270.409C883.86 270.409 884.806 272.02 884.806 274.091C884.806 276.188 883.834 277.849 881.942 277.849C880.127 277.849 879.13 276.315 879.13 274.091ZM892.738 279.205C894.733 279.205 896.19 278.207 896.65 276.724L895.193 276.315C894.809 277.338 893.921 277.849 892.738 277.849C890.968 277.849 889.747 276.705 889.677 274.602H896.804V273.963C896.804 270.307 894.63 269.054 892.585 269.054C889.926 269.054 888.162 271.151 888.162 274.168C888.162 277.185 889.9 279.205 892.738 279.205ZM889.677 273.298C889.779 271.771 890.859 270.409 892.585 270.409C894.221 270.409 895.27 271.636 895.27 273.298H889.677ZM899.098 279H900.607V272.787C900.607 271.464 901.655 270.486 903.087 270.486C903.464 270.486 903.745 270.556 903.956 270.665L904.468 269.386C904.161 269.169 903.758 269.028 903.215 269.028C902.026 269.028 901.01 269.693 900.658 270.665H900.556V269.182H899.098V279ZM912.961 271.381C912.488 269.987 911.427 269.054 909.484 269.054C907.413 269.054 905.879 270.23 905.879 271.892C905.879 273.247 906.684 274.155 908.487 274.577L910.123 274.96C911.114 275.19 911.581 275.663 911.581 276.341C911.581 277.185 910.686 277.875 909.279 277.875C908.046 277.875 907.272 277.344 907.004 276.29L905.572 276.648C905.924 278.316 907.298 279.205 909.305 279.205C911.587 279.205 913.14 277.958 913.14 276.264C913.14 274.896 912.284 274.033 910.532 273.605L909.075 273.247C907.911 272.96 907.387 272.57 907.387 271.815C907.387 270.972 908.282 270.358 909.484 270.358C910.801 270.358 911.344 271.087 911.606 271.764L912.961 271.381ZM916.919 273.094C916.919 271.381 918.013 270.409 919.502 270.409C920.921 270.409 921.777 271.304 921.777 272.864V279H923.286V272.761C923.286 270.237 921.944 269.054 919.937 269.054C918.39 269.054 917.508 269.7 917.047 270.716H916.919V265.909H915.411V279H916.919V273.094ZM926.046 279H927.554V269.182H926.046V279ZM926.813 267.545C927.401 267.545 927.887 267.085 927.887 266.523C927.887 265.96 927.401 265.5 926.813 265.5C926.225 265.5 925.739 265.96 925.739 266.523C925.739 267.085 926.225 267.545 926.813 267.545ZM930.317 282.682H931.826V277.491H931.954C932.286 278.028 932.925 279.205 934.817 279.205C937.272 279.205 938.985 277.236 938.985 274.116C938.985 271.023 937.272 269.054 934.792 269.054C932.874 269.054 932.286 270.23 931.954 270.741H931.775V269.182H930.317V282.682ZM931.8 274.091C931.8 271.892 932.772 270.409 934.613 270.409C936.53 270.409 937.476 272.02 937.476 274.091C937.476 276.188 936.505 277.849 934.613 277.849C932.797 277.849 931.8 276.315 931.8 274.091ZM948.241 271.381C947.767 269.987 946.706 269.054 944.763 269.054C942.692 269.054 941.158 270.23 941.158 271.892C941.158 273.247 941.964 274.155 943.766 274.577L945.402 274.96C946.393 275.19 946.86 275.663 946.86 276.341C946.86 277.185 945.965 277.875 944.559 277.875C943.325 277.875 942.552 277.344 942.283 276.29L940.851 276.648C941.203 278.316 942.577 279.205 944.584 279.205C946.866 279.205 948.419 277.958 948.419 276.264C948.419 274.896 947.563 274.033 945.812 273.605L944.354 273.247C943.191 272.96 942.667 272.57 942.667 271.815C942.667 270.972 943.562 270.358 944.763 270.358C946.08 270.358 946.623 271.087 946.885 271.764L948.241 271.381Z" fill="#18191F"/>
<rect x="1115.5" y="112" width="64" height="64" rx="32" fill="#F4F5F7"/>
<path d="M1156.5 156H1147.5C1147.23 156 1146.98 155.895 1146.79 155.707C1146.61 155.52 1146.5 155.265 1146.5 155V153C1146.5 152.735 1146.61 152.48 1146.79 152.293C1146.98 152.105 1147.23 152 1147.5 152H1156.5C1156.77 152 1157.02 152.105 1157.21 152.293C1157.39 152.48 1157.5 152.735 1157.5 153V155C1157.5 155.265 1157.39 155.52 1157.21 155.707C1157.02 155.895 1156.77 156 1156.5 156Z" fill="#FBC171"/>
<path d="M1156.5 132H1138.5C1138.23 132 1137.98 132.105 1137.79 132.293C1137.61 132.48 1137.5 132.735 1137.5 133V135C1137.5 135.265 1137.61 135.52 1137.79 135.707C1137.98 135.895 1138.23 136 1138.5 136H1156.5C1156.77 136 1157.02 135.895 1157.21 135.707C1157.39 135.52 1157.5 135.265 1157.5 135V133C1157.5 132.735 1157.39 132.48 1157.21 132.293C1157.02 132.105 1156.77 132 1156.5 132Z" fill="#FC8E9E"/>
<path d="M1156.5 138H1138.5C1138.23 138 1137.98 138.105 1137.79 138.293C1137.61 138.48 1137.5 138.735 1137.5 139V149C1137.5 149.265 1137.61 149.52 1137.79 149.707C1137.98 149.895 1138.23 150 1138.5 150H1156.5C1156.77 150 1157.02 149.895 1157.21 149.707C1157.39 149.52 1157.5 149.265 1157.5 149V139C1157.5 138.735 1157.39 138.48 1157.21 138.293C1157.02 138.105 1156.77 138 1156.5 138Z" fill="#F8A026"/>
<path d="M1086.18 241H1112.02V234.199H1097.88V233.977L1102.05 230.125C1109.62 223.528 1111.6 220.17 1111.6 216.165C1111.6 209.875 1106.47 205.614 1098.54 205.614C1090.82 205.614 1085.65 210.062 1085.67 217.17H1093.67C1093.67 214.017 1095.61 212.193 1098.51 212.193C1101.35 212.193 1103.42 213.949 1103.42 216.83C1103.42 219.438 1101.78 221.21 1098.92 223.784L1086.18 234.932V241ZM1130.16 241.477C1138.29 241.477 1143.71 236.364 1143.71 229.17C1143.71 222.523 1139.07 217.784 1132.8 217.784C1129.49 217.784 1126.75 219.199 1125.59 221.125H1125.38L1126.18 212.892H1141.64V206.091H1119.25L1117.73 224.909L1125.18 226.307C1126.12 224.739 1128.06 223.767 1130.11 223.784C1133.31 223.784 1135.59 226.051 1135.58 229.409C1135.59 232.75 1133.34 235 1130.16 235C1127.45 235 1125.21 233.312 1125.09 230.739H1116.91C1117.01 237.011 1122.52 241.477 1130.16 241.477ZM1148.41 241H1156.85V231.54L1160.22 227.278L1168.91 241H1179L1166.41 221.67L1178.78 206.091H1168.85L1157.31 220.852H1156.85V206.091H1148.41V241ZM1191.48 235.955H1198.35V227.057H1207.24V220.188H1198.35V211.273H1191.48V220.188H1182.56V227.057H1191.48V235.955Z" fill="#E65B6F"/>
<path d="M1090.54 269.182H1092.07C1092 267.207 1090.18 265.73 1087.65 265.73C1085.14 265.73 1083.17 267.188 1083.17 269.386C1083.17 271.151 1084.45 272.199 1086.5 272.787L1088.11 273.247C1089.49 273.631 1090.72 274.116 1090.72 275.42C1090.72 276.852 1089.34 277.798 1087.52 277.798C1085.96 277.798 1084.58 277.108 1084.45 275.625H1082.82C1082.97 277.773 1084.71 279.23 1087.52 279.23C1090.54 279.23 1092.25 277.568 1092.25 275.446C1092.25 272.991 1089.92 272.199 1088.57 271.841L1087.24 271.483C1086.27 271.227 1084.71 270.716 1084.71 269.31C1084.71 268.057 1085.86 267.136 1087.6 267.136C1089.18 267.136 1090.38 267.891 1090.54 269.182ZM1098.77 279.205C1100.76 279.205 1102.22 278.207 1102.68 276.724L1101.22 276.315C1100.84 277.338 1099.95 277.849 1098.77 277.849C1097 277.849 1095.78 276.705 1095.71 274.602H1102.83V273.963C1102.83 270.307 1100.66 269.054 1098.62 269.054C1095.96 269.054 1094.19 271.151 1094.19 274.168C1094.19 277.185 1095.93 279.205 1098.77 279.205ZM1095.71 273.298C1095.81 271.771 1096.89 270.409 1098.62 270.409C1100.25 270.409 1101.3 271.636 1101.3 273.298H1095.71ZM1106.64 273.094C1106.64 271.381 1107.7 270.409 1109.14 270.409C1110.54 270.409 1111.39 271.323 1111.39 272.864V279H1112.9V272.761C1112.9 270.256 1111.57 269.054 1109.58 269.054C1108.09 269.054 1107.17 269.719 1106.71 270.716H1106.59V269.182H1105.13V279H1106.64V273.094ZM1119.93 269.182H1117.83V266.83H1116.32V269.182H1114.84V270.46H1116.32V276.597C1116.32 278.31 1117.7 279.128 1118.98 279.128C1119.54 279.128 1119.9 279.026 1120.11 278.949L1119.8 277.594C1119.67 277.619 1119.47 277.67 1119.14 277.67C1118.47 277.67 1117.83 277.466 1117.83 276.188V270.46H1119.93V269.182ZM1127.46 265.909V279H1128.95V269.054H1129.07L1133.17 279H1134.6L1138.69 269.054H1138.82V279H1140.3V265.909H1138.41L1133.96 276.776H1133.81L1129.36 265.909H1127.46ZM1147.39 279.205C1149.38 279.205 1150.84 278.207 1151.3 276.724L1149.84 276.315C1149.46 277.338 1148.57 277.849 1147.39 277.849C1145.62 277.849 1144.4 276.705 1144.33 274.602H1151.46V273.963C1151.46 270.307 1149.28 269.054 1147.24 269.054C1144.58 269.054 1142.81 271.151 1142.81 274.168C1142.81 277.185 1144.55 279.205 1147.39 279.205ZM1144.33 273.298C1144.43 271.771 1145.51 270.409 1147.24 270.409C1148.87 270.409 1149.92 271.636 1149.92 273.298H1144.33ZM1160.7 271.381C1160.23 269.987 1159.17 269.054 1157.23 269.054C1155.16 269.054 1153.62 270.23 1153.62 271.892C1153.62 273.247 1154.43 274.155 1156.23 274.577L1157.87 274.96C1158.86 275.19 1159.32 275.663 1159.32 276.341C1159.32 277.185 1158.43 277.875 1157.02 277.875C1155.79 277.875 1155.02 277.344 1154.75 276.29L1153.32 276.648C1153.67 278.316 1155.04 279.205 1157.05 279.205C1159.33 279.205 1160.88 277.958 1160.88 276.264C1160.88 274.896 1160.03 274.033 1158.28 273.605L1156.82 273.247C1155.65 272.96 1155.13 272.57 1155.13 271.815C1155.13 270.972 1156.03 270.358 1157.23 270.358C1158.54 270.358 1159.09 271.087 1159.35 271.764L1160.7 271.381ZM1170.11 271.381C1169.64 269.987 1168.57 269.054 1166.63 269.054C1164.56 269.054 1163.03 270.23 1163.03 271.892C1163.03 273.247 1163.83 274.155 1165.63 274.577L1167.27 274.96C1168.26 275.19 1168.73 275.663 1168.73 276.341C1168.73 277.185 1167.83 277.875 1166.43 277.875C1165.19 277.875 1164.42 277.344 1164.15 276.29L1162.72 276.648C1163.07 278.316 1164.45 279.205 1166.45 279.205C1168.73 279.205 1170.29 277.958 1170.29 276.264C1170.29 274.896 1169.43 274.033 1167.68 273.605L1166.22 273.247C1165.06 272.96 1164.53 272.57 1164.53 271.815C1164.53 270.972 1165.43 270.358 1166.63 270.358C1167.95 270.358 1168.49 271.087 1168.75 271.764L1170.11 271.381ZM1176.27 279.205C1178.16 279.205 1178.8 278.028 1179.13 277.491H1179.31V279H1180.77V269.182H1179.26V270.741H1179.13C1178.8 270.23 1178.21 269.054 1176.29 269.054C1173.81 269.054 1172.1 271.023 1172.1 274.116C1172.1 277.236 1173.81 279.205 1176.27 279.205ZM1176.47 277.849C1174.58 277.849 1173.61 276.188 1173.61 274.091C1173.61 272.02 1174.55 270.409 1176.47 270.409C1178.31 270.409 1179.28 271.892 1179.28 274.091C1179.28 276.315 1178.29 277.849 1176.47 277.849ZM1187.7 282.886C1190.05 282.886 1191.95 281.812 1191.95 279.281V269.182H1190.49V270.741H1190.33C1190 270.23 1189.39 269.054 1187.47 269.054C1184.99 269.054 1183.28 271.023 1183.28 274.04C1183.28 277.108 1185.07 278.847 1187.45 278.847C1189.36 278.847 1189.98 277.722 1190.31 277.185H1190.44V279.179C1190.44 280.815 1189.29 281.557 1187.7 281.557C1185.92 281.557 1185.29 280.617 1184.89 280.074L1183.69 280.918C1184.3 281.947 1185.51 282.886 1187.7 282.886ZM1187.65 277.491C1185.76 277.491 1184.79 276.06 1184.79 274.014C1184.79 272.02 1185.73 270.409 1187.65 270.409C1189.49 270.409 1190.46 271.892 1190.46 274.014C1190.46 276.188 1189.47 277.491 1187.65 277.491ZM1198.82 279.205C1200.82 279.205 1202.28 278.207 1202.74 276.724L1201.28 276.315C1200.89 277.338 1200.01 277.849 1198.82 277.849C1197.05 277.849 1195.83 276.705 1195.76 274.602H1202.89V273.963C1202.89 270.307 1200.72 269.054 1198.67 269.054C1196.01 269.054 1194.25 271.151 1194.25 274.168C1194.25 277.185 1195.99 279.205 1198.82 279.205ZM1195.76 273.298C1195.86 271.771 1196.94 270.409 1198.67 270.409C1200.31 270.409 1201.35 271.636 1201.35 273.298H1195.76ZM1212.14 271.381C1211.66 269.987 1210.6 269.054 1208.66 269.054C1206.59 269.054 1205.06 270.23 1205.06 271.892C1205.06 273.247 1205.86 274.155 1207.66 274.577L1209.3 274.96C1210.29 275.19 1210.76 275.663 1210.76 276.341C1210.76 277.185 1209.86 277.875 1208.46 277.875C1207.22 277.875 1206.45 277.344 1206.18 276.29L1204.75 276.648C1205.1 278.316 1206.47 279.205 1208.48 279.205C1210.76 279.205 1212.32 277.958 1212.32 276.264C1212.32 274.896 1211.46 274.033 1209.71 273.605L1208.25 273.247C1207.09 272.96 1206.56 272.57 1206.56 271.815C1206.56 270.972 1207.46 270.358 1208.66 270.358C1209.98 270.358 1210.52 271.087 1210.78 271.764L1212.14 271.381Z" fill="#18191F"/>
</g>
<defs>
<filter id="filter0_d" x="145" y="70" width="1150" height="280" filterUnits="userSpaceOnUse" color-interpolation-filters="sRGB">
<feFlood flood-opacity="0" result="BackgroundImageFix"/>
<feColorMatrix in="SourceAlpha" type="matrix" values="0 0 0 0 0 0 0 0 0 0 0 0 0 0 0 0 0 0 127 0" result="hardAlpha"/>
<feOffset dy="10"/>
<feGaussianBlur stdDeviation="10"/>
<feColorMatrix type="matrix" values="0 0 0 0 0.988235 0 0 0 0 0.572549 0 0 0 0 0.607843 0 0 0 0.25 0"/>
<feBlend mode="normal" in2="BackgroundImageFix" result="effect1_dropShadow"/>
<feBlend mode="normal" in="SourceGraphic" in2="effect1_dropShadow" result="shape"/>
</filter>
<linearGradient id="paint0_linear" x1="33.3282" y1="-25.8185" x2="81.4512" y2="431.051" gradientUnits="userSpaceOnUse">
<stop stop-color="#F9CF6B"/>
<stop offset="0.135417" stop-color="#FBC36E"/>
<stop offset="0.307292" stop-color="#FBB67B"/>
<stop offset="0.583333" stop-color="#FC929B"/>
<stop offset="0.786458" stop-color="#FC8AA0"/>
<stop offset="1" stop-color="#FC76B0"/>
</linearGradient>
<clipPath id="clip0">
<rect width="24" height="24" fill="white" transform="translate(280.5 132)"/>
</clipPath>
</defs>
</svg>
